<svg width="153.797mm" height="127.842mm" viewBox="0 0 153.797 127.842" xmlns="http://www.w3.org/2000/svg"><g id="svgGroup" stroke-linecap="round" fill-rule="evenodd" font-size="9pt" stroke="#000" stroke-width="0.25mm" fill="none" style="stroke:#000;stroke-width:0.25mm;fill:none"><path d="M 140.008 90.734 L 153.797 102.304 L 132.368 127.842 L 118.579 116.272 L 140.008 90.734 Z M 88.621 86.131 L 105.535 92.288 L 99.379 109.202 L 82.465 103.046 L 88.621 86.131 Z M 95.119 68.277 L 112.034 74.433 L 105.877 91.348 L 88.963 85.192 L 95.119 68.277 Z M 0 50.667 L 18 50.667 L 18 68.667 L 0 68.667 L 0 50.667 Z M 0 31.667 L 18 31.667 L 18 49.667 L 0 49.667 L 0 31.667 Z M 19 50.667 L 37 50.667 L 37 68.667 L 19 68.667 L 19 50.667 Z M 19 31.667 L 37 31.667 L 37 49.667 L 19 49.667 L 19 31.667 Z M 19 12.667 L 37 12.667 L 37 30.667 L 19 30.667 L 19 12.667 Z M 38 44.333 L 56 44.333 L 56 62.333 L 38 62.333 L 38 44.333 Z M 38 25.333 L 56 25.333 L 56 43.333 L 38 43.333 L 38 25.333 Z M 38 6.333 L 56 6.333 L 56 24.333 L 38 24.333 L 38 6.333 Z M 57 38 L 75 38 L 75 56 L 57 56 L 57 38 Z M 57 19 L 75 19 L 75 37 L 57 37 L 57 19 Z M 57 0 L 75 0 L 75 18 L 57 18 L 57 0 Z M 76 44.333 L 94 44.333 L 94 62.333 L 76 62.333 L 76 44.333 Z M 76 25.333 L 94 25.333 L 94 43.333 L 76 43.333 L 76 25.333 Z M 76 6.333 L 94 6.333 L 94 24.333 L 76 24.333 L 76 6.333 Z M 95 44.333 L 113 44.333 L 113 62.333 L 95 62.333 L 95 44.333 Z M 95 25.333 L 113 25.333 L 113 43.333 L 95 43.333 L 95 25.333 Z M 95 6.333 L 113 6.333 L 113 24.333 L 95 24.333 L 95 6.333 Z M 109.982 92.534 L 125.57 101.534 L 116.57 117.122 L 100.982 108.122 L 109.982 92.534 Z M 119.482 76.079 L 135.07 85.079 L 126.07 100.668 L 110.482 91.668 L 119.482 76.079 Z" vector-effect="non-scaling-stroke"/></g></svg>