<svg width="148.591mm" height="115.137mm" viewBox="0 0 148.591 115.137" xmlns="http://www.w3.org/2000/svg"><g id="svgGroup" stroke-linecap="round" fill-rule="evenodd" font-size="9pt" stroke="#000" stroke-width="0.25mm" fill="none" style="stroke:#000;stroke-width:0.25mm;fill:none"><path d="M 131.677 73.178 L 148.591 79.335 L 135.56 115.137 L 118.646 108.981 L 131.677 73.178 Z M 106.562 68.666 L 124.288 71.792 L 121.163 89.518 L 103.436 86.392 L 106.562 68.666 Z M 103.262 87.377 L 120.989 90.503 L 117.863 108.23 L 100.137 105.104 L 103.262 87.377 Z M 81 88.667 L 99 88.667 L 99 106.667 L 81 106.667 L 81 88.667 Z M 0 50.667 L 18 50.667 L 18 68.667 L 0 68.667 L 0 50.667 Z M 0 31.667 L 18 31.667 L 18 49.667 L 0 49.667 L 0 31.667 Z M 19 50.667 L 37 50.667 L 37 68.667 L 19 68.667 L 19 50.667 Z M 19 31.667 L 37 31.667 L 37 49.667 L 19 49.667 L 19 31.667 Z M 19 12.667 L 37 12.667 L 37 30.667 L 19 30.667 L 19 12.667 Z M 38 44.333 L 56 44.333 L 56 62.333 L 38 62.333 L 38 44.333 Z M 38 25.333 L 56 25.333 L 56 43.333 L 38 43.333 L 38 25.333 Z M 38 6.333 L 56 6.333 L 56 24.333 L 38 24.333 L 38 6.333 Z M 57 38 L 75 38 L 75 56 L 57 56 L 57 38 Z M 57 19 L 75 19 L 75 37 L 57 37 L 57 19 Z M 57 0 L 75 0 L 75 18 L 57 18 L 57 0 Z M 76 44.333 L 94 44.333 L 94 62.333 L 76 62.333 L 76 44.333 Z M 76 25.333 L 94 25.333 L 94 43.333 L 76 43.333 L 76 25.333 Z M 76 6.333 L 94 6.333 L 94 24.333 L 76 24.333 L 76 6.333 Z M 95 44.333 L 113 44.333 L 113 62.333 L 95 62.333 L 95 44.333 Z M 95 25.333 L 113 25.333 L 113 43.333 L 95 43.333 L 95 25.333 Z M 95 6.333 L 113 6.333 L 113 24.333 L 95 24.333 L 95 6.333 Z M 81 69.667 L 99 69.667 L 99 87.667 L 81 87.667 L 81 69.667 Z" vector-effect="non-scaling-stroke"/></g></svg>