0
SECTION
2
HEADER
9
$INSUNITS
70
4
0
ENDSEC
0
SECTION
2
TABLES
0
TABLE
2
LTYPE
0
LTYPE
72
65
70
64
2
CONTINUOUS
3
______
73
0
40
0
0
ENDTAB
0
TABLE
2
LAYER
0
ENDTAB
0
ENDSEC
0
SECTION
2
ENTITIES
0
LINE
8
0
10
91
20
109
11
109
21
109
0
LINE
8
0
10
109
20
109
11
109
21
91
0
LINE
8
0
10
109
20
91
11
91
21
91
0
LINE
8
0
10
91
20
91
11
91
21
109
0
LINE
8
0
10
91
20
128
11
109
21
128
0
LINE
8
0
10
109
20
128
11
109
21
110
0
LINE
8
0
10
109
20
110
11
91
21
110
0
LINE
8
0
10
91
20
110
11
91
21
128
0
LINE
8
0
10
110
20
109
11
128
21
109
0
LINE
8
0
10
128
20
109
11
128
21
91
0
LINE
8
0
10
128
20
91
11
110
21
91
0
LINE
8
0
10
110
20
91
11
110
21
109
0
LINE
8
0
10
110
20
128
11
128
21
128
0
LINE
8
0
10
128
20
128
11
128
21
110
0
LINE
8
0
10
128
20
110
11
110
21
110
0
LINE
8
0
10
110
20
110
11
110
21
128
0
LINE
8
0
10
110
20
147
11
128
21
147
0
LINE
8
0
10
128
20
147
11
128
21
129
0
LINE
8
0
10
128
20
129
11
110
21
129
0
LINE
8
0
10
110
20
129
11
110
21
147
0
LINE
8
0
10
129
20
115.3333333
11
147
21
115.3333333
0
LINE
8
0
10
147
20
115.3333333
11
147
21
97.3333333
0
LINE
8
0
10
147
20
97.3333333
11
129
21
97.3333333
0
LINE
8
0
10
129
20
97.3333333
11
129
21
115.3333333
0
LINE
8
0
10
129
20
134.3333333
11
147
21
134.3333333
0
LINE
8
0
10
147
20
134.3333333
11
147
21
116.3333333
0
LINE
8
0
10
147
20
116.3333333
11
129
21
116.3333333
0
LINE
8
0
10
129
20
116.3333333
11
129
21
134.3333333
0
LINE
8
0
10
129
20
153.3333333
11
147
21
153.3333333
0
LINE
8
0
10
147
20
153.3333333
11
147
21
135.3333333
0
LINE
8
0
10
147
20
135.3333333
11
129
21
135.3333333
0
LINE
8
0
10
129
20
135.3333333
11
129
21
153.3333333
0
LINE
8
0
10
148
20
121.6666667
11
166
21
121.6666667
0
LINE
8
0
10
166
20
121.6666667
11
166
21
103.6666667
0
LINE
8
0
10
166
20
103.6666667
11
148
21
103.6666667
0
LINE
8
0
10
148
20
103.6666667
11
148
21
121.6666667
0
LINE
8
0
10
148
20
140.6666667
11
166
21
140.6666667
0
LINE
8
0
10
166
20
140.6666667
11
166
21
122.6666667
0
LINE
8
0
10
166
20
122.6666667
11
148
21
122.6666667
0
LINE
8
0
10
148
20
122.6666667
11
148
21
140.6666667
0
LINE
8
0
10
148
20
159.6666667
11
166
21
159.6666667
0
LINE
8
0
10
166
20
159.6666667
11
166
21
141.6666667
0
LINE
8
0
10
166
20
141.6666667
11
148
21
141.6666667
0
LINE
8
0
10
148
20
141.6666667
11
148
21
159.6666667
0
LINE
8
0
10
167
20
115.3333333
11
185
21
115.3333333
0
LINE
8
0
10
185
20
115.3333333
11
185
21
97.3333333
0
LINE
8
0
10
185
20
97.3333333
11
167
21
97.3333333
0
LINE
8
0
10
167
20
97.3333333
11
167
21
115.3333333
0
LINE
8
0
10
167
20
134.3333333
11
185
21
134.3333333
0
LINE
8
0
10
185
20
134.3333333
11
185
21
116.3333333
0
LINE
8
0
10
185
20
116.3333333
11
167
21
116.3333333
0
LINE
8
0
10
167
20
116.3333333
11
167
21
134.3333333
0
LINE
8
0
10
167
20
153.3333333
11
185
21
153.3333333
0
LINE
8
0
10
185
20
153.3333333
11
185
21
135.3333333
0
LINE
8
0
10
185
20
135.3333333
11
167
21
135.3333333
0
LINE
8
0
10
167
20
135.3333333
11
167
21
153.3333333
0
LINE
8
0
10
186
20
115.3333333
11
204
21
115.3333333
0
LINE
8
0
10
204
20
115.3333333
11
204
21
97.3333333
0
LINE
8
0
10
204
20
97.3333333
11
186
21
97.3333333
0
LINE
8
0
10
186
20
97.3333333
11
186
21
115.3333333
0
LINE
8
0
10
186
20
134.3333333
11
204
21
134.3333333
0
LINE
8
0
10
204
20
134.3333333
11
204
21
116.3333333
0
LINE
8
0
10
204
20
116.3333333
11
186
21
116.3333333
0
LINE
8
0
10
186
20
116.3333333
11
186
21
134.3333333
0
LINE
8
0
10
186
20
153.3333333
11
204
21
153.3333333
0
LINE
8
0
10
204
20
153.3333333
11
204
21
135.3333333
0
LINE
8
0
10
204
20
135.3333333
11
186
21
135.3333333
0
LINE
8
0
10
186
20
135.3333333
11
186
21
153.3333333
0
LINE
8
0
10
172
20
71
11
190
21
71
0
LINE
8
0
10
190
20
71
11
190
21
53
0
LINE
8
0
10
190
20
53
11
172
21
53
0
LINE
8
0
10
172
20
53
11
172
21
71
0
LINE
8
0
10
172
20
90
11
190
21
90
0
LINE
8
0
10
190
20
90
11
190
21
72
0
LINE
8
0
10
190
20
72
11
172
21
72
0
LINE
8
0
10
172
20
72
11
172
21
90
0
LINE
8
0
10
194.2623974
20
72.2893732
11
211.988937
21
69.163706
0
LINE
8
0
10
211.988937
20
69.163706
11
208.8632698
21
51.4371664
0
LINE
8
0
10
208.8632698
20
51.4371664
11
191.1367302
21
54.5628336
0
LINE
8
0
10
191.1367302
20
54.5628336
11
194.2623974
21
72.2893732
0
LINE
8
0
10
197.5617128
20
91.0007205
11
215.2882524
21
87.8750533
0
LINE
8
0
10
215.2882524
20
87.8750533
11
212.1625852
21
70.1485137
0
LINE
8
0
10
212.1625852
20
70.1485137
11
194.4360456
21
73.2741809
0
LINE
8
0
10
194.4360456
20
73.2741809
11
197.5617128
21
91.0007205
0
LINE
8
0
10
222.6769268
20
86.4882824
11
239.591394
21
80.3319198
0
LINE
8
0
10
239.591394
20
80.3319198
11
226.5604266
21
44.529631
0
LINE
8
0
10
226.5604266
20
44.529631
11
209.6459594
21
50.6859936
0
LINE
8
0
10
209.6459594
20
50.6859936
11
222.6769268
21
86.4882824
0
ENDSEC
0
EOF