0
SECTION
2
HEADER
9
$INSUNITS
70
4
0
ENDSEC
0
SECTION
2
TABLES
0
TABLE
2
LTYPE
0
LTYPE
72
65
70
64
2
CONTINUOUS
3
______
73
0
40
0
0
ENDTAB
0
TABLE
2
LAYER
0
ENDTAB
0
ENDSEC
0
SECTION
2
ENTITIES
0
LINE
8
0
10
91
20
-91
11
109
21
-91
0
LINE
8
0
10
109
20
-91
11
109
21
-109
0
LINE
8
0
10
109
20
-109
11
91
21
-109
0
LINE
8
0
10
91
20
-109
11
91
21
-91
0
LINE
8
0
10
91
20
-72
11
109
21
-72
0
LINE
8
0
10
109
20
-72
11
109
21
-90
0
LINE
8
0
10
109
20
-90
11
91
21
-90
0
LINE
8
0
10
91
20
-90
11
91
21
-72
0
LINE
8
0
10
110
20
-91
11
128
21
-91
0
LINE
8
0
10
128
20
-91
11
128
21
-109
0
LINE
8
0
10
128
20
-109
11
110
21
-109
0
LINE
8
0
10
110
20
-109
11
110
21
-91
0
LINE
8
0
10
110
20
-72
11
128
21
-72
0
LINE
8
0
10
128
20
-72
11
128
21
-90
0
LINE
8
0
10
128
20
-90
11
110
21
-90
0
LINE
8
0
10
110
20
-90
11
110
21
-72
0
LINE
8
0
10
110
20
-53
11
128
21
-53
0
LINE
8
0
10
128
20
-53
11
128
21
-71
0
LINE
8
0
10
128
20
-71
11
110
21
-71
0
LINE
8
0
10
110
20
-71
11
110
21
-53
0
LINE
8
0
10
129
20
-84.6666667
11
147
21
-84.6666667
0
LINE
8
0
10
147
20
-84.6666667
11
147
21
-102.6666667
0
LINE
8
0
10
147
20
-102.6666667
11
129
21
-102.6666667
0
LINE
8
0
10
129
20
-102.6666667
11
129
21
-84.6666667
0
LINE
8
0
10
129
20
-65.6666667
11
147
21
-65.6666667
0
LINE
8
0
10
147
20
-65.6666667
11
147
21
-83.6666667
0
LINE
8
0
10
147
20
-83.6666667
11
129
21
-83.6666667
0
LINE
8
0
10
129
20
-83.6666667
11
129
21
-65.6666667
0
LINE
8
0
10
129
20
-46.6666667
11
147
21
-46.6666667
0
LINE
8
0
10
147
20
-46.6666667
11
147
21
-64.6666667
0
LINE
8
0
10
147
20
-64.6666667
11
129
21
-64.6666667
0
LINE
8
0
10
129
20
-64.6666667
11
129
21
-46.6666667
0
LINE
8
0
10
148
20
-78.3333333
11
166
21
-78.3333333
0
LINE
8
0
10
166
20
-78.3333333
11
166
21
-96.3333333
0
LINE
8
0
10
166
20
-96.3333333
11
148
21
-96.3333333
0
LINE
8
0
10
148
20
-96.3333333
11
148
21
-78.3333333
0
LINE
8
0
10
148
20
-59.3333333
11
166
21
-59.3333333
0
LINE
8
0
10
166
20
-59.3333333
11
166
21
-77.3333333
0
LINE
8
0
10
166
20
-77.3333333
11
148
21
-77.3333333
0
LINE
8
0
10
148
20
-77.3333333
11
148
21
-59.3333333
0
LINE
8
0
10
148
20
-40.3333333
11
166
21
-40.3333333
0
LINE
8
0
10
166
20
-40.3333333
11
166
21
-58.3333333
0
LINE
8
0
10
166
20
-58.3333333
11
148
21
-58.3333333
0
LINE
8
0
10
148
20
-58.3333333
11
148
21
-40.3333333
0
LINE
8
0
10
167
20
-84.6666667
11
185
21
-84.6666667
0
LINE
8
0
10
185
20
-84.6666667
11
185
21
-102.6666667
0
LINE
8
0
10
185
20
-102.6666667
11
167
21
-102.6666667
0
LINE
8
0
10
167
20
-102.6666667
11
167
21
-84.6666667
0
LINE
8
0
10
167
20
-65.6666667
11
185
21
-65.6666667
0
LINE
8
0
10
185
20
-65.6666667
11
185
21
-83.6666667
0
LINE
8
0
10
185
20
-83.6666667
11
167
21
-83.6666667
0
LINE
8
0
10
167
20
-83.6666667
11
167
21
-65.6666667
0
LINE
8
0
10
167
20
-46.6666667
11
185
21
-46.6666667
0
LINE
8
0
10
185
20
-46.6666667
11
185
21
-64.6666667
0
LINE
8
0
10
185
20
-64.6666667
11
167
21
-64.6666667
0
LINE
8
0
10
167
20
-64.6666667
11
167
21
-46.6666667
0
LINE
8
0
10
186
20
-84.6666667
11
204
21
-84.6666667
0
LINE
8
0
10
204
20
-84.6666667
11
204
21
-102.6666667
0
LINE
8
0
10
204
20
-102.6666667
11
186
21
-102.6666667
0
LINE
8
0
10
186
20
-102.6666667
11
186
21
-84.6666667
0
LINE
8
0
10
186
20
-65.6666667
11
204
21
-65.6666667
0
LINE
8
0
10
204
20
-65.6666667
11
204
21
-83.6666667
0
LINE
8
0
10
204
20
-83.6666667
11
186
21
-83.6666667
0
LINE
8
0
10
186
20
-83.6666667
11
186
21
-65.6666667
0
LINE
8
0
10
186
20
-46.6666667
11
204
21
-46.6666667
0
LINE
8
0
10
204
20
-46.6666667
11
204
21
-64.6666667
0
LINE
8
0
10
204
20
-64.6666667
11
186
21
-64.6666667
0
LINE
8
0
10
186
20
-64.6666667
11
186
21
-46.6666667
0
LINE
8
0
10
179.6209477
20
-126.4645851
11
196.5354149
21
-132.6209477
0
LINE
8
0
10
196.5354149
20
-132.6209477
11
190.3790523
21
-149.5354149
0
LINE
8
0
10
190.3790523
20
-149.5354149
11
173.4645851
21
-143.3790523
0
LINE
8
0
10
173.4645851
20
-143.3790523
11
179.6209477
21
-126.4645851
0
LINE
8
0
10
186.1193304
20
-108.6104253
11
203.0337976
21
-114.7667879
0
LINE
8
0
10
203.0337976
20
-114.7667879
11
196.877435
21
-131.6812551
0
LINE
8
0
10
196.877435
20
-131.6812551
11
179.9629678
21
-125.5248925
0
LINE
8
0
10
179.9629678
20
-125.5248925
11
186.1193304
21
-108.6104253
0
LINE
8
0
10
200.9817499
20
-132.8671591
11
216.5702071
21
-141.8671591
0
LINE
8
0
10
216.5702071
20
-141.8671591
11
207.5702071
21
-157.4556163
0
LINE
8
0
10
207.5702071
20
-157.4556163
11
191.9817499
21
-148.4556163
0
LINE
8
0
10
191.9817499
20
-148.4556163
11
200.9817499
21
-132.8671591
0
LINE
8
0
10
210.4817499
20
-116.4126764
11
226.0702071
21
-125.4126764
0
LINE
8
0
10
226.0702071
20
-125.4126764
11
217.0702071
21
-141.0011336
0
LINE
8
0
10
217.0702071
20
-141.0011336
11
201.4817499
21
-132.0011336
0
LINE
8
0
10
201.4817499
20
-132.0011336
11
210.4817499
21
-116.4126764
0
LINE
8
0
10
231.0083486
20
-131.0670335
11
244.7971486
21
-142.6372105
0
LINE
8
0
10
244.7971486
20
-142.6372105
11
223.3682166
21
-168.1752171
0
LINE
8
0
10
223.3682166
20
-168.1752171
11
209.5794166
21
-156.6050401
0
LINE
8
0
10
209.5794166
20
-156.6050401
11
231.0083486
21
-131.0670335
0
ENDSEC
0
EOF