<svg xmlns="http://www.w3.org/2000/svg" viewBox="0 0 1198.92 455.31">
  <style>
    .key-bg { fill: #f5f5f5; stroke: #d4d4d4; stroke-width: 1; }
    .key-index { fill: #171717; font-family: ui-monospace, SFMono-Regular, "SF Mono", Menlo, Consolas, "Liberation Mono", monospace; font-weight: 700; text-anchor: middle; dominant-baseline: central; }
    .key-part { font-family: system-ui, -apple-system, BlinkMacSystemFont, "Segoe UI", Roboto, sans-serif; text-anchor: middle; dominant-baseline: central; }
    @media (prefers-color-scheme: dark) {
      .key-bg { fill: #2a2a2a; stroke: #404040; }
      .key-index { fill: #e5e5e5; }
    }
    .key-bg.part-0 { stroke: #f59e0b; }
    .key-part.part-0 { fill: #f59e0b; }
    .key-bg.part-1 { stroke: #14b8a6; }
    .key-part.part-1 { fill: #14b8a6; }
  </style>
  <g>
    <path class="key-bg part-0" d="M 26.00,68.69 L 84.00,68.69 Q 88.00,68.69 88.00,72.69 L 88.00,130.69 Q 88.00,134.69 84.00,134.69 L 26.00,134.69 Q 22.00,134.69 22.00,130.69 L 22.00,72.69 Q 22.00,68.69 26.00,68.69 Z" />
    <path class="key-bg part-0" d="M 96.00,68.69 L 154.00,68.69 Q 158.00,68.69 158.00,72.69 L 158.00,130.69 Q 158.00,134.69 154.00,134.69 L 96.00,134.69 Q 92.00,134.69 92.00,130.69 L 92.00,72.69 Q 92.00,68.69 96.00,68.69 Z" />
    <path class="key-bg part-0" d="M 166.00,45.31 L 224.00,45.31 Q 228.00,45.31 228.00,49.31 L 228.00,107.31 Q 228.00,111.31 224.00,111.31 L 166.00,111.31 Q 162.00,111.31 162.00,107.31 L 162.00,49.31 Q 162.00,45.31 166.00,45.31 Z" />
    <path class="key-bg part-0" d="M 236.00,22.00 L 294.00,22.00 Q 298.00,22.00 298.00,26.00 L 298.00,84.00 Q 298.00,88.00 294.00,88.00 L 236.00,88.00 Q 232.00,88.00 232.00,84.00 L 232.00,26.00 Q 232.00,22.00 236.00,22.00 Z" />
    <path class="key-bg part-0" d="M 306.00,45.31 L 364.00,45.31 Q 368.00,45.31 368.00,49.31 L 368.00,107.31 Q 368.00,111.31 364.00,111.31 L 306.00,111.31 Q 302.00,111.31 302.00,107.31 L 302.00,49.31 Q 302.00,45.31 306.00,45.31 Z" />
    <path class="key-bg part-0" d="M 376.00,45.31 L 434.00,45.31 Q 438.00,45.31 438.00,49.31 L 438.00,107.31 Q 438.00,111.31 434.00,111.31 L 376.00,111.31 Q 372.00,111.31 372.00,107.31 L 372.00,49.31 Q 372.00,45.31 376.00,45.31 Z" />
    <path class="key-bg part-1" d="M 764.92,45.31 L 822.92,45.31 Q 826.92,45.31 826.92,49.31 L 826.92,107.31 Q 826.92,111.31 822.92,111.31 L 764.92,111.31 Q 760.92,111.31 760.92,107.31 L 760.92,49.31 Q 760.92,45.31 764.92,45.31 Z" />
    <path class="key-bg part-1" d="M 834.92,45.31 L 892.92,45.31 Q 896.92,45.31 896.92,49.31 L 896.92,107.31 Q 896.92,111.31 892.92,111.31 L 834.92,111.31 Q 830.92,111.31 830.92,107.31 L 830.92,49.31 Q 830.92,45.31 834.92,45.31 Z" />
    <path class="key-bg part-1" d="M 904.92,22.00 L 962.92,22.00 Q 966.92,22.00 966.92,26.00 L 966.92,84.00 Q 966.92,88.00 962.92,88.00 L 904.92,88.00 Q 900.92,88.00 900.92,84.00 L 900.92,26.00 Q 900.92,22.00 904.92,22.00 Z" />
    <path class="key-bg part-1" d="M 974.92,45.31 L 1032.92,45.31 Q 1036.92,45.31 1036.92,49.31 L 1036.92,107.31 Q 1036.92,111.31 1032.92,111.31 L 974.92,111.31 Q 970.92,111.31 970.92,107.31 L 970.92,49.31 Q 970.92,45.31 974.92,45.31 Z" />
    <path class="key-bg part-1" d="M 1044.92,68.69 L 1102.92,68.69 Q 1106.92,68.69 1106.92,72.69 L 1106.92,130.69 Q 1106.92,134.69 1102.92,134.69 L 1044.92,134.69 Q 1040.92,134.69 1040.92,130.69 L 1040.92,72.69 Q 1040.92,68.69 1044.92,68.69 Z" />
    <path class="key-bg part-1" d="M 1114.92,68.69 L 1172.92,68.69 Q 1176.92,68.69 1176.92,72.69 L 1176.92,130.69 Q 1176.92,134.69 1172.92,134.69 L 1114.92,134.69 Q 1110.92,134.69 1110.92,130.69 L 1110.92,72.69 Q 1110.92,68.69 1114.92,68.69 Z" />
    <path class="key-bg part-0" d="M 26.00,138.69 L 84.00,138.69 Q 88.00,138.69 88.00,142.69 L 88.00,200.69 Q 88.00,204.69 84.00,204.69 L 26.00,204.69 Q 22.00,204.69 22.00,200.69 L 22.00,142.69 Q 22.00,138.69 26.00,138.69 Z" />
    <path class="key-bg part-0" d="M 96.00,138.69 L 154.00,138.69 Q 158.00,138.69 158.00,142.69 L 158.00,200.69 Q 158.00,204.69 154.00,204.69 L 96.00,204.69 Q 92.00,204.69 92.00,200.69 L 92.00,142.69 Q 92.00,138.69 96.00,138.69 Z" />
    <path class="key-bg part-0" d="M 166.00,115.31 L 224.00,115.31 Q 228.00,115.31 228.00,119.31 L 228.00,177.31 Q 228.00,181.31 224.00,181.31 L 166.00,181.31 Q 162.00,181.31 162.00,177.31 L 162.00,119.31 Q 162.00,115.31 166.00,115.31 Z" />
    <path class="key-bg part-0" d="M 236.00,92.00 L 294.00,92.00 Q 298.00,92.00 298.00,96.00 L 298.00,154.00 Q 298.00,158.00 294.00,158.00 L 236.00,158.00 Q 232.00,158.00 232.00,154.00 L 232.00,96.00 Q 232.00,92.00 236.00,92.00 Z" />
    <path class="key-bg part-0" d="M 306.00,115.31 L 364.00,115.31 Q 368.00,115.31 368.00,119.31 L 368.00,177.31 Q 368.00,181.31 364.00,181.31 L 306.00,181.31 Q 302.00,181.31 302.00,177.31 L 302.00,119.31 Q 302.00,115.31 306.00,115.31 Z" />
    <path class="key-bg part-0" d="M 376.00,115.31 L 434.00,115.31 Q 438.00,115.31 438.00,119.31 L 438.00,177.31 Q 438.00,181.31 434.00,181.31 L 376.00,181.31 Q 372.00,181.31 372.00,177.31 L 372.00,119.31 Q 372.00,115.31 376.00,115.31 Z" />
    <path class="key-bg part-1" d="M 764.92,115.31 L 822.92,115.31 Q 826.92,115.31 826.92,119.31 L 826.92,177.31 Q 826.92,181.31 822.92,181.31 L 764.92,181.31 Q 760.92,181.31 760.92,177.31 L 760.92,119.31 Q 760.92,115.31 764.92,115.31 Z" />
    <path class="key-bg part-1" d="M 834.92,115.31 L 892.92,115.31 Q 896.92,115.31 896.92,119.31 L 896.92,177.31 Q 896.92,181.31 892.92,181.31 L 834.92,181.31 Q 830.92,181.31 830.92,177.31 L 830.92,119.31 Q 830.92,115.31 834.92,115.31 Z" />
    <path class="key-bg part-1" d="M 904.92,92.00 L 962.92,92.00 Q 966.92,92.00 966.92,96.00 L 966.92,154.00 Q 966.92,158.00 962.92,158.00 L 904.92,158.00 Q 900.92,158.00 900.92,154.00 L 900.92,96.00 Q 900.92,92.00 904.92,92.00 Z" />
    <path class="key-bg part-1" d="M 974.92,115.31 L 1032.92,115.31 Q 1036.92,115.31 1036.92,119.31 L 1036.92,177.31 Q 1036.92,181.31 1032.92,181.31 L 974.92,181.31 Q 970.92,181.31 970.92,177.31 L 970.92,119.31 Q 970.92,115.31 974.92,115.31 Z" />
    <path class="key-bg part-1" d="M 1044.92,138.69 L 1102.92,138.69 Q 1106.92,138.69 1106.92,142.69 L 1106.92,200.69 Q 1106.92,204.69 1102.92,204.69 L 1044.92,204.69 Q 1040.92,204.69 1040.92,200.69 L 1040.92,142.69 Q 1040.92,138.69 1044.92,138.69 Z" />
    <path class="key-bg part-1" d="M 1114.92,138.69 L 1172.92,138.69 Q 1176.92,138.69 1176.92,142.69 L 1176.92,200.69 Q 1176.92,204.69 1172.92,204.69 L 1114.92,204.69 Q 1110.92,204.69 1110.92,200.69 L 1110.92,142.69 Q 1110.92,138.69 1114.92,138.69 Z" />
    <path class="key-bg part-0" d="M 26.00,208.69 L 84.00,208.69 Q 88.00,208.69 88.00,212.69 L 88.00,270.69 Q 88.00,274.69 84.00,274.69 L 26.00,274.69 Q 22.00,274.69 22.00,270.69 L 22.00,212.69 Q 22.00,208.69 26.00,208.69 Z" />
    <path class="key-bg part-0" d="M 96.00,208.69 L 154.00,208.69 Q 158.00,208.69 158.00,212.69 L 158.00,270.69 Q 158.00,274.69 154.00,274.69 L 96.00,274.69 Q 92.00,274.69 92.00,270.69 L 92.00,212.69 Q 92.00,208.69 96.00,208.69 Z" />
    <path class="key-bg part-0" d="M 166.00,185.31 L 224.00,185.31 Q 228.00,185.31 228.00,189.31 L 228.00,247.31 Q 228.00,251.31 224.00,251.31 L 166.00,251.31 Q 162.00,251.31 162.00,247.31 L 162.00,189.31 Q 162.00,185.31 166.00,185.31 Z" />
    <path class="key-bg part-0" d="M 236.00,162.00 L 294.00,162.00 Q 298.00,162.00 298.00,166.00 L 298.00,224.00 Q 298.00,228.00 294.00,228.00 L 236.00,228.00 Q 232.00,228.00 232.00,224.00 L 232.00,166.00 Q 232.00,162.00 236.00,162.00 Z" />
    <path class="key-bg part-0" d="M 306.00,185.31 L 364.00,185.31 Q 368.00,185.31 368.00,189.31 L 368.00,247.31 Q 368.00,251.31 364.00,251.31 L 306.00,251.31 Q 302.00,251.31 302.00,247.31 L 302.00,189.31 Q 302.00,185.31 306.00,185.31 Z" />
    <path class="key-bg part-0" d="M 376.00,185.31 L 434.00,185.31 Q 438.00,185.31 438.00,189.31 L 438.00,247.31 Q 438.00,251.31 434.00,251.31 L 376.00,251.31 Q 372.00,251.31 372.00,247.31 L 372.00,189.31 Q 372.00,185.31 376.00,185.31 Z" />
    <path class="key-bg part-1" d="M 764.92,185.31 L 822.92,185.31 Q 826.92,185.31 826.92,189.31 L 826.92,247.31 Q 826.92,251.31 822.92,251.31 L 764.92,251.31 Q 760.92,251.31 760.92,247.31 L 760.92,189.31 Q 760.92,185.31 764.92,185.31 Z" />
    <path class="key-bg part-1" d="M 834.92,185.31 L 892.92,185.31 Q 896.92,185.31 896.92,189.31 L 896.92,247.31 Q 896.92,251.31 892.92,251.31 L 834.92,251.31 Q 830.92,251.31 830.92,247.31 L 830.92,189.31 Q 830.92,185.31 834.92,185.31 Z" />
    <path class="key-bg part-1" d="M 904.92,162.00 L 962.92,162.00 Q 966.92,162.00 966.92,166.00 L 966.92,224.00 Q 966.92,228.00 962.92,228.00 L 904.92,228.00 Q 900.92,228.00 900.92,224.00 L 900.92,166.00 Q 900.92,162.00 904.92,162.00 Z" />
    <path class="key-bg part-1" d="M 974.92,185.31 L 1032.92,185.31 Q 1036.92,185.31 1036.92,189.31 L 1036.92,247.31 Q 1036.92,251.31 1032.92,251.31 L 974.92,251.31 Q 970.92,251.31 970.92,247.31 L 970.92,189.31 Q 970.92,185.31 974.92,185.31 Z" />
    <path class="key-bg part-1" d="M 1044.92,208.69 L 1102.92,208.69 Q 1106.92,208.69 1106.92,212.69 L 1106.92,270.69 Q 1106.92,274.69 1102.92,274.69 L 1044.92,274.69 Q 1040.92,274.69 1040.92,270.69 L 1040.92,212.69 Q 1040.92,208.69 1044.92,208.69 Z" />
    <path class="key-bg part-1" d="M 1114.92,208.69 L 1172.92,208.69 Q 1176.92,208.69 1176.92,212.69 L 1176.92,270.69 Q 1176.92,274.69 1172.92,274.69 L 1114.92,274.69 Q 1110.92,274.69 1110.92,270.69 L 1110.92,212.69 Q 1110.92,208.69 1114.92,208.69 Z" />
    <path class="key-bg part-0" d="M 342.76,265.90 L 399.88,275.97 Q 403.82,276.66 403.12,280.60 L 393.05,337.72 Q 392.36,341.66 388.42,340.96 L 331.30,330.89 Q 327.36,330.20 328.06,326.26 L 338.13,269.14 Q 338.82,265.20 342.76,265.90 Z" />
    <path class="key-bg part-0" d="M 435.94,279.30 L 490.44,299.14 Q 494.20,300.51 492.83,304.27 L 472.99,358.77 Q 471.62,362.53 467.86,361.16 L 413.36,341.32 Q 409.60,339.95 410.97,336.19 L 430.81,281.69 Q 432.18,277.93 435.94,279.30 Z" />
    <path class="key-bg part-1" d="M 708.48,299.14 L 762.98,279.30 Q 766.74,277.93 768.11,281.69 L 787.95,336.19 Q 789.32,339.95 785.56,341.32 L 731.06,361.16 Q 727.30,362.53 725.93,358.77 L 706.09,304.27 Q 704.72,300.51 708.48,299.14 Z" />
    <path class="key-bg part-1" d="M 799.04,275.97 L 856.16,265.90 Q 860.10,265.20 860.79,269.14 L 870.86,326.26 Q 871.56,330.20 867.62,330.89 L 810.50,340.96 Q 806.56,341.66 805.87,337.72 L 795.80,280.60 Q 795.10,276.66 799.04,275.97 Z" />
    <path class="key-bg part-0" d="M 330.58,334.78 L 387.70,344.85 Q 391.64,345.54 390.94,349.48 L 380.87,406.60 Q 380.18,410.54 376.24,409.84 L 319.12,399.77 Q 315.18,399.08 315.88,395.14 L 325.95,338.02 Q 326.64,334.08 330.58,334.78 Z" />
    <path class="key-bg part-0" d="M 412.00,345.03 L 466.50,364.87 Q 470.26,366.24 468.89,370.00 L 449.05,424.50 Q 447.68,428.26 443.92,426.89 L 389.42,407.05 Q 385.66,405.68 387.03,401.92 L 406.87,347.42 Q 408.24,343.66 412.00,345.03 Z" />
    <path class="key-bg part-0" d="M 505.31,344.42 L 555.53,373.42 Q 559.00,375.42 557.00,378.89 L 528.00,429.11 Q 526.00,432.58 522.53,430.58 L 472.31,401.58 Q 468.84,399.58 470.84,396.11 L 499.84,345.89 Q 501.84,342.42 505.31,344.42 Z" />
    <path class="key-bg part-1" d="M 643.39,373.42 L 693.61,344.42 Q 697.08,342.42 699.08,345.89 L 728.08,396.11 Q 730.08,399.58 726.61,401.58 L 676.39,430.58 Q 672.92,432.58 670.92,429.11 L 641.92,378.89 Q 639.92,375.42 643.39,373.42 Z" />
    <path class="key-bg part-1" d="M 732.42,364.87 L 786.92,345.03 Q 790.68,343.66 792.05,347.42 L 811.89,401.92 Q 813.26,405.68 809.50,407.05 L 755.00,426.89 Q 751.24,428.26 749.87,424.50 L 730.03,370.00 Q 728.66,366.24 732.42,364.87 Z" />
    <path class="key-bg part-1" d="M 811.22,344.85 L 868.34,334.78 Q 872.28,334.08 872.97,338.02 L 883.04,395.14 Q 883.74,399.08 879.80,399.77 L 822.68,409.84 Q 818.74,410.54 818.05,406.60 L 807.98,349.48 Q 807.28,345.54 811.22,344.85 Z" />
  </g>
  <g>
    <text class="key-index" x="55.00" y="90.05" font-size="26">0</text>
    <text class="key-part part-0" x="55.00" y="117.33" font-size="18">left</text>
    <text class="key-index" x="125.00" y="90.05" font-size="26">1</text>
    <text class="key-part part-0" x="125.00" y="117.33" font-size="18">left</text>
    <text class="key-index" x="195.00" y="66.67" font-size="26">2</text>
    <text class="key-part part-0" x="195.00" y="93.95" font-size="18">left</text>
    <text class="key-index" x="265.00" y="43.36" font-size="26">3</text>
    <text class="key-part part-0" x="265.00" y="70.64" font-size="18">left</text>
    <text class="key-index" x="335.00" y="66.67" font-size="26">4</text>
    <text class="key-part part-0" x="335.00" y="93.95" font-size="18">left</text>
    <text class="key-index" x="405.00" y="66.67" font-size="26">5</text>
    <text class="key-part part-0" x="405.00" y="93.95" font-size="18">left</text>
    <text class="key-index" x="793.92" y="66.67" font-size="26">6</text>
    <text class="key-part part-1" x="793.92" y="93.95" font-size="18">right</text>
    <text class="key-index" x="863.92" y="66.67" font-size="26">7</text>
    <text class="key-part part-1" x="863.92" y="93.95" font-size="18">right</text>
    <text class="key-index" x="933.92" y="43.36" font-size="26">8</text>
    <text class="key-part part-1" x="933.92" y="70.64" font-size="18">right</text>
    <text class="key-index" x="1003.92" y="66.67" font-size="26">9</text>
    <text class="key-part part-1" x="1003.92" y="93.95" font-size="18">right</text>
    <text class="key-index" x="1073.92" y="90.05" font-size="26">10</text>
    <text class="key-part part-1" x="1073.92" y="117.33" font-size="18">right</text>
    <text class="key-index" x="1143.92" y="90.05" font-size="26">11</text>
    <text class="key-part part-1" x="1143.92" y="117.33" font-size="18">right</text>
    <text class="key-index" x="55.00" y="160.05" font-size="26">12</text>
    <text class="key-part part-0" x="55.00" y="187.33" font-size="18">left</text>
    <text class="key-index" x="125.00" y="160.05" font-size="26">13</text>
    <text class="key-part part-0" x="125.00" y="187.33" font-size="18">left</text>
    <text class="key-index" x="195.00" y="136.67" font-size="26">14</text>
    <text class="key-part part-0" x="195.00" y="163.95" font-size="18">left</text>
    <text class="key-index" x="265.00" y="113.36" font-size="26">15</text>
    <text class="key-part part-0" x="265.00" y="140.64" font-size="18">left</text>
    <text class="key-index" x="335.00" y="136.67" font-size="26">16</text>
    <text class="key-part part-0" x="335.00" y="163.95" font-size="18">left</text>
    <text class="key-index" x="405.00" y="136.67" font-size="26">17</text>
    <text class="key-part part-0" x="405.00" y="163.95" font-size="18">left</text>
    <text class="key-index" x="793.92" y="136.67" font-size="26">18</text>
    <text class="key-part part-1" x="793.92" y="163.95" font-size="18">right</text>
    <text class="key-index" x="863.92" y="136.67" font-size="26">19</text>
    <text class="key-part part-1" x="863.92" y="163.95" font-size="18">right</text>
    <text class="key-index" x="933.92" y="113.36" font-size="26">20</text>
    <text class="key-part part-1" x="933.92" y="140.64" font-size="18">right</text>
    <text class="key-index" x="1003.92" y="136.67" font-size="26">21</text>
    <text class="key-part part-1" x="1003.92" y="163.95" font-size="18">right</text>
    <text class="key-index" x="1073.92" y="160.05" font-size="26">22</text>
    <text class="key-part part-1" x="1073.92" y="187.33" font-size="18">right</text>
    <text class="key-index" x="1143.92" y="160.05" font-size="26">23</text>
    <text class="key-part part-1" x="1143.92" y="187.33" font-size="18">right</text>
    <text class="key-index" x="55.00" y="230.05" font-size="26">24</text>
    <text class="key-part part-0" x="55.00" y="257.33" font-size="18">left</text>
    <text class="key-index" x="125.00" y="230.05" font-size="26">25</text>
    <text class="key-part part-0" x="125.00" y="257.33" font-size="18">left</text>
    <text class="key-index" x="195.00" y="206.67" font-size="26">26</text>
    <text class="key-part part-0" x="195.00" y="233.95" font-size="18">left</text>
    <text class="key-index" x="265.00" y="183.36" font-size="26">27</text>
    <text class="key-part part-0" x="265.00" y="210.64" font-size="18">left</text>
    <text class="key-index" x="335.00" y="206.67" font-size="26">28</text>
    <text class="key-part part-0" x="335.00" y="233.95" font-size="18">left</text>
    <text class="key-index" x="405.00" y="206.67" font-size="26">29</text>
    <text class="key-part part-0" x="405.00" y="233.95" font-size="18">left</text>
    <text class="key-index" x="793.92" y="206.67" font-size="26">30</text>
    <text class="key-part part-1" x="793.92" y="233.95" font-size="18">right</text>
    <text class="key-index" x="863.92" y="206.67" font-size="26">31</text>
    <text class="key-part part-1" x="863.92" y="233.95" font-size="18">right</text>
    <text class="key-index" x="933.92" y="183.36" font-size="26">32</text>
    <text class="key-part part-1" x="933.92" y="210.64" font-size="18">right</text>
    <text class="key-index" x="1003.92" y="206.67" font-size="26">33</text>
    <text class="key-part part-1" x="1003.92" y="233.95" font-size="18">right</text>
    <text class="key-index" x="1073.92" y="230.05" font-size="26">34</text>
    <text class="key-part part-1" x="1073.92" y="257.33" font-size="18">right</text>
    <text class="key-index" x="1143.92" y="230.05" font-size="26">35</text>
    <text class="key-part part-1" x="1143.92" y="257.33" font-size="18">right</text>
    <text class="key-index" x="365.59" y="291.79" font-size="26" transform="rotate(10 365.59 303.43)">36</text>
    <text class="key-part part-0" x="365.59" y="319.07" font-size="18" transform="rotate(10 365.59 303.43)">left</text>
    <text class="key-index" x="451.90" y="308.59" font-size="26" transform="rotate(20 451.90 320.23)">37</text>
    <text class="key-part part-0" x="451.90" y="335.87" font-size="18" transform="rotate(20 451.90 320.23)">left</text>
    <text class="key-index" x="747.02" y="308.59" font-size="26" transform="rotate(-20 747.02 320.23)">38</text>
    <text class="key-part part-1" x="747.02" y="335.87" font-size="18" transform="rotate(-20 747.02 320.23)">right</text>
    <text class="key-index" x="833.33" y="291.79" font-size="26" transform="rotate(-10 833.33 303.43)">39</text>
    <text class="key-part part-1" x="833.33" y="319.07" font-size="18" transform="rotate(-10 833.33 303.43)">right</text>
    <text class="key-index" x="353.41" y="360.67" font-size="26" transform="rotate(10 353.41 372.31)">40</text>
    <text class="key-part part-0" x="353.41" y="387.95" font-size="18" transform="rotate(10 353.41 372.31)">left</text>
    <text class="key-index" x="427.96" y="374.32" font-size="26" transform="rotate(20 427.96 385.96)">41</text>
    <text class="key-part part-0" x="427.96" y="401.60" font-size="18" transform="rotate(20 427.96 385.96)">left</text>
    <text class="key-index" x="513.92" y="375.86" font-size="26" transform="rotate(30 513.92 387.50)">42</text>
    <text class="key-part part-0" x="513.92" y="403.14" font-size="18" transform="rotate(30 513.92 387.50)">left</text>
    <text class="key-index" x="685.00" y="375.86" font-size="26" transform="rotate(-30 685.00 387.50)">43</text>
    <text class="key-part part-1" x="685.00" y="403.14" font-size="18" transform="rotate(-30 685.00 387.50)">right</text>
    <text class="key-index" x="770.96" y="374.32" font-size="26" transform="rotate(-20 770.96 385.96)">44</text>
    <text class="key-part part-1" x="770.96" y="401.60" font-size="18" transform="rotate(-20 770.96 385.96)">right</text>
    <text class="key-index" x="845.51" y="360.67" font-size="26" transform="rotate(-10 845.51 372.31)">45</text>
    <text class="key-part part-1" x="845.51" y="387.95" font-size="18" transform="rotate(-10 845.51 372.31)">right</text>
  </g>
</svg>
