%TF.GenerationSoftware,KiCad,Pcbnew,9.0.7*%
%TF.CreationDate,2026-01-24T19:20:25+01:00*%
%TF.ProjectId,legendary-guacamole-PCB,6c656765-6e64-4617-9279-2d6775616361,v1.0.0*%
%TF.SameCoordinates,Original*%
%TF.FileFunction,Legend,Bot*%
%TF.FilePolarity,Positive*%
%FSLAX46Y46*%
G04 Gerber Fmt 4.6, Leading zero omitted, Abs format (unit mm)*
G04 Created by KiCad (PCBNEW 9.0.7) date 2026-01-24 19:20:25*
%MOMM*%
%LPD*%
G01*
G04 APERTURE LIST*
%ADD10C,0.100000*%
%ADD11C,0.127000*%
%ADD12C,0.504000*%
%ADD13C,0.120000*%
G04 APERTURE END LIST*
D10*
%TO.C,U1*%
X223485000Y-65739250D02*
X209515000Y-65739250D01*
X225390000Y-63834250D02*
X225390000Y-46689250D01*
X207610000Y-63834250D02*
X207610000Y-46689250D01*
D11*
X220995000Y-44784250D02*
X220991272Y-43773978D01*
D10*
X209515000Y-44784250D02*
X223485000Y-44784250D01*
D11*
X211996000Y-43774250D02*
X211996000Y-44784250D01*
X220491272Y-43274250D02*
X212496000Y-43274250D01*
D10*
X225390000Y-63834250D02*
G75*
G02*
X223485000Y-65739250I-1905001J1D01*
G01*
X209515000Y-65739250D02*
G75*
G02*
X207610000Y-63834250I1J1905001D01*
G01*
X223485000Y-44780250D02*
G75*
G02*
X225390000Y-46685250I0J-1905000D01*
G01*
X207610000Y-46689250D02*
G75*
G02*
X209515000Y-44784250I1905050J-50D01*
G01*
D11*
X220491272Y-43274250D02*
G75*
G02*
X220991300Y-43773978I28J-500000D01*
G01*
X211996000Y-43774250D02*
G75*
G02*
X212496000Y-43274250I500100J-100D01*
G01*
D12*
X224578000Y-45917250D02*
G75*
G02*
X224074000Y-45917250I-252000J0D01*
G01*
X224074000Y-45917250D02*
G75*
G02*
X224578000Y-45917250I252000J0D01*
G01*
X225852000Y-45200250D02*
G75*
G02*
X225348000Y-45200250I-252000J0D01*
G01*
X225348000Y-45200250D02*
G75*
G02*
X225852000Y-45200250I252000J0D01*
G01*
D13*
%TO.C,D11*%
X154639913Y-72340042D02*
X154639913Y-74340042D01*
D10*
X156253884Y-73340042D02*
X156653884Y-73340042D01*
X156653884Y-73340042D02*
X156653884Y-72790042D01*
X156653884Y-73340042D02*
X156653884Y-73890042D01*
X156653884Y-73340042D02*
X157253884Y-73740042D01*
X157253884Y-72940042D02*
X156653884Y-73340042D01*
X157253884Y-73340042D02*
X157753884Y-73340042D01*
X157253884Y-73740042D02*
X157253884Y-72940042D01*
X157755136Y-73340042D02*
X157355136Y-73340042D01*
D13*
X158649913Y-72340042D02*
X154639913Y-72340042D01*
X158649913Y-74340042D02*
X154639913Y-74340042D01*
%TO.C,D2*%
X97639913Y-85006709D02*
X97639913Y-87006709D01*
D10*
X99253884Y-86006709D02*
X99653884Y-86006709D01*
X99653884Y-86006709D02*
X99653884Y-85456709D01*
X99653884Y-86006709D02*
X99653884Y-86556709D01*
X99653884Y-86006709D02*
X100253884Y-86406709D01*
X100253884Y-85606709D02*
X99653884Y-86006709D01*
X100253884Y-86006709D02*
X100753884Y-86006709D01*
X100253884Y-86406709D02*
X100253884Y-85606709D01*
X100755136Y-86006709D02*
X100355136Y-86006709D01*
D13*
X101649913Y-85006709D02*
X97639913Y-85006709D01*
X101649913Y-87006709D02*
X97639913Y-87006709D01*
%TO.C,D12*%
X154639913Y-53340042D02*
X154639913Y-55340042D01*
D10*
X156253884Y-54340042D02*
X156653884Y-54340042D01*
X156653884Y-54340042D02*
X156653884Y-53790042D01*
X156653884Y-54340042D02*
X156653884Y-54890042D01*
X156653884Y-54340042D02*
X157253884Y-54740042D01*
X157253884Y-53940042D02*
X156653884Y-54340042D01*
X157253884Y-54340042D02*
X157753884Y-54340042D01*
X157253884Y-54740042D02*
X157253884Y-53940042D01*
X157755136Y-54340042D02*
X157355136Y-54340042D01*
D13*
X158649913Y-53340042D02*
X154639913Y-53340042D01*
X158649913Y-55340042D02*
X154639913Y-55340042D01*
%TO.C,D14*%
X173639913Y-78673376D02*
X173639913Y-80673376D01*
D10*
X175253884Y-79673376D02*
X175653884Y-79673376D01*
X175653884Y-79673376D02*
X175653884Y-79123376D01*
X175653884Y-79673376D02*
X175653884Y-80223376D01*
X175653884Y-79673376D02*
X176253884Y-80073376D01*
X176253884Y-79273376D02*
X175653884Y-79673376D01*
X176253884Y-79673376D02*
X176753884Y-79673376D01*
X176253884Y-80073376D02*
X176253884Y-79273376D01*
X176755136Y-79673376D02*
X176355136Y-79673376D01*
D13*
X177649913Y-78673376D02*
X173639913Y-78673376D01*
X177649913Y-80673376D02*
X173639913Y-80673376D01*
%TO.C,D23*%
X220518085Y-141875191D02*
X219518085Y-143607242D01*
D10*
X221415825Y-143548202D02*
X221762235Y-143748202D01*
X221762235Y-143748202D02*
X221487235Y-144224516D01*
X221762235Y-143748202D02*
X222037235Y-143271888D01*
X221762235Y-143748202D02*
X222081850Y-144394612D01*
X222081850Y-144394612D02*
X222481850Y-143701792D01*
X222281850Y-144048202D02*
X222714863Y-144298202D01*
X222481850Y-143701792D02*
X221762235Y-143748202D01*
X222715947Y-144298828D02*
X222369537Y-144098828D01*
D13*
X222990847Y-145612242D02*
X219518085Y-143607242D01*
X223990847Y-143880191D02*
X220518085Y-141875191D01*
%TO.C,D10*%
X154639913Y-91340042D02*
X154639913Y-93340042D01*
D10*
X156253884Y-92340042D02*
X156653884Y-92340042D01*
X156653884Y-92340042D02*
X156653884Y-91790042D01*
X156653884Y-92340042D02*
X156653884Y-92890042D01*
X156653884Y-92340042D02*
X157253884Y-92740042D01*
X157253884Y-91940042D02*
X156653884Y-92340042D01*
X157253884Y-92340042D02*
X157753884Y-92340042D01*
X157253884Y-92740042D02*
X157253884Y-91940042D01*
X157755136Y-92340042D02*
X157355136Y-92340042D01*
D13*
X158649913Y-91340042D02*
X154639913Y-91340042D01*
X158649913Y-93340042D02*
X154639913Y-93340042D01*
%TO.C,D21*%
X197638563Y-142129895D02*
X196954523Y-144009281D01*
D10*
X198813180Y-143621599D02*
X199189057Y-143758407D01*
X199189057Y-143758407D02*
X199000946Y-144275238D01*
X199189057Y-143758407D02*
X199377168Y-143241576D01*
X199189057Y-143758407D02*
X199616064Y-144339496D01*
X199616064Y-144339496D02*
X199889680Y-143587742D01*
X199752872Y-143963619D02*
X200222719Y-144134629D01*
X199889680Y-143587742D02*
X199189057Y-143758407D01*
X200223895Y-144135057D02*
X199848018Y-143998249D01*
D13*
X200722690Y-145380781D02*
X196954523Y-144009281D01*
X201406731Y-143501396D02*
X197638563Y-142129895D01*
%TO.C,D15*%
X173639913Y-59673376D02*
X173639913Y-61673376D01*
D10*
X175253884Y-60673376D02*
X175653884Y-60673376D01*
X175653884Y-60673376D02*
X175653884Y-60123376D01*
X175653884Y-60673376D02*
X175653884Y-61223376D01*
X175653884Y-60673376D02*
X176253884Y-61073376D01*
X176253884Y-60273376D02*
X175653884Y-60673376D01*
X176253884Y-60673376D02*
X176753884Y-60673376D01*
X176253884Y-61073376D02*
X176253884Y-60273376D01*
X176755136Y-60673376D02*
X176355136Y-60673376D01*
D13*
X177649913Y-59673376D02*
X173639913Y-59673376D01*
X177649913Y-61673376D02*
X173639913Y-61673376D01*
%TO.C,D19*%
X177980010Y-139002682D02*
X177632714Y-140972296D01*
D10*
X179395813Y-140267751D02*
X179789736Y-140337211D01*
X179789736Y-140337211D02*
X179694230Y-140878855D01*
X179789736Y-140337211D02*
X179885243Y-139795566D01*
X179789736Y-140337211D02*
X180311162Y-140835323D01*
X180311162Y-140835323D02*
X180450080Y-140047476D01*
X180380621Y-140441400D02*
X180873025Y-140528224D01*
X180450080Y-140047476D02*
X179789736Y-140337211D01*
X180874258Y-140528441D02*
X180480335Y-140458982D01*
D13*
X181581793Y-141668625D02*
X177632714Y-140972296D01*
X181929089Y-139699010D02*
X177980010Y-139002682D01*
%TO.C,D20*%
X181279326Y-120291334D02*
X180932030Y-122260948D01*
D10*
X182695129Y-121556403D02*
X183089052Y-121625863D01*
X183089052Y-121625863D02*
X182993546Y-122167507D01*
X183089052Y-121625863D02*
X183184559Y-121084218D01*
X183089052Y-121625863D02*
X183610478Y-122123975D01*
X183610478Y-122123975D02*
X183749396Y-121336128D01*
X183679937Y-121730052D02*
X184172341Y-121816876D01*
X183749396Y-121336128D02*
X183089052Y-121625863D01*
X184173574Y-121817093D02*
X183779651Y-121747634D01*
D13*
X184881109Y-122957277D02*
X180932030Y-122260948D01*
X185228405Y-120987662D02*
X181279326Y-120291334D01*
%TO.C,D22*%
X204136946Y-124275736D02*
X203452906Y-126155122D01*
D10*
X205311563Y-125767440D02*
X205687440Y-125904248D01*
X205687440Y-125904248D02*
X205499329Y-126421079D01*
X205687440Y-125904248D02*
X205875551Y-125387417D01*
X205687440Y-125904248D02*
X206114447Y-126485337D01*
X206114447Y-126485337D02*
X206388063Y-125733583D01*
X206251255Y-126109460D02*
X206721102Y-126280470D01*
X206388063Y-125733583D02*
X205687440Y-125904248D01*
X206722278Y-126280898D02*
X206346401Y-126144090D01*
D13*
X207221073Y-127526622D02*
X203452906Y-126155122D01*
X207905114Y-125647237D02*
X204136946Y-124275736D01*
%TO.C,D5*%
X116639913Y-85006709D02*
X116639913Y-87006709D01*
D10*
X118253884Y-86006709D02*
X118653884Y-86006709D01*
X118653884Y-86006709D02*
X118653884Y-85456709D01*
X118653884Y-86006709D02*
X118653884Y-86556709D01*
X118653884Y-86006709D02*
X119253884Y-86406709D01*
X119253884Y-85606709D02*
X118653884Y-86006709D01*
X119253884Y-86006709D02*
X119753884Y-86006709D01*
X119253884Y-86406709D02*
X119253884Y-85606709D01*
X119755136Y-86006709D02*
X119355136Y-86006709D01*
D13*
X120649913Y-85006709D02*
X116639913Y-85006709D01*
X120649913Y-87006709D02*
X116639913Y-87006709D01*
%TO.C,D16*%
X192639913Y-97673376D02*
X192639913Y-99673376D01*
D10*
X194253884Y-98673376D02*
X194653884Y-98673376D01*
X194653884Y-98673376D02*
X194653884Y-98123376D01*
X194653884Y-98673376D02*
X194653884Y-99223376D01*
X194653884Y-98673376D02*
X195253884Y-99073376D01*
X195253884Y-98273376D02*
X194653884Y-98673376D01*
X195253884Y-98673376D02*
X195753884Y-98673376D01*
X195253884Y-99073376D02*
X195253884Y-98273376D01*
X195755136Y-98673376D02*
X195355136Y-98673376D01*
D13*
X196649913Y-97673376D02*
X192639913Y-97673376D01*
X196649913Y-99673376D02*
X192639913Y-99673376D01*
%TO.C,D8*%
X135639913Y-78673376D02*
X135639913Y-80673376D01*
D10*
X137253884Y-79673376D02*
X137653884Y-79673376D01*
X137653884Y-79673376D02*
X137653884Y-79123376D01*
X137653884Y-79673376D02*
X137653884Y-80223376D01*
X137653884Y-79673376D02*
X138253884Y-80073376D01*
X138253884Y-79273376D02*
X137653884Y-79673376D01*
X138253884Y-79673376D02*
X138753884Y-79673376D01*
X138253884Y-80073376D02*
X138253884Y-79273376D01*
X138755136Y-79673376D02*
X138355136Y-79673376D01*
D13*
X139649913Y-78673376D02*
X135639913Y-78673376D01*
X139649913Y-80673376D02*
X135639913Y-80673376D01*
%TO.C,D4*%
X116639913Y-104006709D02*
X116639913Y-106006709D01*
D10*
X118253884Y-105006709D02*
X118653884Y-105006709D01*
X118653884Y-105006709D02*
X118653884Y-104456709D01*
X118653884Y-105006709D02*
X118653884Y-105556709D01*
X118653884Y-105006709D02*
X119253884Y-105406709D01*
X119253884Y-104606709D02*
X118653884Y-105006709D01*
X119253884Y-105006709D02*
X119753884Y-105006709D01*
X119253884Y-105406709D02*
X119253884Y-104606709D01*
X119755136Y-105006709D02*
X119355136Y-105006709D01*
D13*
X120649913Y-104006709D02*
X116639913Y-104006709D01*
X120649913Y-106006709D02*
X116639913Y-106006709D01*
%TO.C,D3*%
X97639913Y-66006709D02*
X97639913Y-68006709D01*
D10*
X99253884Y-67006709D02*
X99653884Y-67006709D01*
X99653884Y-67006709D02*
X99653884Y-66456709D01*
X99653884Y-67006709D02*
X99653884Y-67556709D01*
X99653884Y-67006709D02*
X100253884Y-67406709D01*
X100253884Y-66606709D02*
X99653884Y-67006709D01*
X100253884Y-67006709D02*
X100753884Y-67006709D01*
X100253884Y-67406709D02*
X100253884Y-66606709D01*
X100755136Y-67006709D02*
X100355136Y-67006709D01*
D13*
X101649913Y-66006709D02*
X97639913Y-66006709D01*
X101649913Y-68006709D02*
X97639913Y-68006709D01*
%TO.C,D6*%
X116639913Y-66006709D02*
X116639913Y-68006709D01*
D10*
X118253884Y-67006709D02*
X118653884Y-67006709D01*
X118653884Y-67006709D02*
X118653884Y-66456709D01*
X118653884Y-67006709D02*
X118653884Y-67556709D01*
X118653884Y-67006709D02*
X119253884Y-67406709D01*
X119253884Y-66606709D02*
X118653884Y-67006709D01*
X119253884Y-67006709D02*
X119753884Y-67006709D01*
X119253884Y-67406709D02*
X119253884Y-66606709D01*
X119755136Y-67006709D02*
X119355136Y-67006709D01*
D13*
X120649913Y-66006709D02*
X116639913Y-66006709D01*
X120649913Y-68006709D02*
X116639913Y-68006709D01*
%TO.C,D7*%
X135639913Y-97673376D02*
X135639913Y-99673376D01*
D10*
X137253884Y-98673376D02*
X137653884Y-98673376D01*
X137653884Y-98673376D02*
X137653884Y-98123376D01*
X137653884Y-98673376D02*
X137653884Y-99223376D01*
X137653884Y-98673376D02*
X138253884Y-99073376D01*
X138253884Y-98273376D02*
X137653884Y-98673376D01*
X138253884Y-98673376D02*
X138753884Y-98673376D01*
X138253884Y-99073376D02*
X138253884Y-98273376D01*
X138755136Y-98673376D02*
X138355136Y-98673376D01*
D13*
X139649913Y-97673376D02*
X135639913Y-97673376D01*
X139649913Y-99673376D02*
X135639913Y-99673376D01*
%TO.C,D13*%
X173639913Y-97673376D02*
X173639913Y-99673376D01*
D10*
X175253884Y-98673376D02*
X175653884Y-98673376D01*
X175653884Y-98673376D02*
X175653884Y-98123376D01*
X175653884Y-98673376D02*
X175653884Y-99223376D01*
X175653884Y-98673376D02*
X176253884Y-99073376D01*
X176253884Y-98273376D02*
X175653884Y-98673376D01*
X176253884Y-98673376D02*
X176753884Y-98673376D01*
X176253884Y-99073376D02*
X176253884Y-98273376D01*
X176755136Y-98673376D02*
X176355136Y-98673376D01*
D13*
X177649913Y-97673376D02*
X173639913Y-97673376D01*
X177649913Y-99673376D02*
X173639913Y-99673376D01*
%TO.C,D17*%
X192639913Y-78673376D02*
X192639913Y-80673376D01*
D10*
X194253884Y-79673376D02*
X194653884Y-79673376D01*
X194653884Y-79673376D02*
X194653884Y-79123376D01*
X194653884Y-79673376D02*
X194653884Y-80223376D01*
X194653884Y-79673376D02*
X195253884Y-80073376D01*
X195253884Y-79273376D02*
X194653884Y-79673376D01*
X195253884Y-79673376D02*
X195753884Y-79673376D01*
X195253884Y-80073376D02*
X195253884Y-79273376D01*
X195755136Y-79673376D02*
X195355136Y-79673376D01*
D13*
X196649913Y-78673376D02*
X192639913Y-78673376D01*
X196649913Y-80673376D02*
X192639913Y-80673376D01*
%TO.C,D9*%
X135639913Y-59673376D02*
X135639913Y-61673376D01*
D10*
X137253884Y-60673376D02*
X137653884Y-60673376D01*
X137653884Y-60673376D02*
X137653884Y-60123376D01*
X137653884Y-60673376D02*
X137653884Y-61223376D01*
X137653884Y-60673376D02*
X138253884Y-61073376D01*
X138253884Y-60273376D02*
X137653884Y-60673376D01*
X138253884Y-60673376D02*
X138753884Y-60673376D01*
X138253884Y-61073376D02*
X138253884Y-60273376D01*
X138755136Y-60673376D02*
X138355136Y-60673376D01*
D13*
X139649913Y-59673376D02*
X135639913Y-59673376D01*
X139649913Y-61673376D02*
X135639913Y-61673376D01*
%TO.C,D18*%
X192639913Y-59673376D02*
X192639913Y-61673376D01*
D10*
X194253884Y-60673376D02*
X194653884Y-60673376D01*
X194653884Y-60673376D02*
X194653884Y-60123376D01*
X194653884Y-60673376D02*
X194653884Y-61223376D01*
X194653884Y-60673376D02*
X195253884Y-61073376D01*
X195253884Y-60273376D02*
X194653884Y-60673376D01*
X195253884Y-60673376D02*
X195753884Y-60673376D01*
X195253884Y-61073376D02*
X195253884Y-60273376D01*
X195755136Y-60673376D02*
X195355136Y-60673376D01*
D13*
X196649913Y-59673376D02*
X192639913Y-59673376D01*
X196649913Y-61673376D02*
X192639913Y-61673376D01*
%TO.C,D1*%
X97639913Y-104006709D02*
X97639913Y-106006709D01*
D10*
X99253884Y-105006709D02*
X99653884Y-105006709D01*
X99653884Y-105006709D02*
X99653884Y-104456709D01*
X99653884Y-105006709D02*
X99653884Y-105556709D01*
X99653884Y-105006709D02*
X100253884Y-105406709D01*
X100253884Y-104606709D02*
X99653884Y-105006709D01*
X100253884Y-105006709D02*
X100753884Y-105006709D01*
X100253884Y-105406709D02*
X100253884Y-104606709D01*
X100755136Y-105006709D02*
X100355136Y-105006709D01*
D13*
X101649913Y-104006709D02*
X97639913Y-104006709D01*
X101649913Y-106006709D02*
X97639913Y-106006709D01*
%TO.C,JST1*%
X206506000Y-67606000D02*
X206506000Y-68606000D01*
X206506000Y-75426000D02*
X206506000Y-74426000D01*
X207426000Y-67606000D02*
X206506000Y-67606000D01*
X207426000Y-75426000D02*
X206506000Y-75426000D01*
D10*
X208066000Y-76466000D02*
X209066000Y-76466000D01*
X208566000Y-75966000D02*
X208566000Y-76966000D01*
X211066000Y-76466000D02*
X210066000Y-76466000D01*
D13*
X211626000Y-67606000D02*
X212626000Y-67606000D01*
X211706000Y-75426000D02*
X212626000Y-75426000D01*
X212626000Y-67606000D02*
X212626000Y-68606000D01*
X212626000Y-75426000D02*
X212626000Y-74426000D01*
%TD*%
M02*
