M48
; DRILL file {KiCad 9.0.7} date 2026-01-24T19:20:22+0100
; FORMAT={-:-/ absolute / metric / decimal}
; #@! TF.CreationDate,2026-01-24T19:20:22+01:00
; #@! TF.GenerationSoftware,Kicad,Pcbnew,9.0.7
; #@! TF.FileFunction,NonPlated,1,2,NPTH
FMAT,2
METRIC
; #@! TA.AperFunction,NonPlated,NPTH,ComponentDrill
T1C1.702
; #@! TA.AperFunction,NonPlated,NPTH,ComponentDrill
T2C3.988
%
G90
G05
T1
X94.92Y-62.0
X94.92Y-81.0
X94.92Y-100.0
X105.08Y-62.0
X105.08Y-81.0
X105.08Y-100.0
X113.92Y-62.0
X113.92Y-81.0
X113.92Y-100.0
X124.08Y-62.0
X124.08Y-81.0
X124.08Y-100.0
X132.92Y-55.667
X132.92Y-74.667
X132.92Y-93.667
X143.08Y-55.667
X143.08Y-74.667
X143.08Y-93.667
X151.92Y-49.333
X151.92Y-68.333
X151.92Y-87.333
X162.08Y-49.333
X162.08Y-68.333
X162.08Y-87.333
X170.92Y-55.667
X170.92Y-74.667
X170.92Y-93.667
X175.997Y-134.585
X179.296Y-115.873
X181.08Y-55.667
X181.08Y-74.667
X181.08Y-93.667
X186.003Y-136.349
X189.302Y-117.637
X189.92Y-55.667
X189.92Y-74.667
X189.92Y-93.667
X196.453Y-137.435
X200.08Y-55.667
X200.08Y-74.667
X200.08Y-93.667
X202.951Y-119.58
X206.0Y-140.909
X212.499Y-123.055
X220.166Y-137.045
X228.965Y-142.125
T2
X100.0Y-62.0
X100.0Y-81.0
X100.0Y-100.0
X119.0Y-62.0
X119.0Y-81.0
X119.0Y-100.0
X138.0Y-55.667
X138.0Y-74.667
X138.0Y-93.667
X157.0Y-49.333
X157.0Y-68.333
X157.0Y-87.333
X176.0Y-55.667
X176.0Y-74.667
X176.0Y-93.667
X181.0Y-135.467
X184.299Y-116.755
X195.0Y-55.667
X195.0Y-74.667
X195.0Y-93.667
X201.227Y-139.172
X207.725Y-121.318
X224.565Y-139.585
M30
