M48
; DRILL file {KiCad 9.0.7} date 2026-01-25T13:16:00+0100
; FORMAT={-:-/ absolute / metric / decimal}
; #@! TF.CreationDate,2026-01-25T13:16:00+01:00
; #@! TF.GenerationSoftware,Kicad,Pcbnew,9.0.7
; #@! TF.FileFunction,NonPlated,1,2,NPTH
FMAT,2
METRIC
; #@! TA.AperFunction,NonPlated,NPTH,ComponentDrill
T1C1.702
; #@! TA.AperFunction,NonPlated,NPTH,ComponentDrill
T2C3.000
; #@! TA.AperFunction,NonPlated,NPTH,ComponentDrill
T3C3.988
%
G90
G05
T1
X94.92Y-62.0
X94.92Y-81.0
X94.92Y-100.0
X105.08Y-62.0
X105.08Y-81.0
X105.08Y-100.0
X113.92Y-62.0
X113.92Y-81.0
X113.92Y-100.0
X124.08Y-62.0
X124.08Y-81.0
X124.08Y-100.0
X132.92Y-55.667
X132.92Y-74.667
X132.92Y-93.667
X143.08Y-55.667
X143.08Y-74.667
X143.08Y-93.667
X151.92Y-49.333
X151.92Y-68.333
X151.92Y-87.333
X162.08Y-49.333
X162.08Y-68.333
X162.08Y-87.333
X170.92Y-55.667
X170.92Y-74.667
X170.92Y-93.667
X175.997Y-134.585
X179.296Y-115.873
X181.08Y-55.667
X181.08Y-74.667
X181.08Y-93.667
X186.003Y-136.349
X189.302Y-117.637
X189.92Y-55.667
X189.92Y-74.667
X189.92Y-93.667
X196.453Y-137.435
X200.08Y-55.667
X200.08Y-74.667
X200.08Y-93.667
X202.951Y-119.58
X206.0Y-140.909
X212.499Y-123.055
X220.166Y-137.045
X228.965Y-142.125
T2
X96.19Y-59.46
X96.19Y-78.46
X96.19Y-97.46
X97.46Y-56.92
X97.46Y-75.92
X97.46Y-94.92
X102.54Y-56.92
X102.54Y-75.92
X102.54Y-94.92
X103.81Y-59.46
X103.81Y-78.46
X103.81Y-97.46
X115.19Y-59.46
X115.19Y-78.46
X115.19Y-97.46
X116.46Y-56.92
X116.46Y-75.92
X116.46Y-94.92
X121.54Y-56.92
X121.54Y-75.92
X121.54Y-94.92
X122.81Y-59.46
X122.81Y-78.46
X122.81Y-97.46
X134.19Y-53.127
X134.19Y-72.127
X134.19Y-91.127
X135.46Y-50.587
X135.46Y-69.587
X135.46Y-88.587
X140.54Y-50.587
X140.54Y-69.587
X140.54Y-88.587
X141.81Y-53.127
X141.81Y-72.127
X141.81Y-91.127
X153.19Y-46.793
X153.19Y-65.793
X153.19Y-84.793
X154.46Y-44.253
X154.46Y-63.253
X154.46Y-82.253
X159.54Y-44.253
X159.54Y-63.253
X159.54Y-82.253
X160.81Y-46.793
X160.81Y-65.793
X160.81Y-84.793
X172.19Y-53.127
X172.19Y-72.127
X172.19Y-91.127
X173.46Y-50.587
X173.46Y-69.587
X173.46Y-88.587
X177.689Y-132.304
X178.54Y-50.587
X178.54Y-69.587
X178.54Y-88.587
X179.381Y-130.023
X179.81Y-53.127
X179.81Y-72.127
X179.81Y-91.127
X180.988Y-113.592
X182.68Y-111.311
X184.384Y-130.905
X185.193Y-133.627
X187.683Y-112.194
X188.492Y-114.916
X191.19Y-53.127
X191.19Y-72.127
X191.19Y-91.127
X192.46Y-50.587
X192.46Y-69.587
X192.46Y-88.587
X197.54Y-50.587
X197.54Y-69.587
X197.54Y-88.587
X198.515Y-135.482
X198.81Y-53.127
X198.81Y-72.127
X198.81Y-91.127
X200.577Y-133.53
X205.014Y-117.628
X205.351Y-135.267
X205.676Y-138.088
X207.076Y-115.675
X211.849Y-117.413
X212.174Y-120.234
X222.536Y-135.481
X224.906Y-133.916
X229.135Y-139.291
X229.305Y-136.456
T3
X100.0Y-62.0
X100.0Y-81.0
X100.0Y-100.0
X119.0Y-62.0
X119.0Y-81.0
X119.0Y-100.0
X138.0Y-55.667
X138.0Y-74.667
X138.0Y-93.667
X157.0Y-49.333
X157.0Y-68.333
X157.0Y-87.333
X176.0Y-55.667
X176.0Y-74.667
X176.0Y-93.667
X181.0Y-135.467
X184.299Y-116.755
X195.0Y-55.667
X195.0Y-74.667
X195.0Y-93.667
X201.227Y-139.172
X207.725Y-121.318
X224.565Y-139.585
M30
