%TF.GenerationSoftware,KiCad,Pcbnew,9.0.7*%
%TF.CreationDate,2026-01-24T19:20:25+01:00*%
%TF.ProjectId,legendary-guacamole-PCB,6c656765-6e64-4617-9279-2d6775616361,v1.0.0*%
%TF.SameCoordinates,Original*%
%TF.FileFunction,Paste,Top*%
%TF.FilePolarity,Positive*%
%FSLAX46Y46*%
G04 Gerber Fmt 4.6, Leading zero omitted, Abs format (unit mm)*
G04 Created by KiCad (PCBNEW 9.0.7) date 2026-01-24 19:20:25*
%MOMM*%
%LPD*%
G01*
G04 APERTURE LIST*
G04 Aperture macros list*
%AMRoundRect*
0 Rectangle with rounded corners*
0 $1 Rounding radius*
0 $2 $3 $4 $5 $6 $7 $8 $9 X,Y pos of 4 corners*
0 Add a 4 corners polygon primitive as box body*
4,1,4,$2,$3,$4,$5,$6,$7,$8,$9,$2,$3,0*
0 Add four circle primitives for the rounded corners*
1,1,$1+$1,$2,$3*
1,1,$1+$1,$4,$5*
1,1,$1+$1,$6,$7*
1,1,$1+$1,$8,$9*
0 Add four rect primitives between the rounded corners*
20,1,$1+$1,$2,$3,$4,$5,0*
20,1,$1+$1,$4,$5,$6,$7,0*
20,1,$1+$1,$6,$7,$8,$9,0*
20,1,$1+$1,$8,$9,$2,$3,0*%
%AMRotRect*
0 Rectangle, with rotation*
0 The origin of the aperture is its center*
0 $1 length*
0 $2 width*
0 $3 Rotation angle, in degrees counterclockwise*
0 Add horizontal line*
21,1,$1,$2,0,0,$3*%
%AMFreePoly0*
4,1,15,-0.616000,0.142500,-0.283500,0.475000,0.521000,0.475000,0.557355,0.467769,0.588175,0.447175,0.608769,0.416355,0.616000,0.380000,0.616000,-0.380000,0.608769,-0.416355,0.588175,-0.447175,0.557355,-0.467769,0.521000,-0.475000,-0.283500,-0.475000,-0.616000,-0.142500,-0.616000,0.142500,-0.616000,0.142500,$1*%
%AMFreePoly1*
4,1,6,0.600000,-0.250000,-0.600000,-0.250000,-0.600000,1.000000,0.000000,0.400000,0.600000,1.000000,0.600000,-0.250000,0.600000,-0.250000,$1*%
%AMFreePoly2*
4,1,6,0.600000,0.200000,0.000000,-0.400000,-0.600000,0.200000,-0.600000,0.400000,0.600000,0.400000,0.600000,0.200000,0.600000,0.200000,$1*%
G04 Aperture macros list end*
%ADD10FreePoly0,180.000000*%
%ADD11RoundRect,0.095000X0.921000X0.380000X-0.921000X0.380000X-0.921000X-0.380000X0.921000X-0.380000X0*%
%ADD12RoundRect,0.095000X-0.921000X-0.380000X0.921000X-0.380000X0.921000X0.380000X-0.921000X0.380000X0*%
%ADD13FreePoly0,0.000000*%
%ADD14O,3.000000X2.000000*%
%ADD15RoundRect,0.225000X-0.525000X1.525000X-0.525000X-1.525000X0.525000X-1.525000X0.525000X1.525000X0*%
%ADD16R,2.550000X2.500000*%
%ADD17RotRect,2.550000X2.500000X340.000000*%
%ADD18RotRect,2.550000X2.500000X330.000000*%
%ADD19RotRect,2.550000X2.500000X350.000000*%
%ADD20R,1.600000X1.400000*%
%ADD21FreePoly1,0.000000*%
%ADD22FreePoly2,0.000000*%
G04 APERTURE END LIST*
D10*
%TO.C,U1*%
X207845000Y-54055250D03*
X207845000Y-51515250D03*
X207845000Y-48975250D03*
D11*
X208245000Y-47705250D03*
D12*
X224755000Y-47705250D03*
D11*
X208245000Y-50245250D03*
X208245000Y-52785250D03*
X208245000Y-55325250D03*
X208245000Y-57865250D03*
X208245000Y-60405250D03*
X208245000Y-62945250D03*
D12*
X224755000Y-62945250D03*
X224755000Y-60405250D03*
X224755000Y-57865250D03*
X224755000Y-55325250D03*
X224755000Y-52785250D03*
X224755000Y-50245250D03*
D10*
X207845000Y-56595250D03*
X207845000Y-59135250D03*
X207845000Y-61675250D03*
D13*
X225155000Y-61675250D03*
X225155000Y-59135250D03*
X225155000Y-56595250D03*
D14*
X214700000Y-49325250D03*
X218200000Y-49325250D03*
D15*
X215500000Y-60825250D03*
X217500000Y-60825250D03*
%TD*%
D16*
%TO.C,S16*%
X202085000Y-91126667D03*
X189158000Y-88586667D03*
%TD*%
D17*
%TO.C,S21*%
X208753148Y-139208411D03*
X197474473Y-132400298D03*
%TD*%
%TO.C,S22*%
X215251531Y-121354252D03*
X203972856Y-114546139D03*
%TD*%
D16*
%TO.C,S10*%
X164085000Y-84793333D03*
X151158000Y-82253333D03*
%TD*%
%TO.C,S11*%
X164085000Y-65793333D03*
X151158000Y-63253333D03*
%TD*%
%TO.C,S2*%
X107085000Y-78460000D03*
X94158000Y-75920000D03*
%TD*%
%TO.C,S1*%
X107085000Y-97460000D03*
X94158000Y-94920000D03*
%TD*%
D18*
%TO.C,S23*%
X231971125Y-140928118D03*
X222046015Y-132264914D03*
%TD*%
D16*
%TO.C,S12*%
X164085000Y-46793333D03*
X151158000Y-44253333D03*
%TD*%
D19*
%TO.C,S19*%
X188418429Y-134195553D03*
X176128886Y-129449391D03*
%TD*%
D16*
%TO.C,S7*%
X145085000Y-91126667D03*
X132158000Y-88586667D03*
%TD*%
%TO.C,S6*%
X126085000Y-59460000D03*
X113158000Y-56920000D03*
%TD*%
%TO.C,S8*%
X145085000Y-72126667D03*
X132158000Y-69586667D03*
%TD*%
%TO.C,S5*%
X126085000Y-78460000D03*
X113158000Y-75920000D03*
%TD*%
%TO.C,S13*%
X183085000Y-91126667D03*
X170158000Y-88586667D03*
%TD*%
D19*
%TO.C,S20*%
X191717744Y-115484205D03*
X179428201Y-110738043D03*
%TD*%
D16*
%TO.C,S14*%
X183085000Y-72126667D03*
X170158000Y-69586667D03*
%TD*%
%TO.C,S4*%
X126085000Y-97460000D03*
X113158000Y-94920000D03*
%TD*%
%TO.C,S18*%
X202085000Y-53126667D03*
X189158000Y-50586667D03*
%TD*%
%TO.C,S9*%
X145085000Y-53126667D03*
X132158000Y-50586667D03*
%TD*%
%TO.C,S15*%
X183085000Y-53126667D03*
X170158000Y-50586667D03*
%TD*%
%TO.C,S17*%
X202085000Y-72126667D03*
X189158000Y-69586667D03*
%TD*%
%TO.C,S3*%
X107085000Y-59460000D03*
X94158000Y-56920000D03*
%TD*%
D20*
%TO.C,BTN1*%
X163590000Y-112740000D03*
X171690000Y-108240000D03*
%TD*%
D21*
%TO.C,JST1*%
X208566000Y-71882000D03*
X210566000Y-71882000D03*
D22*
X210566000Y-70866000D03*
X208566000Y-70866000D03*
%TD*%
M02*
