M48
; DRILL file {KiCad 9.0.7} date 2026-01-24T19:20:22+0100
; FORMAT={-:-/ absolute / metric / decimal}
; #@! TF.CreationDate,2026-01-24T19:20:22+01:00
; #@! TF.GenerationSoftware,Kicad,Pcbnew,9.0.7
; #@! TF.FileFunction,Plated,1,2,PTH
FMAT,2
METRIC
; #@! TA.AperFunction,Plated,PTH,ViaDrill
T1C0.400
; #@! TA.AperFunction,Plated,PTH,ComponentDrill
T2C0.400
; #@! TA.AperFunction,Plated,PTH,ComponentDrill
T3C0.500
; #@! TA.AperFunction,Plated,PTH,ComponentDrill
T4C0.750
; #@! TA.AperFunction,Plated,PTH,ComponentDrill
T5C1.000
; #@! TA.AperFunction,Plated,PTH,ComponentDrill
T6C3.200
%
G90
G05
T1
X91.948Y-55.372
X93.464Y-72.706
X93.472Y-91.44
X99.822Y-96.012
X100.076Y-58.674
X100.076Y-76.708
X105.656Y-72.706
X105.846Y-93.514
X105.856Y-55.514
X105.856Y-74.504
X110.913Y-55.317
X112.428Y-72.65
X112.437Y-91.385
X118.618Y-57.658
X118.872Y-76.454
X118.872Y-95.758
X124.714Y-72.644
X124.836Y-93.514
X124.846Y-55.514
X124.846Y-74.504
X129.843Y-48.973
X131.359Y-66.307
X131.367Y-85.041
X133.858Y-77.724
X137.668Y-70.866
X137.668Y-89.916
X138.176Y-51.816
X142.24Y-77.47
X143.51Y-66.294
X143.846Y-87.184
X143.856Y-49.184
X143.856Y-68.174
X148.893Y-42.877
X148.893Y-63.246
X150.417Y-78.945
X152.908Y-71.374
X156.972Y-45.974
X156.972Y-64.516
X156.972Y-83.312
X160.274Y-52.07
X160.782Y-71.374
X162.846Y-80.844
X162.856Y-42.844
X162.856Y-61.834
X167.943Y-48.973
X169.459Y-66.307
X169.467Y-85.041
X172.212Y-58.42
X172.72Y-77.47
X175.514Y-110.744
X176.022Y-52.324
X176.022Y-71.12
X176.022Y-88.646
X177.546Y-43.434
X178.816Y-125.476
X179.832Y-77.47
X180.086Y-58.42
X181.836Y-87.174
X181.846Y-49.174
X181.846Y-68.164
X182.118Y-129.286
X185.166Y-112.268
X186.993Y-48.973
X187.93Y-129.79
X188.509Y-66.307
X188.517Y-85.041
X191.19Y-111.1
X194.818Y-50.8
X194.818Y-70.358
X194.818Y-89.154
X196.342Y-112.014
X198.374Y-57.912
X199.644Y-128.778
X200.66Y-66.294
X200.842Y-87.177
X200.852Y-49.177
X200.852Y-68.167
X202.946Y-80.01
X203.2Y-133.604
X203.454Y-88.138
X203.454Y-101.346
X208.026Y-77.47
X208.383Y-134.753
X209.804Y-115.824
X210.058Y-52.785
X210.058Y-55.372
X210.058Y-58.166
X210.058Y-60.706
X210.058Y-62.992
X210.312Y-50.546
X211.074Y-56.896
X211.074Y-59.436
X211.074Y-61.976
X211.582Y-67.31
X213.614Y-71.882
X214.88Y-116.9
X215.392Y-63.5
X216.333Y-47.752
X217.5Y-57.658
X218.51Y-73.984
X219.964Y-129.286
X220.98Y-51.816
X221.488Y-57.865
X221.488Y-61.214
X221.535Y-55.325
X222.25Y-56.595
X222.25Y-59.135
X222.504Y-62.992
X222.551Y-61.675
X226.314Y-52.832
X227.33Y-134.366
X232.98Y-136.68
T2
X98.154Y-67.006
X98.154Y-86.006
X98.154Y-105.006
X101.856Y-67.006
X101.856Y-86.006
X101.856Y-105.006
X117.154Y-67.006
X117.154Y-86.006
X117.154Y-105.006
X120.856Y-67.006
X120.856Y-86.006
X120.856Y-105.006
X136.154Y-60.673
X136.154Y-79.673
X136.154Y-98.673
X139.856Y-60.673
X139.856Y-79.673
X139.856Y-98.673
X155.154Y-54.34
X155.154Y-73.34
X155.154Y-92.34
X158.856Y-54.34
X158.856Y-73.34
X158.856Y-92.34
X163.59Y-108.24
X171.69Y-112.74
X174.154Y-60.673
X174.154Y-79.673
X174.154Y-98.673
X177.856Y-60.673
X177.856Y-79.673
X177.856Y-98.673
X178.313Y-140.076
X181.612Y-121.365
X181.959Y-140.719
X185.258Y-122.008
X193.154Y-60.673
X193.154Y-79.673
X193.154Y-98.673
X196.856Y-60.673
X196.856Y-79.673
X196.856Y-98.673
X197.78Y-143.245
X201.259Y-144.511
X204.278Y-125.391
X207.757Y-126.657
X220.464Y-142.998
X223.67Y-144.849
T3
X122.314Y-48.768
X123.017Y-47.071
X123.017Y-50.465
X124.714Y-46.368
X124.714Y-51.168
X126.411Y-47.071
X126.411Y-50.465
X127.114Y-48.768
X131.6Y-107.0
X132.303Y-105.303
X132.303Y-108.697
X134.0Y-104.6
X134.0Y-109.4
X135.697Y-105.303
X135.697Y-108.697
X136.4Y-107.0
X141.1Y-42.5
X141.803Y-40.803
X141.803Y-44.197
X143.5Y-40.1
X143.5Y-44.9
X145.197Y-40.803
X145.197Y-44.197
X145.9Y-42.5
X159.6Y-100.5
X159.652Y-128.27
X160.303Y-98.803
X160.303Y-102.197
X160.355Y-126.573
X160.355Y-129.967
X162.0Y-98.1
X162.0Y-102.9
X162.052Y-125.87
X162.052Y-130.67
X163.697Y-98.803
X163.697Y-102.197
X163.749Y-126.573
X163.749Y-129.967
X164.4Y-100.5
X164.452Y-128.27
X168.1Y-42.5
X168.803Y-40.803
X168.803Y-44.197
X170.5Y-40.1
X170.5Y-44.9
X172.197Y-40.803
X172.197Y-44.197
X172.9Y-42.5
X211.214Y-150.368
X211.917Y-148.671
X211.917Y-152.065
X213.614Y-147.968
X213.614Y-152.768
X215.311Y-148.671
X215.311Y-152.065
X216.014Y-150.368
X220.6Y-122.5
X221.303Y-120.803
X221.303Y-124.197
X222.1Y-86.5
X222.803Y-84.803
X222.803Y-88.197
X223.0Y-120.1
X223.0Y-124.9
X224.5Y-84.1
X224.5Y-88.9
X224.697Y-120.803
X224.697Y-124.197
X225.4Y-122.5
X226.197Y-84.803
X226.197Y-88.197
X226.9Y-86.5
T4
X208.566Y-69.066
X210.566Y-69.066
T5
X225.552Y-69.342
X225.552Y-71.882
X225.552Y-74.422
X225.552Y-76.962
X225.552Y-79.502
T6
X124.714Y-48.768
X134.0Y-107.0
X143.5Y-42.5
X162.0Y-100.5
X162.052Y-128.27
X170.5Y-42.5
X213.614Y-150.368
X223.0Y-122.5
X224.5Y-86.5
M30
