%TF.GenerationSoftware,KiCad,Pcbnew,9.0.7*%
%TF.CreationDate,2026-01-24T19:20:25+01:00*%
%TF.ProjectId,legendary-guacamole-PCB,6c656765-6e64-4617-9279-2d6775616361,v1.0.0*%
%TF.SameCoordinates,Original*%
%TF.FileFunction,Legend,Top*%
%TF.FilePolarity,Positive*%
%FSLAX46Y46*%
G04 Gerber Fmt 4.6, Leading zero omitted, Abs format (unit mm)*
G04 Created by KiCad (PCBNEW 9.0.7) date 2026-01-24 19:20:25*
%MOMM*%
%LPD*%
G01*
G04 APERTURE LIST*
%ADD10C,0.120000*%
%ADD11C,0.250000*%
%ADD12C,0.100000*%
%ADD13C,0.150000*%
%ADD14C,0.000000*%
%ADD15C,0.127000*%
%ADD16C,0.504000*%
%ADD17C,0.200000*%
G04 APERTURE END LIST*
D10*
X220118174Y-80194373D02*
X223703266Y-80189480D01*
X223703266Y-80875122D01*
X219964000Y-80867157D01*
X219422817Y-80643986D01*
X219202000Y-80264000D01*
X219202000Y-80105157D01*
X219710000Y-80105157D01*
X220118174Y-80194373D01*
G36*
X220118174Y-80194373D02*
G01*
X223703266Y-80189480D01*
X223703266Y-80875122D01*
X219964000Y-80867157D01*
X219422817Y-80643986D01*
X219202000Y-80264000D01*
X219202000Y-80105157D01*
X219710000Y-80105157D01*
X220118174Y-80194373D01*
G37*
X219655000Y-77667599D02*
X223719000Y-77667599D01*
X223719000Y-78796401D01*
X219655000Y-78796401D01*
X219655000Y-77667599D01*
G36*
X219655000Y-77667599D02*
G01*
X223719000Y-77667599D01*
X223719000Y-78796401D01*
X219655000Y-78796401D01*
X219655000Y-77667599D01*
G37*
X219655000Y-75107144D02*
X223719000Y-75107144D01*
X223719000Y-76235946D01*
X219655000Y-76235946D01*
X219655000Y-75107144D01*
G36*
X219655000Y-75107144D02*
G01*
X223719000Y-75107144D01*
X223719000Y-76235946D01*
X219655000Y-76235946D01*
X219655000Y-75107144D01*
G37*
X219710000Y-72898000D02*
X223939774Y-72898000D01*
X223939774Y-73635027D01*
X219710000Y-73635027D01*
X219710000Y-72898000D01*
G36*
X219710000Y-72898000D02*
G01*
X223939774Y-72898000D01*
X223939774Y-73635027D01*
X219710000Y-73635027D01*
X219710000Y-72898000D01*
G37*
X219199632Y-72774564D02*
X219710000Y-72774564D01*
X219710000Y-80105157D01*
X219199632Y-80105157D01*
X219199632Y-72774564D01*
G36*
X219199632Y-72774564D02*
G01*
X219710000Y-72774564D01*
X219710000Y-80105157D01*
X219199632Y-80105157D01*
X219199632Y-72774564D01*
G37*
X223703266Y-72774564D02*
X224176282Y-72774564D01*
X224176282Y-80876130D01*
X223703266Y-80876130D01*
X223703266Y-72774564D01*
G36*
X223703266Y-72774564D02*
G01*
X224176282Y-72774564D01*
X224176282Y-80876130D01*
X223703266Y-80876130D01*
X223703266Y-72774564D01*
G37*
D11*
G36*
X223709404Y-80227172D02*
G01*
X219640377Y-80227172D01*
X219640377Y-78977172D01*
X219765377Y-78977172D01*
X219765377Y-79977172D01*
X219767779Y-80001558D01*
X219786443Y-80046618D01*
X219820931Y-80081106D01*
X219865991Y-80099770D01*
X219890377Y-80102172D01*
X220366567Y-80102172D01*
X220390953Y-80099770D01*
X220436013Y-80081106D01*
X220470501Y-80046618D01*
X220489165Y-80001558D01*
X220489165Y-79952786D01*
X220470501Y-79907726D01*
X220436013Y-79873238D01*
X220390953Y-79854574D01*
X220366567Y-79852172D01*
X220015377Y-79852172D01*
X220015377Y-79578362D01*
X220223710Y-79578362D01*
X220248096Y-79575960D01*
X220293156Y-79557296D01*
X220327644Y-79522808D01*
X220346308Y-79477748D01*
X220346308Y-79428976D01*
X220327644Y-79383916D01*
X220293156Y-79349428D01*
X220248096Y-79330764D01*
X220223710Y-79328362D01*
X220015377Y-79328362D01*
X220015377Y-79320111D01*
X220575271Y-79320111D01*
X220588434Y-79367073D01*
X220601611Y-79387733D01*
X220802836Y-79643838D01*
X220601611Y-79899944D01*
X220588434Y-79920604D01*
X220575271Y-79967566D01*
X220581082Y-80015992D01*
X220604982Y-80058507D01*
X220643333Y-80088639D01*
X220690295Y-80101802D01*
X220738721Y-80095991D01*
X220781236Y-80072091D01*
X220798191Y-80054400D01*
X220961805Y-79846163D01*
X221125420Y-80054400D01*
X221142375Y-80072091D01*
X221184890Y-80095991D01*
X221233316Y-80101802D01*
X221280278Y-80088639D01*
X221318629Y-80058507D01*
X221342529Y-80015992D01*
X221348340Y-79967566D01*
X221335177Y-79920604D01*
X221322000Y-79899944D01*
X221120774Y-79643838D01*
X221322000Y-79387733D01*
X221335177Y-79367073D01*
X221342183Y-79342075D01*
X221357872Y-79379951D01*
X221392360Y-79414439D01*
X221437420Y-79433103D01*
X221461806Y-79435505D01*
X221479663Y-79435505D01*
X221479663Y-79834314D01*
X221482065Y-79858700D01*
X221483783Y-79862849D01*
X221484102Y-79867329D01*
X221492859Y-79890215D01*
X221540478Y-79985454D01*
X221543045Y-79989532D01*
X221543687Y-79991457D01*
X221545765Y-79993853D01*
X221553532Y-80006191D01*
X221565374Y-80016462D01*
X221575643Y-80028302D01*
X221587976Y-80036066D01*
X221590377Y-80038148D01*
X221592304Y-80038790D01*
X221596380Y-80041356D01*
X221691618Y-80088975D01*
X221714504Y-80097733D01*
X221718984Y-80098051D01*
X221723134Y-80099770D01*
X221747520Y-80102172D01*
X221842758Y-80102172D01*
X221867144Y-80099770D01*
X221912204Y-80081106D01*
X221946692Y-80046618D01*
X221965356Y-80001558D01*
X221965356Y-79952786D01*
X221946692Y-79907726D01*
X221912204Y-79873238D01*
X221867144Y-79854574D01*
X221842758Y-79852172D01*
X221777029Y-79852172D01*
X221745452Y-79836383D01*
X221729663Y-79804805D01*
X221729663Y-79435505D01*
X221842758Y-79435505D01*
X221867144Y-79433103D01*
X221912204Y-79414439D01*
X221946692Y-79379951D01*
X221965356Y-79334891D01*
X221965356Y-79286119D01*
X221949257Y-79247252D01*
X222766359Y-79247252D01*
X222769817Y-79295902D01*
X222791629Y-79339525D01*
X222828474Y-79371481D01*
X222874744Y-79386905D01*
X222923394Y-79383447D01*
X222946280Y-79374689D01*
X223041517Y-79327071D01*
X223051092Y-79321043D01*
X223051092Y-79852172D01*
X222890378Y-79852172D01*
X222865992Y-79854574D01*
X222820932Y-79873238D01*
X222786444Y-79907726D01*
X222767780Y-79952786D01*
X222767780Y-80001558D01*
X222786444Y-80046618D01*
X222820932Y-80081106D01*
X222865992Y-80099770D01*
X222890378Y-80102172D01*
X223461806Y-80102172D01*
X223486192Y-80099770D01*
X223531252Y-80081106D01*
X223565740Y-80046618D01*
X223584404Y-80001558D01*
X223584404Y-79952786D01*
X223565740Y-79907726D01*
X223531252Y-79873238D01*
X223486192Y-79854574D01*
X223461806Y-79852172D01*
X223301092Y-79852172D01*
X223301092Y-78977172D01*
X223301083Y-78977084D01*
X223301092Y-78977041D01*
X223301066Y-78976913D01*
X223298690Y-78952786D01*
X223293954Y-78941353D01*
X223291527Y-78929215D01*
X223284711Y-78919038D01*
X223280026Y-78907726D01*
X223271275Y-78898975D01*
X223264388Y-78888691D01*
X223254197Y-78881897D01*
X223245538Y-78873238D01*
X223234105Y-78868502D01*
X223223807Y-78861637D01*
X223211791Y-78859259D01*
X223200478Y-78854574D01*
X223188104Y-78854574D01*
X223175962Y-78852172D01*
X223163952Y-78854574D01*
X223151706Y-78854574D01*
X223140272Y-78859309D01*
X223128136Y-78861737D01*
X223117960Y-78868551D01*
X223106646Y-78873238D01*
X223097895Y-78881988D01*
X223087611Y-78888876D01*
X223072248Y-78907635D01*
X223072158Y-78907726D01*
X223072141Y-78907766D01*
X223072086Y-78907834D01*
X222983712Y-79040395D01*
X222911572Y-79112535D01*
X222834476Y-79151083D01*
X222813739Y-79164137D01*
X222781783Y-79200982D01*
X222766359Y-79247252D01*
X221949257Y-79247252D01*
X221946692Y-79241059D01*
X221912204Y-79206571D01*
X221867144Y-79187907D01*
X221842758Y-79185505D01*
X221729663Y-79185505D01*
X221729663Y-78977172D01*
X221727261Y-78952786D01*
X221708597Y-78907726D01*
X221674109Y-78873238D01*
X221629049Y-78854574D01*
X221580277Y-78854574D01*
X221535217Y-78873238D01*
X221500729Y-78907726D01*
X221482065Y-78952786D01*
X221479663Y-78977172D01*
X221479663Y-79185505D01*
X221461806Y-79185505D01*
X221437420Y-79187907D01*
X221392360Y-79206571D01*
X221357872Y-79241059D01*
X221343125Y-79276659D01*
X221342529Y-79271685D01*
X221318629Y-79229170D01*
X221280278Y-79199038D01*
X221233316Y-79185875D01*
X221184890Y-79191686D01*
X221142375Y-79215586D01*
X221125420Y-79233277D01*
X220961805Y-79441513D01*
X220798191Y-79233277D01*
X220781236Y-79215586D01*
X220738721Y-79191686D01*
X220690295Y-79185875D01*
X220643333Y-79199038D01*
X220604982Y-79229170D01*
X220581082Y-79271685D01*
X220575271Y-79320111D01*
X220015377Y-79320111D01*
X220015377Y-79102172D01*
X220366567Y-79102172D01*
X220390953Y-79099770D01*
X220436013Y-79081106D01*
X220470501Y-79046618D01*
X220489165Y-79001558D01*
X220489165Y-78952786D01*
X220470501Y-78907726D01*
X220436013Y-78873238D01*
X220390953Y-78854574D01*
X220366567Y-78852172D01*
X219890377Y-78852172D01*
X219865991Y-78854574D01*
X219820931Y-78873238D01*
X219786443Y-78907726D01*
X219767779Y-78952786D01*
X219765377Y-78977172D01*
X219640377Y-78977172D01*
X219640377Y-78727172D01*
X223709404Y-78727172D01*
X223709404Y-80227172D01*
G37*
G36*
X223711806Y-77712951D02*
G01*
X219640377Y-77712951D01*
X219640377Y-76462951D01*
X219765377Y-76462951D01*
X219765377Y-77462951D01*
X219767779Y-77487337D01*
X219786443Y-77532397D01*
X219820931Y-77566885D01*
X219865991Y-77585549D01*
X219890377Y-77587951D01*
X220366567Y-77587951D01*
X220390953Y-77585549D01*
X220436013Y-77566885D01*
X220470501Y-77532397D01*
X220489165Y-77487337D01*
X220489165Y-77438565D01*
X220470501Y-77393505D01*
X220436013Y-77359017D01*
X220390953Y-77340353D01*
X220366567Y-77337951D01*
X220015377Y-77337951D01*
X220015377Y-77064141D01*
X220223710Y-77064141D01*
X220248096Y-77061739D01*
X220293156Y-77043075D01*
X220327644Y-77008587D01*
X220346308Y-76963527D01*
X220346308Y-76914755D01*
X220327644Y-76869695D01*
X220293156Y-76835207D01*
X220248096Y-76816543D01*
X220223710Y-76814141D01*
X220015377Y-76814141D01*
X220015377Y-76805890D01*
X220575271Y-76805890D01*
X220588434Y-76852852D01*
X220601611Y-76873512D01*
X220802836Y-77129617D01*
X220601611Y-77385723D01*
X220588434Y-77406383D01*
X220575271Y-77453345D01*
X220581082Y-77501771D01*
X220604982Y-77544286D01*
X220643333Y-77574418D01*
X220690295Y-77587581D01*
X220738721Y-77581770D01*
X220781236Y-77557870D01*
X220798191Y-77540179D01*
X220961805Y-77331942D01*
X221125420Y-77540179D01*
X221142375Y-77557870D01*
X221184890Y-77581770D01*
X221233316Y-77587581D01*
X221280278Y-77574418D01*
X221318629Y-77544286D01*
X221342529Y-77501771D01*
X221348340Y-77453345D01*
X221335177Y-77406383D01*
X221322000Y-77385723D01*
X221120774Y-77129617D01*
X221322000Y-76873512D01*
X221335177Y-76852852D01*
X221342183Y-76827854D01*
X221357872Y-76865730D01*
X221392360Y-76900218D01*
X221437420Y-76918882D01*
X221461806Y-76921284D01*
X221479663Y-76921284D01*
X221479663Y-77320093D01*
X221482065Y-77344479D01*
X221483783Y-77348628D01*
X221484102Y-77353108D01*
X221492859Y-77375994D01*
X221540478Y-77471233D01*
X221543045Y-77475311D01*
X221543687Y-77477236D01*
X221545765Y-77479632D01*
X221553532Y-77491970D01*
X221565374Y-77502241D01*
X221575643Y-77514081D01*
X221587976Y-77521845D01*
X221590377Y-77523927D01*
X221592304Y-77524569D01*
X221596380Y-77527135D01*
X221691618Y-77574754D01*
X221714504Y-77583512D01*
X221718984Y-77583830D01*
X221723134Y-77585549D01*
X221747520Y-77587951D01*
X221842758Y-77587951D01*
X221867144Y-77585549D01*
X221912204Y-77566885D01*
X221946692Y-77532397D01*
X221965356Y-77487337D01*
X221965356Y-77438565D01*
X221965356Y-77438564D01*
X222720161Y-77438564D01*
X222720161Y-77487338D01*
X222725627Y-77500535D01*
X222738825Y-77532397D01*
X222773313Y-77566885D01*
X222805174Y-77580082D01*
X222818372Y-77585549D01*
X222818373Y-77585549D01*
X222842759Y-77587951D01*
X223461806Y-77587951D01*
X223486192Y-77585549D01*
X223531252Y-77566885D01*
X223565740Y-77532397D01*
X223584404Y-77487337D01*
X223584404Y-77438565D01*
X223565740Y-77393505D01*
X223531252Y-77359017D01*
X223486192Y-77340353D01*
X223461806Y-77337951D01*
X223144535Y-77337951D01*
X223502575Y-76979910D01*
X223518120Y-76960968D01*
X223519838Y-76956818D01*
X223522782Y-76953425D01*
X223532772Y-76931050D01*
X223580391Y-76788194D01*
X223583140Y-76776100D01*
X223584404Y-76773051D01*
X223584839Y-76768629D01*
X223585824Y-76764300D01*
X223585590Y-76761008D01*
X223586806Y-76748665D01*
X223586806Y-76653427D01*
X223584404Y-76629041D01*
X223582685Y-76624891D01*
X223582367Y-76620411D01*
X223573609Y-76597525D01*
X223525990Y-76502287D01*
X223519383Y-76491792D01*
X223518120Y-76488742D01*
X223515301Y-76485307D01*
X223512936Y-76481550D01*
X223510444Y-76479388D01*
X223502575Y-76469800D01*
X223454956Y-76422182D01*
X223445370Y-76414315D01*
X223443207Y-76411821D01*
X223439445Y-76409452D01*
X223436014Y-76406637D01*
X223432967Y-76405375D01*
X223422469Y-76398766D01*
X223327232Y-76351148D01*
X223304346Y-76342390D01*
X223299864Y-76342071D01*
X223295716Y-76340353D01*
X223271330Y-76337951D01*
X223033235Y-76337951D01*
X223008849Y-76340353D01*
X223004699Y-76342071D01*
X223000219Y-76342390D01*
X222977333Y-76351148D01*
X222882095Y-76398767D01*
X222871600Y-76405373D01*
X222868550Y-76406637D01*
X222865115Y-76409455D01*
X222861358Y-76411821D01*
X222859196Y-76414312D01*
X222849608Y-76422182D01*
X222801990Y-76469801D01*
X222786445Y-76488743D01*
X222767780Y-76533802D01*
X222767780Y-76582576D01*
X222786445Y-76627635D01*
X222820932Y-76662122D01*
X222865991Y-76680787D01*
X222914765Y-76680787D01*
X222959824Y-76662122D01*
X222978766Y-76646577D01*
X223012042Y-76613301D01*
X223062744Y-76587951D01*
X223241822Y-76587951D01*
X223292523Y-76613301D01*
X223311455Y-76632234D01*
X223336806Y-76682935D01*
X223336806Y-76728379D01*
X223304933Y-76823999D01*
X222754371Y-77374563D01*
X222738830Y-77393499D01*
X222738825Y-77393505D01*
X222733491Y-77406383D01*
X222720161Y-77438564D01*
X221965356Y-77438564D01*
X221946692Y-77393505D01*
X221912204Y-77359017D01*
X221867144Y-77340353D01*
X221842758Y-77337951D01*
X221777029Y-77337951D01*
X221745452Y-77322162D01*
X221729663Y-77290584D01*
X221729663Y-76921284D01*
X221842758Y-76921284D01*
X221867144Y-76918882D01*
X221912204Y-76900218D01*
X221946692Y-76865730D01*
X221965356Y-76820670D01*
X221965356Y-76771898D01*
X221946692Y-76726838D01*
X221912204Y-76692350D01*
X221867144Y-76673686D01*
X221842758Y-76671284D01*
X221729663Y-76671284D01*
X221729663Y-76462951D01*
X221727261Y-76438565D01*
X221708597Y-76393505D01*
X221674109Y-76359017D01*
X221629049Y-76340353D01*
X221580277Y-76340353D01*
X221535217Y-76359017D01*
X221500729Y-76393505D01*
X221482065Y-76438565D01*
X221479663Y-76462951D01*
X221479663Y-76671284D01*
X221461806Y-76671284D01*
X221437420Y-76673686D01*
X221392360Y-76692350D01*
X221357872Y-76726838D01*
X221343125Y-76762438D01*
X221342529Y-76757464D01*
X221318629Y-76714949D01*
X221280278Y-76684817D01*
X221233316Y-76671654D01*
X221184890Y-76677465D01*
X221142375Y-76701365D01*
X221125420Y-76719056D01*
X220961805Y-76927292D01*
X220798191Y-76719056D01*
X220781236Y-76701365D01*
X220738721Y-76677465D01*
X220690295Y-76671654D01*
X220643333Y-76684817D01*
X220604982Y-76714949D01*
X220581082Y-76757464D01*
X220575271Y-76805890D01*
X220015377Y-76805890D01*
X220015377Y-76587951D01*
X220366567Y-76587951D01*
X220390953Y-76585549D01*
X220436013Y-76566885D01*
X220470501Y-76532397D01*
X220489165Y-76487337D01*
X220489165Y-76438565D01*
X220470501Y-76393505D01*
X220436013Y-76359017D01*
X220390953Y-76340353D01*
X220366567Y-76337951D01*
X219890377Y-76337951D01*
X219865991Y-76340353D01*
X219820931Y-76359017D01*
X219786443Y-76393505D01*
X219767779Y-76438565D01*
X219765377Y-76462951D01*
X219640377Y-76462951D01*
X219640377Y-76212951D01*
X223711806Y-76212951D01*
X223711806Y-77712951D01*
G37*
G36*
X223711806Y-75087261D02*
G01*
X219640377Y-75087261D01*
X219640377Y-73837261D01*
X219765377Y-73837261D01*
X219765377Y-74837261D01*
X219767779Y-74861647D01*
X219786443Y-74906707D01*
X219820931Y-74941195D01*
X219865991Y-74959859D01*
X219890377Y-74962261D01*
X220366567Y-74962261D01*
X220390953Y-74959859D01*
X220436013Y-74941195D01*
X220470501Y-74906707D01*
X220489165Y-74861647D01*
X220489165Y-74812875D01*
X220470501Y-74767815D01*
X220436013Y-74733327D01*
X220390953Y-74714663D01*
X220366567Y-74712261D01*
X220015377Y-74712261D01*
X220015377Y-74438451D01*
X220223710Y-74438451D01*
X220248096Y-74436049D01*
X220293156Y-74417385D01*
X220327644Y-74382897D01*
X220346308Y-74337837D01*
X220346308Y-74289065D01*
X220327644Y-74244005D01*
X220293156Y-74209517D01*
X220248096Y-74190853D01*
X220223710Y-74188451D01*
X220015377Y-74188451D01*
X220015377Y-74180200D01*
X220575271Y-74180200D01*
X220588434Y-74227162D01*
X220601611Y-74247822D01*
X220802836Y-74503927D01*
X220601611Y-74760033D01*
X220588434Y-74780693D01*
X220575271Y-74827655D01*
X220581082Y-74876081D01*
X220604982Y-74918596D01*
X220643333Y-74948728D01*
X220690295Y-74961891D01*
X220738721Y-74956080D01*
X220781236Y-74932180D01*
X220798191Y-74914489D01*
X220961805Y-74706252D01*
X221125420Y-74914489D01*
X221142375Y-74932180D01*
X221184890Y-74956080D01*
X221233316Y-74961891D01*
X221280278Y-74948728D01*
X221318629Y-74918596D01*
X221342529Y-74876081D01*
X221348340Y-74827655D01*
X221335177Y-74780693D01*
X221322000Y-74760033D01*
X221120774Y-74503927D01*
X221322000Y-74247822D01*
X221335177Y-74227162D01*
X221342183Y-74202164D01*
X221357872Y-74240040D01*
X221392360Y-74274528D01*
X221437420Y-74293192D01*
X221461806Y-74295594D01*
X221479663Y-74295594D01*
X221479663Y-74694403D01*
X221482065Y-74718789D01*
X221483783Y-74722938D01*
X221484102Y-74727418D01*
X221492859Y-74750304D01*
X221540478Y-74845543D01*
X221543045Y-74849621D01*
X221543687Y-74851546D01*
X221545765Y-74853942D01*
X221553532Y-74866280D01*
X221565374Y-74876551D01*
X221575643Y-74888391D01*
X221587976Y-74896155D01*
X221590377Y-74898237D01*
X221592304Y-74898879D01*
X221596380Y-74901445D01*
X221691618Y-74949064D01*
X221714504Y-74957822D01*
X221718984Y-74958140D01*
X221723134Y-74959859D01*
X221747520Y-74962261D01*
X221842758Y-74962261D01*
X221867144Y-74959859D01*
X221912204Y-74941195D01*
X221946692Y-74906707D01*
X221965356Y-74861647D01*
X221965356Y-74812875D01*
X221946692Y-74767815D01*
X221912204Y-74733327D01*
X221867144Y-74714663D01*
X221842758Y-74712261D01*
X221777029Y-74712261D01*
X221745452Y-74696472D01*
X221729663Y-74664894D01*
X221729663Y-74295594D01*
X221842758Y-74295594D01*
X221867144Y-74293192D01*
X221912204Y-74274528D01*
X221946692Y-74240040D01*
X221965356Y-74194980D01*
X221965356Y-74146208D01*
X221946692Y-74101148D01*
X221912204Y-74066660D01*
X221867144Y-74047996D01*
X221842758Y-74045594D01*
X221729663Y-74045594D01*
X221729663Y-73837261D01*
X221727261Y-73812875D01*
X222720161Y-73812875D01*
X222720161Y-73861647D01*
X222738825Y-73906707D01*
X222773313Y-73941195D01*
X222818373Y-73959859D01*
X222842759Y-73962261D01*
X223186335Y-73962261D01*
X223034401Y-74135900D01*
X223026865Y-74146440D01*
X223024539Y-74148767D01*
X223023625Y-74150972D01*
X223020150Y-74155834D01*
X223013643Y-74175072D01*
X223005875Y-74193827D01*
X223005875Y-74198040D01*
X223004524Y-74202035D01*
X223005875Y-74222296D01*
X223005875Y-74242599D01*
X223007488Y-74246494D01*
X223007769Y-74250701D01*
X223016768Y-74268899D01*
X223024539Y-74287659D01*
X223027520Y-74290640D01*
X223029389Y-74294419D01*
X223044669Y-74307789D01*
X223059027Y-74322147D01*
X223062921Y-74323760D01*
X223066094Y-74326536D01*
X223085332Y-74333042D01*
X223104087Y-74340811D01*
X223110031Y-74341396D01*
X223112295Y-74342162D01*
X223115579Y-74341942D01*
X223128473Y-74343213D01*
X223241822Y-74343213D01*
X223292523Y-74368563D01*
X223311455Y-74387496D01*
X223336806Y-74438197D01*
X223336806Y-74617275D01*
X223311454Y-74667978D01*
X223292523Y-74686910D01*
X223241822Y-74712261D01*
X223015125Y-74712261D01*
X222964423Y-74686910D01*
X222931148Y-74653635D01*
X222912206Y-74638089D01*
X222867147Y-74619424D01*
X222818374Y-74619424D01*
X222773314Y-74638088D01*
X222738826Y-74672575D01*
X222720161Y-74717634D01*
X222720161Y-74766407D01*
X222738825Y-74811467D01*
X222754370Y-74830409D01*
X222801989Y-74878029D01*
X222811577Y-74885898D01*
X222813739Y-74888391D01*
X222817493Y-74890754D01*
X222820930Y-74893575D01*
X222823983Y-74894839D01*
X222834476Y-74901445D01*
X222929714Y-74949064D01*
X222952600Y-74957822D01*
X222957080Y-74958140D01*
X222961230Y-74959859D01*
X222985616Y-74962261D01*
X223271330Y-74962261D01*
X223295716Y-74959859D01*
X223299864Y-74958140D01*
X223304346Y-74957822D01*
X223327232Y-74949064D01*
X223422469Y-74901446D01*
X223432965Y-74894838D01*
X223436015Y-74893575D01*
X223439448Y-74890756D01*
X223443207Y-74888391D01*
X223445369Y-74885897D01*
X223454957Y-74878029D01*
X223502576Y-74830410D01*
X223510443Y-74820822D01*
X223512936Y-74818661D01*
X223515302Y-74814901D01*
X223518121Y-74811467D01*
X223519383Y-74808418D01*
X223525990Y-74797924D01*
X223573609Y-74702686D01*
X223582367Y-74679800D01*
X223582685Y-74675319D01*
X223584404Y-74671170D01*
X223586806Y-74646784D01*
X223586806Y-74408689D01*
X223584404Y-74384303D01*
X223582685Y-74380153D01*
X223582367Y-74375673D01*
X223573609Y-74352787D01*
X223525990Y-74257549D01*
X223519383Y-74247054D01*
X223518120Y-74244004D01*
X223515301Y-74240569D01*
X223512936Y-74236812D01*
X223510444Y-74234650D01*
X223502575Y-74225062D01*
X223454956Y-74177444D01*
X223445370Y-74169577D01*
X223443207Y-74167083D01*
X223439445Y-74164714D01*
X223436014Y-74161899D01*
X223432967Y-74160637D01*
X223422469Y-74154028D01*
X223372563Y-74129075D01*
X223555878Y-73919574D01*
X223563413Y-73909033D01*
X223565740Y-73906707D01*
X223566653Y-73904501D01*
X223570129Y-73899640D01*
X223576635Y-73880401D01*
X223584404Y-73861647D01*
X223584404Y-73857433D01*
X223585755Y-73853439D01*
X223584404Y-73833171D01*
X223584404Y-73812875D01*
X223582791Y-73808982D01*
X223582511Y-73804773D01*
X223573507Y-73786567D01*
X223565740Y-73767815D01*
X223562758Y-73764833D01*
X223560890Y-73761055D01*
X223545609Y-73747684D01*
X223531252Y-73733327D01*
X223527357Y-73731713D01*
X223524185Y-73728938D01*
X223504946Y-73722431D01*
X223486192Y-73714663D01*
X223480247Y-73714077D01*
X223477984Y-73713312D01*
X223474699Y-73713530D01*
X223461806Y-73712261D01*
X222842759Y-73712261D01*
X222818373Y-73714663D01*
X222773313Y-73733327D01*
X222738825Y-73767815D01*
X222720161Y-73812875D01*
X221727261Y-73812875D01*
X221708597Y-73767815D01*
X221674109Y-73733327D01*
X221629049Y-73714663D01*
X221580277Y-73714663D01*
X221535217Y-73733327D01*
X221500729Y-73767815D01*
X221482065Y-73812875D01*
X221479663Y-73837261D01*
X221479663Y-74045594D01*
X221461806Y-74045594D01*
X221437420Y-74047996D01*
X221392360Y-74066660D01*
X221357872Y-74101148D01*
X221343125Y-74136748D01*
X221342529Y-74131774D01*
X221318629Y-74089259D01*
X221280278Y-74059127D01*
X221233316Y-74045964D01*
X221184890Y-74051775D01*
X221142375Y-74075675D01*
X221125420Y-74093366D01*
X220961805Y-74301602D01*
X220798191Y-74093366D01*
X220781236Y-74075675D01*
X220738721Y-74051775D01*
X220690295Y-74045964D01*
X220643333Y-74059127D01*
X220604982Y-74089259D01*
X220581082Y-74131774D01*
X220575271Y-74180200D01*
X220015377Y-74180200D01*
X220015377Y-73962261D01*
X220366567Y-73962261D01*
X220390953Y-73959859D01*
X220436013Y-73941195D01*
X220470501Y-73906707D01*
X220489165Y-73861647D01*
X220489165Y-73812875D01*
X220470501Y-73767815D01*
X220436013Y-73733327D01*
X220390953Y-73714663D01*
X220366567Y-73712261D01*
X219890377Y-73712261D01*
X219865991Y-73714663D01*
X219820931Y-73733327D01*
X219786443Y-73767815D01*
X219767779Y-73812875D01*
X219765377Y-73837261D01*
X219640377Y-73837261D01*
X219640377Y-73587261D01*
X223711806Y-73587261D01*
X223711806Y-75087261D01*
G37*
D10*
X220336366Y-70281913D02*
X223719000Y-70281913D01*
X223719000Y-71031944D01*
X220336366Y-71031944D01*
X220336366Y-70281913D01*
G36*
X220336366Y-70281913D02*
G01*
X223719000Y-70281913D01*
X223719000Y-71031944D01*
X220336366Y-71031944D01*
X220336366Y-70281913D01*
G37*
X219202000Y-70610817D02*
X220336366Y-70610817D01*
X220336366Y-72452128D01*
X219202000Y-72452128D01*
X219202000Y-70610817D01*
G36*
X219202000Y-70610817D02*
G01*
X220336366Y-70610817D01*
X220336366Y-72452128D01*
X219202000Y-72452128D01*
X219202000Y-70610817D01*
G37*
X219202000Y-72452128D02*
X223703266Y-72452128D01*
X223703266Y-73097000D01*
X219202000Y-73097000D01*
X219202000Y-72452128D01*
G36*
X219202000Y-72452128D02*
G01*
X223703266Y-72452128D01*
X223703266Y-73097000D01*
X219202000Y-73097000D01*
X219202000Y-72452128D01*
G37*
X223086312Y-69953008D02*
X224172000Y-69953008D01*
X224172000Y-73097000D01*
X223086312Y-73097000D01*
X223086312Y-69953008D01*
G36*
X223086312Y-69953008D02*
G01*
X224172000Y-69953008D01*
X224172000Y-73097000D01*
X223086312Y-73097000D01*
X223086312Y-69953008D01*
G37*
D11*
G36*
X223092758Y-72504619D02*
G01*
X220166589Y-72504619D01*
X220166589Y-71230233D01*
X220291589Y-71230233D01*
X220291589Y-71279005D01*
X220310253Y-71324065D01*
X220344741Y-71358553D01*
X220389801Y-71377217D01*
X220414187Y-71379619D01*
X220757763Y-71379619D01*
X220605829Y-71553258D01*
X220598293Y-71563798D01*
X220595967Y-71566125D01*
X220595053Y-71568330D01*
X220591578Y-71573192D01*
X220585071Y-71592430D01*
X220577303Y-71611185D01*
X220577303Y-71615398D01*
X220575952Y-71619393D01*
X220577303Y-71639654D01*
X220577303Y-71659957D01*
X220578916Y-71663852D01*
X220579197Y-71668059D01*
X220588196Y-71686257D01*
X220595967Y-71705017D01*
X220598948Y-71707998D01*
X220600817Y-71711777D01*
X220616097Y-71725147D01*
X220630455Y-71739505D01*
X220634349Y-71741118D01*
X220637522Y-71743894D01*
X220656760Y-71750400D01*
X220675515Y-71758169D01*
X220681459Y-71758754D01*
X220683723Y-71759520D01*
X220687007Y-71759300D01*
X220699901Y-71760571D01*
X220813250Y-71760571D01*
X220863951Y-71785921D01*
X220882883Y-71804854D01*
X220908234Y-71855555D01*
X220908234Y-72034633D01*
X220882882Y-72085336D01*
X220863951Y-72104268D01*
X220813250Y-72129619D01*
X220586553Y-72129619D01*
X220535851Y-72104268D01*
X220502576Y-72070993D01*
X220483634Y-72055447D01*
X220438575Y-72036782D01*
X220389802Y-72036782D01*
X220344742Y-72055446D01*
X220310254Y-72089933D01*
X220291589Y-72134992D01*
X220291589Y-72183765D01*
X220310253Y-72228825D01*
X220325798Y-72247767D01*
X220373417Y-72295387D01*
X220383005Y-72303256D01*
X220385167Y-72305749D01*
X220388921Y-72308112D01*
X220392358Y-72310933D01*
X220395411Y-72312197D01*
X220405904Y-72318803D01*
X220501142Y-72366422D01*
X220524028Y-72375180D01*
X220528508Y-72375498D01*
X220532658Y-72377217D01*
X220557044Y-72379619D01*
X220842758Y-72379619D01*
X220867144Y-72377217D01*
X220871292Y-72375498D01*
X220875774Y-72375180D01*
X220898660Y-72366422D01*
X220993897Y-72318804D01*
X221004393Y-72312196D01*
X221007443Y-72310933D01*
X221010876Y-72308114D01*
X221014635Y-72305749D01*
X221016797Y-72303255D01*
X221026385Y-72295387D01*
X221074004Y-72247768D01*
X221081871Y-72238180D01*
X221084364Y-72236019D01*
X221086730Y-72232259D01*
X221089549Y-72228825D01*
X221090811Y-72225776D01*
X221097418Y-72215282D01*
X221145037Y-72120044D01*
X221153795Y-72097158D01*
X221154113Y-72092677D01*
X221155832Y-72088528D01*
X221158234Y-72064142D01*
X221158234Y-71826047D01*
X221155832Y-71801661D01*
X221154113Y-71797511D01*
X221153795Y-71793031D01*
X221145037Y-71770145D01*
X221097418Y-71674907D01*
X221090811Y-71664412D01*
X221089548Y-71661362D01*
X221086729Y-71657927D01*
X221084364Y-71654170D01*
X221081872Y-71652008D01*
X221074003Y-71642420D01*
X221026384Y-71594802D01*
X221016798Y-71586935D01*
X221014635Y-71584441D01*
X221010873Y-71582072D01*
X221007442Y-71579257D01*
X221004395Y-71577995D01*
X220993897Y-71571386D01*
X220943991Y-71546433D01*
X221127306Y-71336932D01*
X221134841Y-71326391D01*
X221137168Y-71324065D01*
X221138081Y-71321859D01*
X221141557Y-71316998D01*
X221148063Y-71297759D01*
X221155832Y-71279005D01*
X221155832Y-71274791D01*
X221157183Y-71270797D01*
X221157147Y-71270253D01*
X221194931Y-71270253D01*
X221200364Y-71294147D01*
X221533696Y-72294147D01*
X221543687Y-72316522D01*
X221549537Y-72323268D01*
X221553533Y-72331259D01*
X221565373Y-72341527D01*
X221575642Y-72353368D01*
X221583633Y-72357363D01*
X221590379Y-72363214D01*
X221605244Y-72368169D01*
X221619266Y-72375180D01*
X221628176Y-72375813D01*
X221636648Y-72378637D01*
X221652281Y-72377526D01*
X221667916Y-72378637D01*
X221676387Y-72375813D01*
X221685297Y-72375180D01*
X221699317Y-72368169D01*
X221714185Y-72363214D01*
X221720930Y-72357363D01*
X221728922Y-72353368D01*
X221739193Y-72341524D01*
X221751031Y-72331258D01*
X221755025Y-72323269D01*
X221760877Y-72316522D01*
X221770867Y-72294147D01*
X222104200Y-71294148D01*
X222105328Y-71289183D01*
X222119777Y-71324065D01*
X222154265Y-71358553D01*
X222199325Y-71377217D01*
X222223711Y-71379619D01*
X222567287Y-71379619D01*
X222415353Y-71553258D01*
X222407817Y-71563798D01*
X222405491Y-71566125D01*
X222404577Y-71568330D01*
X222401102Y-71573192D01*
X222394595Y-71592430D01*
X222386827Y-71611185D01*
X222386827Y-71615398D01*
X222385476Y-71619393D01*
X222386827Y-71639654D01*
X222386827Y-71659957D01*
X222388440Y-71663852D01*
X222388721Y-71668059D01*
X222397720Y-71686257D01*
X222405491Y-71705017D01*
X222408472Y-71707998D01*
X222410341Y-71711777D01*
X222425621Y-71725147D01*
X222439979Y-71739505D01*
X222443873Y-71741118D01*
X222447046Y-71743894D01*
X222466284Y-71750400D01*
X222485039Y-71758169D01*
X222490983Y-71758754D01*
X222493247Y-71759520D01*
X222496531Y-71759300D01*
X222509425Y-71760571D01*
X222622774Y-71760571D01*
X222673475Y-71785921D01*
X222692407Y-71804854D01*
X222717758Y-71855555D01*
X222717758Y-72034633D01*
X222692406Y-72085336D01*
X222673475Y-72104268D01*
X222622774Y-72129619D01*
X222396077Y-72129619D01*
X222345375Y-72104268D01*
X222312100Y-72070993D01*
X222293158Y-72055447D01*
X222248099Y-72036782D01*
X222199326Y-72036782D01*
X222154266Y-72055446D01*
X222119778Y-72089933D01*
X222101113Y-72134992D01*
X222101113Y-72183765D01*
X222119777Y-72228825D01*
X222135322Y-72247767D01*
X222182941Y-72295387D01*
X222192529Y-72303256D01*
X222194691Y-72305749D01*
X222198445Y-72308112D01*
X222201882Y-72310933D01*
X222204935Y-72312197D01*
X222215428Y-72318803D01*
X222310666Y-72366422D01*
X222333552Y-72375180D01*
X222338032Y-72375498D01*
X222342182Y-72377217D01*
X222366568Y-72379619D01*
X222652282Y-72379619D01*
X222676668Y-72377217D01*
X222680816Y-72375498D01*
X222685298Y-72375180D01*
X222708184Y-72366422D01*
X222803421Y-72318804D01*
X222813917Y-72312196D01*
X222816967Y-72310933D01*
X222820400Y-72308114D01*
X222824159Y-72305749D01*
X222826321Y-72303255D01*
X222835909Y-72295387D01*
X222883528Y-72247768D01*
X222891395Y-72238180D01*
X222893888Y-72236019D01*
X222896254Y-72232259D01*
X222899073Y-72228825D01*
X222900335Y-72225776D01*
X222906942Y-72215282D01*
X222954561Y-72120044D01*
X222963319Y-72097158D01*
X222963637Y-72092677D01*
X222965356Y-72088528D01*
X222967758Y-72064142D01*
X222967758Y-71826047D01*
X222965356Y-71801661D01*
X222963637Y-71797511D01*
X222963319Y-71793031D01*
X222954561Y-71770145D01*
X222906942Y-71674907D01*
X222900335Y-71664412D01*
X222899072Y-71661362D01*
X222896253Y-71657927D01*
X222893888Y-71654170D01*
X222891396Y-71652008D01*
X222883527Y-71642420D01*
X222835908Y-71594802D01*
X222826322Y-71586935D01*
X222824159Y-71584441D01*
X222820397Y-71582072D01*
X222816966Y-71579257D01*
X222813919Y-71577995D01*
X222803421Y-71571386D01*
X222753515Y-71546433D01*
X222936830Y-71336932D01*
X222944365Y-71326391D01*
X222946692Y-71324065D01*
X222947605Y-71321859D01*
X222951081Y-71316998D01*
X222957587Y-71297759D01*
X222965356Y-71279005D01*
X222965356Y-71274791D01*
X222966707Y-71270797D01*
X222965356Y-71250529D01*
X222965356Y-71230233D01*
X222963743Y-71226340D01*
X222963463Y-71222131D01*
X222954459Y-71203925D01*
X222946692Y-71185173D01*
X222943710Y-71182191D01*
X222941842Y-71178413D01*
X222926561Y-71165042D01*
X222912204Y-71150685D01*
X222908309Y-71149071D01*
X222905137Y-71146296D01*
X222885898Y-71139789D01*
X222867144Y-71132021D01*
X222861199Y-71131435D01*
X222858936Y-71130670D01*
X222855651Y-71130888D01*
X222842758Y-71129619D01*
X222223711Y-71129619D01*
X222199325Y-71132021D01*
X222154265Y-71150685D01*
X222119777Y-71185173D01*
X222105361Y-71219975D01*
X222084364Y-71177980D01*
X222047518Y-71146024D01*
X222001249Y-71130601D01*
X221952599Y-71134058D01*
X221908975Y-71155870D01*
X221877020Y-71192716D01*
X221867029Y-71215091D01*
X221652281Y-71859334D01*
X221437534Y-71215091D01*
X221427544Y-71192716D01*
X221395589Y-71155870D01*
X221351964Y-71134058D01*
X221303315Y-71130601D01*
X221257046Y-71146024D01*
X221220200Y-71177979D01*
X221198388Y-71221604D01*
X221194931Y-71270253D01*
X221157147Y-71270253D01*
X221155832Y-71250529D01*
X221155832Y-71230233D01*
X221154219Y-71226340D01*
X221153939Y-71222131D01*
X221144935Y-71203925D01*
X221137168Y-71185173D01*
X221134186Y-71182191D01*
X221132318Y-71178413D01*
X221117037Y-71165042D01*
X221102680Y-71150685D01*
X221098785Y-71149071D01*
X221095613Y-71146296D01*
X221076374Y-71139789D01*
X221057620Y-71132021D01*
X221051675Y-71131435D01*
X221049412Y-71130670D01*
X221046127Y-71130888D01*
X221033234Y-71129619D01*
X220414187Y-71129619D01*
X220389801Y-71132021D01*
X220344741Y-71150685D01*
X220310253Y-71185173D01*
X220291589Y-71230233D01*
X220166589Y-71230233D01*
X220166589Y-71004619D01*
X223092758Y-71004619D01*
X223092758Y-72504619D01*
G37*
D10*
X220139970Y-68073746D02*
X220064838Y-69944969D01*
X219202000Y-69953008D01*
X219202000Y-68605173D01*
X219425185Y-68182785D01*
X219956909Y-67959633D01*
X220139970Y-68073746D01*
G36*
X220139970Y-68073746D02*
G01*
X220064838Y-69944969D01*
X219202000Y-69953008D01*
X219202000Y-68605173D01*
X219425185Y-68182785D01*
X219956909Y-67959633D01*
X220139970Y-68073746D01*
G37*
X219956909Y-67959633D02*
X224172000Y-67959633D01*
X224172000Y-68516311D01*
X219956909Y-68516311D01*
X219956909Y-67959633D01*
G36*
X219956909Y-67959633D02*
G01*
X224172000Y-67959633D01*
X224172000Y-68516311D01*
X219956909Y-68516311D01*
X219956909Y-67959633D01*
G37*
X223266000Y-68072000D02*
X224172000Y-68072000D01*
X224172000Y-70281913D01*
X223266000Y-70281913D01*
X223266000Y-68072000D01*
G36*
X223266000Y-68072000D02*
G01*
X224172000Y-68072000D01*
X224172000Y-70281913D01*
X223266000Y-70281913D01*
X223266000Y-68072000D01*
G37*
X219202000Y-69953008D02*
X224172000Y-69953008D01*
X224172000Y-70610817D01*
X219202000Y-70610817D01*
X219202000Y-69953008D01*
G36*
X219202000Y-69953008D02*
G01*
X224172000Y-69953008D01*
X224172000Y-70610817D01*
X219202000Y-70610817D01*
X219202000Y-69953008D01*
G37*
X224172000Y-78232000D02*
X219202000Y-78232000D01*
X224172000Y-75735074D02*
X219202000Y-75735074D01*
X224172000Y-73097000D02*
X219202000Y-73097000D01*
X224172000Y-70609633D02*
X219202000Y-70612000D01*
X219961632Y-80867157D02*
G75*
G02*
X219199632Y-80105157I1J762001D01*
G01*
X219202000Y-68721600D02*
X219202000Y-80105157D01*
X219202000Y-68721633D02*
G75*
G02*
X219964000Y-67959633I762000J0D01*
G01*
X219964000Y-80867157D02*
X226932000Y-80882000D01*
X224172000Y-67962000D02*
X219956909Y-67959633D01*
D11*
G36*
X222727616Y-68871491D02*
G01*
X222787644Y-68931519D01*
X222820055Y-68996342D01*
X222860615Y-69158579D01*
X222860615Y-69270658D01*
X222820055Y-69432894D01*
X222787645Y-69497715D01*
X222727615Y-69557746D01*
X222631999Y-69589619D01*
X222539187Y-69589619D01*
X222539187Y-68839619D01*
X222631999Y-68839619D01*
X222727616Y-68871491D01*
G37*
G36*
X223235615Y-69964619D02*
G01*
X220068949Y-69964619D01*
X220068949Y-69143190D01*
X220193949Y-69143190D01*
X220193949Y-69286047D01*
X220194368Y-69290301D01*
X220194097Y-69292123D01*
X220195446Y-69301251D01*
X220196351Y-69310433D01*
X220197055Y-69312134D01*
X220197681Y-69316364D01*
X220245300Y-69506840D01*
X220245943Y-69508639D01*
X220246007Y-69509539D01*
X220249889Y-69519685D01*
X220253545Y-69529915D01*
X220254081Y-69530639D01*
X220254765Y-69532425D01*
X220302383Y-69627662D01*
X220308989Y-69638156D01*
X220310253Y-69641207D01*
X220313073Y-69644643D01*
X220315438Y-69648400D01*
X220317929Y-69650560D01*
X220325798Y-69660149D01*
X220421036Y-69755388D01*
X220439978Y-69770933D01*
X220444129Y-69772652D01*
X220447522Y-69775595D01*
X220469897Y-69785585D01*
X220612753Y-69833204D01*
X220624846Y-69835953D01*
X220627896Y-69837217D01*
X220632317Y-69837652D01*
X220636647Y-69838637D01*
X220639938Y-69838403D01*
X220652282Y-69839619D01*
X220747520Y-69839619D01*
X220759863Y-69838403D01*
X220763154Y-69838637D01*
X220767483Y-69837652D01*
X220771906Y-69837217D01*
X220774957Y-69835953D01*
X220787048Y-69833204D01*
X220929905Y-69785586D01*
X220952280Y-69775595D01*
X220955672Y-69772652D01*
X220959824Y-69770933D01*
X220978766Y-69755387D01*
X221026385Y-69707768D01*
X221041925Y-69688830D01*
X221041930Y-69688826D01*
X221060594Y-69643766D01*
X221062996Y-69619380D01*
X221062996Y-69286047D01*
X221060594Y-69261661D01*
X221041930Y-69216601D01*
X221007442Y-69182113D01*
X220962382Y-69163449D01*
X220937996Y-69161047D01*
X220747520Y-69161047D01*
X220723134Y-69163449D01*
X220678074Y-69182113D01*
X220643586Y-69216601D01*
X220624922Y-69261661D01*
X220624922Y-69310433D01*
X220643586Y-69355493D01*
X220678074Y-69389981D01*
X220723134Y-69408645D01*
X220747520Y-69411047D01*
X220812996Y-69411047D01*
X220812996Y-69561032D01*
X220727237Y-69589619D01*
X220672568Y-69589619D01*
X220576949Y-69557746D01*
X220516918Y-69497715D01*
X220484508Y-69432896D01*
X220443949Y-69270658D01*
X220443949Y-69158579D01*
X220484508Y-68996341D01*
X220516919Y-68931520D01*
X220576947Y-68871491D01*
X220672568Y-68839619D01*
X220765631Y-68839619D01*
X220834475Y-68874041D01*
X220857361Y-68882799D01*
X220906010Y-68886256D01*
X220952281Y-68870833D01*
X220989126Y-68838877D01*
X221010937Y-68795254D01*
X221014395Y-68746604D01*
X221003734Y-68714619D01*
X221241568Y-68714619D01*
X221241568Y-69714619D01*
X221243970Y-69739005D01*
X221262634Y-69784065D01*
X221297122Y-69818553D01*
X221342182Y-69837217D01*
X221390954Y-69837217D01*
X221436014Y-69818553D01*
X221470502Y-69784065D01*
X221489166Y-69739005D01*
X221491568Y-69714619D01*
X221491568Y-69185313D01*
X221829466Y-69776636D01*
X221833112Y-69781773D01*
X221834062Y-69784065D01*
X221836396Y-69786399D01*
X221843650Y-69796618D01*
X221856794Y-69806797D01*
X221868550Y-69818553D01*
X221875910Y-69821601D01*
X221882211Y-69826481D01*
X221898252Y-69830855D01*
X221913610Y-69837217D01*
X221921577Y-69837217D01*
X221929266Y-69839314D01*
X221945761Y-69837217D01*
X221962382Y-69837217D01*
X221969742Y-69834168D01*
X221977649Y-69833163D01*
X221992083Y-69824914D01*
X222007442Y-69818553D01*
X222013076Y-69812918D01*
X222019995Y-69808965D01*
X222030174Y-69795820D01*
X222041930Y-69784065D01*
X222044978Y-69776704D01*
X222049858Y-69770404D01*
X222054233Y-69754361D01*
X222060594Y-69739005D01*
X222061822Y-69726535D01*
X222062691Y-69723350D01*
X222062378Y-69720890D01*
X222062996Y-69714619D01*
X222062996Y-68714619D01*
X222289187Y-68714619D01*
X222289187Y-69714619D01*
X222291589Y-69739005D01*
X222310253Y-69784065D01*
X222344741Y-69818553D01*
X222389801Y-69837217D01*
X222414187Y-69839619D01*
X222652282Y-69839619D01*
X222664625Y-69838403D01*
X222667916Y-69838637D01*
X222672245Y-69837652D01*
X222676668Y-69837217D01*
X222679719Y-69835953D01*
X222691810Y-69833204D01*
X222834667Y-69785586D01*
X222857042Y-69775595D01*
X222860434Y-69772652D01*
X222864586Y-69770933D01*
X222883528Y-69755388D01*
X222978766Y-69660149D01*
X222986634Y-69650560D01*
X222989126Y-69648400D01*
X222991490Y-69644643D01*
X222994311Y-69641207D01*
X222995575Y-69638155D01*
X223002180Y-69627663D01*
X223049799Y-69532425D01*
X223050482Y-69530639D01*
X223051019Y-69529915D01*
X223054674Y-69519685D01*
X223058557Y-69509539D01*
X223058620Y-69508639D01*
X223059264Y-69506840D01*
X223106883Y-69316364D01*
X223107508Y-69312134D01*
X223108213Y-69310433D01*
X223109117Y-69301253D01*
X223110467Y-69292124D01*
X223110195Y-69290301D01*
X223110615Y-69286047D01*
X223110615Y-69143190D01*
X223110195Y-69138935D01*
X223110467Y-69137113D01*
X223109117Y-69127983D01*
X223108213Y-69118804D01*
X223107508Y-69117102D01*
X223106883Y-69112873D01*
X223059264Y-68922397D01*
X223058620Y-68920597D01*
X223058557Y-68919698D01*
X223054674Y-68909551D01*
X223051019Y-68899322D01*
X223050482Y-68898597D01*
X223049799Y-68896812D01*
X223002180Y-68801574D01*
X222995572Y-68791077D01*
X222994310Y-68788030D01*
X222991493Y-68784598D01*
X222989126Y-68780837D01*
X222986631Y-68778673D01*
X222978765Y-68769088D01*
X222883527Y-68673850D01*
X222864585Y-68658305D01*
X222860435Y-68656586D01*
X222857042Y-68653643D01*
X222834667Y-68643652D01*
X222691810Y-68596034D01*
X222679719Y-68593284D01*
X222676668Y-68592021D01*
X222672245Y-68591585D01*
X222667916Y-68590601D01*
X222664625Y-68590834D01*
X222652282Y-68589619D01*
X222414187Y-68589619D01*
X222389801Y-68592021D01*
X222344741Y-68610685D01*
X222310253Y-68645173D01*
X222291589Y-68690233D01*
X222289187Y-68714619D01*
X222062996Y-68714619D01*
X222060594Y-68690233D01*
X222041930Y-68645173D01*
X222007442Y-68610685D01*
X221962382Y-68592021D01*
X221913610Y-68592021D01*
X221868550Y-68610685D01*
X221834062Y-68645173D01*
X221815398Y-68690233D01*
X221812996Y-68714619D01*
X221812996Y-69243923D01*
X221475098Y-68652602D01*
X221471451Y-68647464D01*
X221470502Y-68645173D01*
X221468167Y-68642838D01*
X221460914Y-68632620D01*
X221447769Y-68622440D01*
X221436014Y-68610685D01*
X221428653Y-68607636D01*
X221422353Y-68602757D01*
X221406311Y-68598382D01*
X221390954Y-68592021D01*
X221382987Y-68592021D01*
X221375298Y-68589924D01*
X221358803Y-68592021D01*
X221342182Y-68592021D01*
X221334821Y-68595069D01*
X221326915Y-68596075D01*
X221312480Y-68604323D01*
X221297122Y-68610685D01*
X221291487Y-68616319D01*
X221284569Y-68620273D01*
X221274389Y-68633417D01*
X221262634Y-68645173D01*
X221259585Y-68652533D01*
X221254706Y-68658834D01*
X221250331Y-68674875D01*
X221243970Y-68690233D01*
X221242741Y-68702704D01*
X221241873Y-68705889D01*
X221242185Y-68708348D01*
X221241568Y-68714619D01*
X221003734Y-68714619D01*
X220998972Y-68700334D01*
X220967016Y-68663489D01*
X220946278Y-68650434D01*
X220851041Y-68602816D01*
X220828155Y-68594058D01*
X220823673Y-68593739D01*
X220819525Y-68592021D01*
X220795139Y-68589619D01*
X220652282Y-68589619D01*
X220639938Y-68590834D01*
X220636647Y-68590601D01*
X220632317Y-68591585D01*
X220627896Y-68592021D01*
X220624846Y-68593284D01*
X220612753Y-68596034D01*
X220469897Y-68643653D01*
X220447522Y-68653643D01*
X220444128Y-68656586D01*
X220439979Y-68658305D01*
X220421037Y-68673850D01*
X220325799Y-68769088D01*
X220317932Y-68778673D01*
X220315438Y-68780837D01*
X220313069Y-68784598D01*
X220310254Y-68788030D01*
X220308992Y-68791076D01*
X220302383Y-68801575D01*
X220254765Y-68896812D01*
X220254081Y-68898597D01*
X220253545Y-68899322D01*
X220249889Y-68909551D01*
X220246007Y-68919698D01*
X220245943Y-68920597D01*
X220245300Y-68922397D01*
X220197681Y-69112873D01*
X220197055Y-69117102D01*
X220196351Y-69118804D01*
X220195446Y-69127985D01*
X220194097Y-69137114D01*
X220194368Y-69138935D01*
X220193949Y-69143190D01*
X220068949Y-69143190D01*
X220068949Y-68464619D01*
X223235615Y-68464619D01*
X223235615Y-69964619D01*
G37*
D12*
X155785598Y-71651461D02*
X155785598Y-70651461D01*
X155785598Y-70651461D02*
X156023693Y-70651461D01*
X156023693Y-70651461D02*
X156166550Y-70699080D01*
X156166550Y-70699080D02*
X156261788Y-70794318D01*
X156261788Y-70794318D02*
X156309407Y-70889556D01*
X156309407Y-70889556D02*
X156357026Y-71080032D01*
X156357026Y-71080032D02*
X156357026Y-71222889D01*
X156357026Y-71222889D02*
X156309407Y-71413365D01*
X156309407Y-71413365D02*
X156261788Y-71508603D01*
X156261788Y-71508603D02*
X156166550Y-71603842D01*
X156166550Y-71603842D02*
X156023693Y-71651461D01*
X156023693Y-71651461D02*
X155785598Y-71651461D01*
X157309407Y-71651461D02*
X156737979Y-71651461D01*
X157023693Y-71651461D02*
X157023693Y-70651461D01*
X157023693Y-70651461D02*
X156928455Y-70794318D01*
X156928455Y-70794318D02*
X156833217Y-70889556D01*
X156833217Y-70889556D02*
X156737979Y-70937175D01*
X158261788Y-71651461D02*
X157690360Y-71651461D01*
X157976074Y-71651461D02*
X157976074Y-70651461D01*
X157976074Y-70651461D02*
X157880836Y-70794318D01*
X157880836Y-70794318D02*
X157785598Y-70889556D01*
X157785598Y-70889556D02*
X157690360Y-70937175D01*
D13*
X225218666Y-81336819D02*
X225218666Y-82051104D01*
X225218666Y-82051104D02*
X225171047Y-82193961D01*
X225171047Y-82193961D02*
X225075809Y-82289200D01*
X225075809Y-82289200D02*
X224932952Y-82336819D01*
X224932952Y-82336819D02*
X224837714Y-82336819D01*
X226218666Y-82336819D02*
X225647238Y-82336819D01*
X225932952Y-82336819D02*
X225932952Y-81336819D01*
X225932952Y-81336819D02*
X225837714Y-81479676D01*
X225837714Y-81479676D02*
X225742476Y-81574914D01*
X225742476Y-81574914D02*
X225647238Y-81622533D01*
D12*
X99261789Y-84318128D02*
X99261789Y-83318128D01*
X99261789Y-83318128D02*
X99499884Y-83318128D01*
X99499884Y-83318128D02*
X99642741Y-83365747D01*
X99642741Y-83365747D02*
X99737979Y-83460985D01*
X99737979Y-83460985D02*
X99785598Y-83556223D01*
X99785598Y-83556223D02*
X99833217Y-83746699D01*
X99833217Y-83746699D02*
X99833217Y-83889556D01*
X99833217Y-83889556D02*
X99785598Y-84080032D01*
X99785598Y-84080032D02*
X99737979Y-84175270D01*
X99737979Y-84175270D02*
X99642741Y-84270509D01*
X99642741Y-84270509D02*
X99499884Y-84318128D01*
X99499884Y-84318128D02*
X99261789Y-84318128D01*
X100214170Y-83413366D02*
X100261789Y-83365747D01*
X100261789Y-83365747D02*
X100357027Y-83318128D01*
X100357027Y-83318128D02*
X100595122Y-83318128D01*
X100595122Y-83318128D02*
X100690360Y-83365747D01*
X100690360Y-83365747D02*
X100737979Y-83413366D01*
X100737979Y-83413366D02*
X100785598Y-83508604D01*
X100785598Y-83508604D02*
X100785598Y-83603842D01*
X100785598Y-83603842D02*
X100737979Y-83746699D01*
X100737979Y-83746699D02*
X100166551Y-84318128D01*
X100166551Y-84318128D02*
X100785598Y-84318128D01*
X155785598Y-52651461D02*
X155785598Y-51651461D01*
X155785598Y-51651461D02*
X156023693Y-51651461D01*
X156023693Y-51651461D02*
X156166550Y-51699080D01*
X156166550Y-51699080D02*
X156261788Y-51794318D01*
X156261788Y-51794318D02*
X156309407Y-51889556D01*
X156309407Y-51889556D02*
X156357026Y-52080032D01*
X156357026Y-52080032D02*
X156357026Y-52222889D01*
X156357026Y-52222889D02*
X156309407Y-52413365D01*
X156309407Y-52413365D02*
X156261788Y-52508603D01*
X156261788Y-52508603D02*
X156166550Y-52603842D01*
X156166550Y-52603842D02*
X156023693Y-52651461D01*
X156023693Y-52651461D02*
X155785598Y-52651461D01*
X157309407Y-52651461D02*
X156737979Y-52651461D01*
X157023693Y-52651461D02*
X157023693Y-51651461D01*
X157023693Y-51651461D02*
X156928455Y-51794318D01*
X156928455Y-51794318D02*
X156833217Y-51889556D01*
X156833217Y-51889556D02*
X156737979Y-51937175D01*
X157690360Y-51746699D02*
X157737979Y-51699080D01*
X157737979Y-51699080D02*
X157833217Y-51651461D01*
X157833217Y-51651461D02*
X158071312Y-51651461D01*
X158071312Y-51651461D02*
X158166550Y-51699080D01*
X158166550Y-51699080D02*
X158214169Y-51746699D01*
X158214169Y-51746699D02*
X158261788Y-51841937D01*
X158261788Y-51841937D02*
X158261788Y-51937175D01*
X158261788Y-51937175D02*
X158214169Y-52080032D01*
X158214169Y-52080032D02*
X157642741Y-52651461D01*
X157642741Y-52651461D02*
X158261788Y-52651461D01*
X174785598Y-77984795D02*
X174785598Y-76984795D01*
X174785598Y-76984795D02*
X175023693Y-76984795D01*
X175023693Y-76984795D02*
X175166550Y-77032414D01*
X175166550Y-77032414D02*
X175261788Y-77127652D01*
X175261788Y-77127652D02*
X175309407Y-77222890D01*
X175309407Y-77222890D02*
X175357026Y-77413366D01*
X175357026Y-77413366D02*
X175357026Y-77556223D01*
X175357026Y-77556223D02*
X175309407Y-77746699D01*
X175309407Y-77746699D02*
X175261788Y-77841937D01*
X175261788Y-77841937D02*
X175166550Y-77937176D01*
X175166550Y-77937176D02*
X175023693Y-77984795D01*
X175023693Y-77984795D02*
X174785598Y-77984795D01*
X176309407Y-77984795D02*
X175737979Y-77984795D01*
X176023693Y-77984795D02*
X176023693Y-76984795D01*
X176023693Y-76984795D02*
X175928455Y-77127652D01*
X175928455Y-77127652D02*
X175833217Y-77222890D01*
X175833217Y-77222890D02*
X175737979Y-77270509D01*
X177166550Y-77318128D02*
X177166550Y-77984795D01*
X176928455Y-76937176D02*
X176690360Y-77651461D01*
X176690360Y-77651461D02*
X177309407Y-77651461D01*
X221854568Y-141851705D02*
X222354568Y-140985680D01*
X222354568Y-140985680D02*
X222560764Y-141104727D01*
X222560764Y-141104727D02*
X222660673Y-141217395D01*
X222660673Y-141217395D02*
X222695532Y-141347493D01*
X222695532Y-141347493D02*
X222689152Y-141453781D01*
X222689152Y-141453781D02*
X222635154Y-141642548D01*
X222635154Y-141642548D02*
X222563725Y-141766266D01*
X222563725Y-141766266D02*
X222427248Y-141907413D01*
X222427248Y-141907413D02*
X222338389Y-141966082D01*
X222338389Y-141966082D02*
X222208292Y-142000942D01*
X222208292Y-142000942D02*
X222060764Y-141970753D01*
X222060764Y-141970753D02*
X221854568Y-141851705D01*
X223131735Y-141544349D02*
X223196784Y-141526919D01*
X223196784Y-141526919D02*
X223303072Y-141533299D01*
X223303072Y-141533299D02*
X223509268Y-141652346D01*
X223509268Y-141652346D02*
X223567937Y-141741205D01*
X223567937Y-141741205D02*
X223585367Y-141806254D01*
X223585367Y-141806254D02*
X223578987Y-141912542D01*
X223578987Y-141912542D02*
X223531368Y-141995020D01*
X223531368Y-141995020D02*
X223418700Y-142094929D01*
X223418700Y-142094929D02*
X222638114Y-142304086D01*
X222638114Y-142304086D02*
X223174225Y-142613610D01*
X223962901Y-141914251D02*
X224499012Y-142223775D01*
X224499012Y-142223775D02*
X224019860Y-142387023D01*
X224019860Y-142387023D02*
X224143578Y-142458451D01*
X224143578Y-142458451D02*
X224202247Y-142547310D01*
X224202247Y-142547310D02*
X224219677Y-142612359D01*
X224219677Y-142612359D02*
X224213297Y-142718647D01*
X224213297Y-142718647D02*
X224094250Y-142924843D01*
X224094250Y-142924843D02*
X224005391Y-142983512D01*
X224005391Y-142983512D02*
X223940342Y-143000942D01*
X223940342Y-143000942D02*
X223834054Y-142994562D01*
X223834054Y-142994562D02*
X223586619Y-142851705D01*
X223586619Y-142851705D02*
X223527949Y-142762847D01*
X223527949Y-142762847D02*
X223510520Y-142697798D01*
X155785598Y-90651461D02*
X155785598Y-89651461D01*
X155785598Y-89651461D02*
X156023693Y-89651461D01*
X156023693Y-89651461D02*
X156166550Y-89699080D01*
X156166550Y-89699080D02*
X156261788Y-89794318D01*
X156261788Y-89794318D02*
X156309407Y-89889556D01*
X156309407Y-89889556D02*
X156357026Y-90080032D01*
X156357026Y-90080032D02*
X156357026Y-90222889D01*
X156357026Y-90222889D02*
X156309407Y-90413365D01*
X156309407Y-90413365D02*
X156261788Y-90508603D01*
X156261788Y-90508603D02*
X156166550Y-90603842D01*
X156166550Y-90603842D02*
X156023693Y-90651461D01*
X156023693Y-90651461D02*
X155785598Y-90651461D01*
X157309407Y-90651461D02*
X156737979Y-90651461D01*
X157023693Y-90651461D02*
X157023693Y-89651461D01*
X157023693Y-89651461D02*
X156928455Y-89794318D01*
X156928455Y-89794318D02*
X156833217Y-89889556D01*
X156833217Y-89889556D02*
X156737979Y-89937175D01*
X157928455Y-89651461D02*
X158023693Y-89651461D01*
X158023693Y-89651461D02*
X158118931Y-89699080D01*
X158118931Y-89699080D02*
X158166550Y-89746699D01*
X158166550Y-89746699D02*
X158214169Y-89841937D01*
X158214169Y-89841937D02*
X158261788Y-90032413D01*
X158261788Y-90032413D02*
X158261788Y-90270508D01*
X158261788Y-90270508D02*
X158214169Y-90460984D01*
X158214169Y-90460984D02*
X158166550Y-90556222D01*
X158166550Y-90556222D02*
X158118931Y-90603842D01*
X158118931Y-90603842D02*
X158023693Y-90651461D01*
X158023693Y-90651461D02*
X157928455Y-90651461D01*
X157928455Y-90651461D02*
X157833217Y-90603842D01*
X157833217Y-90603842D02*
X157785598Y-90556222D01*
X157785598Y-90556222D02*
X157737979Y-90460984D01*
X157737979Y-90460984D02*
X157690360Y-90270508D01*
X157690360Y-90270508D02*
X157690360Y-90032413D01*
X157690360Y-90032413D02*
X157737979Y-89841937D01*
X157737979Y-89841937D02*
X157785598Y-89746699D01*
X157785598Y-89746699D02*
X157833217Y-89699080D01*
X157833217Y-89699080D02*
X157928455Y-89651461D01*
X198950664Y-141874688D02*
X199292684Y-140934995D01*
X199292684Y-140934995D02*
X199516420Y-141016428D01*
X199516420Y-141016428D02*
X199634375Y-141110036D01*
X199634375Y-141110036D02*
X199691296Y-141232104D01*
X199691296Y-141232104D02*
X199703470Y-141337885D01*
X199703470Y-141337885D02*
X199683071Y-141533160D01*
X199683071Y-141533160D02*
X199634211Y-141667402D01*
X199634211Y-141667402D02*
X199524317Y-141830105D01*
X199524317Y-141830105D02*
X199446996Y-141903313D01*
X199446996Y-141903313D02*
X199324928Y-141960234D01*
X199324928Y-141960234D02*
X199174400Y-141956121D01*
X199174400Y-141956121D02*
X198950664Y-141874688D01*
X200155056Y-141350223D02*
X200216090Y-141321762D01*
X200216090Y-141321762D02*
X200321871Y-141309588D01*
X200321871Y-141309588D02*
X200545607Y-141391022D01*
X200545607Y-141391022D02*
X200618815Y-141468342D01*
X200618815Y-141468342D02*
X200647276Y-141529376D01*
X200647276Y-141529376D02*
X200659450Y-141635158D01*
X200659450Y-141635158D02*
X200626876Y-141724652D01*
X200626876Y-141724652D02*
X200533269Y-141842607D01*
X200533269Y-141842607D02*
X199800862Y-142184134D01*
X199800862Y-142184134D02*
X200382576Y-142395861D01*
X201277522Y-142721595D02*
X200740554Y-142526155D01*
X201009038Y-142623875D02*
X201351058Y-141684182D01*
X201351058Y-141684182D02*
X201212704Y-141785850D01*
X201212704Y-141785850D02*
X201090636Y-141842772D01*
X201090636Y-141842772D02*
X200984854Y-141854946D01*
X174785598Y-58984795D02*
X174785598Y-57984795D01*
X174785598Y-57984795D02*
X175023693Y-57984795D01*
X175023693Y-57984795D02*
X175166550Y-58032414D01*
X175166550Y-58032414D02*
X175261788Y-58127652D01*
X175261788Y-58127652D02*
X175309407Y-58222890D01*
X175309407Y-58222890D02*
X175357026Y-58413366D01*
X175357026Y-58413366D02*
X175357026Y-58556223D01*
X175357026Y-58556223D02*
X175309407Y-58746699D01*
X175309407Y-58746699D02*
X175261788Y-58841937D01*
X175261788Y-58841937D02*
X175166550Y-58937176D01*
X175166550Y-58937176D02*
X175023693Y-58984795D01*
X175023693Y-58984795D02*
X174785598Y-58984795D01*
X176309407Y-58984795D02*
X175737979Y-58984795D01*
X176023693Y-58984795D02*
X176023693Y-57984795D01*
X176023693Y-57984795D02*
X175928455Y-58127652D01*
X175928455Y-58127652D02*
X175833217Y-58222890D01*
X175833217Y-58222890D02*
X175737979Y-58270509D01*
X177214169Y-57984795D02*
X176737979Y-57984795D01*
X176737979Y-57984795D02*
X176690360Y-58460985D01*
X176690360Y-58460985D02*
X176737979Y-58413366D01*
X176737979Y-58413366D02*
X176833217Y-58365747D01*
X176833217Y-58365747D02*
X177071312Y-58365747D01*
X177071312Y-58365747D02*
X177166550Y-58413366D01*
X177166550Y-58413366D02*
X177214169Y-58460985D01*
X177214169Y-58460985D02*
X177261788Y-58556223D01*
X177261788Y-58556223D02*
X177261788Y-58794318D01*
X177261788Y-58794318D02*
X177214169Y-58889556D01*
X177214169Y-58889556D02*
X177166550Y-58937176D01*
X177166550Y-58937176D02*
X177071312Y-58984795D01*
X177071312Y-58984795D02*
X176833217Y-58984795D01*
X176833217Y-58984795D02*
X176737979Y-58937176D01*
X176737979Y-58937176D02*
X176690360Y-58889556D01*
X179227860Y-138523506D02*
X179401509Y-137538698D01*
X179401509Y-137538698D02*
X179635987Y-137580043D01*
X179635987Y-137580043D02*
X179768405Y-137651745D01*
X179768405Y-137651745D02*
X179845658Y-137762074D01*
X179845658Y-137762074D02*
X179876016Y-137864135D01*
X179876016Y-137864135D02*
X179889835Y-138059986D01*
X179889835Y-138059986D02*
X179865028Y-138200673D01*
X179865028Y-138200673D02*
X179785057Y-138379986D01*
X179785057Y-138379986D02*
X179721623Y-138465509D01*
X179721623Y-138465509D02*
X179611294Y-138542762D01*
X179611294Y-138542762D02*
X179462339Y-138564851D01*
X179462339Y-138564851D02*
X179227860Y-138523506D01*
X180728520Y-138788113D02*
X180165773Y-138688885D01*
X180447146Y-138738499D02*
X180620794Y-137753691D01*
X180620794Y-137753691D02*
X180502196Y-137877840D01*
X180502196Y-137877840D02*
X180391867Y-137955093D01*
X180391867Y-137955093D02*
X180289807Y-137985451D01*
X181197476Y-138870802D02*
X181385058Y-138903878D01*
X181385058Y-138903878D02*
X181487119Y-138873520D01*
X181487119Y-138873520D02*
X181542283Y-138834894D01*
X181542283Y-138834894D02*
X181660881Y-138710745D01*
X181660881Y-138710745D02*
X181740853Y-138531431D01*
X181740853Y-138531431D02*
X181807004Y-138156266D01*
X181807004Y-138156266D02*
X181776647Y-138054206D01*
X181776647Y-138054206D02*
X181738020Y-137999042D01*
X181738020Y-137999042D02*
X181652498Y-137935608D01*
X181652498Y-137935608D02*
X181464915Y-137902532D01*
X181464915Y-137902532D02*
X181362855Y-137932890D01*
X181362855Y-137932890D02*
X181307691Y-137971517D01*
X181307691Y-137971517D02*
X181244257Y-138057039D01*
X181244257Y-138057039D02*
X181202912Y-138291517D01*
X181202912Y-138291517D02*
X181233270Y-138393577D01*
X181233270Y-138393577D02*
X181271897Y-138448742D01*
X181271897Y-138448742D02*
X181357419Y-138512175D01*
X181357419Y-138512175D02*
X181545001Y-138545251D01*
X181545001Y-138545251D02*
X181647062Y-138514893D01*
X181647062Y-138514893D02*
X181702226Y-138476267D01*
X181702226Y-138476267D02*
X181765660Y-138390744D01*
X182527176Y-119812158D02*
X182700825Y-118827350D01*
X182700825Y-118827350D02*
X182935303Y-118868695D01*
X182935303Y-118868695D02*
X183067721Y-118940397D01*
X183067721Y-118940397D02*
X183144974Y-119050726D01*
X183144974Y-119050726D02*
X183175332Y-119152787D01*
X183175332Y-119152787D02*
X183189151Y-119348638D01*
X183189151Y-119348638D02*
X183164344Y-119489325D01*
X183164344Y-119489325D02*
X183084373Y-119668638D01*
X183084373Y-119668638D02*
X183020939Y-119754161D01*
X183020939Y-119754161D02*
X182910610Y-119831414D01*
X182910610Y-119831414D02*
X182761655Y-119853503D01*
X182761655Y-119853503D02*
X182527176Y-119812158D01*
X183622199Y-119086520D02*
X183677363Y-119047894D01*
X183677363Y-119047894D02*
X183779424Y-119017536D01*
X183779424Y-119017536D02*
X184013902Y-119058881D01*
X184013902Y-119058881D02*
X184099424Y-119122314D01*
X184099424Y-119122314D02*
X184138051Y-119177479D01*
X184138051Y-119177479D02*
X184168408Y-119279539D01*
X184168408Y-119279539D02*
X184151870Y-119373330D01*
X184151870Y-119373330D02*
X184080168Y-119505748D01*
X184080168Y-119505748D02*
X183418193Y-119969268D01*
X183418193Y-119969268D02*
X184027836Y-120076765D01*
X184811127Y-119199453D02*
X184904918Y-119215991D01*
X184904918Y-119215991D02*
X184990441Y-119279425D01*
X184990441Y-119279425D02*
X185029067Y-119334589D01*
X185029067Y-119334589D02*
X185059425Y-119436650D01*
X185059425Y-119436650D02*
X185073245Y-119632501D01*
X185073245Y-119632501D02*
X185031900Y-119866979D01*
X185031900Y-119866979D02*
X184951928Y-120046292D01*
X184951928Y-120046292D02*
X184888495Y-120131815D01*
X184888495Y-120131815D02*
X184833330Y-120170441D01*
X184833330Y-120170441D02*
X184731270Y-120200799D01*
X184731270Y-120200799D02*
X184637479Y-120184261D01*
X184637479Y-120184261D02*
X184551957Y-120120828D01*
X184551957Y-120120828D02*
X184513330Y-120065663D01*
X184513330Y-120065663D02*
X184482972Y-119963603D01*
X184482972Y-119963603D02*
X184469153Y-119767751D01*
X184469153Y-119767751D02*
X184510497Y-119533273D01*
X184510497Y-119533273D02*
X184590469Y-119353960D01*
X184590469Y-119353960D02*
X184653902Y-119268438D01*
X184653902Y-119268438D02*
X184709067Y-119229811D01*
X184709067Y-119229811D02*
X184811127Y-119199453D01*
X205449047Y-124020529D02*
X205791067Y-123080836D01*
X205791067Y-123080836D02*
X206014803Y-123162269D01*
X206014803Y-123162269D02*
X206132758Y-123255877D01*
X206132758Y-123255877D02*
X206189679Y-123377945D01*
X206189679Y-123377945D02*
X206201853Y-123483726D01*
X206201853Y-123483726D02*
X206181454Y-123679001D01*
X206181454Y-123679001D02*
X206132594Y-123813243D01*
X206132594Y-123813243D02*
X206022700Y-123975946D01*
X206022700Y-123975946D02*
X205945379Y-124049154D01*
X205945379Y-124049154D02*
X205823311Y-124106075D01*
X205823311Y-124106075D02*
X205672783Y-124101962D01*
X205672783Y-124101962D02*
X205449047Y-124020529D01*
X206653439Y-123496064D02*
X206714473Y-123467603D01*
X206714473Y-123467603D02*
X206820254Y-123455429D01*
X206820254Y-123455429D02*
X207043990Y-123536863D01*
X207043990Y-123536863D02*
X207117198Y-123614183D01*
X207117198Y-123614183D02*
X207145659Y-123675217D01*
X207145659Y-123675217D02*
X207157833Y-123780999D01*
X207157833Y-123780999D02*
X207125259Y-123870493D01*
X207125259Y-123870493D02*
X207031652Y-123988448D01*
X207031652Y-123988448D02*
X206299245Y-124329975D01*
X206299245Y-124329975D02*
X206880959Y-124541702D01*
X207548384Y-123821797D02*
X207609418Y-123793337D01*
X207609418Y-123793337D02*
X207715199Y-123781163D01*
X207715199Y-123781163D02*
X207938936Y-123862596D01*
X207938936Y-123862596D02*
X208012143Y-123939917D01*
X208012143Y-123939917D02*
X208040604Y-124000951D01*
X208040604Y-124000951D02*
X208052778Y-124106732D01*
X208052778Y-124106732D02*
X208020205Y-124196227D01*
X208020205Y-124196227D02*
X207926597Y-124314182D01*
X207926597Y-124314182D02*
X207194190Y-124655709D01*
X207194190Y-124655709D02*
X207775905Y-124867436D01*
X118261789Y-84318128D02*
X118261789Y-83318128D01*
X118261789Y-83318128D02*
X118499884Y-83318128D01*
X118499884Y-83318128D02*
X118642741Y-83365747D01*
X118642741Y-83365747D02*
X118737979Y-83460985D01*
X118737979Y-83460985D02*
X118785598Y-83556223D01*
X118785598Y-83556223D02*
X118833217Y-83746699D01*
X118833217Y-83746699D02*
X118833217Y-83889556D01*
X118833217Y-83889556D02*
X118785598Y-84080032D01*
X118785598Y-84080032D02*
X118737979Y-84175270D01*
X118737979Y-84175270D02*
X118642741Y-84270509D01*
X118642741Y-84270509D02*
X118499884Y-84318128D01*
X118499884Y-84318128D02*
X118261789Y-84318128D01*
X119737979Y-83318128D02*
X119261789Y-83318128D01*
X119261789Y-83318128D02*
X119214170Y-83794318D01*
X119214170Y-83794318D02*
X119261789Y-83746699D01*
X119261789Y-83746699D02*
X119357027Y-83699080D01*
X119357027Y-83699080D02*
X119595122Y-83699080D01*
X119595122Y-83699080D02*
X119690360Y-83746699D01*
X119690360Y-83746699D02*
X119737979Y-83794318D01*
X119737979Y-83794318D02*
X119785598Y-83889556D01*
X119785598Y-83889556D02*
X119785598Y-84127651D01*
X119785598Y-84127651D02*
X119737979Y-84222889D01*
X119737979Y-84222889D02*
X119690360Y-84270509D01*
X119690360Y-84270509D02*
X119595122Y-84318128D01*
X119595122Y-84318128D02*
X119357027Y-84318128D01*
X119357027Y-84318128D02*
X119261789Y-84270509D01*
X119261789Y-84270509D02*
X119214170Y-84222889D01*
X193785598Y-96984795D02*
X193785598Y-95984795D01*
X193785598Y-95984795D02*
X194023693Y-95984795D01*
X194023693Y-95984795D02*
X194166550Y-96032414D01*
X194166550Y-96032414D02*
X194261788Y-96127652D01*
X194261788Y-96127652D02*
X194309407Y-96222890D01*
X194309407Y-96222890D02*
X194357026Y-96413366D01*
X194357026Y-96413366D02*
X194357026Y-96556223D01*
X194357026Y-96556223D02*
X194309407Y-96746699D01*
X194309407Y-96746699D02*
X194261788Y-96841937D01*
X194261788Y-96841937D02*
X194166550Y-96937176D01*
X194166550Y-96937176D02*
X194023693Y-96984795D01*
X194023693Y-96984795D02*
X193785598Y-96984795D01*
X195309407Y-96984795D02*
X194737979Y-96984795D01*
X195023693Y-96984795D02*
X195023693Y-95984795D01*
X195023693Y-95984795D02*
X194928455Y-96127652D01*
X194928455Y-96127652D02*
X194833217Y-96222890D01*
X194833217Y-96222890D02*
X194737979Y-96270509D01*
X196166550Y-95984795D02*
X195976074Y-95984795D01*
X195976074Y-95984795D02*
X195880836Y-96032414D01*
X195880836Y-96032414D02*
X195833217Y-96080033D01*
X195833217Y-96080033D02*
X195737979Y-96222890D01*
X195737979Y-96222890D02*
X195690360Y-96413366D01*
X195690360Y-96413366D02*
X195690360Y-96794318D01*
X195690360Y-96794318D02*
X195737979Y-96889556D01*
X195737979Y-96889556D02*
X195785598Y-96937176D01*
X195785598Y-96937176D02*
X195880836Y-96984795D01*
X195880836Y-96984795D02*
X196071312Y-96984795D01*
X196071312Y-96984795D02*
X196166550Y-96937176D01*
X196166550Y-96937176D02*
X196214169Y-96889556D01*
X196214169Y-96889556D02*
X196261788Y-96794318D01*
X196261788Y-96794318D02*
X196261788Y-96556223D01*
X196261788Y-96556223D02*
X196214169Y-96460985D01*
X196214169Y-96460985D02*
X196166550Y-96413366D01*
X196166550Y-96413366D02*
X196071312Y-96365747D01*
X196071312Y-96365747D02*
X195880836Y-96365747D01*
X195880836Y-96365747D02*
X195785598Y-96413366D01*
X195785598Y-96413366D02*
X195737979Y-96460985D01*
X195737979Y-96460985D02*
X195690360Y-96556223D01*
X137261789Y-77984795D02*
X137261789Y-76984795D01*
X137261789Y-76984795D02*
X137499884Y-76984795D01*
X137499884Y-76984795D02*
X137642741Y-77032414D01*
X137642741Y-77032414D02*
X137737979Y-77127652D01*
X137737979Y-77127652D02*
X137785598Y-77222890D01*
X137785598Y-77222890D02*
X137833217Y-77413366D01*
X137833217Y-77413366D02*
X137833217Y-77556223D01*
X137833217Y-77556223D02*
X137785598Y-77746699D01*
X137785598Y-77746699D02*
X137737979Y-77841937D01*
X137737979Y-77841937D02*
X137642741Y-77937176D01*
X137642741Y-77937176D02*
X137499884Y-77984795D01*
X137499884Y-77984795D02*
X137261789Y-77984795D01*
X138404646Y-77413366D02*
X138309408Y-77365747D01*
X138309408Y-77365747D02*
X138261789Y-77318128D01*
X138261789Y-77318128D02*
X138214170Y-77222890D01*
X138214170Y-77222890D02*
X138214170Y-77175271D01*
X138214170Y-77175271D02*
X138261789Y-77080033D01*
X138261789Y-77080033D02*
X138309408Y-77032414D01*
X138309408Y-77032414D02*
X138404646Y-76984795D01*
X138404646Y-76984795D02*
X138595122Y-76984795D01*
X138595122Y-76984795D02*
X138690360Y-77032414D01*
X138690360Y-77032414D02*
X138737979Y-77080033D01*
X138737979Y-77080033D02*
X138785598Y-77175271D01*
X138785598Y-77175271D02*
X138785598Y-77222890D01*
X138785598Y-77222890D02*
X138737979Y-77318128D01*
X138737979Y-77318128D02*
X138690360Y-77365747D01*
X138690360Y-77365747D02*
X138595122Y-77413366D01*
X138595122Y-77413366D02*
X138404646Y-77413366D01*
X138404646Y-77413366D02*
X138309408Y-77460985D01*
X138309408Y-77460985D02*
X138261789Y-77508604D01*
X138261789Y-77508604D02*
X138214170Y-77603842D01*
X138214170Y-77603842D02*
X138214170Y-77794318D01*
X138214170Y-77794318D02*
X138261789Y-77889556D01*
X138261789Y-77889556D02*
X138309408Y-77937176D01*
X138309408Y-77937176D02*
X138404646Y-77984795D01*
X138404646Y-77984795D02*
X138595122Y-77984795D01*
X138595122Y-77984795D02*
X138690360Y-77937176D01*
X138690360Y-77937176D02*
X138737979Y-77889556D01*
X138737979Y-77889556D02*
X138785598Y-77794318D01*
X138785598Y-77794318D02*
X138785598Y-77603842D01*
X138785598Y-77603842D02*
X138737979Y-77508604D01*
X138737979Y-77508604D02*
X138690360Y-77460985D01*
X138690360Y-77460985D02*
X138595122Y-77413366D01*
X118261789Y-103318128D02*
X118261789Y-102318128D01*
X118261789Y-102318128D02*
X118499884Y-102318128D01*
X118499884Y-102318128D02*
X118642741Y-102365747D01*
X118642741Y-102365747D02*
X118737979Y-102460985D01*
X118737979Y-102460985D02*
X118785598Y-102556223D01*
X118785598Y-102556223D02*
X118833217Y-102746699D01*
X118833217Y-102746699D02*
X118833217Y-102889556D01*
X118833217Y-102889556D02*
X118785598Y-103080032D01*
X118785598Y-103080032D02*
X118737979Y-103175270D01*
X118737979Y-103175270D02*
X118642741Y-103270509D01*
X118642741Y-103270509D02*
X118499884Y-103318128D01*
X118499884Y-103318128D02*
X118261789Y-103318128D01*
X119690360Y-102651461D02*
X119690360Y-103318128D01*
X119452265Y-102270509D02*
X119214170Y-102984794D01*
X119214170Y-102984794D02*
X119833217Y-102984794D01*
X99261789Y-65318128D02*
X99261789Y-64318128D01*
X99261789Y-64318128D02*
X99499884Y-64318128D01*
X99499884Y-64318128D02*
X99642741Y-64365747D01*
X99642741Y-64365747D02*
X99737979Y-64460985D01*
X99737979Y-64460985D02*
X99785598Y-64556223D01*
X99785598Y-64556223D02*
X99833217Y-64746699D01*
X99833217Y-64746699D02*
X99833217Y-64889556D01*
X99833217Y-64889556D02*
X99785598Y-65080032D01*
X99785598Y-65080032D02*
X99737979Y-65175270D01*
X99737979Y-65175270D02*
X99642741Y-65270509D01*
X99642741Y-65270509D02*
X99499884Y-65318128D01*
X99499884Y-65318128D02*
X99261789Y-65318128D01*
X100166551Y-64318128D02*
X100785598Y-64318128D01*
X100785598Y-64318128D02*
X100452265Y-64699080D01*
X100452265Y-64699080D02*
X100595122Y-64699080D01*
X100595122Y-64699080D02*
X100690360Y-64746699D01*
X100690360Y-64746699D02*
X100737979Y-64794318D01*
X100737979Y-64794318D02*
X100785598Y-64889556D01*
X100785598Y-64889556D02*
X100785598Y-65127651D01*
X100785598Y-65127651D02*
X100737979Y-65222889D01*
X100737979Y-65222889D02*
X100690360Y-65270509D01*
X100690360Y-65270509D02*
X100595122Y-65318128D01*
X100595122Y-65318128D02*
X100309408Y-65318128D01*
X100309408Y-65318128D02*
X100214170Y-65270509D01*
X100214170Y-65270509D02*
X100166551Y-65222889D01*
X118261789Y-65318128D02*
X118261789Y-64318128D01*
X118261789Y-64318128D02*
X118499884Y-64318128D01*
X118499884Y-64318128D02*
X118642741Y-64365747D01*
X118642741Y-64365747D02*
X118737979Y-64460985D01*
X118737979Y-64460985D02*
X118785598Y-64556223D01*
X118785598Y-64556223D02*
X118833217Y-64746699D01*
X118833217Y-64746699D02*
X118833217Y-64889556D01*
X118833217Y-64889556D02*
X118785598Y-65080032D01*
X118785598Y-65080032D02*
X118737979Y-65175270D01*
X118737979Y-65175270D02*
X118642741Y-65270509D01*
X118642741Y-65270509D02*
X118499884Y-65318128D01*
X118499884Y-65318128D02*
X118261789Y-65318128D01*
X119690360Y-64318128D02*
X119499884Y-64318128D01*
X119499884Y-64318128D02*
X119404646Y-64365747D01*
X119404646Y-64365747D02*
X119357027Y-64413366D01*
X119357027Y-64413366D02*
X119261789Y-64556223D01*
X119261789Y-64556223D02*
X119214170Y-64746699D01*
X119214170Y-64746699D02*
X119214170Y-65127651D01*
X119214170Y-65127651D02*
X119261789Y-65222889D01*
X119261789Y-65222889D02*
X119309408Y-65270509D01*
X119309408Y-65270509D02*
X119404646Y-65318128D01*
X119404646Y-65318128D02*
X119595122Y-65318128D01*
X119595122Y-65318128D02*
X119690360Y-65270509D01*
X119690360Y-65270509D02*
X119737979Y-65222889D01*
X119737979Y-65222889D02*
X119785598Y-65127651D01*
X119785598Y-65127651D02*
X119785598Y-64889556D01*
X119785598Y-64889556D02*
X119737979Y-64794318D01*
X119737979Y-64794318D02*
X119690360Y-64746699D01*
X119690360Y-64746699D02*
X119595122Y-64699080D01*
X119595122Y-64699080D02*
X119404646Y-64699080D01*
X119404646Y-64699080D02*
X119309408Y-64746699D01*
X119309408Y-64746699D02*
X119261789Y-64794318D01*
X119261789Y-64794318D02*
X119214170Y-64889556D01*
X137261789Y-96984795D02*
X137261789Y-95984795D01*
X137261789Y-95984795D02*
X137499884Y-95984795D01*
X137499884Y-95984795D02*
X137642741Y-96032414D01*
X137642741Y-96032414D02*
X137737979Y-96127652D01*
X137737979Y-96127652D02*
X137785598Y-96222890D01*
X137785598Y-96222890D02*
X137833217Y-96413366D01*
X137833217Y-96413366D02*
X137833217Y-96556223D01*
X137833217Y-96556223D02*
X137785598Y-96746699D01*
X137785598Y-96746699D02*
X137737979Y-96841937D01*
X137737979Y-96841937D02*
X137642741Y-96937176D01*
X137642741Y-96937176D02*
X137499884Y-96984795D01*
X137499884Y-96984795D02*
X137261789Y-96984795D01*
X138166551Y-95984795D02*
X138833217Y-95984795D01*
X138833217Y-95984795D02*
X138404646Y-96984795D01*
X174785598Y-96984795D02*
X174785598Y-95984795D01*
X174785598Y-95984795D02*
X175023693Y-95984795D01*
X175023693Y-95984795D02*
X175166550Y-96032414D01*
X175166550Y-96032414D02*
X175261788Y-96127652D01*
X175261788Y-96127652D02*
X175309407Y-96222890D01*
X175309407Y-96222890D02*
X175357026Y-96413366D01*
X175357026Y-96413366D02*
X175357026Y-96556223D01*
X175357026Y-96556223D02*
X175309407Y-96746699D01*
X175309407Y-96746699D02*
X175261788Y-96841937D01*
X175261788Y-96841937D02*
X175166550Y-96937176D01*
X175166550Y-96937176D02*
X175023693Y-96984795D01*
X175023693Y-96984795D02*
X174785598Y-96984795D01*
X176309407Y-96984795D02*
X175737979Y-96984795D01*
X176023693Y-96984795D02*
X176023693Y-95984795D01*
X176023693Y-95984795D02*
X175928455Y-96127652D01*
X175928455Y-96127652D02*
X175833217Y-96222890D01*
X175833217Y-96222890D02*
X175737979Y-96270509D01*
X176642741Y-95984795D02*
X177261788Y-95984795D01*
X177261788Y-95984795D02*
X176928455Y-96365747D01*
X176928455Y-96365747D02*
X177071312Y-96365747D01*
X177071312Y-96365747D02*
X177166550Y-96413366D01*
X177166550Y-96413366D02*
X177214169Y-96460985D01*
X177214169Y-96460985D02*
X177261788Y-96556223D01*
X177261788Y-96556223D02*
X177261788Y-96794318D01*
X177261788Y-96794318D02*
X177214169Y-96889556D01*
X177214169Y-96889556D02*
X177166550Y-96937176D01*
X177166550Y-96937176D02*
X177071312Y-96984795D01*
X177071312Y-96984795D02*
X176785598Y-96984795D01*
X176785598Y-96984795D02*
X176690360Y-96937176D01*
X176690360Y-96937176D02*
X176642741Y-96889556D01*
X193785598Y-77984795D02*
X193785598Y-76984795D01*
X193785598Y-76984795D02*
X194023693Y-76984795D01*
X194023693Y-76984795D02*
X194166550Y-77032414D01*
X194166550Y-77032414D02*
X194261788Y-77127652D01*
X194261788Y-77127652D02*
X194309407Y-77222890D01*
X194309407Y-77222890D02*
X194357026Y-77413366D01*
X194357026Y-77413366D02*
X194357026Y-77556223D01*
X194357026Y-77556223D02*
X194309407Y-77746699D01*
X194309407Y-77746699D02*
X194261788Y-77841937D01*
X194261788Y-77841937D02*
X194166550Y-77937176D01*
X194166550Y-77937176D02*
X194023693Y-77984795D01*
X194023693Y-77984795D02*
X193785598Y-77984795D01*
X195309407Y-77984795D02*
X194737979Y-77984795D01*
X195023693Y-77984795D02*
X195023693Y-76984795D01*
X195023693Y-76984795D02*
X194928455Y-77127652D01*
X194928455Y-77127652D02*
X194833217Y-77222890D01*
X194833217Y-77222890D02*
X194737979Y-77270509D01*
X195642741Y-76984795D02*
X196309407Y-76984795D01*
X196309407Y-76984795D02*
X195880836Y-77984795D01*
X137261789Y-58984795D02*
X137261789Y-57984795D01*
X137261789Y-57984795D02*
X137499884Y-57984795D01*
X137499884Y-57984795D02*
X137642741Y-58032414D01*
X137642741Y-58032414D02*
X137737979Y-58127652D01*
X137737979Y-58127652D02*
X137785598Y-58222890D01*
X137785598Y-58222890D02*
X137833217Y-58413366D01*
X137833217Y-58413366D02*
X137833217Y-58556223D01*
X137833217Y-58556223D02*
X137785598Y-58746699D01*
X137785598Y-58746699D02*
X137737979Y-58841937D01*
X137737979Y-58841937D02*
X137642741Y-58937176D01*
X137642741Y-58937176D02*
X137499884Y-58984795D01*
X137499884Y-58984795D02*
X137261789Y-58984795D01*
X138309408Y-58984795D02*
X138499884Y-58984795D01*
X138499884Y-58984795D02*
X138595122Y-58937176D01*
X138595122Y-58937176D02*
X138642741Y-58889556D01*
X138642741Y-58889556D02*
X138737979Y-58746699D01*
X138737979Y-58746699D02*
X138785598Y-58556223D01*
X138785598Y-58556223D02*
X138785598Y-58175271D01*
X138785598Y-58175271D02*
X138737979Y-58080033D01*
X138737979Y-58080033D02*
X138690360Y-58032414D01*
X138690360Y-58032414D02*
X138595122Y-57984795D01*
X138595122Y-57984795D02*
X138404646Y-57984795D01*
X138404646Y-57984795D02*
X138309408Y-58032414D01*
X138309408Y-58032414D02*
X138261789Y-58080033D01*
X138261789Y-58080033D02*
X138214170Y-58175271D01*
X138214170Y-58175271D02*
X138214170Y-58413366D01*
X138214170Y-58413366D02*
X138261789Y-58508604D01*
X138261789Y-58508604D02*
X138309408Y-58556223D01*
X138309408Y-58556223D02*
X138404646Y-58603842D01*
X138404646Y-58603842D02*
X138595122Y-58603842D01*
X138595122Y-58603842D02*
X138690360Y-58556223D01*
X138690360Y-58556223D02*
X138737979Y-58508604D01*
X138737979Y-58508604D02*
X138785598Y-58413366D01*
X193785598Y-58984795D02*
X193785598Y-57984795D01*
X193785598Y-57984795D02*
X194023693Y-57984795D01*
X194023693Y-57984795D02*
X194166550Y-58032414D01*
X194166550Y-58032414D02*
X194261788Y-58127652D01*
X194261788Y-58127652D02*
X194309407Y-58222890D01*
X194309407Y-58222890D02*
X194357026Y-58413366D01*
X194357026Y-58413366D02*
X194357026Y-58556223D01*
X194357026Y-58556223D02*
X194309407Y-58746699D01*
X194309407Y-58746699D02*
X194261788Y-58841937D01*
X194261788Y-58841937D02*
X194166550Y-58937176D01*
X194166550Y-58937176D02*
X194023693Y-58984795D01*
X194023693Y-58984795D02*
X193785598Y-58984795D01*
X195309407Y-58984795D02*
X194737979Y-58984795D01*
X195023693Y-58984795D02*
X195023693Y-57984795D01*
X195023693Y-57984795D02*
X194928455Y-58127652D01*
X194928455Y-58127652D02*
X194833217Y-58222890D01*
X194833217Y-58222890D02*
X194737979Y-58270509D01*
X195880836Y-58413366D02*
X195785598Y-58365747D01*
X195785598Y-58365747D02*
X195737979Y-58318128D01*
X195737979Y-58318128D02*
X195690360Y-58222890D01*
X195690360Y-58222890D02*
X195690360Y-58175271D01*
X195690360Y-58175271D02*
X195737979Y-58080033D01*
X195737979Y-58080033D02*
X195785598Y-58032414D01*
X195785598Y-58032414D02*
X195880836Y-57984795D01*
X195880836Y-57984795D02*
X196071312Y-57984795D01*
X196071312Y-57984795D02*
X196166550Y-58032414D01*
X196166550Y-58032414D02*
X196214169Y-58080033D01*
X196214169Y-58080033D02*
X196261788Y-58175271D01*
X196261788Y-58175271D02*
X196261788Y-58222890D01*
X196261788Y-58222890D02*
X196214169Y-58318128D01*
X196214169Y-58318128D02*
X196166550Y-58365747D01*
X196166550Y-58365747D02*
X196071312Y-58413366D01*
X196071312Y-58413366D02*
X195880836Y-58413366D01*
X195880836Y-58413366D02*
X195785598Y-58460985D01*
X195785598Y-58460985D02*
X195737979Y-58508604D01*
X195737979Y-58508604D02*
X195690360Y-58603842D01*
X195690360Y-58603842D02*
X195690360Y-58794318D01*
X195690360Y-58794318D02*
X195737979Y-58889556D01*
X195737979Y-58889556D02*
X195785598Y-58937176D01*
X195785598Y-58937176D02*
X195880836Y-58984795D01*
X195880836Y-58984795D02*
X196071312Y-58984795D01*
X196071312Y-58984795D02*
X196166550Y-58937176D01*
X196166550Y-58937176D02*
X196214169Y-58889556D01*
X196214169Y-58889556D02*
X196261788Y-58794318D01*
X196261788Y-58794318D02*
X196261788Y-58603842D01*
X196261788Y-58603842D02*
X196214169Y-58508604D01*
X196214169Y-58508604D02*
X196166550Y-58460985D01*
X196166550Y-58460985D02*
X196071312Y-58413366D01*
X99261789Y-103318128D02*
X99261789Y-102318128D01*
X99261789Y-102318128D02*
X99499884Y-102318128D01*
X99499884Y-102318128D02*
X99642741Y-102365747D01*
X99642741Y-102365747D02*
X99737979Y-102460985D01*
X99737979Y-102460985D02*
X99785598Y-102556223D01*
X99785598Y-102556223D02*
X99833217Y-102746699D01*
X99833217Y-102746699D02*
X99833217Y-102889556D01*
X99833217Y-102889556D02*
X99785598Y-103080032D01*
X99785598Y-103080032D02*
X99737979Y-103175270D01*
X99737979Y-103175270D02*
X99642741Y-103270509D01*
X99642741Y-103270509D02*
X99499884Y-103318128D01*
X99499884Y-103318128D02*
X99261789Y-103318128D01*
X100785598Y-103318128D02*
X100214170Y-103318128D01*
X100499884Y-103318128D02*
X100499884Y-102318128D01*
X100499884Y-102318128D02*
X100404646Y-102460985D01*
X100404646Y-102460985D02*
X100309408Y-102556223D01*
X100309408Y-102556223D02*
X100214170Y-102603842D01*
D14*
%TO.C,kibuzzard-69750C78*%
G36*
X224207278Y-103619772D02*
G01*
X224406678Y-103649350D01*
X224602218Y-103698330D01*
X224792016Y-103766241D01*
X224974244Y-103852428D01*
X225147146Y-103956062D01*
X225309058Y-104076144D01*
X225458420Y-104211518D01*
X225593794Y-104360880D01*
X225713876Y-104522792D01*
X225817510Y-104695695D01*
X225903697Y-104877923D01*
X225971608Y-105067721D01*
X226020589Y-105263261D01*
X226050167Y-105462661D01*
X226060058Y-105664000D01*
X226050167Y-105865339D01*
X226020589Y-106064739D01*
X225971608Y-106260279D01*
X225903697Y-106450077D01*
X225817510Y-106632305D01*
X225713876Y-106805208D01*
X225593794Y-106967120D01*
X225458420Y-107116482D01*
X225309058Y-107251856D01*
X225147146Y-107371938D01*
X224974244Y-107475572D01*
X224792016Y-107561759D01*
X224602218Y-107629670D01*
X224406678Y-107678650D01*
X224207278Y-107708228D01*
X224005939Y-107718120D01*
X222996246Y-107718120D01*
X221123063Y-107718120D01*
X218949396Y-107718120D01*
X217834695Y-107718120D01*
X216434049Y-107718120D01*
X215755535Y-107718120D01*
X213988976Y-107718120D01*
X212956666Y-107718120D01*
X211565713Y-107718120D01*
X210373467Y-107718120D01*
X209234533Y-107718120D01*
X206421125Y-107718120D01*
X205437280Y-107718120D01*
X204295923Y-107718120D01*
X203106100Y-107718120D01*
X202354889Y-107718120D01*
X200774921Y-107718120D01*
X199357312Y-107718120D01*
X198351658Y-107718120D01*
X197554404Y-107718120D01*
X196611755Y-107718120D01*
X195602062Y-107718120D01*
X195400723Y-107708228D01*
X195201323Y-107678650D01*
X195005782Y-107629670D01*
X194815984Y-107561759D01*
X194633756Y-107475572D01*
X194460854Y-107371938D01*
X194298942Y-107251856D01*
X194149580Y-107116482D01*
X194014206Y-106967120D01*
X193894124Y-106805208D01*
X193790490Y-106632305D01*
X193704303Y-106450078D01*
X193651076Y-106301318D01*
X196611755Y-106301318D01*
X197554404Y-106301318D01*
X197554404Y-106054145D01*
X196912239Y-106054145D01*
X196912239Y-105741544D01*
X197726456Y-105741544D01*
X197737360Y-105877853D01*
X197770074Y-105995987D01*
X197823083Y-106096250D01*
X197894873Y-106178943D01*
X197984533Y-106243766D01*
X198091157Y-106290414D01*
X198213835Y-106318584D01*
X198351658Y-106327974D01*
X198547942Y-106309800D01*
X198712724Y-106264969D01*
X198671528Y-106010527D01*
X198534614Y-106049299D01*
X198363774Y-106068685D01*
X198231706Y-106052631D01*
X198126294Y-106004468D01*
X198057231Y-105928439D01*
X198034210Y-105828782D01*
X198773305Y-105828782D01*
X198776940Y-105777893D01*
X198778152Y-105717312D01*
X198776344Y-105695502D01*
X198942934Y-105695502D01*
X198955723Y-105849784D01*
X198994092Y-105979832D01*
X199058039Y-106085648D01*
X199146757Y-106163731D01*
X199259439Y-106210581D01*
X199396084Y-106226197D01*
X199508766Y-106214081D01*
X199623871Y-106177732D01*
X199623871Y-106223774D01*
X199611755Y-106314646D01*
X199570559Y-106388556D01*
X199490591Y-106438233D01*
X199362158Y-106456407D01*
X199168297Y-106433386D01*
X199020478Y-106383709D01*
X198964743Y-106635729D01*
X199152546Y-106686617D01*
X199252809Y-106702974D01*
X199357312Y-106708426D01*
X199537845Y-106693618D01*
X199631345Y-106664808D01*
X206181221Y-106664808D01*
X206284210Y-106696310D01*
X206421125Y-106708426D01*
X206577425Y-106686617D01*
X206698588Y-106619977D01*
X206797942Y-106504872D01*
X206888814Y-106337667D01*
X206947276Y-106202570D01*
X207001496Y-106063838D01*
X207052082Y-105921775D01*
X207099638Y-105776682D01*
X207144772Y-105628257D01*
X207167033Y-105550107D01*
X208621448Y-105550107D01*
X208632352Y-105732154D01*
X208665066Y-105890575D01*
X208717772Y-106025066D01*
X208788653Y-106135325D01*
X208876799Y-106221351D01*
X208981302Y-106283144D01*
X209100951Y-106320401D01*
X209234533Y-106332821D01*
X209382655Y-106326763D01*
X209507150Y-106308588D01*
X209673144Y-106264969D01*
X209673144Y-105797279D01*
X209910624Y-105797279D01*
X209915470Y-105908750D01*
X209930010Y-106010527D01*
X210001496Y-106178943D01*
X210143257Y-106289202D01*
X210245640Y-106318281D01*
X210373467Y-106327974D01*
X210506444Y-106322522D01*
X210629121Y-106306165D01*
X210737865Y-106284355D01*
X210829041Y-106262546D01*
X210829041Y-105952368D01*
X211085906Y-105952368D01*
X211119832Y-106128055D01*
X211216763Y-106244372D01*
X211368217Y-106308588D01*
X211565713Y-106327974D01*
X211717772Y-106323128D01*
X211854081Y-106308588D01*
X212047942Y-106274662D01*
X212047942Y-105731851D01*
X212297538Y-105731851D01*
X212306928Y-105853620D01*
X212335099Y-105966908D01*
X212383261Y-106068685D01*
X212452627Y-106155922D01*
X212543802Y-106227409D01*
X212657393Y-106281932D01*
X212794610Y-106316464D01*
X212956666Y-106327974D01*
X213069953Y-106324036D01*
X213167490Y-106312223D01*
X213320155Y-106272239D01*
X213276537Y-106027489D01*
X213137199Y-106058992D01*
X212990591Y-106068685D01*
X212808544Y-106046270D01*
X212688895Y-105979024D01*
X212672311Y-105952368D01*
X213509170Y-105952368D01*
X213543095Y-106128055D01*
X213640026Y-106244372D01*
X213791480Y-106308588D01*
X213988976Y-106327974D01*
X214141036Y-106323128D01*
X214277344Y-106308588D01*
X214471205Y-106274662D01*
X214471205Y-105596149D01*
X214446973Y-105403499D01*
X214367005Y-105258103D01*
X214282685Y-105206003D01*
X214684453Y-105206003D01*
X214684453Y-106301318D01*
X214926779Y-106301318D01*
X214926779Y-105407134D01*
X214966763Y-105399864D01*
X215001900Y-105397441D01*
X215075810Y-105443483D01*
X215098831Y-105605842D01*
X215098831Y-105867554D01*
X215341157Y-105867554D01*
X215341157Y-105639767D01*
X215336310Y-105516181D01*
X215324194Y-105414404D01*
X215367813Y-105401076D01*
X215413855Y-105397441D01*
X215451415Y-105404711D01*
X215482918Y-105433790D01*
X215504727Y-105496795D01*
X215513209Y-105605842D01*
X215513209Y-106301318D01*
X215755535Y-106301318D01*
X215755535Y-105729428D01*
X215896084Y-105729428D01*
X215905777Y-105858770D01*
X215934856Y-105975389D01*
X215981807Y-106078075D01*
X216045115Y-106165616D01*
X216123265Y-106236496D01*
X216214743Y-106289202D01*
X216318641Y-106321916D01*
X216434049Y-106332821D01*
X216549457Y-106321916D01*
X216653354Y-106289202D01*
X216744529Y-106236496D01*
X216821771Y-106165616D01*
X216884170Y-106078075D01*
X216930818Y-105975389D01*
X216959897Y-105858770D01*
X216969590Y-105729428D01*
X216959897Y-105601904D01*
X216930818Y-105485890D01*
X216883867Y-105383507D01*
X216820559Y-105296876D01*
X216742409Y-105227207D01*
X216650931Y-105175712D01*
X216547639Y-105143907D01*
X216434049Y-105133305D01*
X216321973Y-105143907D01*
X216218378Y-105175712D01*
X216125991Y-105227207D01*
X216047538Y-105296876D01*
X215983927Y-105383507D01*
X215936068Y-105485890D01*
X215906080Y-105601904D01*
X215896084Y-105729428D01*
X215755535Y-105729428D01*
X215755535Y-105620381D01*
X215752506Y-105509214D01*
X215743419Y-105413192D01*
X215696165Y-105266585D01*
X215600446Y-105179347D01*
X215445357Y-105150268D01*
X215329041Y-105170866D01*
X215232110Y-105218120D01*
X215146084Y-105166019D01*
X215033402Y-105150268D01*
X214871044Y-105164808D01*
X214684453Y-105206003D01*
X214282685Y-105206003D01*
X214217974Y-105166019D01*
X214112865Y-105141484D01*
X213984129Y-105133305D01*
X213876900Y-105137243D01*
X213773305Y-105149057D01*
X213615793Y-105184194D01*
X213656989Y-105424097D01*
X213784210Y-105395018D01*
X213947780Y-105382901D01*
X214059251Y-105397138D01*
X214131948Y-105439848D01*
X214185260Y-105581609D01*
X214185260Y-105617958D01*
X214088936Y-105603418D01*
X213979283Y-105598572D01*
X213802385Y-105616746D01*
X213652142Y-105676116D01*
X213547942Y-105785163D01*
X213509170Y-105952368D01*
X212672311Y-105952368D01*
X212622558Y-105872401D01*
X212600446Y-105731851D01*
X212619832Y-105596149D01*
X212682837Y-105488313D01*
X212797942Y-105418039D01*
X212976052Y-105392595D01*
X213127506Y-105405922D01*
X213235341Y-105436213D01*
X213300769Y-105196310D01*
X213133564Y-105147845D01*
X212949396Y-105133305D01*
X212791581Y-105145119D01*
X212657393Y-105180559D01*
X212545620Y-105236294D01*
X212455050Y-105308992D01*
X212385381Y-105397138D01*
X212336310Y-105499218D01*
X212307231Y-105611900D01*
X212297538Y-105731851D01*
X212047942Y-105731851D01*
X212047942Y-105596149D01*
X212023709Y-105403499D01*
X211943742Y-105258103D01*
X211794711Y-105166019D01*
X211689602Y-105141484D01*
X211560866Y-105133305D01*
X211453637Y-105137243D01*
X211350042Y-105149057D01*
X211192530Y-105184194D01*
X211233726Y-105424097D01*
X211360947Y-105395018D01*
X211524517Y-105382901D01*
X211635987Y-105397138D01*
X211708685Y-105439848D01*
X211761997Y-105581609D01*
X211761997Y-105617958D01*
X211665672Y-105603418D01*
X211556020Y-105598572D01*
X211379121Y-105616746D01*
X211228879Y-105676116D01*
X211124679Y-105785163D01*
X211085906Y-105952368D01*
X210829041Y-105952368D01*
X210829041Y-105162384D01*
X210528556Y-105162384D01*
X210528556Y-106056569D01*
X210392853Y-106068685D01*
X210246246Y-105992352D01*
X210218075Y-105895725D01*
X210208685Y-105758507D01*
X210208685Y-105162384D01*
X209910624Y-105162384D01*
X209910624Y-105797279D01*
X209673144Y-105797279D01*
X209673144Y-105516181D01*
X209375083Y-105516181D01*
X209375083Y-106063838D01*
X209316924Y-106071108D01*
X209258766Y-106073532D01*
X209113976Y-106041726D01*
X209009170Y-105946310D01*
X208962051Y-105845745D01*
X208933779Y-105713677D01*
X208924356Y-105550107D01*
X208929505Y-105438939D01*
X208944953Y-105338071D01*
X209012805Y-105173289D01*
X209132756Y-105065454D01*
X209312078Y-105026682D01*
X209472013Y-105053338D01*
X209602869Y-105113919D01*
X209678831Y-104881286D01*
X217124679Y-104881286D01*
X217439703Y-104881286D01*
X217439703Y-105848168D01*
X217463330Y-106055054D01*
X217534210Y-106205599D01*
X217656585Y-106297380D01*
X217834695Y-106327974D01*
X217969186Y-106318281D01*
X218069751Y-106295260D01*
X218136391Y-106269816D01*
X218169105Y-106252853D01*
X218130333Y-106012950D01*
X218050365Y-106044452D01*
X217900123Y-106068685D01*
X217783806Y-106027489D01*
X217737764Y-105869977D01*
X217737764Y-105741544D01*
X218324194Y-105741544D01*
X218335099Y-105877853D01*
X218367813Y-105995987D01*
X218420822Y-106096250D01*
X218492611Y-106178943D01*
X218582272Y-106243766D01*
X218688895Y-106290414D01*
X218811573Y-106318584D01*
X218949396Y-106327974D01*
X219145680Y-106309800D01*
X219310462Y-106264969D01*
X219269267Y-106010527D01*
X219132352Y-106049299D01*
X218961512Y-106068685D01*
X218829444Y-106052631D01*
X218724032Y-106004468D01*
X218654969Y-105928439D01*
X218631948Y-105828782D01*
X219371044Y-105828782D01*
X219374679Y-105777893D01*
X219375890Y-105717312D01*
X219361351Y-105541894D01*
X219317732Y-105396903D01*
X219245034Y-105282336D01*
X219144334Y-105199541D01*
X219016709Y-105149864D01*
X218862158Y-105133305D01*
X218761593Y-105142998D01*
X218663451Y-105172078D01*
X218571973Y-105220240D01*
X218491399Y-105287183D01*
X218423548Y-105372905D01*
X218370236Y-105477409D01*
X218335705Y-105600389D01*
X218324194Y-105741544D01*
X217737764Y-105741544D01*
X217737764Y-104801318D01*
X220703839Y-104801318D01*
X220731706Y-104937021D01*
X220771690Y-105106649D01*
X220803731Y-105233602D01*
X220838464Y-105365669D01*
X220875890Y-105502853D01*
X220915470Y-105642729D01*
X220956666Y-105782875D01*
X220999477Y-105923289D01*
X221063087Y-106123208D01*
X221123063Y-106301318D01*
X221430818Y-106301318D01*
X221477129Y-106172212D01*
X221522363Y-106040144D01*
X221566520Y-105905115D01*
X221608927Y-105769412D01*
X221648911Y-105635325D01*
X221686472Y-105502853D01*
X221737966Y-105309901D01*
X221783402Y-105126036D01*
X221786173Y-105113919D01*
X222000284Y-105113919D01*
X222097215Y-105361092D01*
X222245034Y-105301722D01*
X222400123Y-105215696D01*
X222400123Y-106054145D01*
X222085099Y-106054145D01*
X222085099Y-106301318D01*
X222996246Y-106301318D01*
X222996246Y-106054145D01*
X222698184Y-106054145D01*
X222698184Y-104801318D01*
X222494630Y-104801318D01*
X222390430Y-104895826D01*
X222261997Y-104983063D01*
X222126294Y-105058184D01*
X222000284Y-105113919D01*
X221786173Y-105113919D01*
X221822478Y-104955195D01*
X221854889Y-104801318D01*
X221542288Y-104801318D01*
X221520478Y-104927328D01*
X221493822Y-105072724D01*
X221463532Y-105229933D01*
X221430818Y-105391383D01*
X221395680Y-105553742D01*
X221358120Y-105713677D01*
X221319348Y-105863616D01*
X221280575Y-105995987D01*
X221241500Y-105861799D01*
X221201819Y-105711254D01*
X221163047Y-105551318D01*
X221126698Y-105388960D01*
X221093075Y-105227813D01*
X221062482Y-105071512D01*
X221037037Y-104927025D01*
X221018863Y-104801318D01*
X220703839Y-104801318D01*
X217737764Y-104801318D01*
X217737764Y-104634113D01*
X217124679Y-104634113D01*
X217124679Y-104881286D01*
X209678831Y-104881286D01*
X209680414Y-104876439D01*
X209630737Y-104847360D01*
X209547134Y-104811011D01*
X209427183Y-104780721D01*
X209270882Y-104767393D01*
X209139420Y-104779812D01*
X209016440Y-104817069D01*
X208905575Y-104879166D01*
X208810462Y-104966100D01*
X208732312Y-105077267D01*
X208672336Y-105212061D01*
X208634170Y-105369876D01*
X208621448Y-105550107D01*
X207167033Y-105550107D01*
X207188087Y-105476197D01*
X207231403Y-105320805D01*
X207276537Y-105162384D01*
X206971205Y-105162384D01*
X206928798Y-105356246D01*
X206905474Y-105457720D01*
X206881545Y-105558588D01*
X206856706Y-105658548D01*
X206830656Y-105757296D01*
X206779768Y-105940252D01*
X206708281Y-105757296D01*
X206674053Y-105658245D01*
X206641642Y-105557376D01*
X206611048Y-105455599D01*
X206582272Y-105353822D01*
X206532595Y-105162384D01*
X206222417Y-105162384D01*
X206267247Y-105324819D01*
X206314501Y-105480135D01*
X206364178Y-105628333D01*
X206416278Y-105769412D01*
X206487360Y-105945906D01*
X206558443Y-106108669D01*
X206629525Y-106257700D01*
X206544711Y-106395826D01*
X206404162Y-106453984D01*
X206322982Y-106445502D01*
X206236957Y-106415212D01*
X206181221Y-106664808D01*
X199631345Y-106664808D01*
X199682029Y-106649191D01*
X199789864Y-106575147D01*
X199864582Y-106470139D01*
X199909412Y-106332821D01*
X199924356Y-106163192D01*
X199924356Y-105741544D01*
X200149719Y-105741544D01*
X200160624Y-105877853D01*
X200193338Y-105995987D01*
X200246347Y-106096250D01*
X200318136Y-106178943D01*
X200407797Y-106243766D01*
X200514420Y-106290414D01*
X200637098Y-106318584D01*
X200774921Y-106327974D01*
X200971205Y-106309800D01*
X201135987Y-106264969D01*
X201094792Y-106010527D01*
X200957877Y-106049299D01*
X200787037Y-106068685D01*
X200654969Y-106052631D01*
X200549558Y-106004468D01*
X200480495Y-105928439D01*
X200457474Y-105828782D01*
X201196569Y-105828782D01*
X201200204Y-105777893D01*
X201201415Y-105717312D01*
X201186876Y-105541894D01*
X201143257Y-105396903D01*
X201070559Y-105282336D01*
X200969859Y-105199541D01*
X200967783Y-105198733D01*
X201438895Y-105198733D01*
X201438895Y-106301318D01*
X201736957Y-106301318D01*
X201736957Y-105407134D01*
X201806020Y-105399864D01*
X201872659Y-105397441D01*
X202020478Y-105467716D01*
X202047740Y-105560405D01*
X202056827Y-105697926D01*
X202056827Y-106301318D01*
X202354889Y-106301318D01*
X202354889Y-105739121D01*
X202565713Y-105739121D01*
X202580925Y-105908750D01*
X202626563Y-106052530D01*
X202702627Y-106170462D01*
X202808308Y-106257969D01*
X202942799Y-106310473D01*
X203106100Y-106327974D01*
X203221205Y-106323733D01*
X203338734Y-106311011D01*
X203448386Y-106291625D01*
X203539864Y-106267393D01*
X203539864Y-105952368D01*
X203816116Y-105952368D01*
X203850042Y-106128055D01*
X203946973Y-106244372D01*
X204098427Y-106308588D01*
X204295923Y-106327974D01*
X204447982Y-106323128D01*
X204584291Y-106308588D01*
X204778152Y-106274662D01*
X204778152Y-105596149D01*
X204753919Y-105403499D01*
X204673952Y-105258103D01*
X204640617Y-105237506D01*
X205136795Y-105237506D01*
X205136795Y-106301318D01*
X205437280Y-106301318D01*
X205437280Y-105455599D01*
X205560866Y-105432578D01*
X205684453Y-105426520D01*
X205749881Y-105428943D01*
X205829848Y-105437425D01*
X205911028Y-105450753D01*
X205980091Y-105465292D01*
X206033402Y-105189040D01*
X205940107Y-105166019D01*
X205837118Y-105151480D01*
X205741399Y-105142998D01*
X205672336Y-105140575D01*
X205515733Y-105147239D01*
X205380333Y-105167231D01*
X205257049Y-105198128D01*
X205136795Y-105237506D01*
X204640617Y-105237506D01*
X204524921Y-105166019D01*
X204419812Y-105141484D01*
X204291076Y-105133305D01*
X204183847Y-105137243D01*
X204080252Y-105149057D01*
X203922740Y-105184194D01*
X203963936Y-105424097D01*
X204091157Y-105395018D01*
X204254727Y-105382901D01*
X204366197Y-105397138D01*
X204438895Y-105439848D01*
X204492207Y-105581609D01*
X204492207Y-105617958D01*
X204395882Y-105603418D01*
X204286230Y-105598572D01*
X204109331Y-105616746D01*
X203959089Y-105676116D01*
X203854889Y-105785163D01*
X203816116Y-105952368D01*
X203539864Y-105952368D01*
X203539864Y-104619574D01*
X203241803Y-104670462D01*
X203241803Y-105189040D01*
X203140026Y-105151480D01*
X203021286Y-105138152D01*
X202883295Y-105156057D01*
X202769805Y-105209773D01*
X202680818Y-105299299D01*
X202616870Y-105419789D01*
X202578502Y-105566396D01*
X202565713Y-105739121D01*
X202354889Y-105739121D01*
X202354889Y-105659153D01*
X202349436Y-105547986D01*
X202333079Y-105447118D01*
X202259170Y-105282336D01*
X202117409Y-105175712D01*
X202016238Y-105147542D01*
X201892045Y-105138152D01*
X201759069Y-105142998D01*
X201636391Y-105157538D01*
X201528253Y-105177530D01*
X201438895Y-105198733D01*
X200967783Y-105198733D01*
X200842234Y-105149864D01*
X200687684Y-105133305D01*
X200587118Y-105142998D01*
X200488976Y-105172078D01*
X200397498Y-105220240D01*
X200316924Y-105287183D01*
X200249073Y-105372905D01*
X200195761Y-105477409D01*
X200161230Y-105600389D01*
X200149719Y-105741544D01*
X199924356Y-105741544D01*
X199924356Y-105198733D01*
X199782460Y-105165077D01*
X199647565Y-105144883D01*
X199519671Y-105138152D01*
X199354350Y-105153499D01*
X199213801Y-105199541D01*
X199098023Y-105276278D01*
X199011862Y-105384248D01*
X198960166Y-105523989D01*
X198942934Y-105695502D01*
X198776344Y-105695502D01*
X198763612Y-105541894D01*
X198719994Y-105396903D01*
X198647296Y-105282336D01*
X198546596Y-105199541D01*
X198418971Y-105149864D01*
X198264420Y-105133305D01*
X198163855Y-105142998D01*
X198065713Y-105172078D01*
X197974234Y-105220240D01*
X197893661Y-105287183D01*
X197825810Y-105372905D01*
X197772498Y-105477409D01*
X197737966Y-105600389D01*
X197726456Y-105741544D01*
X196912239Y-105741544D01*
X196912239Y-104801318D01*
X196611755Y-104801318D01*
X196611755Y-106301318D01*
X193651076Y-106301318D01*
X193636392Y-106260279D01*
X193587411Y-106064739D01*
X193557833Y-105865339D01*
X193547942Y-105664000D01*
X193557833Y-105462661D01*
X193587411Y-105263261D01*
X193636392Y-105067721D01*
X193704303Y-104877922D01*
X193790490Y-104695695D01*
X193894124Y-104522792D01*
X194014206Y-104360880D01*
X194149580Y-104211518D01*
X194298942Y-104076144D01*
X194460854Y-103956062D01*
X194633756Y-103852428D01*
X194815984Y-103766241D01*
X195005782Y-103698330D01*
X195201323Y-103649350D01*
X195400723Y-103619772D01*
X195602062Y-103609880D01*
X196611755Y-103609880D01*
X222996246Y-103609880D01*
X224005939Y-103609880D01*
X224207278Y-103619772D01*
G37*
G36*
X216538552Y-105415918D02*
G01*
X216609735Y-105485890D01*
X216650628Y-105594028D01*
X216664259Y-105731851D01*
X216649416Y-105869977D01*
X216604889Y-105979024D01*
X216531282Y-106049905D01*
X216429202Y-106073532D01*
X216324699Y-106049905D01*
X216253516Y-105979024D01*
X216212623Y-105869977D01*
X216198992Y-105731851D01*
X216213835Y-105594028D01*
X216258362Y-105485890D01*
X216331969Y-105415918D01*
X216434049Y-105392595D01*
X216538552Y-105415918D01*
G37*
G36*
X203164259Y-105408346D02*
G01*
X203241803Y-105441060D01*
X203241803Y-106061415D01*
X203176375Y-106068685D01*
X203108524Y-106071108D01*
X202999780Y-106046876D01*
X202925567Y-105974178D01*
X202882857Y-105863313D01*
X202868621Y-105724582D01*
X202880737Y-105583426D01*
X202917086Y-105479832D01*
X202980091Y-105416221D01*
X203072175Y-105395018D01*
X203164259Y-105408346D01*
G37*
G36*
X199563289Y-105382901D02*
G01*
X199623871Y-105392595D01*
X199623871Y-105940252D01*
X199547538Y-105971754D01*
X199456666Y-105983871D01*
X199296730Y-105909961D01*
X199258564Y-105819392D01*
X199245842Y-105695502D01*
X199274921Y-105520489D01*
X199362158Y-105415481D01*
X199507554Y-105380478D01*
X199563289Y-105382901D01*
G37*
G36*
X200794307Y-105403499D02*
G01*
X200862158Y-105458023D01*
X200900931Y-105534355D01*
X200913047Y-105622805D01*
X200457474Y-105622805D01*
X200478071Y-105533144D01*
X200521690Y-105455599D01*
X200591965Y-105402288D01*
X200692530Y-105382901D01*
X200794307Y-105403499D01*
G37*
G36*
X198371044Y-105403499D02*
G01*
X198438895Y-105458023D01*
X198477667Y-105534355D01*
X198489784Y-105622805D01*
X198034210Y-105622805D01*
X198054808Y-105533144D01*
X198098427Y-105455599D01*
X198168701Y-105402288D01*
X198269267Y-105382901D01*
X198371044Y-105403499D01*
G37*
G36*
X218968782Y-105403499D02*
G01*
X219036633Y-105458023D01*
X219075406Y-105534355D01*
X219087522Y-105622805D01*
X218631948Y-105622805D01*
X218652546Y-105533144D01*
X218696165Y-105455599D01*
X218766440Y-105402288D01*
X218867005Y-105382901D01*
X218968782Y-105403499D01*
G37*
G36*
X204421932Y-105810607D02*
G01*
X204492207Y-105819089D01*
X204492207Y-106080801D01*
X204412239Y-106086859D01*
X204317732Y-106088071D01*
X204167490Y-106055357D01*
X204109331Y-105945099D01*
X204128717Y-105874824D01*
X204180818Y-105833628D01*
X204257150Y-105813031D01*
X204346811Y-105806973D01*
X204421932Y-105810607D01*
G37*
G36*
X211691722Y-105810607D02*
G01*
X211761997Y-105819089D01*
X211761997Y-106080801D01*
X211682029Y-106086859D01*
X211587522Y-106088071D01*
X211437280Y-106055357D01*
X211379121Y-105945099D01*
X211398507Y-105874824D01*
X211450608Y-105833628D01*
X211526940Y-105813031D01*
X211616601Y-105806973D01*
X211691722Y-105810607D01*
G37*
G36*
X214114986Y-105810607D02*
G01*
X214185260Y-105819089D01*
X214185260Y-106080801D01*
X214105293Y-106086859D01*
X214010785Y-106088071D01*
X213860543Y-106055357D01*
X213802385Y-105945099D01*
X213821771Y-105874824D01*
X213873871Y-105833628D01*
X213950204Y-105813031D01*
X214039864Y-105806973D01*
X214114986Y-105810607D01*
G37*
%TO.C,G\u002A\u002A\u002A*%
G36*
X151768829Y-96090894D02*
G01*
X152139778Y-96145888D01*
X152208382Y-96161976D01*
X152798891Y-96361906D01*
X153364527Y-96652776D01*
X153889731Y-97025760D01*
X154165343Y-97272012D01*
X154683256Y-97841392D01*
X155130536Y-98476731D01*
X155508365Y-99180323D01*
X155817928Y-99954458D01*
X156060409Y-100801430D01*
X156115725Y-101048542D01*
X156251533Y-101626966D01*
X156412138Y-102183182D01*
X156605383Y-102738339D01*
X156839111Y-103313586D01*
X157121167Y-103930073D01*
X157374562Y-104442916D01*
X157664718Y-105024270D01*
X157908081Y-105533578D01*
X158110278Y-105984187D01*
X158276938Y-106389442D01*
X158413688Y-106762687D01*
X158526156Y-107117268D01*
X158573455Y-107285820D01*
X158638157Y-107517125D01*
X158695589Y-107682117D01*
X158762605Y-107811732D01*
X158856061Y-107936906D01*
X158992812Y-108088575D01*
X159035686Y-108134200D01*
X159232629Y-108363446D01*
X159458526Y-108659688D01*
X159697903Y-109000110D01*
X159935291Y-109361901D01*
X160155215Y-109722244D01*
X160342204Y-110058326D01*
X160347575Y-110068626D01*
X160518165Y-110446560D01*
X160624852Y-110796070D01*
X160666896Y-111107223D01*
X160643556Y-111370087D01*
X160554094Y-111574730D01*
X160466691Y-111666763D01*
X160280650Y-111759491D01*
X160091433Y-111758443D01*
X159913824Y-111668419D01*
X159762601Y-111494217D01*
X159724321Y-111425724D01*
X159657727Y-111318515D01*
X159604649Y-111298218D01*
X159583646Y-111313002D01*
X159467532Y-111367351D01*
X159334829Y-111344268D01*
X159222621Y-111250928D01*
X159216505Y-111241967D01*
X159167299Y-111096282D01*
X159156950Y-110894451D01*
X159183282Y-110671738D01*
X159244120Y-110463405D01*
X159267777Y-110410973D01*
X159301176Y-110335823D01*
X159312718Y-110266598D01*
X159297502Y-110180900D01*
X159250625Y-110056330D01*
X159167185Y-109870491D01*
X159133613Y-109797983D01*
X158921597Y-109341048D01*
X158885971Y-109910692D01*
X158788687Y-110734168D01*
X158602498Y-111511546D01*
X158327014Y-112243679D01*
X157961846Y-112931421D01*
X157506604Y-113575625D01*
X156960899Y-114177144D01*
X156921111Y-114215925D01*
X156297632Y-114749833D01*
X155613954Y-115203823D01*
X154871335Y-115577112D01*
X154487870Y-115729758D01*
X154112130Y-115867342D01*
X154112130Y-116284690D01*
X154112130Y-116702039D01*
X154362623Y-116739956D01*
X155026805Y-116853542D01*
X155592105Y-116978234D01*
X156058356Y-117113983D01*
X156425389Y-117260737D01*
X156693038Y-117418446D01*
X156754832Y-117468688D01*
X156831962Y-117597472D01*
X156824707Y-117753794D01*
X156771844Y-117860068D01*
X156634717Y-117986347D01*
X156405689Y-118111313D01*
X156093053Y-118232840D01*
X155705102Y-118348801D01*
X155250130Y-118457070D01*
X154736429Y-118555521D01*
X154172294Y-118642027D01*
X153566016Y-118714463D01*
X153360651Y-118734679D01*
X153161432Y-118748897D01*
X152883579Y-118762572D01*
X152544905Y-118775361D01*
X152163221Y-118786919D01*
X151756340Y-118796899D01*
X151342074Y-118804958D01*
X150938234Y-118810751D01*
X150562634Y-118813932D01*
X150233085Y-118814156D01*
X149967399Y-118811079D01*
X149783388Y-118804356D01*
X149778599Y-118804047D01*
X148981477Y-118745183D01*
X148277423Y-118679224D01*
X147659485Y-118605037D01*
X147120712Y-118521489D01*
X146654152Y-118427447D01*
X146252853Y-118321778D01*
X145909864Y-118203349D01*
X145792277Y-118154283D01*
X145599621Y-118057023D01*
X145720611Y-118057023D01*
X145745661Y-118082072D01*
X145770710Y-118057023D01*
X145745661Y-118031974D01*
X145720611Y-118057023D01*
X145599621Y-118057023D01*
X145534818Y-118024308D01*
X145511873Y-118006924D01*
X147524162Y-118006924D01*
X147549211Y-118031974D01*
X147574260Y-118006924D01*
X147975049Y-118006924D01*
X148000098Y-118031974D01*
X148024570Y-118007502D01*
X154015430Y-118007502D01*
X154069577Y-118015391D01*
X154162229Y-118017645D01*
X154281039Y-118014461D01*
X154324467Y-118005532D01*
X154300689Y-117996708D01*
X154163247Y-117987687D01*
X154050196Y-117996024D01*
X154015430Y-118007502D01*
X148024570Y-118007502D01*
X148025148Y-118006924D01*
X148000098Y-117981875D01*
X147975049Y-118006924D01*
X147574260Y-118006924D01*
X147549211Y-117981875D01*
X147524162Y-118006924D01*
X145511873Y-118006924D01*
X145459152Y-117966981D01*
X147304949Y-117966981D01*
X147373866Y-117973965D01*
X147444987Y-117966092D01*
X147442921Y-117961862D01*
X148122278Y-117961862D01*
X148191551Y-117969768D01*
X148225542Y-117970252D01*
X148316688Y-117965029D01*
X148327429Y-117952025D01*
X148313215Y-117947341D01*
X148186153Y-117939550D01*
X148137870Y-117947341D01*
X148122278Y-117961862D01*
X147442921Y-117961862D01*
X147436489Y-117948696D01*
X147333920Y-117942079D01*
X147311242Y-117948696D01*
X147304949Y-117966981D01*
X145459152Y-117966981D01*
X145368324Y-117898166D01*
X145343049Y-117859061D01*
X147094104Y-117859061D01*
X147098678Y-117882252D01*
X147152262Y-117923782D01*
X147209685Y-117930751D01*
X147220002Y-117916883D01*
X148457217Y-117916883D01*
X148526134Y-117923866D01*
X148597255Y-117915993D01*
X148588757Y-117898597D01*
X148486188Y-117891980D01*
X148463511Y-117898597D01*
X148457217Y-117916883D01*
X147220002Y-117916883D01*
X147223570Y-117912087D01*
X147184272Y-117879912D01*
X147145820Y-117862562D01*
X147094104Y-117859061D01*
X145343049Y-117859061D01*
X145339061Y-117852891D01*
X148683663Y-117852891D01*
X148695476Y-117879033D01*
X148723572Y-117881678D01*
X148791506Y-117845292D01*
X148795757Y-117839602D01*
X153344007Y-117839602D01*
X153361106Y-117859215D01*
X153460848Y-117908537D01*
X153597810Y-117957192D01*
X153711341Y-117976264D01*
X153728314Y-117963194D01*
X153698722Y-117948476D01*
X154504569Y-117948476D01*
X154511446Y-117978260D01*
X154537968Y-117981875D01*
X154579205Y-117963545D01*
X154571367Y-117948476D01*
X154511912Y-117942480D01*
X154504569Y-117948476D01*
X153698722Y-117948476D01*
X153663326Y-117930871D01*
X153586095Y-117904136D01*
X153566716Y-117898377D01*
X154704964Y-117898377D01*
X154711841Y-117928161D01*
X154738363Y-117931777D01*
X154779600Y-117913446D01*
X154771762Y-117898377D01*
X154712306Y-117892382D01*
X154704964Y-117898377D01*
X153566716Y-117898377D01*
X153499548Y-117878416D01*
X154850843Y-117878416D01*
X154857696Y-117881678D01*
X154903415Y-117846409D01*
X154913708Y-117831579D01*
X154926474Y-117784743D01*
X154919621Y-117781481D01*
X154873902Y-117816749D01*
X154863609Y-117831579D01*
X154850843Y-117878416D01*
X153499548Y-117878416D01*
X153419294Y-117854566D01*
X153344007Y-117839602D01*
X148795757Y-117839602D01*
X148801322Y-117832153D01*
X148794064Y-117806530D01*
X153235404Y-117806530D01*
X153260453Y-117831579D01*
X153285503Y-117806530D01*
X153260453Y-117781481D01*
X153235404Y-117806530D01*
X148794064Y-117806530D01*
X148793258Y-117803684D01*
X148754180Y-117812464D01*
X148683663Y-117852891D01*
X145339061Y-117852891D01*
X145292907Y-117781481D01*
X148886344Y-117781481D01*
X148934663Y-117748557D01*
X149002071Y-117681283D01*
X149059927Y-117608709D01*
X149067592Y-117581467D01*
X152988193Y-117581467D01*
X153000633Y-117607410D01*
X153028619Y-117643709D01*
X153101744Y-117721597D01*
X153134384Y-117721258D01*
X153135207Y-117712467D01*
X153130185Y-117706333D01*
X154988856Y-117706333D01*
X155013905Y-117731382D01*
X155038954Y-117706333D01*
X155013905Y-117681283D01*
X154988856Y-117706333D01*
X153130185Y-117706333D01*
X153100971Y-117670648D01*
X153047534Y-117624794D01*
X152988193Y-117581467D01*
X149067592Y-117581467D01*
X149067699Y-117581086D01*
X149019380Y-117614010D01*
X148951972Y-117681283D01*
X148894116Y-117753858D01*
X148886344Y-117781481D01*
X145292907Y-117781481D01*
X145284240Y-117768072D01*
X145269724Y-117678685D01*
X145284847Y-117604103D01*
X146881311Y-117604103D01*
X146904416Y-117692130D01*
X146939508Y-117731382D01*
X146945551Y-117688987D01*
X146932790Y-117593611D01*
X146908279Y-117515878D01*
X146885520Y-117518383D01*
X146884913Y-117520116D01*
X146881311Y-117604103D01*
X145284847Y-117604103D01*
X145293693Y-117560481D01*
X145350885Y-117476920D01*
X145419229Y-117454403D01*
X145445186Y-117468799D01*
X145463132Y-117470323D01*
X145451247Y-117445099D01*
X145459637Y-117406730D01*
X146936455Y-117406730D01*
X146940503Y-117430790D01*
X149077219Y-117430790D01*
X149095549Y-117472027D01*
X149110618Y-117464189D01*
X149116614Y-117404734D01*
X149110618Y-117397391D01*
X149080834Y-117404268D01*
X149077219Y-117430790D01*
X146940503Y-117430790D01*
X146979497Y-117393614D01*
X146985213Y-117385746D01*
X152892750Y-117385746D01*
X152912989Y-117486498D01*
X152947442Y-117530967D01*
X152948230Y-117530988D01*
X152952921Y-117487148D01*
X152943908Y-117378313D01*
X152939455Y-117343118D01*
X152924167Y-117255445D01*
X154892653Y-117255445D01*
X154978328Y-117441684D01*
X155041728Y-117573541D01*
X155075344Y-117622377D01*
X155087921Y-117597660D01*
X155089053Y-117561587D01*
X155059032Y-117475458D01*
X154990853Y-117373717D01*
X154892653Y-117255445D01*
X152924167Y-117255445D01*
X152921015Y-117237368D01*
X152905596Y-117227004D01*
X152895454Y-117271613D01*
X152892750Y-117385746D01*
X146985213Y-117385746D01*
X147044801Y-117303721D01*
X147047659Y-117299375D01*
X147091062Y-117220210D01*
X147084174Y-117199065D01*
X147078740Y-117201968D01*
X147025335Y-117255709D01*
X146970431Y-117336338D01*
X146936455Y-117406730D01*
X145459637Y-117406730D01*
X145465593Y-117379489D01*
X145497473Y-117355642D01*
X146822781Y-117355642D01*
X146847830Y-117380692D01*
X146872880Y-117355642D01*
X146847830Y-117330593D01*
X146822781Y-117355642D01*
X145497473Y-117355642D01*
X145569431Y-117301816D01*
X145753247Y-117215430D01*
X145781192Y-117205347D01*
X145921006Y-117205347D01*
X145946055Y-117230396D01*
X145971104Y-117205347D01*
X145946055Y-117180297D01*
X145921006Y-117205347D01*
X145781192Y-117205347D01*
X145859657Y-117177035D01*
X147185754Y-117177035D01*
X147192607Y-117180297D01*
X147238326Y-117145029D01*
X147248619Y-117130199D01*
X147261385Y-117083362D01*
X147254532Y-117080100D01*
X147208813Y-117115368D01*
X147198521Y-117130199D01*
X147185754Y-117177035D01*
X145859657Y-117177035D01*
X146007528Y-117123680D01*
X146238259Y-117055051D01*
X147323767Y-117055051D01*
X147348816Y-117080100D01*
X147372265Y-117056652D01*
X154624175Y-117056652D01*
X154686938Y-117121516D01*
X154695239Y-117128532D01*
X154797877Y-117208224D01*
X154833034Y-117221790D01*
X154797522Y-117169151D01*
X154763412Y-117130199D01*
X154679641Y-117055421D01*
X154624851Y-117030001D01*
X154624175Y-117056652D01*
X147372265Y-117056652D01*
X147373866Y-117055051D01*
X147348816Y-117030001D01*
X147323767Y-117055051D01*
X146238259Y-117055051D01*
X146322760Y-117029917D01*
X146421799Y-117004952D01*
X147423964Y-117004952D01*
X147449014Y-117030001D01*
X147474063Y-117004952D01*
X147449014Y-116979903D01*
X147423964Y-117004952D01*
X146421799Y-117004952D01*
X146653670Y-116946504D01*
X147540861Y-116946504D01*
X147547738Y-116976287D01*
X147574260Y-116979903D01*
X147615497Y-116961572D01*
X147607659Y-116946504D01*
X147548204Y-116940508D01*
X147540861Y-116946504D01*
X146653670Y-116946504D01*
X146689430Y-116937490D01*
X146780998Y-116917827D01*
X147696186Y-116917827D01*
X147745430Y-116925849D01*
X147810409Y-116916638D01*
X147811185Y-116899536D01*
X147744133Y-116887577D01*
X147715163Y-116895581D01*
X147696186Y-116917827D01*
X146780998Y-116917827D01*
X147098025Y-116849750D01*
X147195734Y-116830812D01*
X147417545Y-116787235D01*
X147600260Y-116748634D01*
X147723082Y-116719581D01*
X147764942Y-116705723D01*
X147767519Y-116650098D01*
X147756411Y-116519639D01*
X147733904Y-116338432D01*
X147722575Y-116259498D01*
X147721309Y-116250991D01*
X149038766Y-116250991D01*
X149041863Y-116384066D01*
X149053741Y-116568765D01*
X149061650Y-116661481D01*
X149080842Y-116860468D01*
X149094349Y-116966139D01*
X149104140Y-116985080D01*
X149112186Y-116923879D01*
X149117228Y-116847415D01*
X149118262Y-116829607D01*
X152848260Y-116829607D01*
X152852169Y-116937963D01*
X152862161Y-116967708D01*
X152866117Y-116954853D01*
X154437771Y-116954853D01*
X154462820Y-116979903D01*
X154487870Y-116954853D01*
X154462820Y-116929804D01*
X154437771Y-116954853D01*
X152866117Y-116954853D01*
X152869971Y-116942329D01*
X152875316Y-116848200D01*
X154157319Y-116848200D01*
X154212327Y-116879706D01*
X154318543Y-116917275D01*
X154373345Y-116922018D01*
X154357837Y-116893936D01*
X154337574Y-116879706D01*
X154230626Y-116838167D01*
X154187278Y-116833895D01*
X154157319Y-116848200D01*
X152875316Y-116848200D01*
X152878260Y-116796342D01*
X152869971Y-116716885D01*
X152857582Y-116693144D01*
X152849722Y-116756087D01*
X152848260Y-116829607D01*
X149118262Y-116829607D01*
X149132187Y-116589681D01*
X150019003Y-116552295D01*
X150377581Y-116541602D01*
X150796726Y-116536158D01*
X151236942Y-116536058D01*
X151658730Y-116541397D01*
X151901941Y-116547751D01*
X152898064Y-116580593D01*
X152868482Y-116398301D01*
X152845579Y-116275715D01*
X152826822Y-116205910D01*
X152824233Y-116201562D01*
X152771804Y-116202071D01*
X152640810Y-116214480D01*
X152451886Y-116236595D01*
X152258481Y-116261747D01*
X151977997Y-116288856D01*
X151626108Y-116306309D01*
X151227506Y-116314405D01*
X150806884Y-116313444D01*
X150388933Y-116303723D01*
X149998345Y-116285540D01*
X149659812Y-116259196D01*
X149411550Y-116227329D01*
X149237949Y-116201666D01*
X149106911Y-116189402D01*
X149045864Y-116193064D01*
X149045291Y-116193553D01*
X149038766Y-116250991D01*
X147721309Y-116250991D01*
X147659298Y-115834182D01*
X147353761Y-115722304D01*
X146998529Y-115576588D01*
X146608871Y-115390873D01*
X146224067Y-115185375D01*
X145883396Y-114980309D01*
X145787188Y-114916062D01*
X145515420Y-114705488D01*
X145214415Y-114433729D01*
X144907557Y-114124871D01*
X144618226Y-113802996D01*
X144369805Y-113492189D01*
X144274907Y-113358381D01*
X143858123Y-112656521D01*
X143518746Y-111907223D01*
X143258958Y-111123019D01*
X143080945Y-110316441D01*
X142986889Y-109500020D01*
X142983726Y-109174795D01*
X143807109Y-109174795D01*
X143821610Y-109615206D01*
X143856394Y-110011158D01*
X143883158Y-110191540D01*
X144068664Y-110992996D01*
X144331583Y-111747462D01*
X144667766Y-112444160D01*
X144892495Y-112814202D01*
X145211562Y-113243656D01*
X145585754Y-113655451D01*
X145994793Y-114031384D01*
X146418402Y-114353247D01*
X146836301Y-114602836D01*
X146941240Y-114653517D01*
X147146996Y-114732355D01*
X147426643Y-114818147D01*
X147754738Y-114904753D01*
X148105834Y-114986035D01*
X148454485Y-115055854D01*
X148775247Y-115108071D01*
X148881992Y-115121728D01*
X149107401Y-115148293D01*
X149311284Y-115173012D01*
X149461720Y-115191986D01*
X149503057Y-115197553D01*
X149692680Y-115211305D01*
X149956429Y-115212943D01*
X150269157Y-115203924D01*
X150605716Y-115185706D01*
X150940960Y-115159744D01*
X151249740Y-115127497D01*
X151506909Y-115090422D01*
X151575796Y-115077450D01*
X152370753Y-114869489D01*
X153108831Y-114580003D01*
X153795198Y-114206140D01*
X154435023Y-113745047D01*
X155033476Y-113193873D01*
X155083017Y-113142343D01*
X155539687Y-112600471D01*
X155914920Y-112017264D01*
X156210005Y-111388430D01*
X156426227Y-110709679D01*
X156564874Y-109976720D01*
X156627233Y-109185261D01*
X156614590Y-108331011D01*
X156598488Y-108089082D01*
X156568144Y-107740179D01*
X156531734Y-107436947D01*
X156483968Y-107159436D01*
X156419555Y-106887695D01*
X156333202Y-106601775D01*
X156219618Y-106281726D01*
X156073513Y-105907598D01*
X155921225Y-105535603D01*
X155651528Y-104869600D01*
X155423549Y-104268897D01*
X155230690Y-103711016D01*
X155066353Y-103173480D01*
X154923940Y-102633809D01*
X154796853Y-102069527D01*
X154678494Y-101458155D01*
X154611109Y-101072321D01*
X154532321Y-100614056D01*
X154464360Y-100238885D01*
X154403643Y-99930744D01*
X154346590Y-99673572D01*
X154289620Y-99451305D01*
X154229150Y-99247882D01*
X154161599Y-99047239D01*
X154156177Y-99031939D01*
X153921088Y-98482513D01*
X153637155Y-98019021D01*
X153305010Y-97642245D01*
X152925285Y-97352970D01*
X152709369Y-97237450D01*
X152298840Y-97066500D01*
X151921049Y-96958449D01*
X151537504Y-96905725D01*
X151109716Y-96900756D01*
X151017794Y-96904709D01*
X150563483Y-96945866D01*
X150155163Y-97026940D01*
X149752947Y-97158240D01*
X149343050Y-97337499D01*
X148952856Y-97546097D01*
X148608456Y-97781521D01*
X148276178Y-98068548D01*
X148070111Y-98274293D01*
X147795946Y-98583664D01*
X147560108Y-98906853D01*
X147343290Y-99272990D01*
X147146181Y-99668174D01*
X147044183Y-99892113D01*
X146954834Y-100103654D01*
X146872107Y-100320565D01*
X146789972Y-100560617D01*
X146702401Y-100841579D01*
X146603367Y-101181219D01*
X146486840Y-101597308D01*
X146465501Y-101674589D01*
X146339403Y-102113830D01*
X146210665Y-102520719D01*
X146072298Y-102912063D01*
X145917314Y-103304667D01*
X145738723Y-103715337D01*
X145529536Y-104160880D01*
X145282765Y-104658101D01*
X144991421Y-105223806D01*
X144982057Y-105241747D01*
X144726291Y-105736888D01*
X144515468Y-106158430D01*
X144344266Y-106519450D01*
X144207362Y-106833026D01*
X144099433Y-107112235D01*
X144015157Y-107370155D01*
X143949210Y-107619863D01*
X143896271Y-107874437D01*
X143885016Y-107937102D01*
X143838841Y-108300714D01*
X143812862Y-108724954D01*
X143807109Y-109174795D01*
X142983726Y-109174795D01*
X142978975Y-108686287D01*
X143059388Y-107887776D01*
X143203746Y-107212056D01*
X143291589Y-106887800D01*
X142837391Y-106435528D01*
X142434889Y-106005534D01*
X142116596Y-105598649D01*
X141873186Y-105202064D01*
X141750027Y-104942121D01*
X141636823Y-104595859D01*
X141593105Y-104273890D01*
X141615189Y-103986928D01*
X141699395Y-103745686D01*
X141842042Y-103560876D01*
X142039447Y-103443211D01*
X142278819Y-103403364D01*
X142497056Y-103434523D01*
X142699273Y-103536493D01*
X142909283Y-103721322D01*
X142911219Y-103723334D01*
X143014764Y-103826938D01*
X143075198Y-103865509D01*
X143117686Y-103847348D01*
X143152028Y-103802756D01*
X143262981Y-103719798D01*
X143400505Y-103714845D01*
X143527324Y-103788683D01*
X143532962Y-103794729D01*
X143615339Y-103933215D01*
X143647808Y-104120430D01*
X143631388Y-104370928D01*
X143589327Y-104601131D01*
X143547285Y-104804356D01*
X143527961Y-104939984D01*
X143531437Y-105038025D01*
X143557796Y-105128487D01*
X143590995Y-105205785D01*
X143666629Y-105344541D01*
X143753645Y-105463968D01*
X143832828Y-105541510D01*
X143884963Y-105554612D01*
X143886738Y-105552936D01*
X143915077Y-105504102D01*
X143982203Y-105380870D01*
X144080418Y-105197601D01*
X144202023Y-104968659D01*
X144333102Y-104720225D01*
X144601135Y-104203548D01*
X144826329Y-103750446D01*
X145017544Y-103338669D01*
X145183642Y-102945961D01*
X145333481Y-102550071D01*
X145475924Y-102128746D01*
X145619829Y-101659732D01*
X145774058Y-101120777D01*
X145792173Y-101055766D01*
X145995371Y-100374666D01*
X146204693Y-99779295D01*
X146427655Y-99255193D01*
X146671776Y-98787902D01*
X146944573Y-98362963D01*
X147253563Y-97965917D01*
X147589032Y-97599805D01*
X148103778Y-97142112D01*
X148674874Y-96761972D01*
X149307976Y-96456209D01*
X150008742Y-96221648D01*
X150075495Y-96203877D01*
X150464230Y-96126984D01*
X150898041Y-96082090D01*
X151343912Y-96069844D01*
X151768829Y-96090894D01*
G37*
G36*
X150510739Y-105382599D02*
G01*
X150911541Y-105436166D01*
X151206410Y-105507988D01*
X151821925Y-105752862D01*
X152377557Y-106076764D01*
X152868889Y-106475279D01*
X153291507Y-106943992D01*
X153640998Y-107478489D01*
X153912945Y-108074355D01*
X153986215Y-108287792D01*
X154067411Y-108635221D01*
X154116425Y-109042129D01*
X154131778Y-109472618D01*
X154111987Y-109890789D01*
X154065642Y-110213639D01*
X153891691Y-110829053D01*
X153631906Y-111398534D01*
X153292742Y-111915084D01*
X152880659Y-112371706D01*
X152402115Y-112761402D01*
X151863568Y-113077174D01*
X151271476Y-113312023D01*
X151181361Y-113339001D01*
X150792168Y-113426132D01*
X150365852Y-113480176D01*
X149944087Y-113497716D01*
X149568549Y-113475334D01*
X149549662Y-113472821D01*
X148928309Y-113338403D01*
X148345145Y-113115382D01*
X147807922Y-112810613D01*
X147324389Y-112430957D01*
X146902295Y-111983269D01*
X146549391Y-111474407D01*
X146273426Y-110911229D01*
X146115286Y-110433842D01*
X146042069Y-110044484D01*
X146008488Y-109601774D01*
X146014513Y-109144371D01*
X146060119Y-108710936D01*
X146116736Y-108438088D01*
X146327425Y-107826905D01*
X146466085Y-107561529D01*
X147413297Y-107561529D01*
X147415834Y-107714391D01*
X147419455Y-107724848D01*
X147507070Y-107856947D01*
X147645339Y-107907305D01*
X147649408Y-107907608D01*
X147718854Y-107889642D01*
X147847370Y-107839540D01*
X147970886Y-107784747D01*
X148195543Y-107666031D01*
X148432757Y-107517429D01*
X148657330Y-107357026D01*
X148844062Y-107202908D01*
X148967756Y-107073160D01*
X148973750Y-107064970D01*
X149059052Y-106900147D01*
X149063023Y-106771455D01*
X148998023Y-106679496D01*
X148876409Y-106624873D01*
X148710538Y-106608189D01*
X148512767Y-106630047D01*
X148295455Y-106691048D01*
X148070959Y-106791796D01*
X147851635Y-106932893D01*
X147762257Y-107005890D01*
X147598432Y-107182270D01*
X147478138Y-107375819D01*
X147413297Y-107561529D01*
X146466085Y-107561529D01*
X146619470Y-107267973D01*
X146986261Y-106767580D01*
X147421186Y-106332014D01*
X147917636Y-105967562D01*
X148469002Y-105680512D01*
X149068672Y-105477152D01*
X149280563Y-105428561D01*
X149659352Y-105377316D01*
X150081376Y-105362489D01*
X150510739Y-105382599D01*
G37*
G36*
X154117930Y-104077335D02*
G01*
X154363819Y-104161110D01*
X154570972Y-104318552D01*
X154583491Y-104332443D01*
X154703409Y-104509574D01*
X154729753Y-104671097D01*
X154663904Y-104833382D01*
X154629754Y-104880401D01*
X154441479Y-105043009D01*
X154201846Y-105133432D01*
X153932786Y-105147808D01*
X153656229Y-105082277D01*
X153605257Y-105060752D01*
X153391823Y-104926909D01*
X153268331Y-104766021D01*
X153237424Y-104588218D01*
X153301749Y-104403627D01*
X153401244Y-104279388D01*
X153611303Y-104135337D01*
X153858644Y-104068365D01*
X154117930Y-104077335D01*
G37*
G36*
X147410681Y-103636155D02*
G01*
X147631969Y-103783308D01*
X147668809Y-103820582D01*
X147759524Y-103981751D01*
X147763851Y-104156533D01*
X147690525Y-104327066D01*
X147548283Y-104475490D01*
X147345863Y-104583943D01*
X147286111Y-104602932D01*
X147080525Y-104645381D01*
X146906992Y-104638211D01*
X146728696Y-104586796D01*
X146532870Y-104476896D01*
X146397293Y-104322711D01*
X146330030Y-104145203D01*
X146339142Y-103965335D01*
X146429087Y-103807892D01*
X146639614Y-103650400D01*
X146889834Y-103569449D01*
X147155079Y-103564785D01*
X147410681Y-103636155D01*
G37*
G36*
X149871750Y-103282736D02*
G01*
X149953788Y-103383037D01*
X149999701Y-103522318D01*
X150058526Y-103653542D01*
X150158589Y-103789894D01*
X150178100Y-103810385D01*
X150302232Y-103909078D01*
X150440310Y-103949434D01*
X150545330Y-103954262D01*
X150710286Y-103939212D01*
X150832761Y-103878605D01*
X150924394Y-103794997D01*
X151027050Y-103677276D01*
X151096575Y-103574308D01*
X151107591Y-103549132D01*
X151178786Y-103455282D01*
X151288847Y-103428034D01*
X151404482Y-103464472D01*
X151492394Y-103561683D01*
X151502041Y-103583661D01*
X151496839Y-103690232D01*
X151432358Y-103836382D01*
X151325323Y-103996397D01*
X151192459Y-104144565D01*
X151075379Y-104239579D01*
X150813519Y-104357471D01*
X150524991Y-104394945D01*
X150242596Y-104349393D01*
X150150795Y-104313127D01*
X149973309Y-104201382D01*
X149819587Y-104052058D01*
X149695627Y-103880983D01*
X149607423Y-103703986D01*
X149560971Y-103536897D01*
X149562269Y-103395543D01*
X149617310Y-103295755D01*
X149732092Y-103253361D01*
X149749178Y-103252881D01*
X149871750Y-103282736D01*
G37*
G36*
X153163905Y-101958771D02*
G01*
X153409919Y-102055272D01*
X153471732Y-102096111D01*
X153682178Y-102303961D01*
X153820380Y-102557240D01*
X153889157Y-102838424D01*
X153891328Y-103129989D01*
X153829713Y-103414409D01*
X153707130Y-103674161D01*
X153526400Y-103891719D01*
X153290341Y-104049560D01*
X153149101Y-104101545D01*
X152999082Y-104139738D01*
X152895436Y-104146711D01*
X152790633Y-104118555D01*
X152658840Y-104061223D01*
X152394864Y-103889485D01*
X152199699Y-103651764D01*
X152080004Y-103360663D01*
X152042434Y-103028789D01*
X152049670Y-102907744D01*
X152102581Y-102682654D01*
X153096454Y-102682654D01*
X153124319Y-102823152D01*
X153216178Y-102924564D01*
X153342733Y-102953450D01*
X153465164Y-102902190D01*
X153475878Y-102892171D01*
X153537687Y-102773259D01*
X153522015Y-102648849D01*
X153444690Y-102549950D01*
X153321540Y-102507572D01*
X153280852Y-102510081D01*
X153150397Y-102568727D01*
X153096454Y-102682654D01*
X152102581Y-102682654D01*
X152119893Y-102609005D01*
X152255617Y-102355477D01*
X152442361Y-102155424D01*
X152665645Y-102017112D01*
X152910986Y-101948806D01*
X153163905Y-101958771D01*
G37*
G36*
X148508253Y-101661655D02*
G01*
X148760461Y-101791521D01*
X148908466Y-101918676D01*
X149099041Y-102168927D01*
X149201996Y-102456749D01*
X149225036Y-102726846D01*
X149182141Y-103033679D01*
X149068454Y-103307393D01*
X148897297Y-103535361D01*
X148681993Y-103704955D01*
X148435866Y-103803548D01*
X148172238Y-103818512D01*
X148088454Y-103804061D01*
X147835652Y-103699191D01*
X147633789Y-103523422D01*
X147485939Y-103293878D01*
X147395172Y-103027686D01*
X147364560Y-102741969D01*
X147397176Y-102453851D01*
X147399717Y-102446829D01*
X148412886Y-102446829D01*
X148454671Y-102553378D01*
X148544758Y-102626982D01*
X148657441Y-102646595D01*
X148766607Y-102591579D01*
X148820643Y-102477285D01*
X148811301Y-102343139D01*
X148753984Y-102252906D01*
X148634042Y-102208223D01*
X148512449Y-102254105D01*
X148445110Y-102328380D01*
X148412886Y-102446829D01*
X147399717Y-102446829D01*
X147496090Y-102180459D01*
X147664375Y-101938915D01*
X147740591Y-101864753D01*
X147992249Y-101697991D01*
X148250159Y-101630385D01*
X148508253Y-101661655D01*
G37*
D12*
%TO.C,U1*%
X209515000Y-65739250D02*
X223485000Y-65739250D01*
X207610000Y-63834250D02*
X207610000Y-46689250D01*
X225390000Y-63834250D02*
X225390000Y-46689250D01*
D15*
X212005000Y-44784250D02*
X212008728Y-43773978D01*
D12*
X223485000Y-44784250D02*
X209515000Y-44784250D01*
D15*
X221004000Y-43774250D02*
X221004000Y-44784250D01*
X212508728Y-43274250D02*
X220504000Y-43274250D01*
D12*
X209515000Y-65739250D02*
G75*
G02*
X207610000Y-63834250I1J1905001D01*
G01*
X225390000Y-63834250D02*
G75*
G02*
X223485000Y-65739250I-1905001J1D01*
G01*
X207610000Y-46685250D02*
G75*
G02*
X209515000Y-44780250I1905000J0D01*
G01*
X223485000Y-44784250D02*
G75*
G02*
X225390000Y-46689250I-50J-1905050D01*
G01*
D15*
X212008728Y-43773978D02*
G75*
G02*
X212508728Y-43274278I499972J-272D01*
G01*
X220504000Y-43274250D02*
G75*
G02*
X221004000Y-43774250I-100J-500100D01*
G01*
D16*
X208926000Y-45917250D02*
G75*
G02*
X208422000Y-45917250I-252000J0D01*
G01*
X208422000Y-45917250D02*
G75*
G02*
X208926000Y-45917250I252000J0D01*
G01*
X207652000Y-45200250D02*
G75*
G02*
X207148000Y-45200250I-252000J0D01*
G01*
X207148000Y-45200250D02*
G75*
G02*
X207652000Y-45200250I252000J0D01*
G01*
D10*
%TO.C,D11*%
X154643884Y-72340042D02*
X154643884Y-74340042D01*
X154643884Y-72340042D02*
X158653884Y-72340042D01*
X154643884Y-74340042D02*
X158653884Y-74340042D01*
D12*
X156253884Y-73340042D02*
X156653884Y-73340042D01*
X156653884Y-73340042D02*
X156653884Y-72790042D01*
X156653884Y-73340042D02*
X156653884Y-73890042D01*
X156653884Y-73340042D02*
X157253884Y-73740042D01*
X157253884Y-72940042D02*
X156653884Y-73340042D01*
X157253884Y-73340042D02*
X157753884Y-73340042D01*
X157253884Y-73740042D02*
X157253884Y-72940042D01*
X157755136Y-73340042D02*
X157355136Y-73340042D01*
D10*
%TO.C,J1*%
X224172000Y-78232000D02*
X224172000Y-67962000D01*
X226932000Y-67962000D02*
X224172000Y-67962000D01*
X226932000Y-78232000D02*
X224172000Y-78232000D01*
X226932000Y-78232000D02*
X226932000Y-67962000D01*
X226932000Y-79502000D02*
X226932000Y-80882000D01*
X226932000Y-80882000D02*
X225552000Y-80882000D01*
%TO.C,D2*%
X97643884Y-85006709D02*
X97643884Y-87006709D01*
X97643884Y-85006709D02*
X101653884Y-85006709D01*
X97643884Y-87006709D02*
X101653884Y-87006709D01*
D12*
X99253884Y-86006709D02*
X99653884Y-86006709D01*
X99653884Y-86006709D02*
X99653884Y-85456709D01*
X99653884Y-86006709D02*
X99653884Y-86556709D01*
X99653884Y-86006709D02*
X100253884Y-86406709D01*
X100253884Y-85606709D02*
X99653884Y-86006709D01*
X100253884Y-86006709D02*
X100753884Y-86006709D01*
X100253884Y-86406709D02*
X100253884Y-85606709D01*
X100755136Y-86006709D02*
X100355136Y-86006709D01*
D10*
%TO.C,D12*%
X154643884Y-53340042D02*
X154643884Y-55340042D01*
X154643884Y-53340042D02*
X158653884Y-53340042D01*
X154643884Y-55340042D02*
X158653884Y-55340042D01*
D12*
X156253884Y-54340042D02*
X156653884Y-54340042D01*
X156653884Y-54340042D02*
X156653884Y-53790042D01*
X156653884Y-54340042D02*
X156653884Y-54890042D01*
X156653884Y-54340042D02*
X157253884Y-54740042D01*
X157253884Y-53940042D02*
X156653884Y-54340042D01*
X157253884Y-54340042D02*
X157753884Y-54340042D01*
X157253884Y-54740042D02*
X157253884Y-53940042D01*
X157755136Y-54340042D02*
X157355136Y-54340042D01*
D10*
%TO.C,D14*%
X173643884Y-78673376D02*
X173643884Y-80673376D01*
X173643884Y-78673376D02*
X177653884Y-78673376D01*
X173643884Y-80673376D02*
X177653884Y-80673376D01*
D12*
X175253884Y-79673376D02*
X175653884Y-79673376D01*
X175653884Y-79673376D02*
X175653884Y-79123376D01*
X175653884Y-79673376D02*
X175653884Y-80223376D01*
X175653884Y-79673376D02*
X176253884Y-80073376D01*
X176253884Y-79273376D02*
X175653884Y-79673376D01*
X176253884Y-79673376D02*
X176753884Y-79673376D01*
X176253884Y-80073376D02*
X176253884Y-79273376D01*
X176755136Y-79673376D02*
X176355136Y-79673376D01*
D10*
%TO.C,D23*%
X219521524Y-143609228D02*
X222994286Y-145614228D01*
X220521524Y-141877177D02*
X219521524Y-143609228D01*
X220521524Y-141877177D02*
X223994286Y-143882177D01*
D12*
X221415825Y-143548202D02*
X221762235Y-143748202D01*
X221762235Y-143748202D02*
X221487235Y-144224516D01*
X221762235Y-143748202D02*
X222037235Y-143271888D01*
X221762235Y-143748202D02*
X222081850Y-144394612D01*
X222081850Y-144394612D02*
X222481850Y-143701792D01*
X222281850Y-144048202D02*
X222714863Y-144298202D01*
X222481850Y-143701792D02*
X221762235Y-143748202D01*
X222715947Y-144298828D02*
X222369537Y-144098828D01*
D10*
%TO.C,D10*%
X154643884Y-91340042D02*
X154643884Y-93340042D01*
X154643884Y-91340042D02*
X158653884Y-91340042D01*
X154643884Y-93340042D02*
X158653884Y-93340042D01*
D12*
X156253884Y-92340042D02*
X156653884Y-92340042D01*
X156653884Y-92340042D02*
X156653884Y-91790042D01*
X156653884Y-92340042D02*
X156653884Y-92890042D01*
X156653884Y-92340042D02*
X157253884Y-92740042D01*
X157253884Y-91940042D02*
X156653884Y-92340042D01*
X157253884Y-92340042D02*
X157753884Y-92340042D01*
X157253884Y-92740042D02*
X157253884Y-91940042D01*
X157755136Y-92340042D02*
X157355136Y-92340042D01*
D10*
%TO.C,D21*%
X196958254Y-144010639D02*
X200726422Y-145382140D01*
X197642295Y-142131254D02*
X196958254Y-144010639D01*
X197642295Y-142131254D02*
X201410462Y-143502754D01*
D12*
X198813180Y-143621599D02*
X199189057Y-143758407D01*
X199189057Y-143758407D02*
X199000946Y-144275238D01*
X199189057Y-143758407D02*
X199377168Y-143241576D01*
X199189057Y-143758407D02*
X199616064Y-144339496D01*
X199616064Y-144339496D02*
X199889680Y-143587742D01*
X199752872Y-143963619D02*
X200222719Y-144134629D01*
X199889680Y-143587742D02*
X199189057Y-143758407D01*
X200223895Y-144135057D02*
X199848018Y-143998249D01*
D10*
%TO.C,D15*%
X173643884Y-59673376D02*
X173643884Y-61673376D01*
X173643884Y-59673376D02*
X177653884Y-59673376D01*
X173643884Y-61673376D02*
X177653884Y-61673376D01*
D12*
X175253884Y-60673376D02*
X175653884Y-60673376D01*
X175653884Y-60673376D02*
X175653884Y-60123376D01*
X175653884Y-60673376D02*
X175653884Y-61223376D01*
X175653884Y-60673376D02*
X176253884Y-61073376D01*
X176253884Y-60273376D02*
X175653884Y-60673376D01*
X176253884Y-60673376D02*
X176753884Y-60673376D01*
X176253884Y-61073376D02*
X176253884Y-60273376D01*
X176755136Y-60673376D02*
X176355136Y-60673376D01*
D10*
%TO.C,D19*%
X177636625Y-140972986D02*
X181585704Y-141669315D01*
X177983921Y-139003370D02*
X177636625Y-140972986D01*
X177983921Y-139003370D02*
X181933000Y-139699699D01*
D12*
X179395813Y-140267751D02*
X179789736Y-140337211D01*
X179789736Y-140337211D02*
X179694230Y-140878855D01*
X179789736Y-140337211D02*
X179885243Y-139795566D01*
X179789736Y-140337211D02*
X180311162Y-140835323D01*
X180311162Y-140835323D02*
X180450080Y-140047476D01*
X180380621Y-140441400D02*
X180873025Y-140528224D01*
X180450080Y-140047476D02*
X179789736Y-140337211D01*
X180874258Y-140528441D02*
X180480335Y-140458982D01*
D10*
%TO.C,D20*%
X180935941Y-122261638D02*
X184885020Y-122957967D01*
X181283237Y-120292022D02*
X180935941Y-122261638D01*
X181283237Y-120292022D02*
X185232316Y-120988351D01*
D12*
X182695129Y-121556403D02*
X183089052Y-121625863D01*
X183089052Y-121625863D02*
X182993546Y-122167507D01*
X183089052Y-121625863D02*
X183184559Y-121084218D01*
X183089052Y-121625863D02*
X183610478Y-122123975D01*
X183610478Y-122123975D02*
X183749396Y-121336128D01*
X183679937Y-121730052D02*
X184172341Y-121816876D01*
X183749396Y-121336128D02*
X183089052Y-121625863D01*
X184173574Y-121817093D02*
X183779651Y-121747634D01*
D10*
%TO.C,D22*%
X203456637Y-126156480D02*
X207224805Y-127527981D01*
X204140678Y-124277095D02*
X203456637Y-126156480D01*
X204140678Y-124277095D02*
X207908845Y-125648595D01*
D12*
X205311563Y-125767440D02*
X205687440Y-125904248D01*
X205687440Y-125904248D02*
X205499329Y-126421079D01*
X205687440Y-125904248D02*
X205875551Y-125387417D01*
X205687440Y-125904248D02*
X206114447Y-126485337D01*
X206114447Y-126485337D02*
X206388063Y-125733583D01*
X206251255Y-126109460D02*
X206721102Y-126280470D01*
X206388063Y-125733583D02*
X205687440Y-125904248D01*
X206722278Y-126280898D02*
X206346401Y-126144090D01*
D10*
%TO.C,D5*%
X116643884Y-85006709D02*
X116643884Y-87006709D01*
X116643884Y-85006709D02*
X120653884Y-85006709D01*
X116643884Y-87006709D02*
X120653884Y-87006709D01*
D12*
X118253884Y-86006709D02*
X118653884Y-86006709D01*
X118653884Y-86006709D02*
X118653884Y-85456709D01*
X118653884Y-86006709D02*
X118653884Y-86556709D01*
X118653884Y-86006709D02*
X119253884Y-86406709D01*
X119253884Y-85606709D02*
X118653884Y-86006709D01*
X119253884Y-86006709D02*
X119753884Y-86006709D01*
X119253884Y-86406709D02*
X119253884Y-85606709D01*
X119755136Y-86006709D02*
X119355136Y-86006709D01*
D10*
%TO.C,D16*%
X192643884Y-97673376D02*
X192643884Y-99673376D01*
X192643884Y-97673376D02*
X196653884Y-97673376D01*
X192643884Y-99673376D02*
X196653884Y-99673376D01*
D12*
X194253884Y-98673376D02*
X194653884Y-98673376D01*
X194653884Y-98673376D02*
X194653884Y-98123376D01*
X194653884Y-98673376D02*
X194653884Y-99223376D01*
X194653884Y-98673376D02*
X195253884Y-99073376D01*
X195253884Y-98273376D02*
X194653884Y-98673376D01*
X195253884Y-98673376D02*
X195753884Y-98673376D01*
X195253884Y-99073376D02*
X195253884Y-98273376D01*
X195755136Y-98673376D02*
X195355136Y-98673376D01*
D10*
%TO.C,D8*%
X135643884Y-78673376D02*
X135643884Y-80673376D01*
X135643884Y-78673376D02*
X139653884Y-78673376D01*
X135643884Y-80673376D02*
X139653884Y-80673376D01*
D12*
X137253884Y-79673376D02*
X137653884Y-79673376D01*
X137653884Y-79673376D02*
X137653884Y-79123376D01*
X137653884Y-79673376D02*
X137653884Y-80223376D01*
X137653884Y-79673376D02*
X138253884Y-80073376D01*
X138253884Y-79273376D02*
X137653884Y-79673376D01*
X138253884Y-79673376D02*
X138753884Y-79673376D01*
X138253884Y-80073376D02*
X138253884Y-79273376D01*
X138755136Y-79673376D02*
X138355136Y-79673376D01*
D10*
%TO.C,D4*%
X116643884Y-104006709D02*
X116643884Y-106006709D01*
X116643884Y-104006709D02*
X120653884Y-104006709D01*
X116643884Y-106006709D02*
X120653884Y-106006709D01*
D12*
X118253884Y-105006709D02*
X118653884Y-105006709D01*
X118653884Y-105006709D02*
X118653884Y-104456709D01*
X118653884Y-105006709D02*
X118653884Y-105556709D01*
X118653884Y-105006709D02*
X119253884Y-105406709D01*
X119253884Y-104606709D02*
X118653884Y-105006709D01*
X119253884Y-105006709D02*
X119753884Y-105006709D01*
X119253884Y-105406709D02*
X119253884Y-104606709D01*
X119755136Y-105006709D02*
X119355136Y-105006709D01*
D10*
%TO.C,D3*%
X97643884Y-66006709D02*
X97643884Y-68006709D01*
X97643884Y-66006709D02*
X101653884Y-66006709D01*
X97643884Y-68006709D02*
X101653884Y-68006709D01*
D12*
X99253884Y-67006709D02*
X99653884Y-67006709D01*
X99653884Y-67006709D02*
X99653884Y-66456709D01*
X99653884Y-67006709D02*
X99653884Y-67556709D01*
X99653884Y-67006709D02*
X100253884Y-67406709D01*
X100253884Y-66606709D02*
X99653884Y-67006709D01*
X100253884Y-67006709D02*
X100753884Y-67006709D01*
X100253884Y-67406709D02*
X100253884Y-66606709D01*
X100755136Y-67006709D02*
X100355136Y-67006709D01*
D10*
%TO.C,D6*%
X116643884Y-66006709D02*
X116643884Y-68006709D01*
X116643884Y-66006709D02*
X120653884Y-66006709D01*
X116643884Y-68006709D02*
X120653884Y-68006709D01*
D12*
X118253884Y-67006709D02*
X118653884Y-67006709D01*
X118653884Y-67006709D02*
X118653884Y-66456709D01*
X118653884Y-67006709D02*
X118653884Y-67556709D01*
X118653884Y-67006709D02*
X119253884Y-67406709D01*
X119253884Y-66606709D02*
X118653884Y-67006709D01*
X119253884Y-67006709D02*
X119753884Y-67006709D01*
X119253884Y-67406709D02*
X119253884Y-66606709D01*
X119755136Y-67006709D02*
X119355136Y-67006709D01*
D10*
%TO.C,D7*%
X135643884Y-97673376D02*
X135643884Y-99673376D01*
X135643884Y-97673376D02*
X139653884Y-97673376D01*
X135643884Y-99673376D02*
X139653884Y-99673376D01*
D12*
X137253884Y-98673376D02*
X137653884Y-98673376D01*
X137653884Y-98673376D02*
X137653884Y-98123376D01*
X137653884Y-98673376D02*
X137653884Y-99223376D01*
X137653884Y-98673376D02*
X138253884Y-99073376D01*
X138253884Y-98273376D02*
X137653884Y-98673376D01*
X138253884Y-98673376D02*
X138753884Y-98673376D01*
X138253884Y-99073376D02*
X138253884Y-98273376D01*
X138755136Y-98673376D02*
X138355136Y-98673376D01*
D10*
%TO.C,D13*%
X173643884Y-97673376D02*
X173643884Y-99673376D01*
X173643884Y-97673376D02*
X177653884Y-97673376D01*
X173643884Y-99673376D02*
X177653884Y-99673376D01*
D12*
X175253884Y-98673376D02*
X175653884Y-98673376D01*
X175653884Y-98673376D02*
X175653884Y-98123376D01*
X175653884Y-98673376D02*
X175653884Y-99223376D01*
X175653884Y-98673376D02*
X176253884Y-99073376D01*
X176253884Y-98273376D02*
X175653884Y-98673376D01*
X176253884Y-98673376D02*
X176753884Y-98673376D01*
X176253884Y-99073376D02*
X176253884Y-98273376D01*
X176755136Y-98673376D02*
X176355136Y-98673376D01*
D17*
%TO.C,BTN1*%
X164390000Y-111690000D02*
X164390000Y-109290000D01*
X164840000Y-107490000D02*
X170440000Y-107490000D01*
X164840000Y-113490000D02*
X170440000Y-113490000D01*
X170890000Y-109290000D02*
X170890000Y-111690000D01*
X164440000Y-113940000D02*
G75*
G02*
X164540000Y-113940000I50000J0D01*
G01*
X164540000Y-113940000D02*
G75*
G02*
X164440000Y-113940000I-50000J0D01*
G01*
X164540000Y-113940000D02*
G75*
G02*
X164440000Y-113940000I-50000J0D01*
G01*
D10*
%TO.C,D17*%
X192643884Y-78673376D02*
X192643884Y-80673376D01*
X192643884Y-78673376D02*
X196653884Y-78673376D01*
X192643884Y-80673376D02*
X196653884Y-80673376D01*
D12*
X194253884Y-79673376D02*
X194653884Y-79673376D01*
X194653884Y-79673376D02*
X194653884Y-79123376D01*
X194653884Y-79673376D02*
X194653884Y-80223376D01*
X194653884Y-79673376D02*
X195253884Y-80073376D01*
X195253884Y-79273376D02*
X194653884Y-79673376D01*
X195253884Y-79673376D02*
X195753884Y-79673376D01*
X195253884Y-80073376D02*
X195253884Y-79273376D01*
X195755136Y-79673376D02*
X195355136Y-79673376D01*
D10*
%TO.C,D9*%
X135643884Y-59673376D02*
X135643884Y-61673376D01*
X135643884Y-59673376D02*
X139653884Y-59673376D01*
X135643884Y-61673376D02*
X139653884Y-61673376D01*
D12*
X137253884Y-60673376D02*
X137653884Y-60673376D01*
X137653884Y-60673376D02*
X137653884Y-60123376D01*
X137653884Y-60673376D02*
X137653884Y-61223376D01*
X137653884Y-60673376D02*
X138253884Y-61073376D01*
X138253884Y-60273376D02*
X137653884Y-60673376D01*
X138253884Y-60673376D02*
X138753884Y-60673376D01*
X138253884Y-61073376D02*
X138253884Y-60273376D01*
X138755136Y-60673376D02*
X138355136Y-60673376D01*
D10*
%TO.C,D18*%
X192643884Y-59673376D02*
X192643884Y-61673376D01*
X192643884Y-59673376D02*
X196653884Y-59673376D01*
X192643884Y-61673376D02*
X196653884Y-61673376D01*
D12*
X194253884Y-60673376D02*
X194653884Y-60673376D01*
X194653884Y-60673376D02*
X194653884Y-60123376D01*
X194653884Y-60673376D02*
X194653884Y-61223376D01*
X194653884Y-60673376D02*
X195253884Y-61073376D01*
X195253884Y-60273376D02*
X194653884Y-60673376D01*
X195253884Y-60673376D02*
X195753884Y-60673376D01*
X195253884Y-61073376D02*
X195253884Y-60273376D01*
X195755136Y-60673376D02*
X195355136Y-60673376D01*
D10*
%TO.C,D1*%
X97643884Y-104006709D02*
X97643884Y-106006709D01*
X97643884Y-104006709D02*
X101653884Y-104006709D01*
X97643884Y-106006709D02*
X101653884Y-106006709D01*
D12*
X99253884Y-105006709D02*
X99653884Y-105006709D01*
X99653884Y-105006709D02*
X99653884Y-104456709D01*
X99653884Y-105006709D02*
X99653884Y-105556709D01*
X99653884Y-105006709D02*
X100253884Y-105406709D01*
X100253884Y-104606709D02*
X99653884Y-105006709D01*
X100253884Y-105006709D02*
X100753884Y-105006709D01*
X100253884Y-105406709D02*
X100253884Y-104606709D01*
X100755136Y-105006709D02*
X100355136Y-105006709D01*
D10*
%TO.C,JST1*%
X206506000Y-67606000D02*
X206506000Y-68606000D01*
X206506000Y-75426000D02*
X206506000Y-74426000D01*
X207426000Y-67606000D02*
X206506000Y-67606000D01*
X207426000Y-75426000D02*
X206506000Y-75426000D01*
D12*
X208066000Y-76466000D02*
X209066000Y-76466000D01*
X210566000Y-75966000D02*
X210566000Y-76966000D01*
X211066000Y-76466000D02*
X210066000Y-76466000D01*
D10*
X211626000Y-67606000D02*
X212626000Y-67606000D01*
X211706000Y-75426000D02*
X212626000Y-75426000D01*
X212626000Y-67606000D02*
X212626000Y-68606000D01*
X212626000Y-75426000D02*
X212626000Y-74426000D01*
%TD*%
M02*
