%TF.GenerationSoftware,KiCad,Pcbnew,9.0.7*%
%TF.CreationDate,2026-01-24T19:20:25+01:00*%
%TF.ProjectId,legendary-guacamole-PCB,6c656765-6e64-4617-9279-2d6775616361,v1.0.0*%
%TF.SameCoordinates,Original*%
%TF.FileFunction,Soldermask,Bot*%
%TF.FilePolarity,Negative*%
%FSLAX46Y46*%
G04 Gerber Fmt 4.6, Leading zero omitted, Abs format (unit mm)*
G04 Created by KiCad (PCBNEW 9.0.7) date 2026-01-24 19:20:25*
%MOMM*%
%LPD*%
G01*
G04 APERTURE LIST*
G04 Aperture macros list*
%AMRoundRect*
0 Rectangle with rounded corners*
0 $1 Rounding radius*
0 $2 $3 $4 $5 $6 $7 $8 $9 X,Y pos of 4 corners*
0 Add a 4 corners polygon primitive as box body*
4,1,4,$2,$3,$4,$5,$6,$7,$8,$9,$2,$3,0*
0 Add four circle primitives for the rounded corners*
1,1,$1+$1,$2,$3*
1,1,$1+$1,$4,$5*
1,1,$1+$1,$6,$7*
1,1,$1+$1,$8,$9*
0 Add four rect primitives between the rounded corners*
20,1,$1+$1,$2,$3,$4,$5,0*
20,1,$1+$1,$4,$5,$6,$7,0*
20,1,$1+$1,$6,$7,$8,$9,0*
20,1,$1+$1,$8,$9,$2,$3,0*%
%AMFreePoly0*
4,1,29,0.530754,0.524039,0.567109,0.516808,0.585134,0.509342,0.615954,0.488748,0.629748,0.474954,0.650342,0.444134,0.657808,0.426109,0.665039,0.389754,0.666000,0.380000,0.666000,-0.380000,0.665039,-0.389754,0.657808,-0.426109,0.650342,-0.444134,0.629748,-0.474954,0.615954,-0.488748,0.585134,-0.509342,0.567109,-0.516808,0.530754,-0.524039,0.521000,-0.525000,-0.283500,-0.525000,
-0.318855,-0.510355,-0.651355,-0.177855,-0.666000,-0.142500,-0.666000,0.142500,-0.651355,0.177855,-0.318855,0.510355,-0.283500,0.525000,0.521000,0.525000,0.530754,0.524039,0.530754,0.524039,$1*%
%AMFreePoly1*
4,1,16,0.635355,1.035355,0.650000,1.000000,0.650000,-0.250000,0.635355,-0.285355,0.600000,-0.300000,-0.600000,-0.300000,-0.635355,-0.285355,-0.650000,-0.250000,-0.650000,1.000000,-0.635355,1.035355,-0.600000,1.050000,-0.564645,1.035355,0.000000,0.470710,0.564645,1.035355,0.600000,1.050000,0.635355,1.035355,0.635355,1.035355,$1*%
%AMFreePoly2*
4,1,14,0.635355,0.435355,0.650000,0.400000,0.650000,0.200000,0.635355,0.164645,0.035355,-0.435355,0.000000,-0.450000,-0.035355,-0.435355,-0.635355,0.164645,-0.650000,0.200000,-0.650000,0.400000,-0.635355,0.435355,-0.600000,0.450000,0.600000,0.450000,0.635355,0.435355,0.635355,0.435355,$1*%
G04 Aperture macros list end*
%ADD10C,0.900000*%
%ADD11C,6.500000*%
%ADD12FreePoly0,0.000000*%
%ADD13RoundRect,0.105000X-0.961000X-0.420000X0.961000X-0.420000X0.961000X0.420000X-0.961000X0.420000X0*%
%ADD14RoundRect,0.105000X0.961000X0.420000X-0.961000X0.420000X-0.961000X-0.420000X0.961000X-0.420000X0*%
%ADD15FreePoly0,180.000000*%
%ADD16O,3.100000X2.100000*%
%ADD17RoundRect,0.232620X-0.542780X1.542780X-0.542780X-1.542780X0.542780X-1.542780X0.542780X1.542780X0*%
%ADD18C,1.801800*%
%ADD19C,4.087800*%
%ADD20RoundRect,0.050000X-1.275000X-1.250000X1.275000X-1.250000X1.275000X1.250000X-1.275000X1.250000X0*%
%ADD21RoundRect,0.050000X-1.625633X-0.738540X0.770583X-1.610691X1.625633X0.738540X-0.770583X1.610691X0*%
%ADD22RoundRect,0.050000X-1.729182X-0.445032X0.479182X-1.720032X1.729182X0.445032X-0.479182X1.720032X0*%
%ADD23RoundRect,0.050000X-1.472690X-1.009608X1.038570X-1.452411X1.472690X1.009608X-1.038570X1.452411X0*%
%ADD24RoundRect,0.250000X-0.250000X-0.400000X0.250000X-0.400000X0.250000X0.400000X-0.250000X0.400000X0*%
%ADD25RoundRect,0.050000X0.850000X0.850000X-0.850000X0.850000X-0.850000X-0.850000X0.850000X-0.850000X0*%
%ADD26C,1.800000*%
%ADD27RoundRect,0.250000X-0.416506X-0.221410X0.016506X-0.471410X0.416506X0.221410X-0.016506X0.471410X0*%
%ADD28RoundRect,0.250000X-0.371731X-0.290372X0.098115X-0.461382X0.371731X0.290372X-0.098115X0.461382X0*%
%ADD29RoundRect,0.250000X-0.315661X-0.350511X0.176743X-0.437335X0.315661X0.350511X-0.176743X0.437335X0*%
%ADD30RoundRect,0.102000X-0.800000X-0.700000X0.800000X-0.700000X0.800000X0.700000X-0.800000X0.700000X0*%
%ADD31FreePoly1,0.000000*%
%ADD32O,1.300000X1.850000*%
%ADD33FreePoly2,0.000000*%
G04 APERTURE END LIST*
D10*
%TO.C,REF\u002A\u002A*%
X122314000Y-48768000D03*
X123016944Y-47070944D03*
X123016944Y-50465056D03*
X124714000Y-46368000D03*
D11*
X124714000Y-48768000D03*
D10*
X124714000Y-51168000D03*
X126411056Y-47070944D03*
X126411056Y-50465056D03*
X127114000Y-48768000D03*
%TD*%
%TO.C,REF\u002A\u002A*%
X159652000Y-128270000D03*
X160354944Y-126572944D03*
X160354944Y-129967056D03*
X162052000Y-125870000D03*
D11*
X162052000Y-128270000D03*
D10*
X162052000Y-130670000D03*
X163749056Y-126572944D03*
X163749056Y-129967056D03*
X164452000Y-128270000D03*
%TD*%
D12*
%TO.C,U1*%
X225155000Y-54055250D03*
X225155000Y-51515250D03*
X225155000Y-48975250D03*
D13*
X224755000Y-47705250D03*
D14*
X208245000Y-47705250D03*
D13*
X224755000Y-50245250D03*
X224755000Y-52785250D03*
X224755000Y-55325250D03*
X224755000Y-57865250D03*
X224755000Y-60405250D03*
X224755000Y-62945250D03*
D14*
X208245000Y-62945250D03*
X208245000Y-60405250D03*
X208245000Y-57865250D03*
X208245000Y-55325250D03*
X208245000Y-52785250D03*
X208245000Y-50245250D03*
D12*
X225155000Y-56595250D03*
X225155000Y-59135250D03*
X225155000Y-61675250D03*
D15*
X207845000Y-61675250D03*
X207845000Y-59135250D03*
X207845000Y-56595250D03*
D16*
X218300000Y-49325250D03*
X214800000Y-49325250D03*
D17*
X217500000Y-60825250D03*
X215500000Y-60825250D03*
%TD*%
D18*
%TO.C,S16*%
X189920000Y-93666667D03*
D19*
X195000000Y-93666667D03*
D18*
X200080000Y-93666667D03*
D20*
X187915000Y-91126667D03*
X200842000Y-88586667D03*
%TD*%
D18*
%TO.C,S21*%
X196453056Y-137434556D03*
D19*
X201226695Y-139172018D03*
D18*
X206000334Y-140909480D03*
D21*
X195437704Y-134361986D03*
X208453842Y-136396461D03*
%TD*%
D18*
%TO.C,S22*%
X202951439Y-119580397D03*
D19*
X207725078Y-121317859D03*
D18*
X212498717Y-123055321D03*
D21*
X201936087Y-116507827D03*
X214952225Y-118542302D03*
%TD*%
D18*
%TO.C,S10*%
X151920000Y-87333333D03*
D19*
X157000000Y-87333333D03*
D18*
X162080000Y-87333333D03*
D20*
X149915000Y-84793333D03*
X162842000Y-82253333D03*
%TD*%
D18*
%TO.C,S11*%
X151920000Y-68333333D03*
D19*
X157000000Y-68333333D03*
D18*
X162080000Y-68333333D03*
D20*
X149915000Y-65793333D03*
X162842000Y-63253333D03*
%TD*%
D18*
%TO.C,S2*%
X94920000Y-81000000D03*
D19*
X100000000Y-81000000D03*
D18*
X105080000Y-81000000D03*
D20*
X92915000Y-78460000D03*
X105842000Y-75920000D03*
%TD*%
D18*
%TO.C,S1*%
X94920000Y-100000000D03*
D19*
X100000000Y-100000000D03*
D18*
X105080000Y-100000000D03*
D20*
X92915000Y-97460000D03*
X105842000Y-94920000D03*
%TD*%
D18*
%TO.C,S23*%
X220165926Y-137045323D03*
D19*
X224565335Y-139585323D03*
D18*
X228964744Y-142125323D03*
D22*
X219699545Y-133843118D03*
X232164655Y-138106914D03*
%TD*%
D18*
%TO.C,S12*%
X151920000Y-49333333D03*
D19*
X157000000Y-49333333D03*
D18*
X162080000Y-49333333D03*
D20*
X149915000Y-46793333D03*
X162842000Y-44253333D03*
%TD*%
D18*
%TO.C,S19*%
X175997177Y-134584534D03*
D19*
X181000000Y-135466667D03*
D18*
X186002823Y-136348800D03*
D23*
X174463703Y-131734958D03*
X187635380Y-131478296D03*
%TD*%
D18*
%TO.C,S7*%
X132920000Y-93666667D03*
D19*
X138000000Y-93666667D03*
D18*
X143080000Y-93666667D03*
D20*
X130915000Y-91126667D03*
X143842000Y-88586667D03*
%TD*%
D18*
%TO.C,S6*%
X113920000Y-62000000D03*
D19*
X119000000Y-62000000D03*
D18*
X124080000Y-62000000D03*
D20*
X111915000Y-59460000D03*
X124842000Y-56920000D03*
%TD*%
D18*
%TO.C,S8*%
X132920000Y-74666667D03*
D19*
X138000000Y-74666667D03*
D18*
X143080000Y-74666667D03*
D20*
X130915000Y-72126667D03*
X143842000Y-69586667D03*
%TD*%
D18*
%TO.C,S5*%
X113920000Y-81000000D03*
D19*
X119000000Y-81000000D03*
D18*
X124080000Y-81000000D03*
D20*
X111915000Y-78460000D03*
X124842000Y-75920000D03*
%TD*%
D18*
%TO.C,S13*%
X170920000Y-93666667D03*
D19*
X176000000Y-93666667D03*
D18*
X181080000Y-93666667D03*
D20*
X168915000Y-91126667D03*
X181842000Y-88586667D03*
%TD*%
D18*
%TO.C,S20*%
X179296492Y-115873186D03*
D19*
X184299315Y-116755319D03*
D18*
X189302138Y-117637452D03*
D23*
X177763018Y-113023610D03*
X190934695Y-112766948D03*
%TD*%
D18*
%TO.C,S14*%
X170920000Y-74666667D03*
D19*
X176000000Y-74666667D03*
D18*
X181080000Y-74666667D03*
D20*
X168915000Y-72126667D03*
X181842000Y-69586667D03*
%TD*%
D18*
%TO.C,S4*%
X113920000Y-100000000D03*
D19*
X119000000Y-100000000D03*
D18*
X124080000Y-100000000D03*
D20*
X111915000Y-97460000D03*
X124842000Y-94920000D03*
%TD*%
D18*
%TO.C,S18*%
X189920000Y-55666667D03*
D19*
X195000000Y-55666667D03*
D18*
X200080000Y-55666667D03*
D20*
X187915000Y-53126667D03*
X200842000Y-50586667D03*
%TD*%
D18*
%TO.C,S9*%
X132920000Y-55666667D03*
D19*
X138000000Y-55666667D03*
D18*
X143080000Y-55666667D03*
D20*
X130915000Y-53126667D03*
X143842000Y-50586667D03*
%TD*%
D18*
%TO.C,S15*%
X170920000Y-55666667D03*
D19*
X176000000Y-55666667D03*
D18*
X181080000Y-55666667D03*
D20*
X168915000Y-53126667D03*
X181842000Y-50586667D03*
%TD*%
D18*
%TO.C,S17*%
X189920000Y-74666667D03*
D19*
X195000000Y-74666667D03*
D18*
X200080000Y-74666667D03*
D20*
X187915000Y-72126667D03*
X200842000Y-69586667D03*
%TD*%
D18*
%TO.C,S3*%
X94920000Y-62000000D03*
D19*
X100000000Y-62000000D03*
D18*
X105080000Y-62000000D03*
D20*
X92915000Y-59460000D03*
X105842000Y-56920000D03*
%TD*%
D10*
%TO.C,REF\u002A\u002A*%
X211214000Y-150368000D03*
X211916944Y-148670944D03*
X211916944Y-152065056D03*
X213614000Y-147968000D03*
D11*
X213614000Y-150368000D03*
D10*
X213614000Y-152768000D03*
X215311056Y-148670944D03*
X215311056Y-152065056D03*
X216014000Y-150368000D03*
%TD*%
D24*
%TO.C,D11*%
X155354140Y-73339659D03*
X158656212Y-73339659D03*
%TD*%
D25*
%TO.C,J1*%
X225552000Y-79502000D03*
D26*
X225552000Y-76962000D03*
X225552000Y-74422000D03*
X225552000Y-71882000D03*
X225552000Y-69342000D03*
%TD*%
D10*
%TO.C,REF\u002A\u002A*%
X159600000Y-100500000D03*
X160302944Y-98802944D03*
X160302944Y-102197056D03*
X162000000Y-98100000D03*
D11*
X162000000Y-100500000D03*
D10*
X162000000Y-102900000D03*
X163697056Y-98802944D03*
X163697056Y-102197056D03*
X164400000Y-100500000D03*
%TD*%
D24*
%TO.C,D2*%
X98354140Y-86006326D03*
X101656212Y-86006326D03*
%TD*%
%TO.C,D12*%
X155354140Y-54339659D03*
X158656212Y-54339659D03*
%TD*%
%TO.C,D14*%
X174354140Y-79672993D03*
X177656212Y-79672993D03*
%TD*%
D27*
%TO.C,D23*%
X220636814Y-143097998D03*
X223496494Y-144749034D03*
%TD*%
D10*
%TO.C,REF\u002A\u002A*%
X220600000Y-122500000D03*
X221302944Y-120802944D03*
X221302944Y-124197056D03*
X223000000Y-120100000D03*
D11*
X223000000Y-122500000D03*
D10*
X223000000Y-124900000D03*
X224697056Y-120802944D03*
X224697056Y-124197056D03*
X225400000Y-122500000D03*
%TD*%
D24*
%TO.C,D10*%
X155354140Y-92339659D03*
X158656212Y-92339659D03*
%TD*%
D28*
%TO.C,D21*%
X197967828Y-143313508D03*
X201070760Y-144442883D03*
%TD*%
D24*
%TO.C,D15*%
X174354140Y-60672993D03*
X177656212Y-60672993D03*
%TD*%
D10*
%TO.C,REF\u002A\u002A*%
X141100000Y-42500000D03*
X141802944Y-40802944D03*
X141802944Y-44197056D03*
X143500000Y-40100000D03*
D11*
X143500000Y-42500000D03*
D10*
X143500000Y-44900000D03*
X145197056Y-40802944D03*
X145197056Y-44197056D03*
X145900000Y-42500000D03*
%TD*%
D29*
%TO.C,D19*%
X178509805Y-140111136D03*
X181761710Y-140684534D03*
%TD*%
%TO.C,D20*%
X181809121Y-121399788D03*
X185061026Y-121973186D03*
%TD*%
D28*
%TO.C,D22*%
X204466211Y-125459349D03*
X207569143Y-126588724D03*
%TD*%
D24*
%TO.C,D5*%
X117354140Y-86006326D03*
X120656212Y-86006326D03*
%TD*%
D10*
%TO.C,REF\u002A\u002A*%
X131600000Y-107000000D03*
X132302944Y-105302944D03*
X132302944Y-108697056D03*
X134000000Y-104600000D03*
D11*
X134000000Y-107000000D03*
D10*
X134000000Y-109400000D03*
X135697056Y-105302944D03*
X135697056Y-108697056D03*
X136400000Y-107000000D03*
%TD*%
D24*
%TO.C,D16*%
X193354140Y-98672993D03*
X196656212Y-98672993D03*
%TD*%
D10*
%TO.C,REF\u002A\u002A*%
X222100000Y-86500000D03*
X222802944Y-84802944D03*
X222802944Y-88197056D03*
X224500000Y-84100000D03*
D11*
X224500000Y-86500000D03*
D10*
X224500000Y-88900000D03*
X226197056Y-84802944D03*
X226197056Y-88197056D03*
X226900000Y-86500000D03*
%TD*%
D24*
%TO.C,D8*%
X136354140Y-79672993D03*
X139656212Y-79672993D03*
%TD*%
%TO.C,D4*%
X117354140Y-105006326D03*
X120656212Y-105006326D03*
%TD*%
%TO.C,D3*%
X98354140Y-67006326D03*
X101656212Y-67006326D03*
%TD*%
%TO.C,D6*%
X117354140Y-67006326D03*
X120656212Y-67006326D03*
%TD*%
%TO.C,D7*%
X136354140Y-98672993D03*
X139656212Y-98672993D03*
%TD*%
%TO.C,D13*%
X174354140Y-98672993D03*
X177656212Y-98672993D03*
%TD*%
D30*
%TO.C,BTN1*%
X163602452Y-112749104D03*
X171709592Y-108246918D03*
X163590000Y-108240000D03*
X171690000Y-112740000D03*
%TD*%
D10*
%TO.C,REF\u002A\u002A*%
X168100000Y-42500000D03*
X168802944Y-40802944D03*
X168802944Y-44197056D03*
X170500000Y-40100000D03*
D11*
X170500000Y-42500000D03*
D10*
X170500000Y-44900000D03*
X172197056Y-40802944D03*
X172197056Y-44197056D03*
X172900000Y-42500000D03*
%TD*%
D24*
%TO.C,D17*%
X193354140Y-79672993D03*
X196656212Y-79672993D03*
%TD*%
%TO.C,D9*%
X136354140Y-60672993D03*
X139656212Y-60672993D03*
%TD*%
%TO.C,D18*%
X193354140Y-60672993D03*
X196656212Y-60672993D03*
%TD*%
%TO.C,D1*%
X98354140Y-105006326D03*
X101656212Y-105006326D03*
%TD*%
D31*
%TO.C,JST1*%
X210566000Y-71882000D03*
X208566000Y-71882000D03*
D32*
X210566000Y-69066000D03*
X208566000Y-69066000D03*
D33*
X210566000Y-70866000D03*
X208566000Y-70866000D03*
%TD*%
M02*
