%TF.GenerationSoftware,KiCad,Pcbnew,9.0.7*%
%TF.CreationDate,2026-01-25T13:16:18+01:00*%
%TF.ProjectId,legendary-guacamole-PCB,6c656765-6e64-4617-9279-2d6775616361,v1.0.0*%
%TF.SameCoordinates,Original*%
%TF.FileFunction,Paste,Bot*%
%TF.FilePolarity,Positive*%
%FSLAX46Y46*%
G04 Gerber Fmt 4.6, Leading zero omitted, Abs format (unit mm)*
G04 Created by KiCad (PCBNEW 9.0.7) date 2026-01-25 13:16:18*
%MOMM*%
%LPD*%
G01*
G04 APERTURE LIST*
G04 Aperture macros list*
%AMRoundRect*
0 Rectangle with rounded corners*
0 $1 Rounding radius*
0 $2 $3 $4 $5 $6 $7 $8 $9 X,Y pos of 4 corners*
0 Add a 4 corners polygon primitive as box body*
4,1,4,$2,$3,$4,$5,$6,$7,$8,$9,$2,$3,0*
0 Add four circle primitives for the rounded corners*
1,1,$1+$1,$2,$3*
1,1,$1+$1,$4,$5*
1,1,$1+$1,$6,$7*
1,1,$1+$1,$8,$9*
0 Add four rect primitives between the rounded corners*
20,1,$1+$1,$2,$3,$4,$5,0*
20,1,$1+$1,$4,$5,$6,$7,0*
20,1,$1+$1,$6,$7,$8,$9,0*
20,1,$1+$1,$8,$9,$2,$3,0*%
%AMRotRect*
0 Rectangle, with rotation*
0 The origin of the aperture is its center*
0 $1 length*
0 $2 width*
0 $3 Rotation angle, in degrees counterclockwise*
0 Add horizontal line*
21,1,$1,$2,0,0,$3*%
%AMFreePoly0*
4,1,6,0.600000,-0.250000,-0.600000,-0.250000,-0.600000,1.000000,0.000000,0.400000,0.600000,1.000000,0.600000,-0.250000,0.600000,-0.250000,$1*%
%AMFreePoly1*
4,1,6,0.600000,0.200000,0.000000,-0.400000,-0.600000,0.200000,-0.600000,0.400000,0.600000,0.400000,0.600000,0.200000,0.600000,0.200000,$1*%
%AMFreePoly2*
4,1,15,-0.616000,0.142500,-0.283500,0.475000,0.521000,0.475000,0.557355,0.467769,0.588175,0.447175,0.608769,0.416355,0.616000,0.380000,0.616000,-0.380000,0.608769,-0.416355,0.588175,-0.447175,0.557355,-0.467769,0.521000,-0.475000,-0.283500,-0.475000,-0.616000,-0.142500,-0.616000,0.142500,-0.616000,0.142500,$1*%
G04 Aperture macros list end*
%ADD10FreePoly0,0.000000*%
%ADD11FreePoly1,0.000000*%
%ADD12R,2.550000X2.500000*%
%ADD13RotRect,2.550000X2.500000X340.000000*%
%ADD14RotRect,2.550000X2.500000X330.000000*%
%ADD15RotRect,2.550000X2.500000X350.000000*%
%ADD16R,1.600000X1.400000*%
%ADD17FreePoly2,0.000000*%
%ADD18RoundRect,0.095000X0.921000X0.380000X-0.921000X0.380000X-0.921000X-0.380000X0.921000X-0.380000X0*%
%ADD19RoundRect,0.095000X-0.921000X-0.380000X0.921000X-0.380000X0.921000X0.380000X-0.921000X0.380000X0*%
%ADD20FreePoly2,180.000000*%
%ADD21O,3.000000X2.000000*%
%ADD22RoundRect,0.225000X-0.525000X1.525000X-0.525000X-1.525000X0.525000X-1.525000X0.525000X1.525000X0*%
G04 APERTURE END LIST*
D10*
%TO.C,JST1*%
X210566000Y-71882000D03*
X208566000Y-71882000D03*
D11*
X210566000Y-70866000D03*
X208566000Y-70866000D03*
%TD*%
D12*
%TO.C,S16*%
X187915000Y-91126667D03*
X200842000Y-88586667D03*
%TD*%
D13*
%TO.C,S21*%
X195437704Y-134361986D03*
X208453842Y-136396461D03*
%TD*%
%TO.C,S22*%
X201936087Y-116507827D03*
X214952225Y-118542302D03*
%TD*%
D12*
%TO.C,S10*%
X149915000Y-84793333D03*
X162842000Y-82253333D03*
%TD*%
%TO.C,S11*%
X149915000Y-65793333D03*
X162842000Y-63253333D03*
%TD*%
%TO.C,S2*%
X92915000Y-78460000D03*
X105842000Y-75920000D03*
%TD*%
%TO.C,S1*%
X92915000Y-97460000D03*
X105842000Y-94920000D03*
%TD*%
D14*
%TO.C,S23*%
X219699545Y-133843118D03*
X232164655Y-138106914D03*
%TD*%
D12*
%TO.C,S12*%
X149915000Y-46793333D03*
X162842000Y-44253333D03*
%TD*%
D15*
%TO.C,S19*%
X174463703Y-131734958D03*
X187635380Y-131478296D03*
%TD*%
D12*
%TO.C,S7*%
X130915000Y-91126667D03*
X143842000Y-88586667D03*
%TD*%
%TO.C,S6*%
X111915000Y-59460000D03*
X124842000Y-56920000D03*
%TD*%
%TO.C,S8*%
X130915000Y-72126667D03*
X143842000Y-69586667D03*
%TD*%
%TO.C,S5*%
X111915000Y-78460000D03*
X124842000Y-75920000D03*
%TD*%
%TO.C,S13*%
X168915000Y-91126667D03*
X181842000Y-88586667D03*
%TD*%
D15*
%TO.C,S20*%
X177763018Y-113023610D03*
X190934695Y-112766948D03*
%TD*%
D12*
%TO.C,S14*%
X168915000Y-72126667D03*
X181842000Y-69586667D03*
%TD*%
%TO.C,S4*%
X111915000Y-97460000D03*
X124842000Y-94920000D03*
%TD*%
%TO.C,S18*%
X187915000Y-53126667D03*
X200842000Y-50586667D03*
%TD*%
%TO.C,S9*%
X130915000Y-53126667D03*
X143842000Y-50586667D03*
%TD*%
%TO.C,S15*%
X168915000Y-53126667D03*
X181842000Y-50586667D03*
%TD*%
%TO.C,S17*%
X187915000Y-72126667D03*
X200842000Y-69586667D03*
%TD*%
%TO.C,S3*%
X92915000Y-59460000D03*
X105842000Y-56920000D03*
%TD*%
D16*
%TO.C,BTN1*%
X163602452Y-112749104D03*
X171709592Y-108246918D03*
%TD*%
D17*
%TO.C,U1*%
X225155000Y-54055250D03*
X225155000Y-51515250D03*
X225155000Y-48975250D03*
D18*
X208245000Y-47705250D03*
D19*
X224755000Y-47705250D03*
X224755000Y-50245250D03*
X224755000Y-52785250D03*
X224755000Y-55325250D03*
X224755000Y-57865250D03*
X224755000Y-60405250D03*
X224755000Y-62945250D03*
D18*
X208245000Y-62945250D03*
X208245000Y-60405250D03*
X208245000Y-57865250D03*
X208245000Y-55325250D03*
X208245000Y-52785250D03*
X208245000Y-50245250D03*
D17*
X225155000Y-56595250D03*
X225155000Y-59135250D03*
X225155000Y-61675250D03*
D20*
X207845000Y-61675250D03*
X207845000Y-59135250D03*
X207845000Y-56595250D03*
D21*
X218300000Y-49325250D03*
X214800000Y-49325250D03*
D22*
X217500000Y-60825250D03*
X215500000Y-60825250D03*
%TD*%
M02*
