%TF.GenerationSoftware,KiCad,Pcbnew,9.0.7*%
%TF.CreationDate,2026-01-24T19:20:25+01:00*%
%TF.ProjectId,legendary-guacamole-PCB,6c656765-6e64-4617-9279-2d6775616361,v1.0.0*%
%TF.SameCoordinates,Original*%
%TF.FileFunction,Profile,NP*%
%FSLAX46Y46*%
G04 Gerber Fmt 4.6, Leading zero omitted, Abs format (unit mm)*
G04 Created by KiCad (PCBNEW 9.0.7) date 2026-01-24 19:20:25*
%MOMM*%
%LPD*%
G01*
G04 APERTURE LIST*
%TA.AperFunction,Profile*%
%ADD10C,0.150000*%
%TD*%
G04 APERTURE END LIST*
D10*
X223525000Y-44141667D02*
G75*
G02*
X228524933Y-49141667I0J-4999933D01*
G01*
X228525000Y-103704613D02*
G75*
G02*
X227712358Y-106437034I-5000100J13D01*
G01*
X230340908Y-152631736D02*
G75*
G02*
X225676484Y-155120556I-4330208J2500136D01*
G01*
X169294751Y-38064917D02*
X186755249Y-43885083D01*
X93475000Y-50475000D02*
X106663612Y-50475000D01*
X144705249Y-38064917D02*
G75*
G02*
X146286388Y-37808318I1581151J-4743183D01*
G01*
X228525000Y-49141667D02*
X228525000Y-103704613D01*
X169358568Y-145116760D02*
G75*
G02*
X166493805Y-143519053I868232J4923960D01*
G01*
X108244751Y-50218416D02*
G75*
G02*
X106663612Y-50475009I-1581151J4743316D01*
G01*
X146286388Y-37808333D02*
X167713612Y-37808333D01*
X93475000Y-111525000D02*
G75*
G02*
X88475000Y-106525000I0J5000000D01*
G01*
X190086514Y-148771656D02*
X169358568Y-145116760D01*
X135759948Y-111540444D02*
G75*
G02*
X139490266Y-113214072I-2748J-5000156D01*
G01*
X208650671Y-153979661D02*
G75*
G02*
X207598915Y-153794891I334429J4989461D01*
G01*
X227712350Y-106437029D02*
X224537766Y-111301988D01*
X207598913Y-153794895D02*
X190604327Y-148891649D01*
X88475000Y-55475000D02*
G75*
G02*
X93475000Y-50475000I5000000J0D01*
G01*
X135759948Y-111540444D02*
X107476282Y-111525001D01*
X107473552Y-111525000D02*
X93475000Y-111525000D01*
X166493790Y-143519066D02*
X139490237Y-113214098D01*
X224916797Y-117274266D02*
G75*
G02*
X224537761Y-111301985I3808303J3239866D01*
G01*
X188336388Y-44141667D02*
X223525000Y-44141667D01*
X190086514Y-148771656D02*
G75*
G02*
X190604328Y-148891645I-868414J-4924944D01*
G01*
X108244751Y-50218416D02*
X144705249Y-38064917D01*
X225676485Y-155120548D02*
X208650671Y-153979661D01*
X224916797Y-117274266D02*
X238023776Y-132680958D01*
X188336388Y-44141667D02*
G75*
G02*
X186755247Y-43885088I12J5000167D01*
G01*
X238545584Y-138420821D02*
X230340908Y-152631736D01*
X107473552Y-111525000D02*
X107476282Y-111525001D01*
X88475000Y-106525000D02*
X88475000Y-55475000D01*
X167713612Y-37808333D02*
G75*
G02*
X169294753Y-38064912I-12J-5000167D01*
G01*
X238023776Y-132680959D02*
G75*
G02*
X238545558Y-138420806I-3808376J-3239841D01*
G01*
M02*
