<svg width="153.853mm" height="127.45mm" viewBox="0 0 153.853 127.45" xmlns="http://www.w3.org/2000/svg"><g id="svgGroup" stroke-linecap="round" fill-rule="evenodd" font-size="9pt" stroke="#000" stroke-width="0.25mm" fill="none" style="stroke:#000;stroke-width:0.25mm;fill:none"><path d="M 0 68.717 L 0 33.738 A 5 5 0 0 1 1.464 30.202 L 18.165 13.501 A 5 5 0 0 1 20.12 12.293 L 56.23 0.257 A 5 5 0 0 1 57.811 0 L 79.239 0 A 5 5 0 0 1 80.82 0.257 L 98.28 6.077 A 5 5 0 0 0 99.861 6.333 L 113.05 6.333 A 5 5 0 0 1 118.05 11.333 L 118.05 65.052 A 5 5 0 0 0 119.836 68.882 L 140.383 86.125 A 5 5 0 0 1 141.481 87.425 L 153.166 107.35 A 5 5 0 0 1 152.683 113.094 L 142.136 125.664 A 5 5 0 0 1 137.11 127.305 L 120.541 123.225 A 5 5 0 0 1 119.537 122.86 L 103.652 115.08 A 5 5 0 0 0 103.163 114.872 L 82.859 107.482 A 5 5 0 0 1 80.943 106.227 L 51.042 74.743 A 5 5 0 0 0 47.323 73.187 L 19.047 73.716 A 5 5 0 0 1 18.953 73.717 L 5 73.717 A 5 5 0 0 1 0 68.717 Z" vector-effect="non-scaling-stroke"/></g></svg>