0
SECTION
2
HEADER
9
$INSUNITS
70
4
0
ENDSEC
0
SECTION
2
TABLES
0
TABLE
2
LTYPE
0
LTYPE
72
65
70
64
2
CONTINUOUS
3
______
73
0
40
0
0
ENDTAB
0
TABLE
2
LAYER
0
ENDTAB
0
ENDSEC
0
SECTION
2
ENTITIES
0
LINE
8
0
10
88.475
20
-106.525
11
88.475
21
-71.5460678
0
LINE
8
0
10
89.9394661
20
-68.0105339
11
106.6403736
21
-51.3096264
0
LINE
8
0
10
108.5947686
20
-50.1017438
11
144.7052493
21
-38.0649169
0
LINE
8
0
10
146.2863883
20
-37.8083333
11
167.7136117
21
-37.8083333
0
LINE
8
0
10
169.2947507
20
-38.0649169
11
186.7552493
21
-43.8850831
0
LINE
8
0
10
188.3363883
20
-44.1416667
11
201.525
21
-44.1416667
0
LINE
8
0
10
206.525
20
-49.1416667
11
206.525
21
-102.8602981
0
LINE
8
0
10
208.3108485
20
-106.6903412
11
228.8575859
21
-123.9330534
0
LINE
8
0
10
229.9564927
20
-125.233763
11
241.6411903
21
-145.158688
0
LINE
8
0
10
241.1583541
20
-150.9019596
11
230.6106261
21
-163.4722523
0
LINE
8
0
10
225.584888
20
-165.1132849
11
209.0158478
21
-161.0332295
0
LINE
8
0
10
208.0121532
20
-160.6686344
11
192.1271917
21
-152.8888005
0
LINE
8
0
10
191.6380817
20
-152.680713
11
171.3119918
21
-145.2826213
0
LINE
8
0
10
169.4267896
20
-144.0588953
11
139.4729952
21
-113.0657715
0
LINE
8
0
10
135.8804225
20
-111.5405094
11
107.476282
21
-111.5250007
0
LINE
8
0
10
107.473552
20
-111.525
11
93.475
21
-111.525
0
ARC
8
0
10
93.475
20
-71.5460678
40
5
50
135
51
180
0
ARC
8
0
10
110.1759075
20
-54.8451603
40
5
50
108.4349506
51
135
0
ARC
8
0
10
146.2863883
20
-42.8083333
40
5
50
90
51
108.4349506
0
ARC
8
0
10
167.7136117
20
-42.8083333
40
5
50
71.5650494
51
90
0
ARC
8
0
10
188.3363883
20
-39.1416667
40
5
50
251.5650494
51
270
0
ARC
8
0
10
201.525
20
-49.1416667
40
5
50
0
51
90
0
ARC
8
0
10
211.525
20
-102.8602981
40
5
50
180
51
229.9968062
0
ARC
8
0
10
225.6434343
20
-127.7630965
40
5
50
30.3889017
51
49.9968062
0
ARC
8
0
10
237.3281319
20
-147.6880215
40
5
50
319.9999988
51
30.3889017
0
ARC
8
0
10
226.7804039
20
-160.2583142
40
5
50
256.166384
51
319.9999988
0
ARC
8
0
10
210.2113637
20
-156.1782588
40
5
50
243.9061925
51
256.166384
0
ARC
8
0
10
189.9279812
20
-157.3791761
40
5
50
63.9061925
51
70.0000019
0
ARC
8
0
10
173.0220924
20
-140.5841581
40
5
50
224.0230288
51
250.0000019
0
ARC
8
0
10
135.8776925
20
-116.5405087
40
5
50
44.0230288
51
89.9687165
0
ARC
8
0
10
107.473552
20
-116.525
40
5
50
89.9687165
51
90
0
ARC
8
0
10
93.475
20
-106.525
40
5
50
180
51
270
0
ENDSEC
0
EOF