0
SECTION
2
HEADER
9
$INSUNITS
70
4
0
ENDSEC
0
SECTION
2
TABLES
0
TABLE
2
LTYPE
0
LTYPE
72
65
70
0
2
CONTINUOUS
3
______
73
0
40
0
0
LTYPE
72
65
70
0
2
DASHED
3
_ _ _ 
73
2
40
7.5
49
5
49
-2.5
0
LTYPE
72
65
70
0
2
DOTTED
3
. . . 
73
2
40
1.5
49
0.5
49
-1
0
ENDTAB
0
TABLE
2
LAYER
0
ENDTAB
0
ENDSEC
0
SECTION
2
ENTITIES
0
LINE
8
0
6
CONTINUOUS
10
88.475
20
-106.525
11
88.475
21
-55.475
0
LINE
8
0
6
CONTINUOUS
10
93.475
20
-50.475
11
106.6636117
21
-50.475
0
LINE
8
0
6
CONTINUOUS
10
108.2447507
20
-50.2184164
11
144.7052493
21
-38.0649169
0
LINE
8
0
6
CONTINUOUS
10
146.2863883
20
-37.8083333
11
167.7136117
21
-37.8083333
0
LINE
8
0
6
CONTINUOUS
10
169.2947507
20
-38.0649169
11
186.7552493
21
-43.8850831
0
LINE
8
0
6
CONTINUOUS
10
188.3363883
20
-44.1416667
11
201.525
21
-44.1416667
0
LINE
8
0
6
CONTINUOUS
10
206.525
20
-49.1416667
11
206.525
21
-102.307525
0
LINE
8
0
6
CONTINUOUS
10
209.02161
20
-106.635693
11
221.7505263
21
-113.9980323
0
LINE
8
0
6
CONTINUOUS
10
223.0554553
20
-115.0863383
11
238.0237763
21
-132.6809585
0
LINE
8
0
6
CONTINUOUS
10
238.5455842
20
-138.4208205
11
230.3409083
21
-152.631736
0
LINE
8
0
6
CONTINUOUS
10
225.6764848
20
-155.1205481
11
208.650671
21
-153.9796615
0
LINE
8
0
6
CONTINUOUS
10
207.5989135
20
-153.794895
11
190.6043273
21
-148.8916492
0
LINE
8
0
6
CONTINUOUS
10
190.0865143
20
-148.771656
11
169.3585676
21
-145.1167598
0
LINE
8
0
6
CONTINUOUS
10
166.4937898
20
-143.5190659
11
139.4902371
21
-113.2140981
0
LINE
8
0
6
CONTINUOUS
10
135.7599483
20
-111.5404436
11
107.476282
21
-111.5250007
0
LINE
8
0
6
CONTINUOUS
10
107.473552
20
-111.525
11
93.475
21
-111.525
0
ARC
8
0
6
CONTINUOUS
10
93.475
20
-55.475
40
5
50
90
51
180
0
ARC
8
0
6
CONTINUOUS
10
106.6636117
20
-45.475
40
5
50
270
51
288.4349506
0
ARC
8
0
6
CONTINUOUS
10
146.2863883
20
-42.8083333
40
5
50
90
51
108.4349506
0
ARC
8
0
6
CONTINUOUS
10
167.7136117
20
-42.8083333
40
5
50
71.5650494
51
90
0
ARC
8
0
6
CONTINUOUS
10
188.3363883
20
-39.1416667
40
5
50
251.5650494
51
270
0
ARC
8
0
6
CONTINUOUS
10
201.525
20
-49.1416667
40
5
50
0
51
90
0
ARC
8
0
6
CONTINUOUS
10
211.525
20
-102.307525
40
5
50
180
51
239.9551336
0
ARC
8
0
6
CONTINUOUS
10
219.2471363
20
-118.3262003
40
5
50
40.388904
51
59.9551336
0
ARC
8
0
6
CONTINUOUS
10
234.2154572
20
-135.9208205
40
5
50
329.9999999
51
40.388904
0
ARC
8
0
6
CONTINUOUS
10
226.0107813
20
-150.131736
40
5
50
266.1663845
51
329.9999999
0
ARC
8
0
6
CONTINUOUS
10
208.9849675
20
-148.9908494
40
5
50
253.9061928
51
266.1663845
0
ARC
8
0
6
CONTINUOUS
10
189.2182733
20
-153.6956948
40
5
50
73.9061928
51
79.9999992
0
ARC
8
0
6
CONTINUOUS
10
170.2268086
20
-140.192721
40
5
50
221.7029637
51
259.9999992
0
ARC
8
0
6
CONTINUOUS
10
135.7572183
20
-116.5404429
40
5
50
41.7029637
51
89.9687165
0
ARC
8
0
6
CONTINUOUS
10
107.473552
20
-116.525
40
5
50
89.9687165
51
90
0
ARC
8
0
6
CONTINUOUS
10
93.475
20
-106.525
40
5
50
180
51
270
0
ENDSEC
0
EOF