<svg width="153.853mm" height="127.45mm" viewBox="0 0 153.853 127.45" xmlns="http://www.w3.org/2000/svg"><g id="svgGroup" stroke-linecap="round" fill-rule="evenodd" font-size="9pt" stroke="#000" stroke-width="0.25mm" fill="none" style="stroke:#000;stroke-width:0.25mm;fill:none"><path d="M 0 68.717 L 0 33.738 A 5 5 0 0 1 1.464 30.202 L 18.165 13.501 A 5 5 0 0 1 20.12 12.293 L 56.23 0.257 A 5 5 0 0 1 57.811 0 L 79.239 0 A 5 5 0 0 1 80.82 0.257 L 98.28 6.077 A 5 5 0 0 0 99.861 6.333 L 113.05 6.333 A 5 5 0 0 1 118.05 11.333 L 118.05 65.052 A 5 5 0 0 0 119.836 68.882 L 140.383 86.125 A 5 5 0 0 1 141.481 87.425 L 153.166 107.35 A 5 5 0 0 1 152.683 113.094 L 142.136 125.664 A 5 5 0 0 1 137.11 127.305 L 120.541 123.225 A 5 5 0 0 1 119.537 122.86 L 103.652 115.08 A 5 5 0 0 0 103.163 114.872 L 82.859 107.482 A 5 5 0 0 1 80.943 106.227 L 51.042 74.743 A 5 5 0 0 0 47.323 73.187 L 19.047 73.716 A 5 5 0 0 1 18.953 73.717 L 5 73.717 A 5 5 0 0 1 0 68.717 Z M 125.646 112.956 L 139.856 124.88 L 151.78 110.67 L 137.57 98.746 L 125.646 112.956 Z M 59.25 20.8 L 77.8 20.8 L 77.8 2.25 L 59.25 2.25 L 59.25 20.8 Z M 21.25 71.467 L 39.8 71.467 L 39.8 52.917 L 21.25 52.917 L 21.25 71.467 Z M 21.25 52.467 L 39.8 52.467 L 39.8 33.917 L 21.25 33.917 L 21.25 52.467 Z M 21.25 33.467 L 39.8 33.467 L 39.8 14.917 L 21.25 14.917 L 21.25 33.467 Z M 40.25 65.133 L 58.8 65.133 L 58.8 46.583 L 40.25 46.583 L 40.25 65.133 Z M 40.25 46.133 L 58.8 46.133 L 58.8 27.583 L 40.25 27.583 L 40.25 46.133 Z M 40.25 27.133 L 58.8 27.133 L 58.8 8.583 L 40.25 8.583 L 40.25 27.133 Z M 59.25 58.8 L 77.8 58.8 L 77.8 40.25 L 59.25 40.25 L 59.25 58.8 Z M 59.25 39.8 L 77.8 39.8 L 77.8 21.25 L 59.25 21.25 L 59.25 39.8 Z M 78.25 65.133 L 96.8 65.133 L 96.8 46.583 L 78.25 46.583 L 78.25 65.133 Z M 78.25 46.133 L 96.8 46.133 L 96.8 27.583 L 78.25 27.583 L 78.25 46.133 Z M 78.25 27.133 L 96.8 27.133 L 96.8 8.583 L 78.25 8.583 L 78.25 27.133 Z M 97.25 65.133 L 115.8 65.133 L 115.8 46.583 L 97.25 46.583 L 97.25 65.133 Z M 97.25 46.133 L 115.8 46.133 L 115.8 27.583 L 97.25 27.583 L 97.25 46.133 Z M 97.25 27.133 L 115.8 27.133 L 115.8 8.583 L 97.25 8.583 L 97.25 27.133 Z M 2.25 71.467 L 20.8 71.467 L 20.8 52.917 L 2.25 52.917 L 2.25 71.467 Z M 2.25 52.467 L 20.8 52.467 L 20.8 33.917 L 2.25 33.917 L 2.25 52.467 Z M 84.637 105.735 L 102.068 112.08 L 108.413 94.648 L 90.982 88.304 L 84.637 105.735 Z M 91.135 87.881 L 108.567 94.225 L 114.911 76.794 L 97.48 70.45 L 91.135 87.881 Z M 103.131 110.748 L 119.196 120.023 L 128.471 103.958 L 112.406 94.683 L 103.131 110.748 Z M 112.631 94.293 L 128.696 103.568 L 137.971 87.504 L 121.906 78.229 L 112.631 94.293 Z" vector-effect="non-scaling-stroke"/></g></svg>