0
SECTION
2
HEADER
9
$INSUNITS
70
4
0
ENDSEC
0
SECTION
2
TABLES
0
TABLE
2
LTYPE
0
LTYPE
72
65
70
64
2
CONTINUOUS
3
______
73
0
40
0
0
ENDTAB
0
TABLE
2
LAYER
0
ENDTAB
0
ENDSEC
0
SECTION
2
ENTITIES
0
LINE
8
0
10
88.475
20
-106.525
11
88.475
21
-71.5460678
0
LINE
8
0
10
89.9394661
20
-68.0105339
11
106.6403736
21
-51.3096264
0
LINE
8
0
10
108.5947686
20
-50.1017438
11
144.7052493
21
-38.0649169
0
LINE
8
0
10
146.2863883
20
-37.8083333
11
167.7136117
21
-37.8083333
0
LINE
8
0
10
169.2947507
20
-38.0649169
11
186.7552493
21
-43.8850831
0
LINE
8
0
10
188.3363883
20
-44.1416667
11
201.525
21
-44.1416667
0
LINE
8
0
10
206.525
20
-49.1416667
11
206.525
21
-102.8602981
0
LINE
8
0
10
208.3108485
20
-106.6903412
11
228.8575859
21
-123.9330534
0
LINE
8
0
10
229.9564927
20
-125.233763
11
241.6411903
21
-145.158688
0
LINE
8
0
10
241.1583541
20
-150.9019596
11
230.6106261
21
-163.4722523
0
LINE
8
0
10
225.584888
20
-165.1132849
11
209.0158478
21
-161.0332295
0
LINE
8
0
10
208.0121532
20
-160.6686344
11
192.1271917
21
-152.8888005
0
LINE
8
0
10
191.6380817
20
-152.680713
11
171.3119918
21
-145.2826213
0
LINE
8
0
10
169.4267896
20
-144.0588953
11
139.4729952
21
-113.0657715
0
LINE
8
0
10
135.8804225
20
-111.5405094
11
107.476282
21
-111.5250007
0
LINE
8
0
10
107.473552
20
-111.525
11
93.475
21
-111.525
0
ARC
8
0
10
93.475
20
-71.5460678
40
5
50
135
51
180
0
ARC
8
0
10
110.1759075
20
-54.8451603
40
5
50
108.4349506
51
135
0
ARC
8
0
10
146.2863883
20
-42.8083333
40
5
50
90
51
108.4349506
0
ARC
8
0
10
167.7136117
20
-42.8083333
40
5
50
71.5650494
51
90
0
ARC
8
0
10
188.3363883
20
-39.1416667
40
5
50
251.5650494
51
270
0
ARC
8
0
10
201.525
20
-49.1416667
40
5
50
0
51
90
0
ARC
8
0
10
211.525
20
-102.8602981
40
5
50
180
51
229.9968062
0
ARC
8
0
10
225.6434343
20
-127.7630965
40
5
50
30.3889017
51
49.9968062
0
ARC
8
0
10
237.3281319
20
-147.6880215
40
5
50
319.9999988
51
30.3889017
0
ARC
8
0
10
226.7804039
20
-160.2583142
40
5
50
256.166384
51
319.9999988
0
ARC
8
0
10
210.2113637
20
-156.1782588
40
5
50
243.9061925
51
256.166384
0
ARC
8
0
10
189.9279812
20
-157.3791761
40
5
50
63.9061925
51
70.0000019
0
ARC
8
0
10
173.0220924
20
-140.5841581
40
5
50
224.0230288
51
250.0000019
0
ARC
8
0
10
135.8776925
20
-116.5405087
40
5
50
44.0230288
51
89.9687165
0
ARC
8
0
10
107.473552
20
-116.525
40
5
50
89.9687165
51
90
0
ARC
8
0
10
93.475
20
-106.525
40
5
50
180
51
270
0
LINE
8
0
10
90.725
20
-109.275
11
109.275
21
-109.275
0
LINE
8
0
10
109.275
20
-109.275
11
109.275
21
-90.725
0
LINE
8
0
10
109.275
20
-90.725
11
90.725
21
-90.725
0
LINE
8
0
10
90.725
20
-90.725
11
90.725
21
-109.275
0
LINE
8
0
10
90.725
20
-90.275
11
109.275
21
-90.275
0
LINE
8
0
10
109.275
20
-90.275
11
109.275
21
-71.725
0
LINE
8
0
10
109.275
20
-71.725
11
90.725
21
-71.725
0
LINE
8
0
10
90.725
20
-71.725
11
90.725
21
-90.275
0
LINE
8
0
10
109.725
20
-109.275
11
128.275
21
-109.275
0
LINE
8
0
10
128.275
20
-109.275
11
128.275
21
-90.725
0
LINE
8
0
10
128.275
20
-90.725
11
109.725
21
-90.725
0
LINE
8
0
10
109.725
20
-90.725
11
109.725
21
-109.275
0
LINE
8
0
10
109.725
20
-90.275
11
128.275
21
-90.275
0
LINE
8
0
10
128.275
20
-90.275
11
128.275
21
-71.725
0
LINE
8
0
10
128.275
20
-71.725
11
109.725
21
-71.725
0
LINE
8
0
10
109.725
20
-71.725
11
109.725
21
-90.275
0
LINE
8
0
10
109.725
20
-71.275
11
128.275
21
-71.275
0
LINE
8
0
10
128.275
20
-71.275
11
128.275
21
-52.725
0
LINE
8
0
10
128.275
20
-52.725
11
109.725
21
-52.725
0
LINE
8
0
10
109.725
20
-52.725
11
109.725
21
-71.275
0
LINE
8
0
10
128.725
20
-102.9416667
11
147.275
21
-102.9416667
0
LINE
8
0
10
147.275
20
-102.9416667
11
147.275
21
-84.3916667
0
LINE
8
0
10
147.275
20
-84.3916667
11
128.725
21
-84.3916667
0
LINE
8
0
10
128.725
20
-84.3916667
11
128.725
21
-102.9416667
0
LINE
8
0
10
128.725
20
-83.9416667
11
147.275
21
-83.9416667
0
LINE
8
0
10
147.275
20
-83.9416667
11
147.275
21
-65.3916667
0
LINE
8
0
10
147.275
20
-65.3916667
11
128.725
21
-65.3916667
0
LINE
8
0
10
128.725
20
-65.3916667
11
128.725
21
-83.9416667
0
LINE
8
0
10
128.725
20
-64.9416667
11
147.275
21
-64.9416667
0
LINE
8
0
10
147.275
20
-64.9416667
11
147.275
21
-46.3916667
0
LINE
8
0
10
147.275
20
-46.3916667
11
128.725
21
-46.3916667
0
LINE
8
0
10
128.725
20
-46.3916667
11
128.725
21
-64.9416667
0
LINE
8
0
10
147.725
20
-96.6083333
11
166.275
21
-96.6083333
0
LINE
8
0
10
166.275
20
-96.6083333
11
166.275
21
-78.0583333
0
LINE
8
0
10
166.275
20
-78.0583333
11
147.725
21
-78.0583333
0
LINE
8
0
10
147.725
20
-78.0583333
11
147.725
21
-96.6083333
0
LINE
8
0
10
147.725
20
-77.6083333
11
166.275
21
-77.6083333
0
LINE
8
0
10
166.275
20
-77.6083333
11
166.275
21
-59.0583333
0
LINE
8
0
10
166.275
20
-59.0583333
11
147.725
21
-59.0583333
0
LINE
8
0
10
147.725
20
-59.0583333
11
147.725
21
-77.6083333
0
LINE
8
0
10
147.725
20
-58.6083333
11
166.275
21
-58.6083333
0
LINE
8
0
10
166.275
20
-58.6083333
11
166.275
21
-40.0583333
0
LINE
8
0
10
166.275
20
-40.0583333
11
147.725
21
-40.0583333
0
LINE
8
0
10
147.725
20
-40.0583333
11
147.725
21
-58.6083333
0
LINE
8
0
10
166.725
20
-102.9416667
11
185.275
21
-102.9416667
0
LINE
8
0
10
185.275
20
-102.9416667
11
185.275
21
-84.3916667
0
LINE
8
0
10
185.275
20
-84.3916667
11
166.725
21
-84.3916667
0
LINE
8
0
10
166.725
20
-84.3916667
11
166.725
21
-102.9416667
0
LINE
8
0
10
166.725
20
-83.9416667
11
185.275
21
-83.9416667
0
LINE
8
0
10
185.275
20
-83.9416667
11
185.275
21
-65.3916667
0
LINE
8
0
10
185.275
20
-65.3916667
11
166.725
21
-65.3916667
0
LINE
8
0
10
166.725
20
-65.3916667
11
166.725
21
-83.9416667
0
LINE
8
0
10
166.725
20
-64.9416667
11
185.275
21
-64.9416667
0
LINE
8
0
10
185.275
20
-64.9416667
11
185.275
21
-46.3916667
0
LINE
8
0
10
185.275
20
-46.3916667
11
166.725
21
-46.3916667
0
LINE
8
0
10
166.725
20
-46.3916667
11
166.725
21
-64.9416667
0
LINE
8
0
10
185.725
20
-102.9416667
11
204.275
21
-102.9416667
0
LINE
8
0
10
204.275
20
-102.9416667
11
204.275
21
-84.3916667
0
LINE
8
0
10
204.275
20
-84.3916667
11
185.725
21
-84.3916667
0
LINE
8
0
10
185.725
20
-84.3916667
11
185.725
21
-102.9416667
0
LINE
8
0
10
185.725
20
-83.9416667
11
204.275
21
-83.9416667
0
LINE
8
0
10
204.275
20
-83.9416667
11
204.275
21
-65.3916667
0
LINE
8
0
10
204.275
20
-65.3916667
11
185.725
21
-65.3916667
0
LINE
8
0
10
185.725
20
-65.3916667
11
185.725
21
-83.9416667
0
LINE
8
0
10
185.725
20
-64.9416667
11
204.275
21
-64.9416667
0
LINE
8
0
10
204.275
20
-64.9416667
11
204.275
21
-46.3916667
0
LINE
8
0
10
204.275
20
-46.3916667
11
185.725
21
-46.3916667
0
LINE
8
0
10
185.725
20
-46.3916667
11
185.725
21
-64.9416667
0
LINE
8
0
10
173.1121141
20
-143.5434122
11
190.5434122
21
-149.8878859
0
LINE
8
0
10
190.5434122
20
-149.8878859
11
196.8878859
21
-132.4565878
0
LINE
8
0
10
196.8878859
20
-132.4565878
11
179.4565878
21
-126.1121141
0
LINE
8
0
10
179.4565878
20
-126.1121141
11
173.1121141
21
-143.5434122
0
LINE
8
0
10
179.6104968
20
-125.6892524
11
197.0417949
21
-132.0337261
0
LINE
8
0
10
197.0417949
20
-132.0337261
11
203.3862686
21
-114.602428
0
LINE
8
0
10
203.3862686
20
-114.602428
11
185.9549705
21
-108.2579543
0
LINE
8
0
10
185.9549705
20
-108.2579543
11
179.6104968
21
-125.6892524
0
LINE
8
0
10
191.6060929
20
-148.5562733
11
207.6708641
21
-157.8312733
0
LINE
8
0
10
207.6708641
20
-157.8312733
11
216.9458641
21
-141.7665021
0
LINE
8
0
10
216.9458641
20
-141.7665021
11
200.8810929
21
-132.4915021
0
LINE
8
0
10
200.8810929
20
-132.4915021
11
191.6060929
21
-148.5562733
0
LINE
8
0
10
201.1060929
20
-132.1017906
11
217.1708641
21
-141.3767906
0
LINE
8
0
10
217.1708641
20
-141.3767906
11
226.4458641
21
-125.3120194
0
LINE
8
0
10
226.4458641
20
-125.3120194
11
210.3810929
21
-116.0370194
0
LINE
8
0
10
210.3810929
20
-116.0370194
11
201.1060929
21
-132.1017906
0
LINE
8
0
10
214.1213653
20
-150.7643324
11
228.3314897
21
-162.6880426
0
LINE
8
0
10
228.3314897
20
-162.6880426
11
240.2551999
21
-148.4779182
0
LINE
8
0
10
240.2551999
20
-148.4779182
11
226.0450755
21
-136.554208
0
LINE
8
0
10
226.0450755
20
-136.554208
11
214.1213653
21
-150.7643324
0
ENDSEC
0
EOF