0
SECTION
2
HEADER
9
$INSUNITS
70
4
0
ENDSEC
0
SECTION
2
TABLES
0
TABLE
2
LTYPE
0
LTYPE
72
65
70
64
2
CONTINUOUS
3
______
73
0
40
0
0
ENDTAB
0
TABLE
2
LAYER
0
ENDTAB
0
ENDSEC
0
SECTION
2
ENTITIES
0
LINE
8
0
10
88.475
20
-106.525
11
88.475
21
-71.5460678
0
LINE
8
0
10
89.9394661
20
-68.0105339
11
106.6403736
21
-51.3096264
0
LINE
8
0
10
108.5947686
20
-50.1017438
11
144.7052493
21
-38.0649169
0
LINE
8
0
10
146.2863883
20
-37.8083333
11
167.7136117
21
-37.8083333
0
LINE
8
0
10
169.2947507
20
-38.0649169
11
186.7552493
21
-43.8850831
0
LINE
8
0
10
188.3363883
20
-44.1416667
11
201.525
21
-44.1416667
0
LINE
8
0
10
206.525
20
-49.1416667
11
206.525
21
-102.8602981
0
LINE
8
0
10
208.3108485
20
-106.6903412
11
228.8575859
21
-123.9330534
0
LINE
8
0
10
229.9564927
20
-125.233763
11
241.6411903
21
-145.158688
0
LINE
8
0
10
241.1583541
20
-150.9019596
11
230.6106261
21
-163.4722523
0
LINE
8
0
10
225.584888
20
-165.1132849
11
209.0158478
21
-161.0332295
0
LINE
8
0
10
208.0121532
20
-160.6686344
11
192.1271917
21
-152.8888005
0
LINE
8
0
10
191.6380817
20
-152.680713
11
171.3119918
21
-145.2826213
0
LINE
8
0
10
169.4267896
20
-144.0588953
11
139.4729952
21
-113.0657715
0
LINE
8
0
10
135.8804225
20
-111.5405094
11
107.476282
21
-111.5250007
0
LINE
8
0
10
107.473552
20
-111.525
11
93.475
21
-111.525
0
ARC
8
0
10
93.475
20
-71.5460678
40
5
50
135
51
180
0
ARC
8
0
10
110.1759075
20
-54.8451603
40
5
50
108.4349506
51
135
0
ARC
8
0
10
146.2863883
20
-42.8083333
40
5
50
90
51
108.4349506
0
ARC
8
0
10
167.7136117
20
-42.8083333
40
5
50
71.5650494
51
90
0
ARC
8
0
10
188.3363883
20
-39.1416667
40
5
50
251.5650494
51
270
0
ARC
8
0
10
201.525
20
-49.1416667
40
5
50
0
51
90
0
ARC
8
0
10
211.525
20
-102.8602981
40
5
50
180
51
229.9968062
0
ARC
8
0
10
225.6434343
20
-127.7630965
40
5
50
30.3889017
51
49.9968062
0
ARC
8
0
10
237.3281319
20
-147.6880215
40
5
50
319.9999988
51
30.3889017
0
ARC
8
0
10
226.7804039
20
-160.2583142
40
5
50
256.166384
51
319.9999988
0
ARC
8
0
10
210.2113637
20
-156.1782588
40
5
50
243.9061925
51
256.166384
0
ARC
8
0
10
189.9279812
20
-157.3791761
40
5
50
63.9061925
51
70.0000019
0
ARC
8
0
10
173.0220924
20
-140.5841581
40
5
50
224.0230288
51
250.0000019
0
ARC
8
0
10
135.8776925
20
-116.5405087
40
5
50
44.0230288
51
89.9687165
0
ARC
8
0
10
107.473552
20
-116.525
40
5
50
89.9687165
51
90
0
ARC
8
0
10
93.475
20
-106.525
40
5
50
180
51
270
0
LINE
8
0
10
93
20
-107
11
107
21
-107
0
LINE
8
0
10
107
20
-107
11
107
21
-93
0
LINE
8
0
10
107
20
-93
11
93
21
-93
0
LINE
8
0
10
93
20
-93
11
93
21
-107
0
LINE
8
0
10
93
20
-88
11
107
21
-88
0
LINE
8
0
10
107
20
-88
11
107
21
-74
0
LINE
8
0
10
107
20
-74
11
93
21
-74
0
LINE
8
0
10
93
20
-74
11
93
21
-88
0
LINE
8
0
10
112
20
-107
11
126
21
-107
0
LINE
8
0
10
126
20
-107
11
126
21
-93
0
LINE
8
0
10
126
20
-93
11
112
21
-93
0
LINE
8
0
10
112
20
-93
11
112
21
-107
0
LINE
8
0
10
112
20
-88
11
126
21
-88
0
LINE
8
0
10
126
20
-88
11
126
21
-74
0
LINE
8
0
10
126
20
-74
11
112
21
-74
0
LINE
8
0
10
112
20
-74
11
112
21
-88
0
LINE
8
0
10
112
20
-69
11
126
21
-69
0
LINE
8
0
10
126
20
-69
11
126
21
-55
0
LINE
8
0
10
126
20
-55
11
112
21
-55
0
LINE
8
0
10
112
20
-55
11
112
21
-69
0
LINE
8
0
10
131
20
-100.6666667
11
145
21
-100.6666667
0
LINE
8
0
10
145
20
-100.6666667
11
145
21
-86.6666667
0
LINE
8
0
10
145
20
-86.6666667
11
131
21
-86.6666667
0
LINE
8
0
10
131
20
-86.6666667
11
131
21
-100.6666667
0
LINE
8
0
10
131
20
-81.6666667
11
145
21
-81.6666667
0
LINE
8
0
10
145
20
-81.6666667
11
145
21
-67.6666667
0
LINE
8
0
10
145
20
-67.6666667
11
131
21
-67.6666667
0
LINE
8
0
10
131
20
-67.6666667
11
131
21
-81.6666667
0
LINE
8
0
10
131
20
-62.6666667
11
145
21
-62.6666667
0
LINE
8
0
10
145
20
-62.6666667
11
145
21
-48.6666667
0
LINE
8
0
10
145
20
-48.6666667
11
131
21
-48.6666667
0
LINE
8
0
10
131
20
-48.6666667
11
131
21
-62.6666667
0
LINE
8
0
10
150
20
-94.3333333
11
164
21
-94.3333333
0
LINE
8
0
10
164
20
-94.3333333
11
164
21
-80.3333333
0
LINE
8
0
10
164
20
-80.3333333
11
150
21
-80.3333333
0
LINE
8
0
10
150
20
-80.3333333
11
150
21
-94.3333333
0
LINE
8
0
10
150
20
-75.3333333
11
164
21
-75.3333333
0
LINE
8
0
10
164
20
-75.3333333
11
164
21
-61.3333333
0
LINE
8
0
10
164
20
-61.3333333
11
150
21
-61.3333333
0
LINE
8
0
10
150
20
-61.3333333
11
150
21
-75.3333333
0
LINE
8
0
10
150
20
-56.3333333
11
164
21
-56.3333333
0
LINE
8
0
10
164
20
-56.3333333
11
164
21
-42.3333333
0
LINE
8
0
10
164
20
-42.3333333
11
150
21
-42.3333333
0
LINE
8
0
10
150
20
-42.3333333
11
150
21
-56.3333333
0
LINE
8
0
10
169
20
-100.6666667
11
183
21
-100.6666667
0
LINE
8
0
10
183
20
-100.6666667
11
183
21
-86.6666667
0
LINE
8
0
10
183
20
-86.6666667
11
169
21
-86.6666667
0
LINE
8
0
10
169
20
-86.6666667
11
169
21
-100.6666667
0
LINE
8
0
10
169
20
-81.6666667
11
183
21
-81.6666667
0
LINE
8
0
10
183
20
-81.6666667
11
183
21
-67.6666667
0
LINE
8
0
10
183
20
-67.6666667
11
169
21
-67.6666667
0
LINE
8
0
10
169
20
-67.6666667
11
169
21
-81.6666667
0
LINE
8
0
10
169
20
-62.6666667
11
183
21
-62.6666667
0
LINE
8
0
10
183
20
-62.6666667
11
183
21
-48.6666667
0
LINE
8
0
10
183
20
-48.6666667
11
169
21
-48.6666667
0
LINE
8
0
10
169
20
-48.6666667
11
169
21
-62.6666667
0
LINE
8
0
10
188
20
-100.6666667
11
202
21
-100.6666667
0
LINE
8
0
10
202
20
-100.6666667
11
202
21
-86.6666667
0
LINE
8
0
10
202
20
-86.6666667
11
188
21
-86.6666667
0
LINE
8
0
10
188
20
-86.6666667
11
188
21
-100.6666667
0
LINE
8
0
10
188
20
-81.6666667
11
202
21
-81.6666667
0
LINE
8
0
10
202
20
-81.6666667
11
202
21
-67.6666667
0
LINE
8
0
10
202
20
-67.6666667
11
188
21
-67.6666667
0
LINE
8
0
10
188
20
-67.6666667
11
188
21
-81.6666667
0
LINE
8
0
10
188
20
-62.6666667
11
202
21
-62.6666667
0
LINE
8
0
10
202
20
-62.6666667
11
202
21
-48.6666667
0
LINE
8
0
10
202
20
-48.6666667
11
188
21
-48.6666667
0
LINE
8
0
10
188
20
-48.6666667
11
188
21
-62.6666667
0
LINE
8
0
10
176.0280107
20
-142.1837073
11
189.1837073
21
-146.9719893
0
LINE
8
0
10
189.1837073
20
-146.9719893
11
193.9719893
21
-133.8162927
0
LINE
8
0
10
193.9719893
20
-133.8162927
11
180.8162927
21
-129.0280107
0
LINE
8
0
10
180.8162927
20
-129.0280107
11
176.0280107
21
-142.1837073
0
LINE
8
0
10
182.5263934
20
-124.3295475
11
195.68209
21
-129.1178295
0
LINE
8
0
10
195.68209
20
-129.1178295
11
200.470372
21
-115.9621329
0
LINE
8
0
10
200.470372
20
-115.9621329
11
187.3146754
21
-111.1738509
0
LINE
8
0
10
187.3146754
20
-111.1738509
11
182.5263934
21
-124.3295475
0
LINE
8
0
10
194.7138007
20
-147.7235655
11
206.8381563
21
-154.7235655
0
LINE
8
0
10
206.8381563
20
-154.7235655
11
213.8381563
21
-142.5992099
0
LINE
8
0
10
213.8381563
20
-142.5992099
11
201.7138007
21
-135.5992099
0
LINE
8
0
10
201.7138007
20
-135.5992099
11
194.7138007
21
-147.7235655
0
LINE
8
0
10
204.2138007
20
-131.2690828
11
216.3381563
21
-138.2690828
0
LINE
8
0
10
216.3381563
20
-138.2690828
11
223.3381563
21
-126.1447272
0
LINE
8
0
10
223.3381563
20
-126.1447272
11
211.2138007
21
-119.1447272
0
LINE
8
0
10
211.2138007
20
-119.1447272
11
204.2138007
21
-131.2690828
0
LINE
8
0
10
217.3264582
20
-150.4839231
11
228.0510804
21
-159.4829497
0
LINE
8
0
10
228.0510804
20
-159.4829497
11
237.050107
21
-148.7583275
0
LINE
8
0
10
237.050107
20
-148.7583275
11
226.3254848
21
-139.7593009
0
LINE
8
0
10
226.3254848
20
-139.7593009
11
217.3264582
21
-150.4839231
0
ENDSEC
0
EOF