<svg width="153.853mm" height="127.45mm" viewBox="0 0 153.853 127.45" xmlns="http://www.w3.org/2000/svg"><g id="svgGroup" stroke-linecap="round" fill-rule="evenodd" font-size="9pt" stroke="#000" stroke-width="0.25mm" fill="none" style="stroke:#000;stroke-width:0.25mm;fill:none"><path d="M 0 68.717 L 0 33.738 A 5 5 0 0 1 1.464 30.202 L 18.165 13.501 A 5 5 0 0 1 20.12 12.293 L 56.23 0.257 A 5 5 0 0 1 57.811 0 L 79.239 0 A 5 5 0 0 1 80.82 0.257 L 98.28 6.077 A 5 5 0 0 0 99.861 6.333 L 113.05 6.333 A 5 5 0 0 1 118.05 11.333 L 118.05 65.052 A 5 5 0 0 0 119.836 68.882 L 140.383 86.125 A 5 5 0 0 1 141.481 87.425 L 153.166 107.35 A 5 5 0 0 1 152.683 113.094 L 142.136 125.664 A 5 5 0 0 1 137.11 127.305 L 120.541 123.225 A 5 5 0 0 1 119.537 122.86 L 103.652 115.08 A 5 5 0 0 0 103.163 114.872 L 82.859 107.482 A 5 5 0 0 1 80.943 106.227 L 51.042 74.743 A 5 5 0 0 0 47.323 73.187 L 19.047 73.716 A 5 5 0 0 1 18.953 73.717 L 5 73.717 A 5 5 0 0 1 0 68.717 Z M 128.851 112.676 L 139.576 121.675 L 148.575 110.95 L 137.85 101.951 L 128.851 112.676 Z M 4.525 69.192 L 18.525 69.192 L 18.525 55.192 L 4.525 55.192 L 4.525 69.192 Z M 4.525 50.192 L 18.525 50.192 L 18.525 36.192 L 4.525 36.192 L 4.525 50.192 Z M 23.525 69.192 L 37.525 69.192 L 37.525 55.192 L 23.525 55.192 L 23.525 69.192 Z M 23.525 50.192 L 37.525 50.192 L 37.525 36.192 L 23.525 36.192 L 23.525 50.192 Z M 23.525 31.192 L 37.525 31.192 L 37.525 17.192 L 23.525 17.192 L 23.525 31.192 Z M 42.525 62.858 L 56.525 62.858 L 56.525 48.858 L 42.525 48.858 L 42.525 62.858 Z M 42.525 43.858 L 56.525 43.858 L 56.525 29.858 L 42.525 29.858 L 42.525 43.858 Z M 42.525 24.858 L 56.525 24.858 L 56.525 10.858 L 42.525 10.858 L 42.525 24.858 Z M 61.525 56.525 L 75.525 56.525 L 75.525 42.525 L 61.525 42.525 L 61.525 56.525 Z M 61.525 37.525 L 75.525 37.525 L 75.525 23.525 L 61.525 23.525 L 61.525 37.525 Z M 61.525 18.525 L 75.525 18.525 L 75.525 4.525 L 61.525 4.525 L 61.525 18.525 Z M 80.525 62.858 L 94.525 62.858 L 94.525 48.858 L 80.525 48.858 L 80.525 62.858 Z M 80.525 43.858 L 94.525 43.858 L 94.525 29.858 L 80.525 29.858 L 80.525 43.858 Z M 80.525 24.858 L 94.525 24.858 L 94.525 10.858 L 80.525 10.858 L 80.525 24.858 Z M 99.525 62.858 L 113.525 62.858 L 113.525 48.858 L 99.525 48.858 L 99.525 62.858 Z M 99.525 43.858 L 113.525 43.858 L 113.525 29.858 L 99.525 29.858 L 99.525 43.858 Z M 99.525 24.858 L 113.525 24.858 L 113.525 10.858 L 99.525 10.858 L 99.525 24.858 Z M 106.239 109.915 L 118.363 116.915 L 125.363 104.791 L 113.239 97.791 L 106.239 109.915 Z M 115.739 93.461 L 127.863 100.461 L 134.863 88.336 L 122.739 81.336 L 115.739 93.461 Z M 94.051 86.521 L 107.207 91.309 L 111.995 78.154 L 98.84 73.366 L 94.051 86.521 Z M 87.553 104.375 L 100.709 109.164 L 105.497 96.008 L 92.341 91.22 L 87.553 104.375 Z" vector-effect="non-scaling-stroke"/></g></svg>