0
SECTION
2
HEADER
9
$INSUNITS
70
4
0
ENDSEC
0
SECTION
2
TABLES
0
TABLE
2
LTYPE
0
LTYPE
72
65
70
0
2
CONTINUOUS
3
______
73
0
40
0
0
LTYPE
72
65
70
0
2
DASHED
3
_ _ _ 
73
2
40
7.5
49
5
49
-2.5
0
LTYPE
72
65
70
0
2
DOTTED
3
. . . 
73
2
40
1.5
49
0.5
49
-1
0
ENDTAB
0
TABLE
2
LAYER
0
ENDTAB
0
ENDSEC
0
SECTION
2
ENTITIES
0
LINE
8
0
6
CONTINUOUS
10
88.475
20
-106.525
11
88.475
21
-55.475
0
LINE
8
0
6
CONTINUOUS
10
93.475
20
-50.475
11
106.6636117
21
-50.475
0
LINE
8
0
6
CONTINUOUS
10
108.2447507
20
-50.2184164
11
144.7052493
21
-38.0649169
0
LINE
8
0
6
CONTINUOUS
10
146.2863883
20
-37.8083333
11
167.7136117
21
-37.8083333
0
LINE
8
0
6
CONTINUOUS
10
169.2947507
20
-38.0649169
11
186.7552493
21
-43.8850831
0
LINE
8
0
6
CONTINUOUS
10
188.3363883
20
-44.1416667
11
201.525
21
-44.1416667
0
LINE
8
0
6
CONTINUOUS
10
206.525
20
-49.1416667
11
206.525
21
-102.307525
0
LINE
8
0
6
CONTINUOUS
10
209.02161
20
-106.635693
11
221.7505263
21
-113.9980323
0
LINE
8
0
6
CONTINUOUS
10
223.0554553
20
-115.0863383
11
238.0237763
21
-132.6809585
0
LINE
8
0
6
CONTINUOUS
10
238.5455842
20
-138.4208205
11
230.3409083
21
-152.631736
0
LINE
8
0
6
CONTINUOUS
10
225.6764848
20
-155.1205481
11
208.650671
21
-153.9796615
0
LINE
8
0
6
CONTINUOUS
10
207.5989135
20
-153.794895
11
190.6043273
21
-148.8916492
0
LINE
8
0
6
CONTINUOUS
10
190.0865143
20
-148.771656
11
169.3585676
21
-145.1167598
0
LINE
8
0
6
CONTINUOUS
10
166.4937898
20
-143.5190659
11
139.4902371
21
-113.2140981
0
LINE
8
0
6
CONTINUOUS
10
135.7599483
20
-111.5404436
11
107.476282
21
-111.5250007
0
LINE
8
0
6
CONTINUOUS
10
107.473552
20
-111.525
11
93.475
21
-111.525
0
ARC
8
0
6
CONTINUOUS
10
93.475
20
-55.475
40
5
50
90
51
180
0
ARC
8
0
6
CONTINUOUS
10
106.6636117
20
-45.475
40
5
50
270
51
288.4349506
0
ARC
8
0
6
CONTINUOUS
10
146.2863883
20
-42.8083333
40
5
50
90
51
108.4349506
0
ARC
8
0
6
CONTINUOUS
10
167.7136117
20
-42.8083333
40
5
50
71.5650494
51
90
0
ARC
8
0
6
CONTINUOUS
10
188.3363883
20
-39.1416667
40
5
50
251.5650494
51
270
0
ARC
8
0
6
CONTINUOUS
10
201.525
20
-49.1416667
40
5
50
0
51
90
0
ARC
8
0
6
CONTINUOUS
10
211.525
20
-102.307525
40
5
50
180
51
239.9551336
0
ARC
8
0
6
CONTINUOUS
10
219.2471363
20
-118.3262003
40
5
50
40.388904
51
59.9551336
0
ARC
8
0
6
CONTINUOUS
10
234.2154572
20
-135.9208205
40
5
50
329.9999999
51
40.388904
0
ARC
8
0
6
CONTINUOUS
10
226.0107813
20
-150.131736
40
5
50
266.1663845
51
329.9999999
0
ARC
8
0
6
CONTINUOUS
10
208.9849675
20
-148.9908494
40
5
50
253.9061928
51
266.1663845
0
ARC
8
0
6
CONTINUOUS
10
189.2182733
20
-153.6956948
40
5
50
73.9061928
51
79.9999992
0
ARC
8
0
6
CONTINUOUS
10
170.2268086
20
-140.192721
40
5
50
221.7029637
51
259.9999992
0
ARC
8
0
6
CONTINUOUS
10
135.7572183
20
-116.5404429
40
5
50
41.7029637
51
89.9687165
0
ARC
8
0
6
CONTINUOUS
10
107.473552
20
-116.525
40
5
50
89.9687165
51
90
0
ARC
8
0
6
CONTINUOUS
10
93.475
20
-106.525
40
5
50
180
51
270
0
LINE
8
0
6
CONTINUOUS
10
90.725
20
-109.275
11
109.275
21
-109.275
0
LINE
8
0
6
CONTINUOUS
10
109.275
20
-109.275
11
109.275
21
-90.725
0
LINE
8
0
6
CONTINUOUS
10
109.275
20
-90.725
11
90.725
21
-90.725
0
LINE
8
0
6
CONTINUOUS
10
90.725
20
-90.725
11
90.725
21
-109.275
0
LINE
8
0
6
CONTINUOUS
10
90.725
20
-90.275
11
109.275
21
-90.275
0
LINE
8
0
6
CONTINUOUS
10
109.275
20
-90.275
11
109.275
21
-71.725
0
LINE
8
0
6
CONTINUOUS
10
109.275
20
-71.725
11
90.725
21
-71.725
0
LINE
8
0
6
CONTINUOUS
10
90.725
20
-71.725
11
90.725
21
-90.275
0
LINE
8
0
6
CONTINUOUS
10
90.725
20
-71.275
11
109.275
21
-71.275
0
LINE
8
0
6
CONTINUOUS
10
109.275
20
-71.275
11
109.275
21
-52.725
0
LINE
8
0
6
CONTINUOUS
10
109.275
20
-52.725
11
90.725
21
-52.725
0
LINE
8
0
6
CONTINUOUS
10
90.725
20
-52.725
11
90.725
21
-71.275
0
LINE
8
0
6
CONTINUOUS
10
109.725
20
-109.275
11
128.275
21
-109.275
0
LINE
8
0
6
CONTINUOUS
10
128.275
20
-109.275
11
128.275
21
-90.725
0
LINE
8
0
6
CONTINUOUS
10
128.275
20
-90.725
11
109.725
21
-90.725
0
LINE
8
0
6
CONTINUOUS
10
109.725
20
-90.725
11
109.725
21
-109.275
0
LINE
8
0
6
CONTINUOUS
10
109.725
20
-90.275
11
128.275
21
-90.275
0
LINE
8
0
6
CONTINUOUS
10
128.275
20
-90.275
11
128.275
21
-71.725
0
LINE
8
0
6
CONTINUOUS
10
128.275
20
-71.725
11
109.725
21
-71.725
0
LINE
8
0
6
CONTINUOUS
10
109.725
20
-71.725
11
109.725
21
-90.275
0
LINE
8
0
6
CONTINUOUS
10
109.725
20
-71.275
11
128.275
21
-71.275
0
LINE
8
0
6
CONTINUOUS
10
128.275
20
-71.275
11
128.275
21
-52.725
0
LINE
8
0
6
CONTINUOUS
10
128.275
20
-52.725
11
109.725
21
-52.725
0
LINE
8
0
6
CONTINUOUS
10
109.725
20
-52.725
11
109.725
21
-71.275
0
LINE
8
0
6
CONTINUOUS
10
128.725
20
-102.9416667
11
147.275
21
-102.9416667
0
LINE
8
0
6
CONTINUOUS
10
147.275
20
-102.9416667
11
147.275
21
-84.3916667
0
LINE
8
0
6
CONTINUOUS
10
147.275
20
-84.3916667
11
128.725
21
-84.3916667
0
LINE
8
0
6
CONTINUOUS
10
128.725
20
-84.3916667
11
128.725
21
-102.9416667
0
LINE
8
0
6
CONTINUOUS
10
128.725
20
-83.9416667
11
147.275
21
-83.9416667
0
LINE
8
0
6
CONTINUOUS
10
147.275
20
-83.9416667
11
147.275
21
-65.3916667
0
LINE
8
0
6
CONTINUOUS
10
147.275
20
-65.3916667
11
128.725
21
-65.3916667
0
LINE
8
0
6
CONTINUOUS
10
128.725
20
-65.3916667
11
128.725
21
-83.9416667
0
LINE
8
0
6
CONTINUOUS
10
128.725
20
-64.9416667
11
147.275
21
-64.9416667
0
LINE
8
0
6
CONTINUOUS
10
147.275
20
-64.9416667
11
147.275
21
-46.3916667
0
LINE
8
0
6
CONTINUOUS
10
147.275
20
-46.3916667
11
128.725
21
-46.3916667
0
LINE
8
0
6
CONTINUOUS
10
128.725
20
-46.3916667
11
128.725
21
-64.9416667
0
LINE
8
0
6
CONTINUOUS
10
147.725
20
-96.6083333
11
166.275
21
-96.6083333
0
LINE
8
0
6
CONTINUOUS
10
166.275
20
-96.6083333
11
166.275
21
-78.0583333
0
LINE
8
0
6
CONTINUOUS
10
166.275
20
-78.0583333
11
147.725
21
-78.0583333
0
LINE
8
0
6
CONTINUOUS
10
147.725
20
-78.0583333
11
147.725
21
-96.6083333
0
LINE
8
0
6
CONTINUOUS
10
147.725
20
-77.6083333
11
166.275
21
-77.6083333
0
LINE
8
0
6
CONTINUOUS
10
166.275
20
-77.6083333
11
166.275
21
-59.0583333
0
LINE
8
0
6
CONTINUOUS
10
166.275
20
-59.0583333
11
147.725
21
-59.0583333
0
LINE
8
0
6
CONTINUOUS
10
147.725
20
-59.0583333
11
147.725
21
-77.6083333
0
LINE
8
0
6
CONTINUOUS
10
147.725
20
-58.6083333
11
166.275
21
-58.6083333
0
LINE
8
0
6
CONTINUOUS
10
166.275
20
-58.6083333
11
166.275
21
-40.0583333
0
LINE
8
0
6
CONTINUOUS
10
166.275
20
-40.0583333
11
147.725
21
-40.0583333
0
LINE
8
0
6
CONTINUOUS
10
147.725
20
-40.0583333
11
147.725
21
-58.6083333
0
LINE
8
0
6
CONTINUOUS
10
166.725
20
-102.9416667
11
185.275
21
-102.9416667
0
LINE
8
0
6
CONTINUOUS
10
185.275
20
-102.9416667
11
185.275
21
-84.3916667
0
LINE
8
0
6
CONTINUOUS
10
185.275
20
-84.3916667
11
166.725
21
-84.3916667
0
LINE
8
0
6
CONTINUOUS
10
166.725
20
-84.3916667
11
166.725
21
-102.9416667
0
LINE
8
0
6
CONTINUOUS
10
166.725
20
-83.9416667
11
185.275
21
-83.9416667
0
LINE
8
0
6
CONTINUOUS
10
185.275
20
-83.9416667
11
185.275
21
-65.3916667
0
LINE
8
0
6
CONTINUOUS
10
185.275
20
-65.3916667
11
166.725
21
-65.3916667
0
LINE
8
0
6
CONTINUOUS
10
166.725
20
-65.3916667
11
166.725
21
-83.9416667
0
LINE
8
0
6
CONTINUOUS
10
166.725
20
-64.9416667
11
185.275
21
-64.9416667
0
LINE
8
0
6
CONTINUOUS
10
185.275
20
-64.9416667
11
185.275
21
-46.3916667
0
LINE
8
0
6
CONTINUOUS
10
185.275
20
-46.3916667
11
166.725
21
-46.3916667
0
LINE
8
0
6
CONTINUOUS
10
166.725
20
-46.3916667
11
166.725
21
-64.9416667
0
LINE
8
0
6
CONTINUOUS
10
185.725
20
-102.9416667
11
204.275
21
-102.9416667
0
LINE
8
0
6
CONTINUOUS
10
204.275
20
-102.9416667
11
204.275
21
-84.3916667
0
LINE
8
0
6
CONTINUOUS
10
204.275
20
-84.3916667
11
185.725
21
-84.3916667
0
LINE
8
0
6
CONTINUOUS
10
185.725
20
-84.3916667
11
185.725
21
-102.9416667
0
LINE
8
0
6
CONTINUOUS
10
185.725
20
-83.9416667
11
204.275
21
-83.9416667
0
LINE
8
0
6
CONTINUOUS
10
204.275
20
-83.9416667
11
204.275
21
-65.3916667
0
LINE
8
0
6
CONTINUOUS
10
204.275
20
-65.3916667
11
185.725
21
-65.3916667
0
LINE
8
0
6
CONTINUOUS
10
185.725
20
-65.3916667
11
185.725
21
-83.9416667
0
LINE
8
0
6
CONTINUOUS
10
185.725
20
-64.9416667
11
204.275
21
-64.9416667
0
LINE
8
0
6
CONTINUOUS
10
204.275
20
-64.9416667
11
204.275
21
-46.3916667
0
LINE
8
0
6
CONTINUOUS
10
204.275
20
-46.3916667
11
185.725
21
-46.3916667
0
LINE
8
0
6
CONTINUOUS
10
185.725
20
-46.3916667
11
185.725
21
-64.9416667
0
LINE
8
0
6
CONTINUOUS
10
170.2553212
20
-142.9901718
11
188.5235051
21
-146.2113455
0
LINE
8
0
6
CONTINUOUS
10
188.5235051
20
-146.2113455
11
191.7446788
21
-127.9431616
0
LINE
8
0
6
CONTINUOUS
10
191.7446788
20
-127.9431616
11
173.4764949
21
-124.7219879
0
LINE
8
0
6
CONTINUOUS
10
173.4764949
20
-124.7219879
11
170.2553212
21
-142.9901718
0
LINE
8
0
6
CONTINUOUS
10
173.5546366
20
-124.2788245
11
191.8228205
21
-127.4999982
0
LINE
8
0
6
CONTINUOUS
10
191.8228205
20
-127.4999982
11
195.0439942
21
-109.2318143
0
LINE
8
0
6
CONTINUOUS
10
195.0439942
20
-109.2318143
11
176.7758103
21
-106.0106406
0
LINE
8
0
6
CONTINUOUS
10
176.7758103
20
-106.0106406
11
173.5546366
21
-124.2788245
0
LINE
8
0
6
CONTINUOUS
10
189.3388091
20
-144.7154305
11
206.7701072
21
-151.0599042
0
LINE
8
0
6
CONTINUOUS
10
206.7701072
20
-151.0599042
11
213.1145809
21
-133.6286061
0
LINE
8
0
6
CONTINUOUS
10
213.1145809
20
-133.6286061
11
195.6832828
21
-127.2841324
0
LINE
8
0
6
CONTINUOUS
10
195.6832828
20
-127.2841324
11
189.3388091
21
-144.7154305
0
LINE
8
0
6
CONTINUOUS
10
195.8371918
20
-126.8612707
11
213.2684899
21
-133.2057444
0
LINE
8
0
6
CONTINUOUS
10
213.2684899
20
-133.2057444
11
219.6129636
21
-115.7744463
0
LINE
8
0
6
CONTINUOUS
10
219.6129636
20
-115.7744463
11
202.1816655
21
-109.4299726
0
LINE
8
0
6
CONTINUOUS
10
202.1816655
20
-109.4299726
11
195.8371918
21
-126.8612707
0
LINE
8
0
6
CONTINUOUS
10
211.8954493
20
-142.9802082
11
227.9602205
21
-152.2552082
0
LINE
8
0
6
CONTINUOUS
10
227.9602205
20
-152.2552082
11
237.2352205
21
-136.190437
0
LINE
8
0
6
CONTINUOUS
10
237.2352205
20
-136.190437
11
221.1704493
21
-126.915437
0
LINE
8
0
6
CONTINUOUS
10
221.1704493
20
-126.915437
11
211.8954493
21
-142.9802082
0
ENDSEC
0
EOF