0
SECTION
2
HEADER
9
$INSUNITS
70
4
0
ENDSEC
0
SECTION
2
TABLES
0
TABLE
2
LTYPE
0
LTYPE
72
65
70
0
2
CONTINUOUS
3
______
73
0
40
0
0
LTYPE
72
65
70
0
2
DASHED
3
_ _ _ 
73
2
40
7.5
49
5
49
-2.5
0
LTYPE
72
65
70
0
2
DOTTED
3
. . . 
73
2
40
1.5
49
0.5
49
-1
0
ENDTAB
0
TABLE
2
LAYER
0
ENDTAB
0
ENDSEC
0
SECTION
2
ENTITIES
0
LINE
8
0
6
CONTINUOUS
10
88.475
20
-106.525
11
88.475
21
-55.475
0
LINE
8
0
6
CONTINUOUS
10
93.475
20
-50.475
11
106.6636117
21
-50.475
0
LINE
8
0
6
CONTINUOUS
10
108.2447507
20
-50.2184164
11
144.7052493
21
-38.0649169
0
LINE
8
0
6
CONTINUOUS
10
146.2863883
20
-37.8083333
11
167.7136117
21
-37.8083333
0
LINE
8
0
6
CONTINUOUS
10
169.2947507
20
-38.0649169
11
186.7552493
21
-43.8850831
0
LINE
8
0
6
CONTINUOUS
10
188.3363883
20
-44.1416667
11
223.525
21
-44.1416667
0
LINE
8
0
6
CONTINUOUS
10
228.525
20
-49.1416667
11
228.525
21
-103.7046129
0
LINE
8
0
6
CONTINUOUS
10
227.71235
20
-106.4370294
11
224.5377664
21
-111.3019875
0
LINE
8
0
6
CONTINUOUS
10
224.9167973
20
-117.2742661
11
238.0237763
21
-132.6809585
0
LINE
8
0
6
CONTINUOUS
10
238.5455842
20
-138.4208205
11
230.3409083
21
-152.631736
0
LINE
8
0
6
CONTINUOUS
10
225.6764848
20
-155.1205481
11
208.650671
21
-153.9796615
0
LINE
8
0
6
CONTINUOUS
10
207.5989135
20
-153.794895
11
190.6043273
21
-148.8916492
0
LINE
8
0
6
CONTINUOUS
10
190.0865143
20
-148.771656
11
169.3585676
21
-145.1167598
0
LINE
8
0
6
CONTINUOUS
10
166.4937898
20
-143.5190659
11
139.4902371
21
-113.2140981
0
LINE
8
0
6
CONTINUOUS
10
135.7599483
20
-111.5404436
11
107.476282
21
-111.5250007
0
LINE
8
0
6
CONTINUOUS
10
107.473552
20
-111.525
11
93.475
21
-111.525
0
ARC
8
0
6
CONTINUOUS
10
93.475
20
-55.475
40
5
50
90
51
180
0
ARC
8
0
6
CONTINUOUS
10
106.6636117
20
-45.475
40
5
50
270
51
288.4349506
0
ARC
8
0
6
CONTINUOUS
10
146.2863883
20
-42.8083333
40
5
50
90
51
108.4349506
0
ARC
8
0
6
CONTINUOUS
10
167.7136117
20
-42.8083333
40
5
50
71.5650494
51
90
0
ARC
8
0
6
CONTINUOUS
10
188.3363883
20
-39.1416667
40
5
50
251.5650494
51
270
0
ARC
8
0
6
CONTINUOUS
10
223.525
20
-49.1416667
40
5
50
0
51
90
0
ARC
8
0
6
CONTINUOUS
10
223.525
20
-103.7046129
40
5
50
326.8739144
51
0
0
ARC
8
0
6
CONTINUOUS
10
228.7251164
20
-114.034404
40
5
50
146.8739144
51
220.388904
0
ARC
8
0
6
CONTINUOUS
10
234.2154572
20
-135.9208205
40
5
50
329.9999999
51
40.388904
0
ARC
8
0
6
CONTINUOUS
10
226.0107813
20
-150.131736
40
5
50
266.1663845
51
329.9999999
0
ARC
8
0
6
CONTINUOUS
10
208.9849675
20
-148.9908494
40
5
50
253.9061928
51
266.1663845
0
ARC
8
0
6
CONTINUOUS
10
189.2182733
20
-153.6956948
40
5
50
73.9061928
51
79.9999992
0
ARC
8
0
6
CONTINUOUS
10
170.2268086
20
-140.192721
40
5
50
221.7029637
51
259.9999992
0
ARC
8
0
6
CONTINUOUS
10
135.7572183
20
-116.5404429
40
5
50
41.7029637
51
89.9687165
0
ARC
8
0
6
CONTINUOUS
10
107.473552
20
-116.525
40
5
50
89.9687165
51
90
0
ARC
8
0
6
CONTINUOUS
10
93.475
20
-106.525
40
5
50
180
51
270
0
LINE
8
0
6
CONTINUOUS
10
93
20
-107
11
107
21
-107
0
LINE
8
0
6
CONTINUOUS
10
107
20
-107
11
107
21
-93
0
LINE
8
0
6
CONTINUOUS
10
107
20
-93
11
93
21
-93
0
LINE
8
0
6
CONTINUOUS
10
93
20
-93
11
93
21
-107
0
LINE
8
0
6
CONTINUOUS
10
93
20
-88
11
107
21
-88
0
LINE
8
0
6
CONTINUOUS
10
107
20
-88
11
107
21
-74
0
LINE
8
0
6
CONTINUOUS
10
107
20
-74
11
93
21
-74
0
LINE
8
0
6
CONTINUOUS
10
93
20
-74
11
93
21
-88
0
LINE
8
0
6
CONTINUOUS
10
93
20
-69
11
107
21
-69
0
LINE
8
0
6
CONTINUOUS
10
107
20
-69
11
107
21
-55
0
LINE
8
0
6
CONTINUOUS
10
107
20
-55
11
93
21
-55
0
LINE
8
0
6
CONTINUOUS
10
93
20
-55
11
93
21
-69
0
LINE
8
0
6
CONTINUOUS
10
112
20
-107
11
126
21
-107
0
LINE
8
0
6
CONTINUOUS
10
126
20
-107
11
126
21
-93
0
LINE
8
0
6
CONTINUOUS
10
126
20
-93
11
112
21
-93
0
LINE
8
0
6
CONTINUOUS
10
112
20
-93
11
112
21
-107
0
LINE
8
0
6
CONTINUOUS
10
112
20
-88
11
126
21
-88
0
LINE
8
0
6
CONTINUOUS
10
126
20
-88
11
126
21
-74
0
LINE
8
0
6
CONTINUOUS
10
126
20
-74
11
112
21
-74
0
LINE
8
0
6
CONTINUOUS
10
112
20
-74
11
112
21
-88
0
LINE
8
0
6
CONTINUOUS
10
112
20
-69
11
126
21
-69
0
LINE
8
0
6
CONTINUOUS
10
126
20
-69
11
126
21
-55
0
LINE
8
0
6
CONTINUOUS
10
126
20
-55
11
112
21
-55
0
LINE
8
0
6
CONTINUOUS
10
112
20
-55
11
112
21
-69
0
LINE
8
0
6
CONTINUOUS
10
131
20
-100.6666667
11
145
21
-100.6666667
0
LINE
8
0
6
CONTINUOUS
10
145
20
-100.6666667
11
145
21
-86.6666667
0
LINE
8
0
6
CONTINUOUS
10
145
20
-86.6666667
11
131
21
-86.6666667
0
LINE
8
0
6
CONTINUOUS
10
131
20
-86.6666667
11
131
21
-100.6666667
0
LINE
8
0
6
CONTINUOUS
10
131
20
-81.6666667
11
145
21
-81.6666667
0
LINE
8
0
6
CONTINUOUS
10
145
20
-81.6666667
11
145
21
-67.6666667
0
LINE
8
0
6
CONTINUOUS
10
145
20
-67.6666667
11
131
21
-67.6666667
0
LINE
8
0
6
CONTINUOUS
10
131
20
-67.6666667
11
131
21
-81.6666667
0
LINE
8
0
6
CONTINUOUS
10
131
20
-62.6666667
11
145
21
-62.6666667
0
LINE
8
0
6
CONTINUOUS
10
145
20
-62.6666667
11
145
21
-48.6666667
0
LINE
8
0
6
CONTINUOUS
10
145
20
-48.6666667
11
131
21
-48.6666667
0
LINE
8
0
6
CONTINUOUS
10
131
20
-48.6666667
11
131
21
-62.6666667
0
LINE
8
0
6
CONTINUOUS
10
150
20
-94.3333333
11
164
21
-94.3333333
0
LINE
8
0
6
CONTINUOUS
10
164
20
-94.3333333
11
164
21
-80.3333333
0
LINE
8
0
6
CONTINUOUS
10
164
20
-80.3333333
11
150
21
-80.3333333
0
LINE
8
0
6
CONTINUOUS
10
150
20
-80.3333333
11
150
21
-94.3333333
0
LINE
8
0
6
CONTINUOUS
10
150
20
-75.3333333
11
164
21
-75.3333333
0
LINE
8
0
6
CONTINUOUS
10
164
20
-75.3333333
11
164
21
-61.3333333
0
LINE
8
0
6
CONTINUOUS
10
164
20
-61.3333333
11
150
21
-61.3333333
0
LINE
8
0
6
CONTINUOUS
10
150
20
-61.3333333
11
150
21
-75.3333333
0
LINE
8
0
6
CONTINUOUS
10
150
20
-56.3333333
11
164
21
-56.3333333
0
LINE
8
0
6
CONTINUOUS
10
164
20
-56.3333333
11
164
21
-42.3333333
0
LINE
8
0
6
CONTINUOUS
10
164
20
-42.3333333
11
150
21
-42.3333333
0
LINE
8
0
6
CONTINUOUS
10
150
20
-42.3333333
11
150
21
-56.3333333
0
LINE
8
0
6
CONTINUOUS
10
169
20
-100.6666667
11
183
21
-100.6666667
0
LINE
8
0
6
CONTINUOUS
10
183
20
-100.6666667
11
183
21
-86.6666667
0
LINE
8
0
6
CONTINUOUS
10
183
20
-86.6666667
11
169
21
-86.6666667
0
LINE
8
0
6
CONTINUOUS
10
169
20
-86.6666667
11
169
21
-100.6666667
0
LINE
8
0
6
CONTINUOUS
10
169
20
-81.6666667
11
183
21
-81.6666667
0
LINE
8
0
6
CONTINUOUS
10
183
20
-81.6666667
11
183
21
-67.6666667
0
LINE
8
0
6
CONTINUOUS
10
183
20
-67.6666667
11
169
21
-67.6666667
0
LINE
8
0
6
CONTINUOUS
10
169
20
-67.6666667
11
169
21
-81.6666667
0
LINE
8
0
6
CONTINUOUS
10
169
20
-62.6666667
11
183
21
-62.6666667
0
LINE
8
0
6
CONTINUOUS
10
183
20
-62.6666667
11
183
21
-48.6666667
0
LINE
8
0
6
CONTINUOUS
10
183
20
-48.6666667
11
169
21
-48.6666667
0
LINE
8
0
6
CONTINUOUS
10
169
20
-48.6666667
11
169
21
-62.6666667
0
LINE
8
0
6
CONTINUOUS
10
188
20
-100.6666667
11
202
21
-100.6666667
0
LINE
8
0
6
CONTINUOUS
10
202
20
-100.6666667
11
202
21
-86.6666667
0
LINE
8
0
6
CONTINUOUS
10
202
20
-86.6666667
11
188
21
-86.6666667
0
LINE
8
0
6
CONTINUOUS
10
188
20
-86.6666667
11
188
21
-100.6666667
0
LINE
8
0
6
CONTINUOUS
10
188
20
-81.6666667
11
202
21
-81.6666667
0
LINE
8
0
6
CONTINUOUS
10
202
20
-81.6666667
11
202
21
-67.6666667
0
LINE
8
0
6
CONTINUOUS
10
202
20
-67.6666667
11
188
21
-67.6666667
0
LINE
8
0
6
CONTINUOUS
10
188
20
-67.6666667
11
188
21
-81.6666667
0
LINE
8
0
6
CONTINUOUS
10
188
20
-62.6666667
11
202
21
-62.6666667
0
LINE
8
0
6
CONTINUOUS
10
202
20
-62.6666667
11
202
21
-48.6666667
0
LINE
8
0
6
CONTINUOUS
10
202
20
-48.6666667
11
188
21
-48.6666667
0
LINE
8
0
6
CONTINUOUS
10
188
20
-48.6666667
11
188
21
-62.6666667
0
LINE
8
0
6
CONTINUOUS
10
172.8908085
20
-141.1447837
11
186.678117
21
-143.5758582
0
LINE
8
0
6
CONTINUOUS
10
186.678117
20
-143.5758582
11
189.1091915
21
-129.7885497
0
LINE
8
0
6
CONTINUOUS
10
189.1091915
20
-129.7885497
11
175.321883
21
-127.3574752
0
LINE
8
0
6
CONTINUOUS
10
175.321883
20
-127.3574752
11
172.8908085
21
-141.1447837
0
LINE
8
0
6
CONTINUOUS
10
176.1901239
20
-122.4334364
11
189.9774324
21
-124.8645109
0
LINE
8
0
6
CONTINUOUS
10
189.9774324
20
-124.8645109
11
192.4085069
21
-111.0772024
0
LINE
8
0
6
CONTINUOUS
10
192.4085069
20
-111.0772024
11
178.6211984
21
-108.6461279
0
LINE
8
0
6
CONTINUOUS
10
178.6211984
20
-108.6461279
11
176.1901239
21
-122.4334364
0
LINE
8
0
6
CONTINUOUS
10
192.2547057
20
-143.3557256
11
205.4104023
21
-148.1440076
0
LINE
8
0
6
CONTINUOUS
10
205.4104023
20
-148.1440076
11
210.1986843
21
-134.988311
0
LINE
8
0
6
CONTINUOUS
10
210.1986843
20
-134.988311
11
197.0429877
21
-130.200029
0
LINE
8
0
6
CONTINUOUS
10
197.0429877
20
-130.200029
11
192.2547057
21
-143.3557256
0
LINE
8
0
6
CONTINUOUS
10
198.7530884
20
-125.5015658
11
211.908785
21
-130.2898478
0
LINE
8
0
6
CONTINUOUS
10
211.908785
20
-130.2898478
11
216.697067
21
-117.1341512
0
LINE
8
0
6
CONTINUOUS
10
216.697067
20
-117.1341512
11
203.5413704
21
-112.3458692
0
LINE
8
0
6
CONTINUOUS
10
203.5413704
20
-112.3458692
11
198.7530884
21
-125.5015658
0
LINE
8
0
6
CONTINUOUS
10
215.0031571
20
-142.1475004
11
227.1275127
21
-149.1475004
0
LINE
8
0
6
CONTINUOUS
10
227.1275127
20
-149.1475004
11
234.1275127
21
-137.0231448
0
LINE
8
0
6
CONTINUOUS
10
234.1275127
20
-137.0231448
11
222.0031571
21
-130.0231448
0
LINE
8
0
6
CONTINUOUS
10
222.0031571
20
-130.0231448
11
215.0031571
21
-142.1475004
0
ENDSEC
0
EOF