0
SECTION
2
HEADER
9
$INSUNITS
70
4
0
ENDSEC
0
SECTION
2
TABLES
0
TABLE
2
LTYPE
0
LTYPE
72
65
70
0
2
CONTINUOUS
3
______
73
0
40
0
0
LTYPE
72
65
70
0
2
DASHED
3
_ _ _ 
73
2
40
7.5
49
5
49
-2.5
0
LTYPE
72
65
70
0
2
DOTTED
3
. . . 
73
2
40
1.5
49
0.5
49
-1
0
ENDTAB
0
TABLE
2
LAYER
0
ENDTAB
0
ENDSEC
0
SECTION
2
ENTITIES
0
LINE
8
0
6
CONTINUOUS
10
90.725
20
-109.275
11
109.275
21
-109.275
0
LINE
8
0
6
CONTINUOUS
10
109.275
20
-109.275
11
109.275
21
-90.725
0
LINE
8
0
6
CONTINUOUS
10
109.275
20
-90.725
11
90.725
21
-90.725
0
LINE
8
0
6
CONTINUOUS
10
90.725
20
-90.725
11
90.725
21
-109.275
0
LINE
8
0
6
CONTINUOUS
10
90.725
20
-90.275
11
109.275
21
-90.275
0
LINE
8
0
6
CONTINUOUS
10
109.275
20
-90.275
11
109.275
21
-71.725
0
LINE
8
0
6
CONTINUOUS
10
109.275
20
-71.725
11
90.725
21
-71.725
0
LINE
8
0
6
CONTINUOUS
10
90.725
20
-71.725
11
90.725
21
-90.275
0
LINE
8
0
6
CONTINUOUS
10
90.725
20
-71.275
11
109.275
21
-71.275
0
LINE
8
0
6
CONTINUOUS
10
109.275
20
-71.275
11
109.275
21
-52.725
0
LINE
8
0
6
CONTINUOUS
10
109.275
20
-52.725
11
90.725
21
-52.725
0
LINE
8
0
6
CONTINUOUS
10
90.725
20
-52.725
11
90.725
21
-71.275
0
LINE
8
0
6
CONTINUOUS
10
109.725
20
-109.275
11
128.275
21
-109.275
0
LINE
8
0
6
CONTINUOUS
10
128.275
20
-109.275
11
128.275
21
-90.725
0
LINE
8
0
6
CONTINUOUS
10
128.275
20
-90.725
11
109.725
21
-90.725
0
LINE
8
0
6
CONTINUOUS
10
109.725
20
-90.725
11
109.725
21
-109.275
0
LINE
8
0
6
CONTINUOUS
10
109.725
20
-90.275
11
128.275
21
-90.275
0
LINE
8
0
6
CONTINUOUS
10
128.275
20
-90.275
11
128.275
21
-71.725
0
LINE
8
0
6
CONTINUOUS
10
128.275
20
-71.725
11
109.725
21
-71.725
0
LINE
8
0
6
CONTINUOUS
10
109.725
20
-71.725
11
109.725
21
-90.275
0
LINE
8
0
6
CONTINUOUS
10
109.725
20
-71.275
11
128.275
21
-71.275
0
LINE
8
0
6
CONTINUOUS
10
128.275
20
-71.275
11
128.275
21
-52.725
0
LINE
8
0
6
CONTINUOUS
10
128.275
20
-52.725
11
109.725
21
-52.725
0
LINE
8
0
6
CONTINUOUS
10
109.725
20
-52.725
11
109.725
21
-71.275
0
LINE
8
0
6
CONTINUOUS
10
128.725
20
-102.9416667
11
147.275
21
-102.9416667
0
LINE
8
0
6
CONTINUOUS
10
147.275
20
-102.9416667
11
147.275
21
-84.3916667
0
LINE
8
0
6
CONTINUOUS
10
147.275
20
-84.3916667
11
128.725
21
-84.3916667
0
LINE
8
0
6
CONTINUOUS
10
128.725
20
-84.3916667
11
128.725
21
-102.9416667
0
LINE
8
0
6
CONTINUOUS
10
128.725
20
-83.9416667
11
147.275
21
-83.9416667
0
LINE
8
0
6
CONTINUOUS
10
147.275
20
-83.9416667
11
147.275
21
-65.3916667
0
LINE
8
0
6
CONTINUOUS
10
147.275
20
-65.3916667
11
128.725
21
-65.3916667
0
LINE
8
0
6
CONTINUOUS
10
128.725
20
-65.3916667
11
128.725
21
-83.9416667
0
LINE
8
0
6
CONTINUOUS
10
128.725
20
-64.9416667
11
147.275
21
-64.9416667
0
LINE
8
0
6
CONTINUOUS
10
147.275
20
-64.9416667
11
147.275
21
-46.3916667
0
LINE
8
0
6
CONTINUOUS
10
147.275
20
-46.3916667
11
128.725
21
-46.3916667
0
LINE
8
0
6
CONTINUOUS
10
128.725
20
-46.3916667
11
128.725
21
-64.9416667
0
LINE
8
0
6
CONTINUOUS
10
147.725
20
-96.6083333
11
166.275
21
-96.6083333
0
LINE
8
0
6
CONTINUOUS
10
166.275
20
-96.6083333
11
166.275
21
-78.0583333
0
LINE
8
0
6
CONTINUOUS
10
166.275
20
-78.0583333
11
147.725
21
-78.0583333
0
LINE
8
0
6
CONTINUOUS
10
147.725
20
-78.0583333
11
147.725
21
-96.6083333
0
LINE
8
0
6
CONTINUOUS
10
147.725
20
-77.6083333
11
166.275
21
-77.6083333
0
LINE
8
0
6
CONTINUOUS
10
166.275
20
-77.6083333
11
166.275
21
-59.0583333
0
LINE
8
0
6
CONTINUOUS
10
166.275
20
-59.0583333
11
147.725
21
-59.0583333
0
LINE
8
0
6
CONTINUOUS
10
147.725
20
-59.0583333
11
147.725
21
-77.6083333
0
LINE
8
0
6
CONTINUOUS
10
147.725
20
-58.6083333
11
166.275
21
-58.6083333
0
LINE
8
0
6
CONTINUOUS
10
166.275
20
-58.6083333
11
166.275
21
-40.0583333
0
LINE
8
0
6
CONTINUOUS
10
166.275
20
-40.0583333
11
147.725
21
-40.0583333
0
LINE
8
0
6
CONTINUOUS
10
147.725
20
-40.0583333
11
147.725
21
-58.6083333
0
LINE
8
0
6
CONTINUOUS
10
166.725
20
-102.9416667
11
185.275
21
-102.9416667
0
LINE
8
0
6
CONTINUOUS
10
185.275
20
-102.9416667
11
185.275
21
-84.3916667
0
LINE
8
0
6
CONTINUOUS
10
185.275
20
-84.3916667
11
166.725
21
-84.3916667
0
LINE
8
0
6
CONTINUOUS
10
166.725
20
-84.3916667
11
166.725
21
-102.9416667
0
LINE
8
0
6
CONTINUOUS
10
166.725
20
-83.9416667
11
185.275
21
-83.9416667
0
LINE
8
0
6
CONTINUOUS
10
185.275
20
-83.9416667
11
185.275
21
-65.3916667
0
LINE
8
0
6
CONTINUOUS
10
185.275
20
-65.3916667
11
166.725
21
-65.3916667
0
LINE
8
0
6
CONTINUOUS
10
166.725
20
-65.3916667
11
166.725
21
-83.9416667
0
LINE
8
0
6
CONTINUOUS
10
166.725
20
-64.9416667
11
185.275
21
-64.9416667
0
LINE
8
0
6
CONTINUOUS
10
185.275
20
-64.9416667
11
185.275
21
-46.3916667
0
LINE
8
0
6
CONTINUOUS
10
185.275
20
-46.3916667
11
166.725
21
-46.3916667
0
LINE
8
0
6
CONTINUOUS
10
166.725
20
-46.3916667
11
166.725
21
-64.9416667
0
LINE
8
0
6
CONTINUOUS
10
185.725
20
-102.9416667
11
204.275
21
-102.9416667
0
LINE
8
0
6
CONTINUOUS
10
204.275
20
-102.9416667
11
204.275
21
-84.3916667
0
LINE
8
0
6
CONTINUOUS
10
204.275
20
-84.3916667
11
185.725
21
-84.3916667
0
LINE
8
0
6
CONTINUOUS
10
185.725
20
-84.3916667
11
185.725
21
-102.9416667
0
LINE
8
0
6
CONTINUOUS
10
185.725
20
-83.9416667
11
204.275
21
-83.9416667
0
LINE
8
0
6
CONTINUOUS
10
204.275
20
-83.9416667
11
204.275
21
-65.3916667
0
LINE
8
0
6
CONTINUOUS
10
204.275
20
-65.3916667
11
185.725
21
-65.3916667
0
LINE
8
0
6
CONTINUOUS
10
185.725
20
-65.3916667
11
185.725
21
-83.9416667
0
LINE
8
0
6
CONTINUOUS
10
185.725
20
-64.9416667
11
204.275
21
-64.9416667
0
LINE
8
0
6
CONTINUOUS
10
204.275
20
-64.9416667
11
204.275
21
-46.3916667
0
LINE
8
0
6
CONTINUOUS
10
204.275
20
-46.3916667
11
185.725
21
-46.3916667
0
LINE
8
0
6
CONTINUOUS
10
185.725
20
-46.3916667
11
185.725
21
-64.9416667
0
LINE
8
0
6
CONTINUOUS
10
170.2553212
20
-142.9901718
11
188.5235051
21
-146.2113455
0
LINE
8
0
6
CONTINUOUS
10
188.5235051
20
-146.2113455
11
191.7446788
21
-127.9431616
0
LINE
8
0
6
CONTINUOUS
10
191.7446788
20
-127.9431616
11
173.4764949
21
-124.7219879
0
LINE
8
0
6
CONTINUOUS
10
173.4764949
20
-124.7219879
11
170.2553212
21
-142.9901718
0
LINE
8
0
6
CONTINUOUS
10
173.5546366
20
-124.2788245
11
191.8228205
21
-127.4999982
0
LINE
8
0
6
CONTINUOUS
10
191.8228205
20
-127.4999982
11
195.0439942
21
-109.2318143
0
LINE
8
0
6
CONTINUOUS
10
195.0439942
20
-109.2318143
11
176.7758103
21
-106.0106406
0
LINE
8
0
6
CONTINUOUS
10
176.7758103
20
-106.0106406
11
173.5546366
21
-124.2788245
0
LINE
8
0
6
CONTINUOUS
10
189.3388091
20
-144.7154305
11
206.7701072
21
-151.0599042
0
LINE
8
0
6
CONTINUOUS
10
206.7701072
20
-151.0599042
11
213.1145809
21
-133.6286061
0
LINE
8
0
6
CONTINUOUS
10
213.1145809
20
-133.6286061
11
195.6832828
21
-127.2841324
0
LINE
8
0
6
CONTINUOUS
10
195.6832828
20
-127.2841324
11
189.3388091
21
-144.7154305
0
LINE
8
0
6
CONTINUOUS
10
195.8371918
20
-126.8612707
11
213.2684899
21
-133.2057444
0
LINE
8
0
6
CONTINUOUS
10
213.2684899
20
-133.2057444
11
219.6129636
21
-115.7744463
0
LINE
8
0
6
CONTINUOUS
10
219.6129636
20
-115.7744463
11
202.1816655
21
-109.4299726
0
LINE
8
0
6
CONTINUOUS
10
202.1816655
20
-109.4299726
11
195.8371918
21
-126.8612707
0
LINE
8
0
6
CONTINUOUS
10
211.8954493
20
-142.9802082
11
227.9602205
21
-152.2552082
0
LINE
8
0
6
CONTINUOUS
10
227.9602205
20
-152.2552082
11
237.2352205
21
-136.190437
0
LINE
8
0
6
CONTINUOUS
10
237.2352205
20
-136.190437
11
221.1704493
21
-126.915437
0
LINE
8
0
6
CONTINUOUS
10
221.1704493
20
-126.915437
11
211.8954493
21
-142.9802082
0
ENDSEC
0
EOF