<svg width="149.53mm" height="122.63mm" viewBox="0 0 149.53 122.63" xmlns="http://www.w3.org/2000/svg"><g id="svgGroup" stroke-linecap="round" fill-rule="evenodd" font-size="9pt" stroke="#000" stroke-width="0.25mm" fill="none" style="stroke:#000;stroke-width:0.25mm;fill:none"><path d="M 123.396 110.706 L 137.606 122.63 L 149.53 108.42 L 135.32 96.496 L 123.396 110.706 Z M 57 18.55 L 75.55 18.55 L 75.55 0 L 57 0 L 57 18.55 Z M 19 69.217 L 37.55 69.217 L 37.55 50.667 L 19 50.667 L 19 69.217 Z M 19 50.217 L 37.55 50.217 L 37.55 31.667 L 19 31.667 L 19 50.217 Z M 19 31.217 L 37.55 31.217 L 37.55 12.667 L 19 12.667 L 19 31.217 Z M 38 62.883 L 56.55 62.883 L 56.55 44.333 L 38 44.333 L 38 62.883 Z M 38 43.883 L 56.55 43.883 L 56.55 25.333 L 38 25.333 L 38 43.883 Z M 38 24.883 L 56.55 24.883 L 56.55 6.333 L 38 6.333 L 38 24.883 Z M 57 56.55 L 75.55 56.55 L 75.55 38 L 57 38 L 57 56.55 Z M 57 37.55 L 75.55 37.55 L 75.55 19 L 57 19 L 57 37.55 Z M 76 62.883 L 94.55 62.883 L 94.55 44.333 L 76 44.333 L 76 62.883 Z M 76 43.883 L 94.55 43.883 L 94.55 25.333 L 76 25.333 L 76 43.883 Z M 76 24.883 L 94.55 24.883 L 94.55 6.333 L 76 6.333 L 76 24.883 Z M 95 62.883 L 113.55 62.883 L 113.55 44.333 L 95 44.333 L 95 62.883 Z M 95 43.883 L 113.55 43.883 L 113.55 25.333 L 95 25.333 L 95 43.883 Z M 95 24.883 L 113.55 24.883 L 113.55 6.333 L 95 6.333 L 95 24.883 Z M 0 69.217 L 18.55 69.217 L 18.55 50.667 L 0 50.667 L 0 69.217 Z M 0 50.217 L 18.55 50.217 L 18.55 31.667 L 0 31.667 L 0 50.217 Z M 82.387 103.485 L 99.818 109.83 L 106.163 92.398 L 88.732 86.054 L 82.387 103.485 Z M 88.885 85.631 L 106.317 91.975 L 112.661 74.544 L 95.23 68.2 L 88.885 85.631 Z M 100.881 108.498 L 116.946 117.773 L 126.221 101.708 L 110.156 92.433 L 100.881 108.498 Z M 110.381 92.043 L 126.446 101.318 L 135.721 85.254 L 119.656 75.979 L 110.381 92.043 Z" vector-effect="non-scaling-stroke"/></g></svg>