0
SECTION
2
HEADER
9
$INSUNITS
70
4
0
ENDSEC
0
SECTION
2
TABLES
0
TABLE
2
LTYPE
0
LTYPE
72
65
70
64
2
CONTINUOUS
3
______
73
0
40
0
0
ENDTAB
0
TABLE
2
LAYER
0
ENDTAB
0
ENDSEC
0
SECTION
2
ENTITIES
0
LINE
8
0
10
90.725
20
-109.275
11
109.275
21
-109.275
0
LINE
8
0
10
109.275
20
-109.275
11
109.275
21
-90.725
0
LINE
8
0
10
109.275
20
-90.725
11
90.725
21
-90.725
0
LINE
8
0
10
90.725
20
-90.725
11
90.725
21
-109.275
0
LINE
8
0
10
90.725
20
-90.275
11
109.275
21
-90.275
0
LINE
8
0
10
109.275
20
-90.275
11
109.275
21
-71.725
0
LINE
8
0
10
109.275
20
-71.725
11
90.725
21
-71.725
0
LINE
8
0
10
90.725
20
-71.725
11
90.725
21
-90.275
0
LINE
8
0
10
109.725
20
-109.275
11
128.275
21
-109.275
0
LINE
8
0
10
128.275
20
-109.275
11
128.275
21
-90.725
0
LINE
8
0
10
128.275
20
-90.725
11
109.725
21
-90.725
0
LINE
8
0
10
109.725
20
-90.725
11
109.725
21
-109.275
0
LINE
8
0
10
109.725
20
-90.275
11
128.275
21
-90.275
0
LINE
8
0
10
128.275
20
-90.275
11
128.275
21
-71.725
0
LINE
8
0
10
128.275
20
-71.725
11
109.725
21
-71.725
0
LINE
8
0
10
109.725
20
-71.725
11
109.725
21
-90.275
0
LINE
8
0
10
109.725
20
-71.275
11
128.275
21
-71.275
0
LINE
8
0
10
128.275
20
-71.275
11
128.275
21
-52.725
0
LINE
8
0
10
128.275
20
-52.725
11
109.725
21
-52.725
0
LINE
8
0
10
109.725
20
-52.725
11
109.725
21
-71.275
0
LINE
8
0
10
128.725
20
-102.9416667
11
147.275
21
-102.9416667
0
LINE
8
0
10
147.275
20
-102.9416667
11
147.275
21
-84.3916667
0
LINE
8
0
10
147.275
20
-84.3916667
11
128.725
21
-84.3916667
0
LINE
8
0
10
128.725
20
-84.3916667
11
128.725
21
-102.9416667
0
LINE
8
0
10
128.725
20
-83.9416667
11
147.275
21
-83.9416667
0
LINE
8
0
10
147.275
20
-83.9416667
11
147.275
21
-65.3916667
0
LINE
8
0
10
147.275
20
-65.3916667
11
128.725
21
-65.3916667
0
LINE
8
0
10
128.725
20
-65.3916667
11
128.725
21
-83.9416667
0
LINE
8
0
10
128.725
20
-64.9416667
11
147.275
21
-64.9416667
0
LINE
8
0
10
147.275
20
-64.9416667
11
147.275
21
-46.3916667
0
LINE
8
0
10
147.275
20
-46.3916667
11
128.725
21
-46.3916667
0
LINE
8
0
10
128.725
20
-46.3916667
11
128.725
21
-64.9416667
0
LINE
8
0
10
147.725
20
-96.6083333
11
166.275
21
-96.6083333
0
LINE
8
0
10
166.275
20
-96.6083333
11
166.275
21
-78.0583333
0
LINE
8
0
10
166.275
20
-78.0583333
11
147.725
21
-78.0583333
0
LINE
8
0
10
147.725
20
-78.0583333
11
147.725
21
-96.6083333
0
LINE
8
0
10
147.725
20
-77.6083333
11
166.275
21
-77.6083333
0
LINE
8
0
10
166.275
20
-77.6083333
11
166.275
21
-59.0583333
0
LINE
8
0
10
166.275
20
-59.0583333
11
147.725
21
-59.0583333
0
LINE
8
0
10
147.725
20
-59.0583333
11
147.725
21
-77.6083333
0
LINE
8
0
10
147.725
20
-58.6083333
11
166.275
21
-58.6083333
0
LINE
8
0
10
166.275
20
-58.6083333
11
166.275
21
-40.0583333
0
LINE
8
0
10
166.275
20
-40.0583333
11
147.725
21
-40.0583333
0
LINE
8
0
10
147.725
20
-40.0583333
11
147.725
21
-58.6083333
0
LINE
8
0
10
166.725
20
-102.9416667
11
185.275
21
-102.9416667
0
LINE
8
0
10
185.275
20
-102.9416667
11
185.275
21
-84.3916667
0
LINE
8
0
10
185.275
20
-84.3916667
11
166.725
21
-84.3916667
0
LINE
8
0
10
166.725
20
-84.3916667
11
166.725
21
-102.9416667
0
LINE
8
0
10
166.725
20
-83.9416667
11
185.275
21
-83.9416667
0
LINE
8
0
10
185.275
20
-83.9416667
11
185.275
21
-65.3916667
0
LINE
8
0
10
185.275
20
-65.3916667
11
166.725
21
-65.3916667
0
LINE
8
0
10
166.725
20
-65.3916667
11
166.725
21
-83.9416667
0
LINE
8
0
10
166.725
20
-64.9416667
11
185.275
21
-64.9416667
0
LINE
8
0
10
185.275
20
-64.9416667
11
185.275
21
-46.3916667
0
LINE
8
0
10
185.275
20
-46.3916667
11
166.725
21
-46.3916667
0
LINE
8
0
10
166.725
20
-46.3916667
11
166.725
21
-64.9416667
0
LINE
8
0
10
185.725
20
-102.9416667
11
204.275
21
-102.9416667
0
LINE
8
0
10
204.275
20
-102.9416667
11
204.275
21
-84.3916667
0
LINE
8
0
10
204.275
20
-84.3916667
11
185.725
21
-84.3916667
0
LINE
8
0
10
185.725
20
-84.3916667
11
185.725
21
-102.9416667
0
LINE
8
0
10
185.725
20
-83.9416667
11
204.275
21
-83.9416667
0
LINE
8
0
10
204.275
20
-83.9416667
11
204.275
21
-65.3916667
0
LINE
8
0
10
204.275
20
-65.3916667
11
185.725
21
-65.3916667
0
LINE
8
0
10
185.725
20
-65.3916667
11
185.725
21
-83.9416667
0
LINE
8
0
10
185.725
20
-64.9416667
11
204.275
21
-64.9416667
0
LINE
8
0
10
204.275
20
-64.9416667
11
204.275
21
-46.3916667
0
LINE
8
0
10
204.275
20
-46.3916667
11
185.725
21
-46.3916667
0
LINE
8
0
10
185.725
20
-46.3916667
11
185.725
21
-64.9416667
0
LINE
8
0
10
173.1121141
20
-143.5434122
11
190.5434122
21
-149.8878859
0
LINE
8
0
10
190.5434122
20
-149.8878859
11
196.8878859
21
-132.4565878
0
LINE
8
0
10
196.8878859
20
-132.4565878
11
179.4565878
21
-126.1121141
0
LINE
8
0
10
179.4565878
20
-126.1121141
11
173.1121141
21
-143.5434122
0
LINE
8
0
10
179.6104968
20
-125.6892524
11
197.0417949
21
-132.0337261
0
LINE
8
0
10
197.0417949
20
-132.0337261
11
203.3862686
21
-114.602428
0
LINE
8
0
10
203.3862686
20
-114.602428
11
185.9549705
21
-108.2579543
0
LINE
8
0
10
185.9549705
20
-108.2579543
11
179.6104968
21
-125.6892524
0
LINE
8
0
10
191.6060929
20
-148.5562733
11
207.6708641
21
-157.8312733
0
LINE
8
0
10
207.6708641
20
-157.8312733
11
216.9458641
21
-141.7665021
0
LINE
8
0
10
216.9458641
20
-141.7665021
11
200.8810929
21
-132.4915021
0
LINE
8
0
10
200.8810929
20
-132.4915021
11
191.6060929
21
-148.5562733
0
LINE
8
0
10
201.1060929
20
-132.1017906
11
217.1708641
21
-141.3767906
0
LINE
8
0
10
217.1708641
20
-141.3767906
11
226.4458641
21
-125.3120194
0
LINE
8
0
10
226.4458641
20
-125.3120194
11
210.3810929
21
-116.0370194
0
LINE
8
0
10
210.3810929
20
-116.0370194
11
201.1060929
21
-132.1017906
0
LINE
8
0
10
214.1213653
20
-150.7643324
11
228.3314897
21
-162.6880426
0
LINE
8
0
10
228.3314897
20
-162.6880426
11
240.2551999
21
-148.4779182
0
LINE
8
0
10
240.2551999
20
-148.4779182
11
226.0450755
21
-136.554208
0
LINE
8
0
10
226.0450755
20
-136.554208
11
214.1213653
21
-150.7643324
0
ENDSEC
0
EOF