<svg width="144.05mm" height="117.15mm" viewBox="0 0 144.05 117.15" xmlns="http://www.w3.org/2000/svg"><g id="svgGroup" stroke-linecap="round" fill-rule="evenodd" font-size="9pt" stroke="#000" stroke-width="0.25mm" fill="none" style="stroke:#000;stroke-width:0.25mm;fill:none"><path d="M 124.326 108.151 L 135.051 117.15 L 144.05 106.425 L 133.325 97.426 L 124.326 108.151 Z M 0 64.667 L 14 64.667 L 14 50.667 L 0 50.667 L 0 64.667 Z M 0 45.667 L 14 45.667 L 14 31.667 L 0 31.667 L 0 45.667 Z M 19 64.667 L 33 64.667 L 33 50.667 L 19 50.667 L 19 64.667 Z M 19 45.667 L 33 45.667 L 33 31.667 L 19 31.667 L 19 45.667 Z M 19 26.667 L 33 26.667 L 33 12.667 L 19 12.667 L 19 26.667 Z M 38 58.333 L 52 58.333 L 52 44.333 L 38 44.333 L 38 58.333 Z M 38 39.333 L 52 39.333 L 52 25.333 L 38 25.333 L 38 39.333 Z M 38 20.333 L 52 20.333 L 52 6.333 L 38 6.333 L 38 20.333 Z M 57 52 L 71 52 L 71 38 L 57 38 L 57 52 Z M 57 33 L 71 33 L 71 19 L 57 19 L 57 33 Z M 57 14 L 71 14 L 71 0 L 57 0 L 57 14 Z M 76 58.333 L 90 58.333 L 90 44.333 L 76 44.333 L 76 58.333 Z M 76 39.333 L 90 39.333 L 90 25.333 L 76 25.333 L 76 39.333 Z M 76 20.333 L 90 20.333 L 90 6.333 L 76 6.333 L 76 20.333 Z M 95 58.333 L 109 58.333 L 109 44.333 L 95 44.333 L 95 58.333 Z M 95 39.333 L 109 39.333 L 109 25.333 L 95 25.333 L 95 39.333 Z M 95 20.333 L 109 20.333 L 109 6.333 L 95 6.333 L 95 20.333 Z M 101.714 105.39 L 113.838 112.39 L 120.838 100.266 L 108.714 93.266 L 101.714 105.39 Z M 111.214 88.936 L 123.338 95.936 L 130.338 83.811 L 118.214 76.811 L 111.214 88.936 Z M 89.526 81.996 L 102.682 86.784 L 107.47 73.629 L 94.315 68.841 L 89.526 81.996 Z M 83.028 99.85 L 96.184 104.639 L 100.972 91.483 L 87.816 86.695 L 83.028 99.85 Z" vector-effect="non-scaling-stroke"/></g></svg>