0
SECTION
2
HEADER
9
$INSUNITS
70
4
0
ENDSEC
0
SECTION
2
TABLES
0
TABLE
2
LTYPE
0
LTYPE
72
65
70
64
2
CONTINUOUS
3
______
73
0
40
0
0
ENDTAB
0
TABLE
2
LAYER
0
ENDTAB
0
ENDSEC
0
SECTION
2
ENTITIES
0
LINE
8
0
10
93
20
-107
11
107
21
-107
0
LINE
8
0
10
107
20
-107
11
107
21
-93
0
LINE
8
0
10
107
20
-93
11
93
21
-93
0
LINE
8
0
10
93
20
-93
11
93
21
-107
0
LINE
8
0
10
93
20
-88
11
107
21
-88
0
LINE
8
0
10
107
20
-88
11
107
21
-74
0
LINE
8
0
10
107
20
-74
11
93
21
-74
0
LINE
8
0
10
93
20
-74
11
93
21
-88
0
LINE
8
0
10
112
20
-107
11
126
21
-107
0
LINE
8
0
10
126
20
-107
11
126
21
-93
0
LINE
8
0
10
126
20
-93
11
112
21
-93
0
LINE
8
0
10
112
20
-93
11
112
21
-107
0
LINE
8
0
10
112
20
-88
11
126
21
-88
0
LINE
8
0
10
126
20
-88
11
126
21
-74
0
LINE
8
0
10
126
20
-74
11
112
21
-74
0
LINE
8
0
10
112
20
-74
11
112
21
-88
0
LINE
8
0
10
112
20
-69
11
126
21
-69
0
LINE
8
0
10
126
20
-69
11
126
21
-55
0
LINE
8
0
10
126
20
-55
11
112
21
-55
0
LINE
8
0
10
112
20
-55
11
112
21
-69
0
LINE
8
0
10
131
20
-100.6666667
11
145
21
-100.6666667
0
LINE
8
0
10
145
20
-100.6666667
11
145
21
-86.6666667
0
LINE
8
0
10
145
20
-86.6666667
11
131
21
-86.6666667
0
LINE
8
0
10
131
20
-86.6666667
11
131
21
-100.6666667
0
LINE
8
0
10
131
20
-81.6666667
11
145
21
-81.6666667
0
LINE
8
0
10
145
20
-81.6666667
11
145
21
-67.6666667
0
LINE
8
0
10
145
20
-67.6666667
11
131
21
-67.6666667
0
LINE
8
0
10
131
20
-67.6666667
11
131
21
-81.6666667
0
LINE
8
0
10
131
20
-62.6666667
11
145
21
-62.6666667
0
LINE
8
0
10
145
20
-62.6666667
11
145
21
-48.6666667
0
LINE
8
0
10
145
20
-48.6666667
11
131
21
-48.6666667
0
LINE
8
0
10
131
20
-48.6666667
11
131
21
-62.6666667
0
LINE
8
0
10
150
20
-94.3333333
11
164
21
-94.3333333
0
LINE
8
0
10
164
20
-94.3333333
11
164
21
-80.3333333
0
LINE
8
0
10
164
20
-80.3333333
11
150
21
-80.3333333
0
LINE
8
0
10
150
20
-80.3333333
11
150
21
-94.3333333
0
LINE
8
0
10
150
20
-75.3333333
11
164
21
-75.3333333
0
LINE
8
0
10
164
20
-75.3333333
11
164
21
-61.3333333
0
LINE
8
0
10
164
20
-61.3333333
11
150
21
-61.3333333
0
LINE
8
0
10
150
20
-61.3333333
11
150
21
-75.3333333
0
LINE
8
0
10
150
20
-56.3333333
11
164
21
-56.3333333
0
LINE
8
0
10
164
20
-56.3333333
11
164
21
-42.3333333
0
LINE
8
0
10
164
20
-42.3333333
11
150
21
-42.3333333
0
LINE
8
0
10
150
20
-42.3333333
11
150
21
-56.3333333
0
LINE
8
0
10
169
20
-100.6666667
11
183
21
-100.6666667
0
LINE
8
0
10
183
20
-100.6666667
11
183
21
-86.6666667
0
LINE
8
0
10
183
20
-86.6666667
11
169
21
-86.6666667
0
LINE
8
0
10
169
20
-86.6666667
11
169
21
-100.6666667
0
LINE
8
0
10
169
20
-81.6666667
11
183
21
-81.6666667
0
LINE
8
0
10
183
20
-81.6666667
11
183
21
-67.6666667
0
LINE
8
0
10
183
20
-67.6666667
11
169
21
-67.6666667
0
LINE
8
0
10
169
20
-67.6666667
11
169
21
-81.6666667
0
LINE
8
0
10
169
20
-62.6666667
11
183
21
-62.6666667
0
LINE
8
0
10
183
20
-62.6666667
11
183
21
-48.6666667
0
LINE
8
0
10
183
20
-48.6666667
11
169
21
-48.6666667
0
LINE
8
0
10
169
20
-48.6666667
11
169
21
-62.6666667
0
LINE
8
0
10
188
20
-100.6666667
11
202
21
-100.6666667
0
LINE
8
0
10
202
20
-100.6666667
11
202
21
-86.6666667
0
LINE
8
0
10
202
20
-86.6666667
11
188
21
-86.6666667
0
LINE
8
0
10
188
20
-86.6666667
11
188
21
-100.6666667
0
LINE
8
0
10
188
20
-81.6666667
11
202
21
-81.6666667
0
LINE
8
0
10
202
20
-81.6666667
11
202
21
-67.6666667
0
LINE
8
0
10
202
20
-67.6666667
11
188
21
-67.6666667
0
LINE
8
0
10
188
20
-67.6666667
11
188
21
-81.6666667
0
LINE
8
0
10
188
20
-62.6666667
11
202
21
-62.6666667
0
LINE
8
0
10
202
20
-62.6666667
11
202
21
-48.6666667
0
LINE
8
0
10
202
20
-48.6666667
11
188
21
-48.6666667
0
LINE
8
0
10
188
20
-48.6666667
11
188
21
-62.6666667
0
LINE
8
0
10
176.0280107
20
-142.1837073
11
189.1837073
21
-146.9719893
0
LINE
8
0
10
189.1837073
20
-146.9719893
11
193.9719893
21
-133.8162927
0
LINE
8
0
10
193.9719893
20
-133.8162927
11
180.8162927
21
-129.0280107
0
LINE
8
0
10
180.8162927
20
-129.0280107
11
176.0280107
21
-142.1837073
0
LINE
8
0
10
182.5263934
20
-124.3295475
11
195.68209
21
-129.1178295
0
LINE
8
0
10
195.68209
20
-129.1178295
11
200.470372
21
-115.9621329
0
LINE
8
0
10
200.470372
20
-115.9621329
11
187.3146754
21
-111.1738509
0
LINE
8
0
10
187.3146754
20
-111.1738509
11
182.5263934
21
-124.3295475
0
LINE
8
0
10
194.7138007
20
-147.7235655
11
206.8381563
21
-154.7235655
0
LINE
8
0
10
206.8381563
20
-154.7235655
11
213.8381563
21
-142.5992099
0
LINE
8
0
10
213.8381563
20
-142.5992099
11
201.7138007
21
-135.5992099
0
LINE
8
0
10
201.7138007
20
-135.5992099
11
194.7138007
21
-147.7235655
0
LINE
8
0
10
204.2138007
20
-131.2690828
11
216.3381563
21
-138.2690828
0
LINE
8
0
10
216.3381563
20
-138.2690828
11
223.3381563
21
-126.1447272
0
LINE
8
0
10
223.3381563
20
-126.1447272
11
211.2138007
21
-119.1447272
0
LINE
8
0
10
211.2138007
20
-119.1447272
11
204.2138007
21
-131.2690828
0
LINE
8
0
10
217.3264582
20
-150.4839231
11
228.0510804
21
-159.4829497
0
LINE
8
0
10
228.0510804
20
-159.4829497
11
237.050107
21
-148.7583275
0
LINE
8
0
10
237.050107
20
-148.7583275
11
226.3254848
21
-139.7593009
0
LINE
8
0
10
226.3254848
20
-139.7593009
11
217.3264582
21
-150.4839231
0
ENDSEC
0
EOF