0
SECTION
2
HEADER
9
$INSUNITS
70
4
0
ENDSEC
0
SECTION
2
TABLES
0
TABLE
2
LTYPE
0
LTYPE
72
65
70
0
2
CONTINUOUS
3
______
73
0
40
0
0
LTYPE
72
65
70
0
2
DASHED
3
_ _ _ 
73
2
40
7.5
49
5
49
-2.5
0
LTYPE
72
65
70
0
2
DOTTED
3
. . . 
73
2
40
1.5
49
0.5
49
-1
0
ENDTAB
0
TABLE
2
LAYER
0
ENDTAB
0
ENDSEC
0
SECTION
2
ENTITIES
0
LINE
8
0
6
CONTINUOUS
10
93
20
-107
11
107
21
-107
0
LINE
8
0
6
CONTINUOUS
10
107
20
-107
11
107
21
-93
0
LINE
8
0
6
CONTINUOUS
10
107
20
-93
11
93
21
-93
0
LINE
8
0
6
CONTINUOUS
10
93
20
-93
11
93
21
-107
0
LINE
8
0
6
CONTINUOUS
10
93
20
-88
11
107
21
-88
0
LINE
8
0
6
CONTINUOUS
10
107
20
-88
11
107
21
-74
0
LINE
8
0
6
CONTINUOUS
10
107
20
-74
11
93
21
-74
0
LINE
8
0
6
CONTINUOUS
10
93
20
-74
11
93
21
-88
0
LINE
8
0
6
CONTINUOUS
10
93
20
-69
11
107
21
-69
0
LINE
8
0
6
CONTINUOUS
10
107
20
-69
11
107
21
-55
0
LINE
8
0
6
CONTINUOUS
10
107
20
-55
11
93
21
-55
0
LINE
8
0
6
CONTINUOUS
10
93
20
-55
11
93
21
-69
0
LINE
8
0
6
CONTINUOUS
10
112
20
-107
11
126
21
-107
0
LINE
8
0
6
CONTINUOUS
10
126
20
-107
11
126
21
-93
0
LINE
8
0
6
CONTINUOUS
10
126
20
-93
11
112
21
-93
0
LINE
8
0
6
CONTINUOUS
10
112
20
-93
11
112
21
-107
0
LINE
8
0
6
CONTINUOUS
10
112
20
-88
11
126
21
-88
0
LINE
8
0
6
CONTINUOUS
10
126
20
-88
11
126
21
-74
0
LINE
8
0
6
CONTINUOUS
10
126
20
-74
11
112
21
-74
0
LINE
8
0
6
CONTINUOUS
10
112
20
-74
11
112
21
-88
0
LINE
8
0
6
CONTINUOUS
10
112
20
-69
11
126
21
-69
0
LINE
8
0
6
CONTINUOUS
10
126
20
-69
11
126
21
-55
0
LINE
8
0
6
CONTINUOUS
10
126
20
-55
11
112
21
-55
0
LINE
8
0
6
CONTINUOUS
10
112
20
-55
11
112
21
-69
0
LINE
8
0
6
CONTINUOUS
10
131
20
-100.6666667
11
145
21
-100.6666667
0
LINE
8
0
6
CONTINUOUS
10
145
20
-100.6666667
11
145
21
-86.6666667
0
LINE
8
0
6
CONTINUOUS
10
145
20
-86.6666667
11
131
21
-86.6666667
0
LINE
8
0
6
CONTINUOUS
10
131
20
-86.6666667
11
131
21
-100.6666667
0
LINE
8
0
6
CONTINUOUS
10
131
20
-81.6666667
11
145
21
-81.6666667
0
LINE
8
0
6
CONTINUOUS
10
145
20
-81.6666667
11
145
21
-67.6666667
0
LINE
8
0
6
CONTINUOUS
10
145
20
-67.6666667
11
131
21
-67.6666667
0
LINE
8
0
6
CONTINUOUS
10
131
20
-67.6666667
11
131
21
-81.6666667
0
LINE
8
0
6
CONTINUOUS
10
131
20
-62.6666667
11
145
21
-62.6666667
0
LINE
8
0
6
CONTINUOUS
10
145
20
-62.6666667
11
145
21
-48.6666667
0
LINE
8
0
6
CONTINUOUS
10
145
20
-48.6666667
11
131
21
-48.6666667
0
LINE
8
0
6
CONTINUOUS
10
131
20
-48.6666667
11
131
21
-62.6666667
0
LINE
8
0
6
CONTINUOUS
10
150
20
-94.3333333
11
164
21
-94.3333333
0
LINE
8
0
6
CONTINUOUS
10
164
20
-94.3333333
11
164
21
-80.3333333
0
LINE
8
0
6
CONTINUOUS
10
164
20
-80.3333333
11
150
21
-80.3333333
0
LINE
8
0
6
CONTINUOUS
10
150
20
-80.3333333
11
150
21
-94.3333333
0
LINE
8
0
6
CONTINUOUS
10
150
20
-75.3333333
11
164
21
-75.3333333
0
LINE
8
0
6
CONTINUOUS
10
164
20
-75.3333333
11
164
21
-61.3333333
0
LINE
8
0
6
CONTINUOUS
10
164
20
-61.3333333
11
150
21
-61.3333333
0
LINE
8
0
6
CONTINUOUS
10
150
20
-61.3333333
11
150
21
-75.3333333
0
LINE
8
0
6
CONTINUOUS
10
150
20
-56.3333333
11
164
21
-56.3333333
0
LINE
8
0
6
CONTINUOUS
10
164
20
-56.3333333
11
164
21
-42.3333333
0
LINE
8
0
6
CONTINUOUS
10
164
20
-42.3333333
11
150
21
-42.3333333
0
LINE
8
0
6
CONTINUOUS
10
150
20
-42.3333333
11
150
21
-56.3333333
0
LINE
8
0
6
CONTINUOUS
10
169
20
-100.6666667
11
183
21
-100.6666667
0
LINE
8
0
6
CONTINUOUS
10
183
20
-100.6666667
11
183
21
-86.6666667
0
LINE
8
0
6
CONTINUOUS
10
183
20
-86.6666667
11
169
21
-86.6666667
0
LINE
8
0
6
CONTINUOUS
10
169
20
-86.6666667
11
169
21
-100.6666667
0
LINE
8
0
6
CONTINUOUS
10
169
20
-81.6666667
11
183
21
-81.6666667
0
LINE
8
0
6
CONTINUOUS
10
183
20
-81.6666667
11
183
21
-67.6666667
0
LINE
8
0
6
CONTINUOUS
10
183
20
-67.6666667
11
169
21
-67.6666667
0
LINE
8
0
6
CONTINUOUS
10
169
20
-67.6666667
11
169
21
-81.6666667
0
LINE
8
0
6
CONTINUOUS
10
169
20
-62.6666667
11
183
21
-62.6666667
0
LINE
8
0
6
CONTINUOUS
10
183
20
-62.6666667
11
183
21
-48.6666667
0
LINE
8
0
6
CONTINUOUS
10
183
20
-48.6666667
11
169
21
-48.6666667
0
LINE
8
0
6
CONTINUOUS
10
169
20
-48.6666667
11
169
21
-62.6666667
0
LINE
8
0
6
CONTINUOUS
10
188
20
-100.6666667
11
202
21
-100.6666667
0
LINE
8
0
6
CONTINUOUS
10
202
20
-100.6666667
11
202
21
-86.6666667
0
LINE
8
0
6
CONTINUOUS
10
202
20
-86.6666667
11
188
21
-86.6666667
0
LINE
8
0
6
CONTINUOUS
10
188
20
-86.6666667
11
188
21
-100.6666667
0
LINE
8
0
6
CONTINUOUS
10
188
20
-81.6666667
11
202
21
-81.6666667
0
LINE
8
0
6
CONTINUOUS
10
202
20
-81.6666667
11
202
21
-67.6666667
0
LINE
8
0
6
CONTINUOUS
10
202
20
-67.6666667
11
188
21
-67.6666667
0
LINE
8
0
6
CONTINUOUS
10
188
20
-67.6666667
11
188
21
-81.6666667
0
LINE
8
0
6
CONTINUOUS
10
188
20
-62.6666667
11
202
21
-62.6666667
0
LINE
8
0
6
CONTINUOUS
10
202
20
-62.6666667
11
202
21
-48.6666667
0
LINE
8
0
6
CONTINUOUS
10
202
20
-48.6666667
11
188
21
-48.6666667
0
LINE
8
0
6
CONTINUOUS
10
188
20
-48.6666667
11
188
21
-62.6666667
0
LINE
8
0
6
CONTINUOUS
10
172.8908085
20
-141.1447837
11
186.678117
21
-143.5758582
0
LINE
8
0
6
CONTINUOUS
10
186.678117
20
-143.5758582
11
189.1091915
21
-129.7885497
0
LINE
8
0
6
CONTINUOUS
10
189.1091915
20
-129.7885497
11
175.321883
21
-127.3574752
0
LINE
8
0
6
CONTINUOUS
10
175.321883
20
-127.3574752
11
172.8908085
21
-141.1447837
0
LINE
8
0
6
CONTINUOUS
10
176.1901239
20
-122.4334364
11
189.9774324
21
-124.8645109
0
LINE
8
0
6
CONTINUOUS
10
189.9774324
20
-124.8645109
11
192.4085069
21
-111.0772024
0
LINE
8
0
6
CONTINUOUS
10
192.4085069
20
-111.0772024
11
178.6211984
21
-108.6461279
0
LINE
8
0
6
CONTINUOUS
10
178.6211984
20
-108.6461279
11
176.1901239
21
-122.4334364
0
LINE
8
0
6
CONTINUOUS
10
192.2547057
20
-143.3557256
11
205.4104023
21
-148.1440076
0
LINE
8
0
6
CONTINUOUS
10
205.4104023
20
-148.1440076
11
210.1986843
21
-134.988311
0
LINE
8
0
6
CONTINUOUS
10
210.1986843
20
-134.988311
11
197.0429877
21
-130.200029
0
LINE
8
0
6
CONTINUOUS
10
197.0429877
20
-130.200029
11
192.2547057
21
-143.3557256
0
LINE
8
0
6
CONTINUOUS
10
198.7530884
20
-125.5015658
11
211.908785
21
-130.2898478
0
LINE
8
0
6
CONTINUOUS
10
211.908785
20
-130.2898478
11
216.697067
21
-117.1341512
0
LINE
8
0
6
CONTINUOUS
10
216.697067
20
-117.1341512
11
203.5413704
21
-112.3458692
0
LINE
8
0
6
CONTINUOUS
10
203.5413704
20
-112.3458692
11
198.7530884
21
-125.5015658
0
LINE
8
0
6
CONTINUOUS
10
215.0031571
20
-142.1475004
11
227.1275127
21
-149.1475004
0
LINE
8
0
6
CONTINUOUS
10
227.1275127
20
-149.1475004
11
234.1275127
21
-137.0231448
0
LINE
8
0
6
CONTINUOUS
10
234.1275127
20
-137.0231448
11
222.0031571
21
-130.0231448
0
LINE
8
0
6
CONTINUOUS
10
222.0031571
20
-130.0231448
11
215.0031571
21
-142.1475004
0
ENDSEC
0
EOF