  0
SECTION
  2
HEADER
  9
$ANGBASE
  50
0.0
  9
$ANGDIR
  70
1
  9
$MEASUREMENT
  70
0
  0
ENDSEC
  0
SECTION
  2
TABLES
  0
TABLE
  2
LTYPE
  70
4
  0
LTYPE
  5
40F
  2
CONTINUOUS
  70
0
  3
Solid line
  72
65
  73
0
  40
0.0
  0
LTYPE
  5
410
  2
DASHDOT
 70
0
  3
Dash Dot ____ _ ____ _
 72
65
 73
4
 40
2.0
 49
1.25
 49
-0.25
 49
0.25
 49
-0.25
  0
LTYPE
  5
411
  2
DASHED
 70
0
  3
Dashed __ __ __ __ __
 72
65
 73
2
 40
0.75
 49
0.5
 49
-0.25
  0
LTYPE
  5
43B
  2
DOTTED
 70
0
  3
Dotted .  .  .  .
 72
65
 73
2
 40
0.2
 49
0.0
 49
-0.2
  0
ENDTAB
  0
TABLE
  2
STYLE
  70
4
  0
STYLE
  2
KICAD
  70
0
  40
0
  41
1
  42
1
  50
0
  71
0
  3
isocp.shx
  0
STYLE
  2
KICADB
  70
0
  40
0
  41
1
  42
1
  50
0
  71
0
  3
isocp.shx
  0
STYLE
  2
KICADI
  70
0
  40
0
  41
1
  42
1
  50
15
  71
0
  3
isocp.shx
  0
STYLE
  2
KICADBI
  70
0
  40
0
  41
1
  42
1
  50
15
  71
0
  3
isocp.shx
  0
ENDTAB
  0
TABLE
  2
LAYER
  70
1
  0
LAYER
  2
BLACK
  70
0
  62
7
  6
CONTINUOUS
  0
ENDTAB
  0
ENDSEC
  0
SECTION
  2
ENTITIES
0
LINE
8
BLACK
6
CONTINUOUS
10
5.7593066141732283
20
-1.4855642913385827
11
6.6028981102362208
21
-1.4855642913385827
0
LINE
8
BLACK
6
CONTINUOUS
10
6.6028981102362208
20
-1.4855642913385827
11
6.6157466141732284
21
-1.4859778346456693
0
LINE
8
BLACK
6
CONTINUOUS
10
6.6157466141732284
20
-1.4859778346456693
11
6.6285418897637793
21
-1.4872167716535434
0
LINE
8
BLACK
6
CONTINUOUS
10
6.6285418897637793
20
-1.4872167716535434
11
6.6412310629921256
21
-1.489275905511811
0
LINE
8
BLACK
6
CONTINUOUS
10
6.6412310629921256
20
-1.489275905511811
11
6.6537615354330706
21
-1.4921466929133858
0
LINE
8
BLACK
6
CONTINUOUS
10
6.6537615354330706
20
-1.4921466929133858
11
6.666081456692913
21
-1.4958173622047244
0
LINE
8
BLACK
6
CONTINUOUS
10
6.666081456692913
20
-1.4958173622047244
11
6.6660813779527555
21
-1.4958175196850394
0
LINE
8
BLACK
6
CONTINUOUS
10
6.6660813779527555
20
-1.4958175196850394
11
6.6660814173228342
21
-1.4958175590551182
0
LINE
8
BLACK
6
CONTINUOUS
10
6.6660814173228342
20
-1.4958175590551182
11
7.3535025984251963
21
-1.7249579527559056
0
LINE
8
BLACK
6
CONTINUOUS
10
7.3535025984251963
20
-1.7249579527559056
11
7.3535042125984251
21
-1.7249586614173229
0
LINE
8
BLACK
6
CONTINUOUS
10
7.3535042125984251
20
-1.7249586614173229
11
7.3594233070866144
21
-1.7269309055118109
0
LINE
8
BLACK
6
CONTINUOUS
10
7.3594233070866144
20
-1.7269309055118109
11
7.3714937401574803
21
-1.7301082677165354
0
LINE
8
BLACK
6
CONTINUOUS
10
7.3714937401574803
20
-1.7301082677165354
11
7.3837434645669289
21
-1.7325028346456692
0
LINE
8
BLACK
6
CONTINUOUS
10
7.3837434645669289
20
-1.7325028346456692
11
7.3961218503937003
21
-1.7341047637795275
0
LINE
8
BLACK
6
CONTINUOUS
10
7.3961218503937003
20
-1.7341047637795275
11
7.4085776377952755
21
-1.7349074015748032
0
LINE
8
BLACK
6
CONTINUOUS
10
7.4085776377952755
20
-1.7349074015748032
11
7.4148184251968505
21
-1.7349081496062992
0
LINE
8
BLACK
6
CONTINUOUS
10
7.4148184251968505
20
-1.7349081496062992
11
8.8001968503937
21
-1.7349081496062992
0
LINE
8
BLACK
6
CONTINUOUS
10
8.8001968503937
20
-1.7349081496062992
11
8.8166963779527556
21
-1.735590590551181
0
LINE
8
BLACK
6
CONTINUOUS
10
8.8166963779527556
20
-1.735590590551181
11
8.8330832283464567
21
-1.7376332283464566
0
LINE
8
BLACK
6
CONTINUOUS
10
8.8330832283464567
20
-1.7376332283464566
11
8.8492453937007873
21
-1.7410220866141732
0
LINE
8
BLACK
6
CONTINUOUS
10
8.8492453937007873
20
-1.7410220866141732
11
8.8650725196850395
21
-1.7457340944881889
0
LINE
8
BLACK
6
CONTINUOUS
10
8.8650725196850395
20
-1.7457340944881889
11
8.8804564566929134
21
-1.751736968503937
0
LINE
8
BLACK
6
CONTINUOUS
10
8.8804564566929134
20
-1.751736968503937
11
8.8952921259842519
21
-1.7589897637795275
0
LINE
8
BLACK
6
CONTINUOUS
10
8.8952921259842519
20
-1.7589897637795275
11
8.9094781889763777
21
-1.7674429133858267
0
LINE
8
BLACK
6
CONTINUOUS
10
8.9094781889763777
20
-1.7674429133858267
11
8.9229177559055124
21
-1.7770386614173228
0
LINE
8
BLACK
6
CONTINUOUS
10
8.9229177559055124
20
-1.7770386614173228
11
8.9355189763779528
21
-1.7877114960629921
0
LINE
8
BLACK
6
CONTINUOUS
10
8.9355189763779528
20
-1.7877114960629921
11
8.9471958267716527
21
-1.7993885039370079
0
LINE
8
BLACK
6
CONTINUOUS
10
8.9471958267716527
20
-1.7993885039370079
11
8.9578684645669284
21
-1.8119898818897637
0
LINE
8
BLACK
6
CONTINUOUS
10
8.9578684645669284
20
-1.8119898818897637
11
8.9674640551181106
21
-1.8254295669291338
0
LINE
8
BLACK
6
CONTINUOUS
10
8.9674640551181106
20
-1.8254295669291338
11
8.9759170472440939
21
-1.8396157480314961
0
LINE
8
BLACK
6
CONTINUOUS
10
8.9759170472440939
20
-1.8396157480314961
11
8.9831696062992119
21
-1.8544515354330708
0
LINE
8
BLACK
6
CONTINUOUS
10
8.9831696062992119
20
-1.8544515354330708
11
8.9891723228346461
21
-1.8698355511811022
0
LINE
8
BLACK
6
CONTINUOUS
10
8.9891723228346461
20
-1.8698355511811022
11
8.9938840551181105
21
-1.8856627165354329
0
LINE
8
BLACK
6
CONTINUOUS
10
8.9938840551181105
20
-1.8856627165354329
11
8.9972727559055112
21
-1.9018249212598424
0
LINE
8
BLACK
6
CONTINUOUS
10
8.9972727559055112
20
-1.9018249212598424
11
8.9993151574803143
21
-1.9182118110236219
0
LINE
8
BLACK
6
CONTINUOUS
10
8.9993151574803143
20
-1.9182118110236219
11
8.9999954330708665
21
-1.9346650787401574
0
LINE
8
BLACK
6
CONTINUOUS
10
8.9999954330708665
20
-1.9346650787401574
11
9.
21
-1.9347112992125983
0
LINE
8
BLACK
6
CONTINUOUS
10
9.
20
-1.9347112992125983
11
9.
21
-4.0828587795275588
0
LINE
8
BLACK
6
CONTINUOUS
10
9.
20
-4.0828587795275588
11
8.99947842519685
21
-4.0972859842519682
0
LINE
8
BLACK
6
CONTINUOUS
10
8.99947842519685
20
-4.0972859842519682
11
8.9979164960629916
21
-4.111637834645669
0
LINE
8
BLACK
6
CONTINUOUS
10
8.9979164960629916
20
-4.111637834645669
11
8.9953223228346459
21
-4.1258394488188976
0
LINE
8
BLACK
6
CONTINUOUS
10
8.9953223228346459
20
-4.1258394488188976
11
8.9917095275590544
21
-4.1398166929133859
0
LINE
8
BLACK
6
CONTINUOUS
10
8.9917095275590544
20
-4.1398166929133859
11
8.9870968897637802
21
-4.1534966141732284
0
LINE
8
BLACK
6
CONTINUOUS
10
8.9870968897637802
20
-4.1534966141732284
11
8.9815085433070863
21
-4.1668077165354331
0
LINE
8
BLACK
6
CONTINUOUS
10
8.9815085433070863
20
-4.1668077165354331
11
8.974973661417323
21
-4.1796805905511807
0
LINE
8
BLACK
6
CONTINUOUS
10
8.974973661417323
20
-4.1796805905511807
11
8.9675263385826778
21
-4.1920480314960633
0
LINE
8
BLACK
6
CONTINUOUS
10
8.9675263385826778
20
-4.1920480314960633
11
8.9675260236220478
21
-4.1920478346456695
0
LINE
8
BLACK
6
CONTINUOUS
10
8.9675260236220478
20
-4.1920478346456695
11
8.967525984251969
21
-4.1920478740157483
0
LINE
8
BLACK
6
CONTINUOUS
10
8.967525984251969
20
-4.1920478740157483
11
8.8425423622047248
21
-4.383581653543307
0
LINE
8
BLACK
6
CONTINUOUS
10
8.8425423622047248
20
-4.383581653543307
11
8.8425408661417322
21
-4.3835834645669287
0
LINE
8
BLACK
6
CONTINUOUS
10
8.8425408661417322
20
-4.3835834645669287
11
8.8380055905511803
21
-4.39052968503937
0
LINE
8
BLACK
6
CONTINUOUS
10
8.8380055905511803
20
-4.39052968503937
11
8.8301566929133859
21
-4.4051524015748029
0
LINE
8
BLACK
6
CONTINUOUS
10
8.8301566929133859
20
-4.4051524015748029
11
8.8235857874015746
21
-4.4203922047244095
0
LINE
8
BLACK
6
CONTINUOUS
10
8.8235857874015746
20
-4.4203922047244095
11
8.8183409055118105
21
-4.4361376771653545
0
LINE
8
BLACK
6
CONTINUOUS
10
8.8183409055118105
20
-4.4361376771653545
11
8.8144604330708667
21
-4.4522737007874014
0
LINE
8
BLACK
6
CONTINUOUS
10
8.8144604330708667
20
-4.4522737007874014
11
8.8119726771653539
21
-4.468682244094488
0
LINE
8
BLACK
6
CONTINUOUS
10
8.8119726771653539
20
-4.468682244094488
11
8.8108959055118117
21
-4.4852433070866145
0
LINE
8
BLACK
6
CONTINUOUS
10
8.8108959055118117
20
-4.4852433070866145
11
8.8112379527559046
21
-4.5018358267716536
0
LINE
8
BLACK
6
CONTINUOUS
10
8.8112379527559046
20
-4.5018358267716536
11
8.8129963385826766
21
-4.5183384645669289
0
LINE
8
BLACK
6
CONTINUOUS
10
8.8129963385826766
20
-4.5183384645669289
11
8.8161581496062986
21
-4.5346305511811025
0
LINE
8
BLACK
6
CONTINUOUS
10
8.8161581496062986
20
-4.5346305511811025
11
8.8207003543307092
21
-4.5505929133858265
0
LINE
8
BLACK
6
CONTINUOUS
10
8.8207003543307092
20
-4.5505929133858265
11
8.8265896456692907
21
-4.566108897637795
0
LINE
8
BLACK
6
CONTINUOUS
10
8.8265896456692907
20
-4.566108897637795
11
8.833783031496063
21
-4.581064960629921
0
LINE
8
BLACK
6
CONTINUOUS
10
8.833783031496063
20
-4.581064960629921
11
8.8422278740157481
21
-4.5953518110236216
0
LINE
8
BLACK
6
CONTINUOUS
10
8.8422278740157481
20
-4.5953518110236216
11
8.8518624409448812
21
-4.6088649212598423
0
LINE
8
BLACK
6
CONTINUOUS
10
8.8518624409448812
20
-4.6088649212598423
11
8.8572410236220467
21
-4.615183779527559
0
LINE
8
BLACK
6
CONTINUOUS
10
8.8572410236220467
20
-4.615183779527559
11
9.3732637795275586
21
-5.2217464566929133
0
LINE
8
BLACK
6
CONTINUOUS
10
9.3732637795275586
20
-5.2217464566929133
11
9.3732638188976374
21
-5.2217465354330708
0
LINE
8
BLACK
6
CONTINUOUS
10
9.3732638188976374
20
-5.2217465354330708
11
9.3833451574803153
21
-5.2346305905511814
0
LINE
8
BLACK
6
CONTINUOUS
10
9.3833451574803153
20
-5.2346305905511814
11
9.392338700787402
21
-5.2482961811023623
0
LINE
8
BLACK
6
CONTINUOUS
10
9.392338700787402
20
-5.2482961811023623
11
9.4001840944881891
21
-5.2626517322834641
0
LINE
8
BLACK
6
CONTINUOUS
10
9.4001840944881891
20
-5.2626517322834641
11
9.4068288188976368
21
-5.2776009842519684
0
LINE
8
BLACK
6
CONTINUOUS
10
9.4068288188976368
20
-5.2776009842519684
11
9.4122282677165359
21
-5.2930437401574801
0
LINE
8
BLACK
6
CONTINUOUS
10
9.4122282677165359
20
-5.2930437401574801
11
9.4163462598425198
21
-5.3088764173228347
0
LINE
8
BLACK
6
CONTINUOUS
10
9.4163462598425198
20
-5.3088764173228347
11
9.4191551968503937
21
-5.3249929527559052
0
LINE
8
BLACK
6
CONTINUOUS
10
9.4191551968503937
20
-5.3249929527559052
11
9.4206362598425191
21
-5.3412852362204726
0
LINE
8
BLACK
6
CONTINUOUS
10
9.4206362598425191
20
-5.3412852362204726
11
9.4207794881889768
21
-5.3576440944881885
0
LINE
8
BLACK
6
CONTINUOUS
10
9.4207794881889768
20
-5.3576440944881885
11
9.4195839370078733
21
-5.3739598031496065
0
LINE
8
BLACK
6
CONTINUOUS
10
9.4195839370078733
20
-5.3739598031496065
11
9.4170576377952759
21
-5.3901230708661414
0
LINE
8
BLACK
6
CONTINUOUS
10
9.4170576377952759
20
-5.3901230708661414
11
9.4132175196850394
21
-5.4060254330708659
0
LINE
8
BLACK
6
CONTINUOUS
10
9.4132175196850394
20
-5.4060254330708659
11
9.4080892913385821
21
-5.4215603543307083
0
LINE
8
BLACK
6
CONTINUOUS
10
9.4080892913385821
20
-5.4215603543307083
11
9.4017073622047249
21
-5.4366236614173227
0
LINE
8
BLACK
6
CONTINUOUS
10
9.4017073622047249
20
-5.4366236614173227
11
9.3941244881889769
21
-5.4510953149606296
0
LINE
8
BLACK
6
CONTINUOUS
10
9.3941244881889769
20
-5.4510953149606296
11
9.3941155905511806
21
-5.4511149999999997
0
LINE
8
BLACK
6
CONTINUOUS
10
9.3941155905511806
20
-5.4511149999999997
11
9.0710968503937011
21
-6.0105998425196852
0
LINE
8
BLACK
6
CONTINUOUS
10
9.0710968503937011
20
-6.0105998425196852
11
9.0710967716535436
21
-6.0105998818897639
0
LINE
8
BLACK
6
CONTINUOUS
10
9.0710967716535436
20
-6.0105998818897639
11
9.0710968110236223
21
-6.0105998818897639
0
LINE
8
BLACK
6
CONTINUOUS
10
9.0710968110236223
20
-6.0105998818897639
11
9.0626073622047247
21
-6.0240389763779527
0
LINE
8
BLACK
6
CONTINUOUS
10
9.0626073622047247
20
-6.0240389763779527
11
9.0530764566929136
21
-6.036760669291338
0
LINE
8
BLACK
6
CONTINUOUS
10
9.0530764566929136
20
-6.036760669291338
11
9.0425644094488185
21
-6.0486844488188973
0
LINE
8
BLACK
6
CONTINUOUS
10
9.0425644094488185
20
-6.0486844488188973
11
9.0311377952755905
21
-6.0597348818897636
0
LINE
8
BLACK
6
CONTINUOUS
10
9.0311377952755905
20
-6.0597348818897636
11
9.0188689370078734
21
-6.0698420472440944
0
LINE
8
BLACK
6
CONTINUOUS
10
9.0188689370078734
20
-6.0698420472440944
11
9.0058354330708656
21
-6.0789418897637795
0
LINE
8
BLACK
6
CONTINUOUS
10
9.0058354330708656
20
-6.0789418897637795
11
8.9921198031496061
21
-6.086976889763779
0
LINE
8
BLACK
6
CONTINUOUS
10
8.9921198031496061
20
-6.086976889763779
11
8.977808858267716
21
-6.0938961811023624
0
LINE
8
BLACK
6
CONTINUOUS
10
8.977808858267716
20
-6.0938961811023624
11
8.9629931496062998
21
-6.0996559448818894
0
LINE
8
BLACK
6
CONTINUOUS
10
8.9629931496062998
20
-6.0996559448818894
11
8.9477664960629912
21
-6.1042197637795272
0
LINE
8
BLACK
6
CONTINUOUS
10
8.9477664960629912
20
-6.1042197637795272
11
8.9322251968503927
21
-6.1075587007874015
0
LINE
8
BLACK
6
CONTINUOUS
10
8.9322251968503927
20
-6.1075587007874015
11
8.9164676771653539
21
-6.1096516929133857
0
LINE
8
BLACK
6
CONTINUOUS
10
8.9164676771653539
20
-6.1096516929133857
11
8.9005936614173233
21
-6.110485433070866
0
LINE
8
BLACK
6
CONTINUOUS
10
8.9005936614173233
20
-6.110485433070866
11
8.8847035826771652
21
-6.1100546456692912
0
LINE
8
BLACK
6
CONTINUOUS
10
8.8847035826771652
20
-6.1100546456692912
11
8.884703622047244
21
-6.1100543307086612
0
LINE
8
BLACK
6
CONTINUOUS
10
8.884703622047244
20
-6.1100543307086612
11
8.8847035826771652
21
-6.1100542913385825
0
LINE
8
BLACK
6
CONTINUOUS
10
8.8847035826771652
20
-6.1100542913385825
11
8.8847035433070864
21
-6.1100543307086612
0
LINE
8
BLACK
6
CONTINUOUS
10
8.8847035433070864
20
-6.1100543307086612
11
8.2143959448818897
21
-6.065137519685039
0
LINE
8
BLACK
6
CONTINUOUS
10
8.2143959448818897
20
-6.065137519685039
11
8.2143958661417322
21
-6.0651374803149602
0
LINE
8
BLACK
6
CONTINUOUS
10
8.2143958661417322
20
-6.0651374803149602
11
8.2143958661417322
21
-6.065137519685039
0
LINE
8
BLACK
6
CONTINUOUS
10
8.2143958661417322
20
-6.065137519685039
11
8.20022251968504
21
-6.0636783858267718
0
LINE
8
BLACK
6
CONTINUOUS
10
8.20022251968504
20
-6.0636783858267718
11
8.1861891338582673
21
-6.0612130708661418
0
LINE
8
BLACK
6
CONTINUOUS
10
8.1861891338582673
20
-6.0612130708661418
11
8.172369842519684
21
-6.0577546850393702
0
LINE
8
BLACK
6
CONTINUOUS
10
8.172369842519684
20
-6.0577546850393702
11
8.1723670078740156
21
-6.0577541732283464
0
LINE
8
BLACK
6
CONTINUOUS
10
8.1723670078740156
20
-6.0577541732283464
11
7.5032888188976372
21
-5.864712992125984
0
LINE
8
BLACK
6
CONTINUOUS
10
7.5032888188976372
20
-5.864712992125984
11
7.5032875196850393
21
-5.8647124803149602
0
LINE
8
BLACK
6
CONTINUOUS
10
7.5032875196850393
20
-5.8647124803149602
11
7.499986220472441
21
-5.8637599606299213
0
LINE
8
BLACK
6
CONTINUOUS
10
7.499986220472441
20
-5.8637599606299213
11
7.4933173622047242
21
-5.862089566929134
0
LINE
8
BLACK
6
CONTINUOUS
10
7.4933173622047242
20
-5.862089566929134
11
7.4865935039370077
21
-5.8606565354330709
0
LINE
8
BLACK
6
CONTINUOUS
10
7.4865935039370077
20
-5.8606565354330709
11
7.4832082677165355
21
-5.8600597244094486
0
LINE
8
BLACK
6
CONTINUOUS
10
7.4832082677165355
20
-5.8600597244094486
11
6.6671474015748027
21
-5.7161661811023619
0
LINE
8
BLACK
6
CONTINUOUS
10
6.6671474015748027
20
-5.7161661811023619
11
6.6671467716535435
21
-5.7161659842519681
0
LINE
8
BLACK
6
CONTINUOUS
10
6.6671467716535435
20
-5.7161659842519681
11
6.652643031496063
21
-5.7130493307086612
0
LINE
8
BLACK
6
CONTINUOUS
10
6.652643031496063
20
-5.7130493307086612
11
6.6384098818897632
21
-5.708864881889764
0
LINE
8
BLACK
6
CONTINUOUS
10
6.6384098818897632
20
-5.708864881889764
11
6.6245264960629919
21
-5.7036358661417319
0
LINE
8
BLACK
6
CONTINUOUS
10
6.6245264960629919
20
-5.7036358661417319
11
6.611069330708661
21
-5.6973911023622046
0
LINE
8
BLACK
6
CONTINUOUS
10
6.611069330708661
20
-5.6973911023622046
11
6.5981126377952757
21
-5.6901650393700782
0
LINE
8
BLACK
6
CONTINUOUS
10
6.5981126377952757
20
-5.6901650393700782
11
6.5857278740157481
21
-5.6819974803149602
0
LINE
8
BLACK
6
CONTINUOUS
10
6.5857278740157481
20
-5.6819974803149602
11
6.5739832677165353
21
-5.6729334645669294
0
LINE
8
BLACK
6
CONTINUOUS
10
6.5739832677165353
20
-5.6729334645669294
11
6.5629435826771649
21
-5.6630230314960626
0
LINE
8
BLACK
6
CONTINUOUS
10
6.5629435826771649
20
-5.6630230314960626
11
6.5526790944881892
21
-5.6523305511811026
0
LINE
8
BLACK
6
CONTINUOUS
10
6.5526790944881892
20
-5.6523305511811026
11
6.5526690551181099
21
-5.6523212992125984
0
LINE
8
BLACK
6
CONTINUOUS
10
6.5526690551181099
20
-5.6523212992125984
11
5.4895370866141731
21
-4.4592123228346452
0
LINE
8
BLACK
6
CONTINUOUS
10
5.4895370866141731
20
-4.4592123228346452
11
5.4895281889763776
21
-4.4592001181102363
0
LINE
8
BLACK
6
CONTINUOUS
10
5.4895281889763776
20
-4.4592001181102363
11
5.4841003149606298
21
-4.4531117322834648
0
LINE
8
BLACK
6
CONTINUOUS
10
5.4841003149606298
20
-4.4531117322834648
11
5.4722392125984252
21
-4.4418679921259843
0
LINE
8
BLACK
6
CONTINUOUS
10
5.4722392125984252
20
-4.4418679921259843
11
5.4594741732283465
21
-4.4316620866141729
0
LINE
8
BLACK
6
CONTINUOUS
10
5.4594741732283465
20
-4.4316620866141729
11
5.4458956692913381
21
-4.4225664173228347
0
LINE
8
BLACK
6
CONTINUOUS
10
5.4458956692913381
20
-4.4225664173228347
11
5.4315999999999995
21
-4.4146454330708664
0
LINE
8
BLACK
6
CONTINUOUS
10
5.4315999999999995
20
-4.4146454330708664
11
5.4166886220472437
21
-4.4079553543307082
0
LINE
8
BLACK
6
CONTINUOUS
10
5.4166886220472437
20
-4.4079553543307082
11
5.4012672047244097
21
-4.4025435826771648
0
LINE
8
BLACK
6
CONTINUOUS
10
5.4012672047244097
20
-4.4025435826771648
11
5.3854451181102361
21
-4.3984485433070866
0
LINE
8
BLACK
6
CONTINUOUS
10
5.3854451181102361
20
-4.3984485433070866
11
5.3693346456692916
21
-4.3956992519685034
0
LINE
8
BLACK
6
CONTINUOUS
10
5.3693346456692916
20
-4.3956992519685034
11
5.3530499212598421
21
-4.3943152362204723
0
LINE
8
BLACK
6
CONTINUOUS
10
5.3530499212598421
20
-4.3943152362204723
11
5.3448782283464569
21
-4.3943088582677161
0
LINE
8
BLACK
6
CONTINUOUS
10
5.3448782283464569
20
-4.3943088582677161
11
5.3448782283464569
21
-4.3943088188976374
0
LINE
8
BLACK
6
CONTINUOUS
10
5.3448782283464569
20
-4.3943088188976374
11
4.231348070866142
21
-4.3937008267716537
0
LINE
8
BLACK
6
CONTINUOUS
10
4.231348070866142
20
-4.3937008267716537
11
4.2312950787401578
21
-4.3936955511811027
0
LINE
8
BLACK
6
CONTINUOUS
10
4.2312950787401578
20
-4.3936955511811027
11
4.2312422047244089
21
-4.393700787401575
0
LINE
8
BLACK
6
CONTINUOUS
10
4.2312422047244089
20
-4.393700787401575
11
4.2000000000000002
21
-4.393700787401575
0
LINE
8
BLACK
6
CONTINUOUS
10
4.2000000000000002
20
-4.393700787401575
11
3.6801181102362204
21
-4.393700787401575
0
LINE
8
BLACK
6
CONTINUOUS
10
3.6801181102362204
20
-4.393700787401575
11
3.6636185039370077
21
-4.3930183464566932
0
LINE
8
BLACK
6
CONTINUOUS
10
3.6636185039370077
20
-4.3930183464566932
11
3.6472315748031496
21
-4.3909757480314964
0
LINE
8
BLACK
6
CONTINUOUS
10
3.6472315748031496
20
-4.3909757480314964
11
3.6310693307086614
21
-4.387586850393701
0
LINE
8
BLACK
6
CONTINUOUS
10
3.6310693307086614
20
-4.387586850393701
11
3.6152421259842518
21
-4.3828749212598428
0
LINE
8
BLACK
6
CONTINUOUS
10
3.6152421259842518
20
-4.3828749212598428
11
3.5998581102362204
21
-4.3768720472440945
0
LINE
8
BLACK
6
CONTINUOUS
10
3.5998581102362204
20
-4.3768720472440945
11
3.5850223228346456
21
-4.369619251968504
0
LINE
8
BLACK
6
CONTINUOUS
10
3.5850223228346456
20
-4.369619251968504
11
3.5708361417322836
21
-4.3611661417322836
0
LINE
8
BLACK
6
CONTINUOUS
10
3.5708361417322836
20
-4.3611661417322836
11
3.5573964566929135
21
-4.3515703937007872
0
LINE
8
BLACK
6
CONTINUOUS
10
3.5573964566929135
20
-4.3515703937007872
11
3.544795118110236
21
-4.3408975984251965
0
LINE
8
BLACK
6
CONTINUOUS
10
3.544795118110236
20
-4.3408975984251965
11
3.5331181496062993
21
-4.3292206299212594
0
LINE
8
BLACK
6
CONTINUOUS
10
3.5331181496062993
20
-4.3292206299212594
11
3.5224453543307086
21
-4.3166192913385828
0
LINE
8
BLACK
6
CONTINUOUS
10
3.5224453543307086
20
-4.3166192913385828
11
3.5128496062992127
21
-4.3031796062992127
0
LINE
8
BLACK
6
CONTINUOUS
10
3.5128496062992127
20
-4.3031796062992127
11
3.5043964960629919
21
-4.2889934251968507
0
LINE
8
BLACK
6
CONTINUOUS
10
3.5043964960629919
20
-4.2889934251968507
11
3.4971437007874013
21
-4.2741576377952759
0
LINE
8
BLACK
6
CONTINUOUS
10
3.4971437007874013
20
-4.2741576377952759
11
3.4911408267716535
21
-4.2587736220472436
0
LINE
8
BLACK
6
CONTINUOUS
10
3.4911408267716535
20
-4.2587736220472436
11
3.4864288976377953
21
-4.2429464173228348
0
LINE
8
BLACK
6
CONTINUOUS
10
3.4864288976377953
20
-4.2429464173228348
11
3.4830399999999999
21
-4.2267841732283467
0
LINE
8
BLACK
6
CONTINUOUS
10
3.4830399999999999
20
-4.2267841732283467
11
3.4809974015748031
21
-4.2103972440944881
0
LINE
8
BLACK
6
CONTINUOUS
10
3.4809974015748031
20
-4.2103972440944881
11
3.4803149606299213
21
-4.1938976377952759
0
LINE
8
BLACK
6
CONTINUOUS
10
3.4803149606299213
20
-4.1938976377952759
11
3.4803149606299213
21
-2.1840551181102361
0
LINE
8
BLACK
6
CONTINUOUS
10
3.4803149606299213
20
-2.1840551181102361
11
3.4809974015748031
21
-2.1675555118110235
0
LINE
8
BLACK
6
CONTINUOUS
10
3.4809974015748031
20
-2.1675555118110235
11
3.4830399999999999
21
-2.1511685826771654
0
LINE
8
BLACK
6
CONTINUOUS
10
3.4830399999999999
20
-2.1511685826771654
11
3.4864288976377953
21
-2.1350063385826772
0
LINE
8
BLACK
6
CONTINUOUS
10
3.4864288976377953
20
-2.1350063385826772
11
3.4911408267716535
21
-2.1191791338582675
0
LINE
8
BLACK
6
CONTINUOUS
10
3.4911408267716535
20
-2.1191791338582675
11
3.4971437007874013
21
-2.1037951181102361
0
LINE
8
BLACK
6
CONTINUOUS
10
3.4971437007874013
20
-2.1037951181102361
11
3.5043964960629919
21
-2.0889593307086614
0
LINE
8
BLACK
6
CONTINUOUS
10
3.5043964960629919
20
-2.0889593307086614
11
3.5128496062992127
21
-2.0747731496062993
0
LINE
8
BLACK
6
CONTINUOUS
10
3.5128496062992127
20
-2.0747731496062993
11
3.5224453543307086
21
-2.0613334645669292
0
LINE
8
BLACK
6
CONTINUOUS
10
3.5224453543307086
20
-2.0613334645669292
11
3.5331181496062993
21
-2.0487321259842521
0
LINE
8
BLACK
6
CONTINUOUS
10
3.5331181496062993
20
-2.0487321259842521
11
3.544795118110236
21
-2.0370551574803151
0
LINE
8
BLACK
6
CONTINUOUS
10
3.544795118110236
20
-2.0370551574803151
11
3.5573964566929135
21
-2.0263823622047243
0
LINE
8
BLACK
6
CONTINUOUS
10
3.5573964566929135
20
-2.0263823622047243
11
3.5708361417322836
21
-2.0167866141732285
0
LINE
8
BLACK
6
CONTINUOUS
10
3.5708361417322836
20
-2.0167866141732285
11
3.5850223228346456
21
-2.008333503937008
0
LINE
8
BLACK
6
CONTINUOUS
10
3.5850223228346456
20
-2.008333503937008
11
3.5998581102362204
21
-2.0010807086614171
0
LINE
8
BLACK
6
CONTINUOUS
10
3.5998581102362204
20
-2.0010807086614171
11
3.6152421259842518
21
-1.9950778346456692
0
LINE
8
BLACK
6
CONTINUOUS
10
3.6152421259842518
20
-1.9950778346456692
11
3.6310693307086614
21
-1.990365905511811
0
LINE
8
BLACK
6
CONTINUOUS
10
3.6310693307086614
20
-1.990365905511811
11
3.6472315748031496
21
-1.9869770078740157
0
LINE
8
BLACK
6
CONTINUOUS
10
3.6472315748031496
20
-1.9869770078740157
11
3.6636185039370077
21
-1.9849344094488188
0
LINE
8
BLACK
6
CONTINUOUS
10
3.6636185039370077
20
-1.9849344094488188
11
3.6801181102362204
21
-1.984251968503937
0
LINE
8
BLACK
6
CONTINUOUS
10
3.6801181102362204
20
-1.984251968503937
11
4.199354803149606
21
-1.984251968503937
0
LINE
8
BLACK
6
CONTINUOUS
10
4.199354803149606
20
-1.984251968503937
11
4.199357992125984
21
-1.9842522440944881
0
LINE
8
BLACK
6
CONTINUOUS
10
4.199357992125984
20
-1.9842522440944881
11
4.205595590551181
21
-1.9842515354330708
0
LINE
8
BLACK
6
CONTINUOUS
10
4.205595590551181
20
-1.9842515354330708
11
4.2180513779527562
21
-1.9834488582677166
0
LINE
8
BLACK
6
CONTINUOUS
10
4.2180513779527562
20
-1.9834488582677166
11
4.2304297244094489
21
-1.9818468503937008
0
LINE
8
BLACK
6
CONTINUOUS
10
4.2304297244094489
20
-1.9818468503937008
11
4.2426794488188975
21
-1.9794521259842519
0
LINE
8
BLACK
6
CONTINUOUS
10
4.2426794488188975
20
-1.9794521259842519
11
4.2547498425196846
21
-1.9762746456692912
0
LINE
8
BLACK
6
CONTINUOUS
10
4.2547498425196846
20
-1.9762746456692912
11
4.2606705905511806
21
-1.9743017322834646
0
LINE
8
BLACK
6
CONTINUOUS
10
4.2606705905511806
20
-1.9743017322834646
11
4.2606705905511806
21
-1.9743017716535434
0
LINE
8
BLACK
6
CONTINUOUS
10
4.2606705905511806
20
-1.9743017716535434
11
4.2606706299212593
21
-1.9743017322834646
0
LINE
8
BLACK
6
CONTINUOUS
10
4.2606706299212593
20
-1.9743017322834646
11
5.6961232283464565
21
-1.4958175590551182
0
LINE
8
BLACK
6
CONTINUOUS
10
5.6961232283464565
20
-1.4958175590551182
11
5.6961232677165352
21
-1.4958175590551182
0
LINE
8
BLACK
6
CONTINUOUS
10
5.6961232677165352
20
-1.4958175590551182
11
5.7084431496062988
21
-1.492146653543307
0
LINE
8
BLACK
6
CONTINUOUS
10
5.7084431496062988
20
-1.492146653543307
11
5.7209736220472438
21
-1.489275590551181
0
LINE
8
BLACK
6
CONTINUOUS
10
5.7209736220472438
20
-1.489275590551181
11
5.7336627559055113
21
-1.4872162992125983
0
LINE
8
BLACK
6
CONTINUOUS
10
5.7336627559055113
20
-1.4872162992125983
11
5.7464581102362207
21
-1.4859772834645668
0
LINE
8
BLACK
6
CONTINUOUS
10
5.7464581102362207
20
-1.4859772834645668
11
5.7593066141732283
21
-1.4855637007874016
0
LINE
8
BLACK
6
CONTINUOUS
10
5.7593066141732283
20
-1.4855637007874016
11
5.7593066141732283
21
-1.4855642913385827
0
LINE
8
BLACK
6
CONTINUOUS
10
5.7530658267716532
20
-1.4914699606299213
11
5.740610039370079
21
-1.4922726771653543
0
LINE
8
BLACK
6
CONTINUOUS
10
5.740610039370079
20
-1.4922726771653543
11
5.7282316535433067
21
-1.4938747244094488
0
LINE
8
BLACK
6
CONTINUOUS
10
5.7282316535433067
20
-1.4938747244094488
11
5.7159819291338581
21
-1.4962694881889764
0
LINE
8
BLACK
6
CONTINUOUS
10
5.7159819291338581
20
-1.4962694881889764
11
5.7039115748031497
21
-1.4994470866141731
0
LINE
8
BLACK
6
CONTINUOUS
10
5.7039115748031497
20
-1.4994470866141731
11
5.6979908267716537
21
-1.50142
0
LINE
8
BLACK
6
CONTINUOUS
10
5.6979908267716537
20
-1.50142
11
5.6979907480314962
21
-1.50142
0
LINE
8
BLACK
6
CONTINUOUS
10
5.6979907480314962
20
-1.50142
11
4.2625381496062991
21
-1.9799041732283464
0
LINE
8
BLACK
6
CONTINUOUS
10
4.2625381496062991
20
-1.9799041732283464
11
4.2625381496062991
21
-1.9799042125984252
0
LINE
8
BLACK
6
CONTINUOUS
10
4.2625381496062991
20
-1.9799042125984252
11
4.2502182283464567
21
-1.9835750393700786
0
LINE
8
BLACK
6
CONTINUOUS
10
4.2502182283464567
20
-1.9835750393700786
11
4.2376877559055117
21
-1.9864459842519684
0
LINE
8
BLACK
6
CONTINUOUS
10
4.2376877559055117
20
-1.9864459842519684
11
4.2249986220472442
21
-1.9885052362204725
0
LINE
8
BLACK
6
CONTINUOUS
10
4.2249986220472442
20
-1.9885052362204725
11
4.2122033070866145
21
-1.989744212598425
0
LINE
8
BLACK
6
CONTINUOUS
10
4.2122033070866145
20
-1.989744212598425
11
4.199354803149606
21
-1.9901577952755904
0
LINE
8
BLACK
6
CONTINUOUS
10
4.199354803149606
20
-1.9901577952755904
11
4.199354803149606
21
-1.9901574803149606
0
LINE
8
BLACK
6
CONTINUOUS
10
4.199354803149606
20
-1.9901574803149606
11
3.6801181102362204
21
-1.9901574803149606
0
LINE
8
BLACK
6
CONTINUOUS
10
3.6801181102362204
20
-1.9901574803149606
11
3.6716523622047244
21
-1.9901574803149606
0
LINE
8
BLACK
6
CONTINUOUS
10
3.6716523622047244
20
-1.9901574803149606
11
3.6547852755905512
21
-1.9916331496062991
0
LINE
8
BLACK
6
CONTINUOUS
10
3.6547852755905512
20
-1.9916331496062991
11
3.6381109842519685
21
-1.9945732677165353
0
LINE
8
BLACK
6
CONTINUOUS
10
3.6381109842519685
20
-1.9945732677165353
11
3.6217564173228345
21
-1.9989554724409448
0
LINE
8
BLACK
6
CONTINUOUS
10
3.6217564173228345
20
-1.9989554724409448
11
3.6058460236220471
21
-2.0047463779527557
0
LINE
8
BLACK
6
CONTINUOUS
10
3.6058460236220471
20
-2.0047463779527557
11
3.5905008661417321
21
-2.011901968503937
0
LINE
8
BLACK
6
CONTINUOUS
10
3.5905008661417321
20
-2.011901968503937
11
3.5758377165354331
21
-2.020367716535433
0
LINE
8
BLACK
6
CONTINUOUS
10
3.5758377165354331
20
-2.020367716535433
11
3.5619682677165354
21
-2.0300792125984253
0
LINE
8
BLACK
6
CONTINUOUS
10
3.5619682677165354
20
-2.0300792125984253
11
3.5489979527559052
21
-2.0409625984251969
0
LINE
8
BLACK
6
CONTINUOUS
10
3.5489979527559052
20
-2.0409625984251969
11
3.5370255905511812
21
-2.0529349606299214
0
LINE
8
BLACK
6
CONTINUOUS
10
3.5370255905511812
20
-2.0529349606299214
11
3.5261422047244095
21
-2.0659052755905511
0
LINE
8
BLACK
6
CONTINUOUS
10
3.5261422047244095
20
-2.0659052755905511
11
3.5164307086614173
21
-2.0797747244094489
0
LINE
8
BLACK
6
CONTINUOUS
10
3.5164307086614173
20
-2.0797747244094489
11
3.5079649606299212
21
-2.0944378740157479
0
LINE
8
BLACK
6
CONTINUOUS
10
3.5079649606299212
20
-2.0944378740157479
11
3.5008093700787399
21
-2.1097830314960628
0
LINE
8
BLACK
6
CONTINUOUS
10
3.5008093700787399
20
-2.1097830314960628
11
3.4950184645669289
21
-2.1256934251968502
0
LINE
8
BLACK
6
CONTINUOUS
10
3.4950184645669289
20
-2.1256934251968502
11
3.4906362598425198
21
-2.1420479921259843
0
LINE
8
BLACK
6
CONTINUOUS
10
3.4906362598425198
20
-2.1420479921259843
11
3.4876961417322834
21
-2.158722283464567
0
LINE
8
BLACK
6
CONTINUOUS
10
3.4876961417322834
20
-2.158722283464567
11
3.4862204724409449
21
-2.1755893700787401
0
LINE
8
BLACK
6
CONTINUOUS
10
3.4862204724409449
20
-2.1755893700787401
11
3.4862204724409449
21
-2.1840551181102361
0
LINE
8
BLACK
6
CONTINUOUS
10
3.4862204724409449
20
-2.1840551181102361
11
3.4862204724409449
21
-4.1938976377952759
0
LINE
8
BLACK
6
CONTINUOUS
10
3.4862204724409449
20
-4.1938976377952759
11
3.4862204724409449
21
-4.2023633858267715
0
LINE
8
BLACK
6
CONTINUOUS
10
3.4862204724409449
20
-4.2023633858267715
11
3.4876961417322834
21
-4.2192304724409446
0
LINE
8
BLACK
6
CONTINUOUS
10
3.4876961417322834
20
-4.2192304724409446
11
3.4906362598425198
21
-4.2359047637795273
0
LINE
8
BLACK
6
CONTINUOUS
10
3.4906362598425198
20
-4.2359047637795273
11
3.4950184645669289
21
-4.2522593307086609
0
LINE
8
BLACK
6
CONTINUOUS
10
3.4950184645669289
20
-4.2522593307086609
11
3.5008093700787399
21
-4.2681697244094483
0
LINE
8
BLACK
6
CONTINUOUS
10
3.5008093700787399
20
-4.2681697244094483
11
3.5079649606299212
21
-4.2835148818897633
0
LINE
8
BLACK
6
CONTINUOUS
10
3.5079649606299212
20
-4.2835148818897633
11
3.5164307086614173
21
-4.2981780314960627
0
LINE
8
BLACK
6
CONTINUOUS
10
3.5164307086614173
20
-4.2981780314960627
11
3.5261422047244095
21
-4.3120474803149609
0
LINE
8
BLACK
6
CONTINUOUS
10
3.5261422047244095
20
-4.3120474803149609
11
3.5370255905511812
21
-4.3250177952755902
0
LINE
8
BLACK
6
CONTINUOUS
10
3.5370255905511812
20
-4.3250177952755902
11
3.5489979527559052
21
-4.3369901574803151
0
LINE
8
BLACK
6
CONTINUOUS
10
3.5489979527559052
20
-4.3369901574803151
11
3.5619682677165354
21
-4.3478735433070863
0
LINE
8
BLACK
6
CONTINUOUS
10
3.5619682677165354
20
-4.3478735433070863
11
3.5758377165354331
21
-4.357585039370079
0
LINE
8
BLACK
6
CONTINUOUS
10
3.5758377165354331
20
-4.357585039370079
11
3.5905008661417321
21
-4.3660507874015746
0
LINE
8
BLACK
6
CONTINUOUS
10
3.5905008661417321
20
-4.3660507874015746
11
3.6058460236220471
21
-4.3732063779527559
0
LINE
8
BLACK
6
CONTINUOUS
10
3.6058460236220471
20
-4.3732063779527559
11
3.6217564173228345
21
-4.3789972834645665
0
LINE
8
BLACK
6
CONTINUOUS
10
3.6217564173228345
20
-4.3789972834645665
11
3.6381109842519685
21
-4.383379488188976
0
LINE
8
BLACK
6
CONTINUOUS
10
3.6381109842519685
20
-4.383379488188976
11
3.6547852755905512
21
-4.3863196062992129
0
LINE
8
BLACK
6
CONTINUOUS
10
3.6547852755905512
20
-4.3863196062992129
11
3.6716523622047244
21
-4.3877952755905509
0
LINE
8
BLACK
6
CONTINUOUS
10
3.6716523622047244
20
-4.3877952755905509
11
3.6801181102362204
21
-4.3877952755905509
0
LINE
8
BLACK
6
CONTINUOUS
10
3.6801181102362204
20
-4.3877952755905509
11
4.2000000000000002
21
-4.3877952755905509
0
LINE
8
BLACK
6
CONTINUOUS
10
4.2000000000000002
20
-4.3877952755905509
11
4.2312422047244089
21
-4.3877952755905509
0
LINE
8
BLACK
6
CONTINUOUS
10
4.2312422047244089
20
-4.3877952755905509
11
4.2312967716535432
21
-4.3878006299212595
0
LINE
8
BLACK
6
CONTINUOUS
10
4.2312967716535432
20
-4.3878006299212595
11
4.2313512992125979
21
-4.3877953149606297
0
LINE
8
BLACK
6
CONTINUOUS
10
4.2313512992125979
20
-4.3877953149606297
11
5.3448814566929137
21
-4.3884033070866142
0
LINE
8
BLACK
6
CONTINUOUS
10
5.3448814566929137
20
-4.3884033070866142
11
5.3448821259842516
21
-4.3884033464566929
0
LINE
8
BLACK
6
CONTINUOUS
10
5.3448821259842516
20
-4.3884033464566929
11
5.3616925590551183
21
-4.3891210629921256
0
LINE
8
BLACK
6
CONTINUOUS
10
5.3616925590551183
20
-4.3891210629921256
11
5.3783836220472443
21
-4.391250708661417
0
LINE
8
BLACK
6
CONTINUOUS
10
5.3783836220472443
20
-4.391250708661417
11
5.3948363385826772
21
-4.3947771259842519
0
LINE
8
BLACK
6
CONTINUOUS
10
5.3948363385826772
20
-4.3947771259842519
11
5.4109340157480315
21
-4.399675354330709
0
LINE
8
BLACK
6
CONTINUOUS
10
5.4109340157480315
20
-4.399675354330709
11
5.4265624803149608
21
-4.4059106299212596
0
LINE
8
BLACK
6
CONTINUOUS
10
5.4265624803149608
20
-4.4059106299212596
11
5.4416109055118111
21
-4.4134387007874016
0
LINE
8
BLACK
6
CONTINUOUS
10
5.4416109055118111
20
-4.4134387007874016
11
5.4559725590551178
21
-4.42220625984252
0
LINE
8
BLACK
6
CONTINUOUS
10
5.4559725590551178
20
-4.42220625984252
11
5.4695456299212601
21
-4.4321510629921255
0
LINE
8
BLACK
6
CONTINUOUS
10
5.4695456299212601
20
-4.4321510629921255
11
5.4822338582677164
21
-4.4432025984251968
0
LINE
8
BLACK
6
CONTINUOUS
10
5.4822338582677164
20
-4.4432025984251968
11
5.4939472440944881
21
-4.4552825196850394
0
LINE
8
BLACK
6
CONTINUOUS
10
5.4939472440944881
20
-4.4552825196850394
11
5.4939461023622043
21
-4.4552835433070861
0
LINE
8
BLACK
6
CONTINUOUS
10
5.4939461023622043
20
-4.4552835433070861
11
5.493946141732283
21
-4.4552835826771648
0
LINE
8
BLACK
6
CONTINUOUS
10
5.493946141732283
20
-4.4552835826771648
11
6.5570780708661411
21
-5.6483924803149606
0
LINE
8
BLACK
6
CONTINUOUS
10
6.5570780708661411
20
-5.6483924803149606
11
6.5570781889763774
21
-5.6483925590551181
0
LINE
8
BLACK
6
CONTINUOUS
10
6.5570781889763774
20
-5.6483925590551181
11
6.5570787795275587
21
-5.6483920472440943
0
LINE
8
BLACK
6
CONTINUOUS
10
6.5570787795275587
20
-5.6483920472440943
11
6.5624700000000002
21
-5.6544438582677161
0
LINE
8
BLACK
6
CONTINUOUS
10
6.5624700000000002
20
-5.6544438582677161
11
6.5742261811023619
21
-5.6656041338582677
0
LINE
8
BLACK
6
CONTINUOUS
10
6.5742261811023619
20
-5.6656041338582677
11
6.5868727165354333
21
-5.67574437007874
0
LINE
8
BLACK
6
CONTINUOUS
10
6.5868727165354333
20
-5.67574437007874
11
6.6003214173228342
21
-5.6847937795275589
0
LINE
8
BLACK
6
CONTINUOUS
10
6.6003214173228342
20
-5.6847937795275589
11
6.6144784251968503
21
-5.6926892913385823
0
LINE
8
BLACK
6
CONTINUOUS
10
6.6144784251968503
20
-5.6926892913385823
11
6.6292449212598425
21
-5.6993757480314962
0
LINE
8
BLACK
6
CONTINUOUS
10
6.6292449212598425
20
-5.6993757480314962
11
6.6445179527559057
21
-5.7048065748031496
0
LINE
8
BLACK
6
CONTINUOUS
10
6.6445179527559057
20
-5.7048065748031496
11
6.6601909448818892
21
-5.7089438188976374
0
LINE
8
BLACK
6
CONTINUOUS
10
6.6601909448818892
20
-5.7089438188976374
11
6.6681729133858267
21
-5.7103503543307088
0
LINE
8
BLACK
6
CONTINUOUS
10
6.6681729133858267
20
-5.7103503543307088
11
7.4842337795275586
21
-5.8542438976377955
0
LINE
8
BLACK
6
CONTINUOUS
10
7.4842337795275586
20
-5.8542438976377955
11
7.4842342125984249
21
-5.8542440157480318
0
LINE
8
BLACK
6
CONTINUOUS
10
7.4842342125984249
20
-5.8542440157480318
11
7.4911863779527561
21
-5.8555973622047244
0
LINE
8
BLACK
6
CONTINUOUS
10
7.4911863779527561
20
-5.8555973622047244
11
7.4980866141732285
21
-5.8571962992125979
0
LINE
8
BLACK
6
CONTINUOUS
10
7.4980866141732285
20
-5.8571962992125979
11
7.5049258661417317
21
-5.8590387795275589
0
LINE
8
BLACK
6
CONTINUOUS
10
7.5049258661417317
20
-5.8590387795275589
11
7.5049258661417317
21
-5.8590388582677164
0
LINE
8
BLACK
6
CONTINUOUS
10
7.5049258661417317
20
-5.8590388582677164
11
7.5049259055118105
21
-5.8590388976377952
0
LINE
8
BLACK
6
CONTINUOUS
10
7.5049259055118105
20
-5.8590388976377952
11
8.174004094488188
21
-6.0520800787401576
0
LINE
8
BLACK
6
CONTINUOUS
10
8.174004094488188
20
-6.0520800787401576
11
8.1740041338582667
21
-6.0520799212598426
0
LINE
8
BLACK
6
CONTINUOUS
10
8.1740041338582667
20
-6.0520799212598426
11
8.18065094488189
21
-6.0539978740157476
0
LINE
8
BLACK
6
CONTINUOUS
10
8.18065094488189
20
-6.0539978740157476
11
8.1941842913385816
21
-6.0568762204724411
0
LINE
8
BLACK
6
CONTINUOUS
10
8.1941842913385816
20
-6.0568762204724411
11
8.2078882677165357
21
-6.0587828740157477
0
LINE
8
BLACK
6
CONTINUOUS
10
8.2078882677165357
20
-6.0587828740157477
11
8.2147908267716527
21
-6.0592452362204723
0
LINE
8
BLACK
6
CONTINUOUS
10
8.2147908267716527
20
-6.0592452362204723
11
8.8850983858267707
21
-6.1041620472440945
0
LINE
8
BLACK
6
CONTINUOUS
10
8.8850983858267707
20
-6.1041620472440945
11
8.8851015748031497
21
-6.1041625590551183
0
LINE
8
BLACK
6
CONTINUOUS
10
8.8851015748031497
20
-6.1041625590551183
11
8.8933933464566923
21
-6.1047195669291341
0
LINE
8
BLACK
6
CONTINUOUS
10
8.8933933464566923
20
-6.1047195669291341
11
8.910017795275591
21
-6.1044068897637791
0
LINE
8
BLACK
6
CONTINUOUS
10
8.910017795275591
20
-6.1044068897637791
11
8.9265544881889767
21
-6.1026724015748028
0
LINE
8
BLACK
6
CONTINUOUS
10
8.9265544881889767
20
-6.1026724015748028
11
8.942882047244094
21
-6.0995288582677167
0
LINE
8
BLACK
6
CONTINUOUS
10
8.942882047244094
20
-6.0995288582677167
11
8.9588805905511801
21
-6.094999330708661
0
LINE
8
BLACK
6
CONTINUOUS
10
8.9588805905511801
20
-6.094999330708661
11
8.9744327559055108
21
-6.0891170472440947
0
LINE
8
BLACK
6
CONTINUOUS
10
8.9744327559055108
20
-6.0891170472440947
11
8.9894243307086619
21
-6.0819251968503938
0
LINE
8
BLACK
6
CONTINUOUS
10
8.9894243307086619
20
-6.0819251968503938
11
9.0037453543307091
21
-6.0734765748031494
0
LINE
8
BLACK
6
CONTINUOUS
10
9.0037453543307091
20
-6.0734765748031494
11
9.0172906299212592
21
-6.0638331889763775
0
LINE
8
BLACK
6
CONTINUOUS
10
9.0172906299212592
20
-6.0638331889763775
11
9.0299608267716529
21
-6.0530657874015743
0
LINE
8
BLACK
6
CONTINUOUS
10
9.0299608267716529
20
-6.0530657874015743
11
9.0416629133858262
21
-6.0412534251968504
0
LINE
8
BLACK
6
CONTINUOUS
10
9.0416629133858262
20
-6.0412534251968504
11
9.0523109842519691
21
-6.0284827952755906
0
LINE
8
BLACK
6
CONTINUOUS
10
9.0523109842519691
20
-6.0284827952755906
11
9.0618269291338578
21
-6.0148476377952758
0
LINE
8
BLACK
6
CONTINUOUS
10
9.0618269291338578
20
-6.0148476377952758
11
9.0659825590551186
21
-6.0076470472440944
0
LINE
8
BLACK
6
CONTINUOUS
10
9.0659825590551186
20
-6.0076470472440944
11
9.3890012598425194
21
-5.4481622440944877
0
LINE
8
BLACK
6
CONTINUOUS
10
9.3890012598425194
20
-5.4481622440944877
11
9.3890001968503931
21
-5.4481616535433073
0
LINE
8
BLACK
6
CONTINUOUS
10
9.3890001968503931
20
-5.4481616535433073
11
9.3929714566929139
21
-5.4412808267716537
0
LINE
8
BLACK
6
CONTINUOUS
10
9.3929714566929139
20
-5.4412808267716537
11
9.3997636614173228
21
-5.4269165748031494
0
LINE
8
BLACK
6
CONTINUOUS
10
9.3997636614173228
20
-5.4269165748031494
11
9.4053579527559048
21
-5.4120448031496062
0
LINE
8
BLACK
6
CONTINUOUS
10
9.4053579527559048
20
-5.4120448031496062
11
9.4097168897637786
21
-5.3967652362204719
0
LINE
8
BLACK
6
CONTINUOUS
10
9.4097168897637786
20
-5.3967652362204719
11
9.4128111811023611
21
-5.3811802755905509
0
LINE
8
BLACK
6
CONTINUOUS
10
9.4128111811023611
20
-5.3811802755905509
11
9.4146201181102356
21
-5.3653944094488191
0
LINE
8
BLACK
6
CONTINUOUS
10
9.4146201181102356
20
-5.3653944094488191
11
9.4151315748031497
21
-5.3495135039370076
0
LINE
8
BLACK
6
CONTINUOUS
10
9.4151315748031497
20
-5.3495135039370076
11
9.4143421259842519
21
-5.3336439370078743
0
LINE
8
BLACK
6
CONTINUOUS
10
9.4143421259842519
20
-5.3336439370078743
11
9.4122570472440934
21
-5.3178922047244095
0
LINE
8
BLACK
6
CONTINUOUS
10
9.4122570472440934
20
-5.3178922047244095
11
9.4088903149606296
21
-5.3023638188976374
0
LINE
8
BLACK
6
CONTINUOUS
10
9.4088903149606296
20
-5.3023638188976374
11
9.4042645275590555
21
-5.2871629133858269
0
LINE
8
BLACK
6
CONTINUOUS
10
9.4042645275590555
20
-5.2871629133858269
11
9.3984106299212602
21
-5.272391377952756
0
LINE
8
BLACK
6
CONTINUOUS
10
9.3984106299212602
20
-5.272391377952756
11
9.3913679527559051
21
-5.2581482677165354
0
LINE
8
BLACK
6
CONTINUOUS
10
9.3913679527559051
20
-5.2581482677165354
11
9.3831836614173234
21
-5.2445290551181101
0
LINE
8
BLACK
6
CONTINUOUS
10
9.3831836614173234
20
-5.2445290551181101
11
9.3739126377952751
21
-5.2316250393700789
0
LINE
8
BLACK
6
CONTINUOUS
10
9.3739126377952751
20
-5.2316250393700789
11
9.3687657480314961
21
-5.22557311023622
0
LINE
8
BLACK
6
CONTINUOUS
10
9.3687657480314961
20
-5.22557311023622
11
9.3687657874015748
21
-5.2255730708661412
0
LINE
8
BLACK
6
CONTINUOUS
10
9.3687657874015748
20
-5.2255730708661412
11
8.8527429921259841
21
-4.6190103937007869
0
LINE
8
BLACK
6
CONTINUOUS
10
8.8527429921259841
20
-4.6190103937007869
11
8.8527426377952754
21
-4.6190099212598428
0
LINE
8
BLACK
6
CONTINUOUS
10
8.8527426377952754
20
-4.6190099212598428
11
8.842238464566929
21
-4.605535433070866
0
LINE
8
BLACK
6
CONTINUOUS
10
8.842238464566929
20
-4.605535433070866
11
8.8329235433070856
21
-4.5912122440944882
0
LINE
8
BLACK
6
CONTINUOUS
10
8.8329235433070856
20
-4.5912122440944882
11
8.8248663779527554
21
-4.5761456299212595
0
LINE
8
BLACK
6
CONTINUOUS
10
8.8248663779527554
20
-4.5761456299212595
11
8.8181259055118115
21
-4.5604457874015747
0
LINE
8
BLACK
6
CONTINUOUS
10
8.8181259055118115
20
-4.5604457874015747
11
8.812751338582677
21
-4.544227401574803
0
LINE
8
BLACK
6
CONTINUOUS
10
8.812751338582677
20
-4.544227401574803
11
8.8087820472440939
21
-4.5276092125984251
0
LINE
8
BLACK
6
CONTINUOUS
10
8.8087820472440939
20
-4.5276092125984251
11
8.8062470472440939
21
-4.5107126377952751
0
LINE
8
BLACK
6
CONTINUOUS
10
8.8062470472440939
20
-4.5107126377952751
11
8.8051648818897643
21
-4.4936612598425194
0
LINE
8
BLACK
6
CONTINUOUS
10
8.8051648818897643
20
-4.4936612598425194
11
8.8055434251968503
21
-4.4765797637795277
0
LINE
8
BLACK
6
CONTINUOUS
10
8.8055434251968503
20
-4.4765797637795277
11
8.8073799606299215
21
-4.4595930708661413
0
LINE
8
BLACK
6
CONTINUOUS
10
8.8073799606299215
20
-4.4595930708661413
11
8.8106609842519674
21
-4.4428253937007876
0
LINE
8
BLACK
6
CONTINUOUS
10
8.8106609842519674
20
-4.4428253937007876
11
8.815362598425196
21
-4.4263993307086613
0
LINE
8
BLACK
6
CONTINUOUS
10
8.815362598425196
20
-4.4263993307086613
11
8.8214503543307092
21
-4.4104349999999997
0
LINE
8
BLACK
6
CONTINUOUS
10
8.8214503543307092
20
-4.4104349999999997
11
8.8288797637795273
21
-4.3950491338582678
0
LINE
8
BLACK
6
CONTINUOUS
10
8.8288797637795273
20
-4.3950491338582678
11
8.8375964960629911
21
-4.3803542519685035
0
LINE
8
BLACK
6
CONTINUOUS
10
8.8375964960629911
20
-4.3803542519685035
11
8.8375966929133849
21
-4.3803544094488185
0
LINE
8
BLACK
6
CONTINUOUS
10
8.8375966929133849
20
-4.3803544094488185
11
8.9625802362204716
21
-4.1888206692913386
0
LINE
8
BLACK
6
CONTINUOUS
10
8.9625802362204716
20
-4.1888206692913386
11
8.9625802755905504
21
-4.1888205905511811
0
LINE
8
BLACK
6
CONTINUOUS
10
8.9625802755905504
20
-4.1888205905511811
11
8.9625803149606291
21
-4.1888205905511811
0
LINE
8
BLACK
6
CONTINUOUS
10
8.9625803149606291
20
-4.1888205905511811
11
8.9625824409448818
21
-4.188817874015748
0
LINE
8
BLACK
6
CONTINUOUS
10
8.9625824409448818
20
-4.188817874015748
11
8.966959251968504
21
-4.1821111417322836
0
LINE
8
BLACK
6
CONTINUOUS
10
8.966959251968504
20
-4.1821111417322836
11
8.974578976377952
21
-4.1680148031496058
0
LINE
8
BLACK
6
CONTINUOUS
10
8.974578976377952
20
-4.1680148031496058
11
8.9810098425196845
21
-4.153337913385827
0
LINE
8
BLACK
6
CONTINUOUS
10
8.9810098425196845
20
-4.153337913385827
11
8.9862079527559047
21
-4.1381805118110231
0
LINE
8
BLACK
6
CONTINUOUS
10
8.9862079527559047
20
-4.1381805118110231
11
8.9901378740157476
21
-4.1226459055118108
0
LINE
8
BLACK
6
CONTINUOUS
10
8.9901378740157476
20
-4.1226459055118108
11
8.9927727952755898
21
-4.1068400787401576
0
LINE
8
BLACK
6
CONTINUOUS
10
8.9927727952755898
20
-4.1068400787401576
11
8.994094803149606
21
-4.0908707480314961
0
LINE
8
BLACK
6
CONTINUOUS
10
8.994094803149606
20
-4.0908707480314961
11
8.9940944881889759
21
-4.0828587795275588
0
LINE
8
BLACK
6
CONTINUOUS
10
8.9940944881889759
20
-4.0828587795275588
11
8.9940944881889759
21
-1.9347112992125983
0
LINE
8
BLACK
6
CONTINUOUS
10
8.9940944881889759
20
-1.9347112992125983
11
8.9940944881889759
21
-1.9347112598425196
0
LINE
8
BLACK
6
CONTINUOUS
10
8.9940944881889759
20
-1.9347112598425196
11
8.9940918503937013
21
-1.9347112598425196
0
LINE
8
BLACK
6
CONTINUOUS
10
8.9940918503937013
20
-1.9347112598425196
11
8.9940919685039376
21
-1.9262455511811023
0
LINE
8
BLACK
6
CONTINUOUS
10
8.9940919685039376
20
-1.9262455511811023
11
8.9926164960629915
21
-1.9093785433070867
0
LINE
8
BLACK
6
CONTINUOUS
10
8.9926164960629915
20
-1.9093785433070867
11
8.9896766141732289
21
-1.8927042913385825
0
LINE
8
BLACK
6
CONTINUOUS
10
8.9896766141732289
20
-1.8927042913385825
11
8.9852946062992132
21
-1.8763497637795274
0
LINE
8
BLACK
6
CONTINUOUS
10
8.9852946062992132
20
-1.8763497637795274
11
8.9795038976377946
21
-1.8604393700787401
0
LINE
8
BLACK
6
CONTINUOUS
10
8.9795038976377946
20
-1.8604393700787401
11
8.9723485039370079
21
-1.8450942125984251
0
LINE
8
BLACK
6
CONTINUOUS
10
8.9723485039370079
20
-1.8450942125984251
11
8.9638829133858273
21
-1.8304311023622046
0
LINE
8
BLACK
6
CONTINUOUS
10
8.9638829133858273
20
-1.8304311023622046
11
8.9541715748031496
21
-1.8165616141732284
0
LINE
8
BLACK
6
CONTINUOUS
10
8.9541715748031496
20
-1.8165616141732284
11
8.9432883464566935
21
-1.8035912992125984
0
LINE
8
BLACK
6
CONTINUOUS
10
8.9432883464566935
20
-1.8035912992125984
11
8.9313161023622047
21
-1.7916188976377951
0
LINE
8
BLACK
6
CONTINUOUS
10
8.9313161023622047
20
-1.7916188976377951
11
8.9183459448818887
21
-1.7807355118110235
0
LINE
8
BLACK
6
CONTINUOUS
10
8.9183459448818887
20
-1.7807355118110235
11
8.9044766141732286
21
-1.7710239763779527
0
LINE
8
BLACK
6
CONTINUOUS
10
8.9044766141732286
20
-1.7710239763779527
11
8.8898135826771654
21
-1.7625582283464567
0
LINE
8
BLACK
6
CONTINUOUS
10
8.8898135826771654
20
-1.7625582283464567
11
8.8744685433070867
21
-1.7554026377952756
0
LINE
8
BLACK
6
CONTINUOUS
10
8.8744685433070867
20
-1.7554026377952756
11
8.8585582283464568
21
-1.7496116929133858
0
LINE
8
BLACK
6
CONTINUOUS
10
8.8585582283464568
20
-1.7496116929133858
11
8.8422037401574798
21
-1.7452294881889763
0
LINE
8
BLACK
6
CONTINUOUS
10
8.8422037401574798
20
-1.7452294881889763
11
8.8255295669291343
21
-1.7422893307086613
0
LINE
8
BLACK
6
CONTINUOUS
10
8.8255295669291343
20
-1.7422893307086613
11
8.8086625590551186
21
-1.7408136614173229
0
LINE
8
BLACK
6
CONTINUOUS
10
8.8086625590551186
20
-1.7408136614173229
11
8.8001968503937
21
-1.7408136614173229
0
LINE
8
BLACK
6
CONTINUOUS
10
8.8001968503937
20
-1.7408136614173229
11
7.4148184251968505
21
-1.7408136614173229
0
LINE
8
BLACK
6
CONTINUOUS
10
7.4148184251968505
20
-1.7408136614173229
11
7.401969921259842
21
-1.7404001181102362
0
LINE
8
BLACK
6
CONTINUOUS
10
7.401969921259842
20
-1.7404001181102362
11
7.3891746456692911
21
-1.7391611811023622
0
LINE
8
BLACK
6
CONTINUOUS
10
7.3891746456692911
20
-1.7391611811023622
11
7.3764854724409448
21
-1.7371020472440943
0
LINE
8
BLACK
6
CONTINUOUS
10
7.3764854724409448
20
-1.7371020472440943
11
7.3639549999999998
21
-1.7342312598425196
0
LINE
8
BLACK
6
CONTINUOUS
10
7.3639549999999998
20
-1.7342312598425196
11
7.3516350787401574
21
-1.7305605905511812
0
LINE
8
BLACK
6
CONTINUOUS
10
7.3516350787401574
20
-1.7305605905511812
11
7.3516351181102362
21
-1.7305603937007874
0
LINE
8
BLACK
6
CONTINUOUS
10
7.3516351181102362
20
-1.7305603937007874
11
6.6642139370078741
21
-1.50142
0
LINE
8
BLACK
6
CONTINUOUS
10
6.6642139370078741
20
-1.50142
11
6.6642122834645665
21
-1.5014192519685039
0
LINE
8
BLACK
6
CONTINUOUS
10
6.6642122834645665
20
-1.5014192519685039
11
6.6582932283464569
21
-1.4994470472440944
0
LINE
8
BLACK
6
CONTINUOUS
10
6.6582932283464569
20
-1.4994470472440944
11
6.6462227952755901
21
-1.49626968503937
0
LINE
8
BLACK
6
CONTINUOUS
10
6.6462227952755901
20
-1.49626968503937
11
6.6339730708661415
21
-1.4938751181102361
0
LINE
8
BLACK
6
CONTINUOUS
10
6.6339730708661415
20
-1.4938751181102361
11
6.6215946850393701
21
-1.4922731889763778
0
LINE
8
BLACK
6
CONTINUOUS
10
6.6215946850393701
20
-1.4922731889763778
11
6.6091388976377949
21
-1.4914705511811024
0
LINE
8
BLACK
6
CONTINUOUS
10
6.6091388976377949
20
-1.4914705511811024
11
6.6028981102362208
21
-1.4914698031496063
0
LINE
8
BLACK
6
CONTINUOUS
10
6.6028981102362208
20
-1.4914698031496063
11
5.7593066141732283
21
-1.4914698031496063
0
LINE
8
BLACK
6
CONTINUOUS
10
5.7593066141732283
20
-1.4914698031496063
11
5.7593005905511809
21
-1.4914692125984252
0
LINE
8
BLACK
6
CONTINUOUS
10
5.7593005905511809
20
-1.4914692125984252
11
5.7530658267716532
21
-1.4914699606299213
0
CIRCLE
8
BLACK
10
6.1084307086614169
20
-2.887388149606299
40
0.0078740157480315
0
CIRCLE
8
BLACK
10
6.2541815748031491
20
-2.887388149606299
40
0.0078740157480315
0
CIRCLE
8
BLACK
10
3.864336220472441
20
-3.3860758267716533
40
0.0078740157480315
0
CIRCLE
8
BLACK
10
4.0100870866141731
20
-3.3860758267716533
40
0.0078740157480315
0
CIRCLE
8
BLACK
10
6.1084307086614169
20
-2.1393566535433068
40
0.0078740157480315
0
CIRCLE
8
BLACK
10
6.2541815748031491
20
-2.1393566535433068
40
0.0078740157480315
0
CIRCLE
8
BLACK
10
6.8564622047244095
20
-3.1367320078740155
40
0.0078740157480315
0
CIRCLE
8
BLACK
10
7.0022130708661416
20
-3.1367320078740155
40
0.0078740157480315
0
CIRCLE
8
BLACK
10
8.6796696850393698
20
-5.6298424409448815
40
0.0078740157480315
0
CIRCLE
8
BLACK
10
8.805893661417322
20
-5.7027178740157476
40
0.0078740157480315
0
CIRCLE
8
BLACK
10
6.1084307086614169
20
-3.6354196456692911
40
0.0078740157480315
0
CIRCLE
8
BLACK
10
6.2541815748031491
20
-3.6354196456692911
40
0.0078740157480315
0
CIRCLE
8
BLACK
10
7.7866098031496058
20
-5.6395710236220475
40
0.0078740157480315
0
CIRCLE
8
BLACK
10
7.9235708267716536
20
-5.6894207480314956
40
0.0078740157480315
0
CIRCLE
8
BLACK
10
6.8564622047244095
20
-2.3887005118110234
40
0.0078740157480315
0
CIRCLE
8
BLACK
10
7.0022130708661416
20
-2.3887005118110234
40
0.0078740157480315
0
CIRCLE
8
BLACK
10
7.0201906692913383
20
-5.5148191338582677
40
0.0078740157480315
0
CIRCLE
8
BLACK
10
7.1637272440944884
20
-5.5401285039370078
40
0.0078740157480315
0
CIRCLE
8
BLACK
10
7.1500849999999998
20
-4.7781518897637794
40
0.0078740157480315
0
CIRCLE
8
BLACK
10
7.2936215748031499
20
-4.8034612598425195
40
0.0078740157480315
0
CIRCLE
8
BLACK
10
8.0424516535433064
20
-4.9366513779527557
40
0.0078740157480315
0
CIRCLE
8
BLACK
10
8.1794126771653541
20
-4.9865011023622046
40
0.0078740157480315
0
CIRCLE
8
BLACK
10
4.6123677165354326
20
-3.3860758267716533
40
0.0078740157480315
0
CIRCLE
8
BLACK
10
4.7581185826771648
20
-3.3860758267716533
40
0.0078740157480315
0
CIRCLE
8
BLACK
10
7.6044937007874012
20
-3.8847635039370076
40
0.0078740157480315
0
CIRCLE
8
BLACK
10
7.7502445669291333
20
-3.8847635039370076
40
0.0078740157480315
0
CIRCLE
8
BLACK
10
5.3603992125984252
20
-3.1367320078740155
40
0.0078740157480315
0
CIRCLE
8
BLACK
10
5.5061500787401574
20
-3.1367320078740155
40
0.0078740157480315
0
CIRCLE
8
BLACK
10
4.6123677165354326
20
-4.1341073228346454
40
0.0078740157480315
0
CIRCLE
8
BLACK
10
4.7581185826771648
20
-4.1341073228346454
40
0.0078740157480315
0
CIRCLE
8
BLACK
10
3.864336220472441
20
-2.6380443307086612
40
0.0078740157480315
0
CIRCLE
8
BLACK
10
4.0100870866141731
20
-2.6380443307086612
40
0.0078740157480315
0
CIRCLE
8
BLACK
10
4.6123677165354326
20
-2.6380443307086612
40
0.0078740157480315
0
CIRCLE
8
BLACK
10
4.7581185826771648
20
-2.6380443307086612
40
0.0078740157480315
0
CIRCLE
8
BLACK
10
5.3603992125984252
20
-3.8847635039370076
40
0.0078740157480315
0
CIRCLE
8
BLACK
10
5.5061500787401574
20
-3.8847635039370076
40
0.0078740157480315
0
CIRCLE
8
BLACK
10
6.8564622047244095
20
-3.8847635039370076
40
0.0078740157480315
0
CIRCLE
8
BLACK
10
7.0022130708661416
20
-3.8847635039370076
40
0.0078740157480315
0
CIRCLE
8
BLACK
10
7.6044937007874012
20
-3.1367320078740155
40
0.0078740157480315
0
CIRCLE
8
BLACK
10
7.7502445669291333
20
-3.1367320078740155
40
0.0078740157480315
0
CIRCLE
8
BLACK
10
5.3603992125984252
20
-2.3887005118110234
40
0.0078740157480315
0
CIRCLE
8
BLACK
10
5.5061500787401574
20
-2.3887005118110234
40
0.0078740157480315
0
CIRCLE
8
BLACK
10
7.6044937007874012
20
-2.3887005118110234
40
0.0078740157480315
0
CIRCLE
8
BLACK
10
7.7502445669291333
20
-2.3887005118110234
40
0.0078740157480315
0
CIRCLE
8
BLACK
10
3.864336220472441
20
-4.1341073228346454
40
0.0078740157480315
0
CIRCLE
8
BLACK
10
4.0100870866141731
20
-4.1341073228346454
40
0.0078740157480315
0
CIRCLE
8
BLACK
10
7.4771653543307082
20
-3.6876640551181104
40
0.0335
0
CIRCLE
8
BLACK
10
7.6771653543307083
20
-3.6876640551181104
40
0.0785
0
CIRCLE
8
BLACK
10
7.8771653543307085
20
-3.6876640551181104
40
0.0335
0
CIRCLE
8
BLACK
10
7.734372283464567
20
-5.4108092913385821
40
0.0335
0
CIRCLE
8
BLACK
10
7.9223108267716533
20
-5.4792133070866145
40
0.0785
0
CIRCLE
8
BLACK
10
8.1102493700787406
20
-5.5476173228346459
40
0.0335
0
CIRCLE
8
BLACK
10
4.8155118110236224
20
-1.9199999999999999
40
0.0098425196850394
0
CIRCLE
8
BLACK
10
4.8431867716535431
20
-1.8531867716535433
40
0.0098425196850394
0
CIRCLE
8
BLACK
10
4.8431867716535431
20
-1.9868132283464566
40
0.0098425196850394
0
CIRCLE
8
BLACK
10
4.9100000000000001
20
-1.8255118110236219
40
0.0098425196850394
0
CIRCLE
8
BLACK
10
4.9100000000000001
20
-1.9199999999999999
40
0.062992125984252
0
CIRCLE
8
BLACK
10
4.9100000000000001
20
-2.0144881889763777
40
0.0098425196850394
0
CIRCLE
8
BLACK
10
4.9768132283464563
20
-1.8531867716535433
40
0.0098425196850394
0
CIRCLE
8
BLACK
10
4.9768132283464563
20
-1.9868132283464566
40
0.0098425196850394
0
CIRCLE
8
BLACK
10
5.0044881889763779
20
-1.9199999999999999
40
0.0098425196850394
0
CIRCLE
8
BLACK
10
8.3155118110236224
20
-5.9199999999999999
40
0.0098425196850394
0
CIRCLE
8
BLACK
10
8.3431867716535439
20
-5.8531867716535428
40
0.0098425196850394
0
CIRCLE
8
BLACK
10
8.3431867716535439
20
-5.9868132283464561
40
0.0098425196850394
0
CIRCLE
8
BLACK
10
8.4100000000000001
20
-5.8255118110236221
40
0.0098425196850394
0
CIRCLE
8
BLACK
10
8.4100000000000001
20
-5.9199999999999999
40
0.062992125984252
0
CIRCLE
8
BLACK
10
8.4100000000000001
20
-6.0144881889763777
40
0.0098425196850394
0
CIRCLE
8
BLACK
10
8.4768132283464563
20
-5.8531867716535428
40
0.0098425196850394
0
CIRCLE
8
BLACK
10
8.4768132283464563
20
-5.9868132283464561
40
0.0098425196850394
0
CIRCLE
8
BLACK
10
8.5044881889763779
20
-5.9199999999999999
40
0.0098425196850394
0
CIRCLE
8
BLACK
10
7.9902141338582675
20
-4.7078896456692911
40
0.0335
0
CIRCLE
8
BLACK
10
8.1781526771653539
20
-4.7762936614173226
40
0.0785
0
CIRCLE
8
BLACK
10
8.3660912204724411
20
-4.844697677165354
40
0.0335
0
CIRCLE
8
BLACK
10
5.9811023622047239
20
-3.4383201968503938
40
0.0335
0
CIRCLE
8
BLACK
10
6.1811023622047241
20
-3.4383201968503938
40
0.0785
0
CIRCLE
8
BLACK
10
6.3811023622047243
20
-3.4383201968503938
40
0.0335
0
CIRCLE
8
BLACK
10
8.879999999999999
20
-3.1299999999999999
40
0.0196850393700787
0
CIRCLE
8
BLACK
10
8.879999999999999
20
-3.0299999999999998
40
0.0196850393700787
0
CIRCLE
8
BLACK
10
8.879999999999999
20
-2.9299999999999997
40
0.0196850393700787
0
CIRCLE
8
BLACK
10
8.879999999999999
20
-2.8300000000000001
40
0.0196850393700787
0
CIRCLE
8
BLACK
10
8.879999999999999
20
-2.73
40
0.0196850393700787
0
CIRCLE
8
BLACK
10
5.9811023622047239
20
-2.6902887007874017
40
0.0335
0
CIRCLE
8
BLACK
10
6.1811023622047241
20
-2.6902887007874017
40
0.0785
0
CIRCLE
8
BLACK
10
6.3811023622047243
20
-2.6902887007874017
40
0.0335
0
CIRCLE
8
BLACK
10
6.2834645669291334
20
-3.9566929133858268
40
0.0098425196850394
0
CIRCLE
8
BLACK
10
6.3111395275590549
20
-3.8898796850393702
40
0.0098425196850394
0
CIRCLE
8
BLACK
10
6.3111395275590549
20
-4.023506141732283
40
0.0098425196850394
0
CIRCLE
8
BLACK
10
6.377952755905512
20
-3.8622047244094486
40
0.0098425196850394
0
CIRCLE
8
BLACK
10
6.377952755905512
20
-3.9566929133858268
40
0.062992125984252
0
CIRCLE
8
BLACK
10
6.377952755905512
20
-4.0511811023622046
40
0.0098425196850394
0
CIRCLE
8
BLACK
10
6.4447659842519682
20
-3.8898796850393702
40
0.0098425196850394
0
CIRCLE
8
BLACK
10
6.4447659842519682
20
-4.023506141732283
40
0.0098425196850394
0
CIRCLE
8
BLACK
10
6.4724409448818898
20
-3.9566929133858268
40
0.0098425196850394
0
CIRCLE
8
BLACK
10
3.737007874015748
20
-3.188976377952756
40
0.0335
0
CIRCLE
8
BLACK
10
3.9370078740157481
20
-3.188976377952756
40
0.0785
0
CIRCLE
8
BLACK
10
4.1370078740157483
20
-3.188976377952756
40
0.0335
0
CIRCLE
8
BLACK
10
8.6850393700787407
20
-4.8228346456692917
40
0.0098425196850394
0
CIRCLE
8
BLACK
10
8.7127143307086605
20
-4.7560214173228346
40
0.0098425196850394
0
CIRCLE
8
BLACK
10
8.7127143307086605
20
-4.8896478740157479
40
0.0098425196850394
0
CIRCLE
8
BLACK
10
8.7795275590551185
20
-4.728346456692913
40
0.0098425196850394
0
CIRCLE
8
BLACK
10
8.7795275590551185
20
-4.8228346456692917
40
0.062992125984252
0
CIRCLE
8
BLACK
10
8.7795275590551185
20
-4.9173228346456694
40
0.0098425196850394
0
CIRCLE
8
BLACK
10
8.8463407874015747
20
-4.7560214173228346
40
0.0098425196850394
0
CIRCLE
8
BLACK
10
8.8463407874015747
20
-4.8896478740157479
40
0.0098425196850394
0
CIRCLE
8
BLACK
10
8.8740157480314963
20
-4.8228346456692917
40
0.0098425196850394
0
CIRCLE
8
BLACK
10
3.737007874015748
20
-3.9370078740157481
40
0.0335
0
CIRCLE
8
BLACK
10
3.9370078740157481
20
-3.9370078740157481
40
0.0785
0
CIRCLE
8
BLACK
10
4.1370078740157483
20
-3.9370078740157481
40
0.0335
0
CIRCLE
8
BLACK
10
8.6679498425196844
20
-5.3954851574803149
40
0.0335
0
CIRCLE
8
BLACK
10
8.841154921259843
20
-5.4954851574803145
40
0.0785
0
CIRCLE
8
BLACK
10
9.0143599999999999
20
-5.5954851574803151
40
0.0335
0
CIRCLE
8
BLACK
10
5.9811023622047239
20
-1.9422572047244093
40
0.0335
0
CIRCLE
8
BLACK
10
6.1811023622047241
20
-1.9422572047244093
40
0.0785
0
CIRCLE
8
BLACK
10
6.3811023622047243
20
-1.9422572047244093
40
0.0335
0
CIRCLE
8
BLACK
10
6.9290227165354326
20
-5.2986037007874014
40
0.0335
0
CIRCLE
8
BLACK
10
7.1259842519685037
20
-5.3333333464566932
40
0.0785
0
CIRCLE
8
BLACK
10
7.3229457874015749
20
-5.3680629921259841
40
0.0335
0
CIRCLE
8
BLACK
10
5.2330708661417322
20
-3.6876640551181104
40
0.0335
0
CIRCLE
8
BLACK
10
5.4330708661417324
20
-3.6876640551181104
40
0.0785
0
CIRCLE
8
BLACK
10
5.6330708661417326
20
-3.6876640551181104
40
0.0335
0
CIRCLE
8
BLACK
10
4.4850393700787397
20
-2.4409448818897639
40
0.0335
0
CIRCLE
8
BLACK
10
4.6850393700787398
20
-2.4409448818897639
40
0.0785
0
CIRCLE
8
BLACK
10
4.88503937007874
20
-2.4409448818897639
40
0.0335
0
CIRCLE
8
BLACK
10
5.2330708661417322
20
-2.9396325590551182
40
0.0335
0
CIRCLE
8
BLACK
10
5.4330708661417324
20
-2.9396325590551182
40
0.0785
0
CIRCLE
8
BLACK
10
5.6330708661417326
20
-2.9396325590551182
40
0.0335
0
CIRCLE
8
BLACK
10
5.5551181102362204
20
-1.6732283464566928
40
0.0098425196850394
0
CIRCLE
8
BLACK
10
5.582793070866142
20
-1.6064151181102362
40
0.0098425196850394
0
CIRCLE
8
BLACK
10
5.582793070866142
20
-1.7400415748031495
40
0.0098425196850394
0
CIRCLE
8
BLACK
10
5.6496062992125982
20
-1.5787401574803148
40
0.0098425196850394
0
CIRCLE
8
BLACK
10
5.6496062992125982
20
-1.6732283464566928
40
0.062992125984252
0
CIRCLE
8
BLACK
10
5.6496062992125982
20
-1.7677165354330708
40
0.0098425196850394
0
CIRCLE
8
BLACK
10
5.7164195275590552
20
-1.6064151181102362
40
0.0098425196850394
0
CIRCLE
8
BLACK
10
5.7164195275590552
20
-1.7400415748031495
40
0.0098425196850394
0
CIRCLE
8
BLACK
10
5.7440944881889759
20
-1.6732283464566928
40
0.0098425196850394
0
CIRCLE
8
BLACK
10
4.4850393700787397
20
-3.188976377952756
40
0.0335
0
CIRCLE
8
BLACK
10
4.6850393700787398
20
-3.188976377952756
40
0.0785
0
CIRCLE
8
BLACK
10
4.88503937007874
20
-3.188976377952756
40
0.0335
0
CIRCLE
8
BLACK
10
6.7291338582677165
20
-3.6876640551181104
40
0.0335
0
CIRCLE
8
BLACK
10
6.9291338582677167
20
-3.6876640551181104
40
0.0785
0
CIRCLE
8
BLACK
10
7.129133858267716
20
-3.6876640551181104
40
0.0335
0
CIRCLE
8
BLACK
10
5.1811023622047241
20
-4.21259842519685
40
0.0098425196850394
0
CIRCLE
8
BLACK
10
5.2087773228346457
20
-4.1457851968503938
40
0.0098425196850394
0
CIRCLE
8
BLACK
10
5.2087773228346457
20
-4.2794116535433071
40
0.0098425196850394
0
CIRCLE
8
BLACK
10
5.2755905511811019
20
-4.1181102362204722
40
0.0098425196850394
0
CIRCLE
8
BLACK
10
5.2755905511811019
20
-4.21259842519685
40
0.062992125984252
0
CIRCLE
8
BLACK
10
5.2755905511811019
20
-4.3070866141732287
40
0.0098425196850394
0
CIRCLE
8
BLACK
10
5.342403779527559
20
-4.1457851968503938
40
0.0098425196850394
0
CIRCLE
8
BLACK
10
5.342403779527559
20
-4.2794116535433071
40
0.0098425196850394
0
CIRCLE
8
BLACK
10
5.3700787401574805
20
-4.21259842519685
40
0.0098425196850394
0
CIRCLE
8
BLACK
10
7.0589170078740153
20
-4.561936456692913
40
0.0335
0
CIRCLE
8
BLACK
10
7.2558785433070865
20
-4.5966661023622049
40
0.0785
0
CIRCLE
8
BLACK
10
7.4528400787401576
20
-4.6313957480314958
40
0.0335
0
CIRCLE
8
BLACK
10
6.7291338582677165
20
-2.9396325590551182
40
0.0335
0
CIRCLE
8
BLACK
10
6.9291338582677167
20
-2.9396325590551182
40
0.0785
0
CIRCLE
8
BLACK
10
7.129133858267716
20
-2.9396325590551182
40
0.0335
0
CIRCLE
8
BLACK
10
8.7440944881889759
20
-3.4055118110236218
40
0.0098425196850394
0
CIRCLE
8
BLACK
10
8.7717694488188975
20
-3.3386985826771651
40
0.0098425196850394
0
CIRCLE
8
BLACK
10
8.7717694488188975
20
-3.4723250393700789
40
0.0098425196850394
0
CIRCLE
8
BLACK
10
8.8385826771653537
20
-3.311023622047244
40
0.0098425196850394
0
CIRCLE
8
BLACK
10
8.8385826771653537
20
-3.4055118110236218
40
0.062992125984252
0
CIRCLE
8
BLACK
10
8.8385826771653537
20
-3.5
40
0.0098425196850394
0
CIRCLE
8
BLACK
10
8.9053959055118117
20
-3.3386985826771651
40
0.0098425196850394
0
CIRCLE
8
BLACK
10
8.9053959055118117
20
-3.4723250393700789
40
0.0098425196850394
0
CIRCLE
8
BLACK
10
8.9330708661417315
20
-3.4055118110236218
40
0.0098425196850394
0
CIRCLE
8
BLACK
10
4.4850393700787397
20
-3.9370078740157481
40
0.0335
0
CIRCLE
8
BLACK
10
4.6850393700787398
20
-3.9370078740157481
40
0.0785
0
CIRCLE
8
BLACK
10
4.88503937007874
20
-3.9370078740157481
40
0.0335
0
CIRCLE
8
BLACK
10
7.4771653543307082
20
-2.1916010629921261
40
0.0335
0
CIRCLE
8
BLACK
10
7.6771653543307083
20
-2.1916010629921261
40
0.0785
0
CIRCLE
8
BLACK
10
7.8771653543307085
20
-2.1916010629921261
40
0.0335
0
CIRCLE
8
BLACK
10
6.4405511811023617
20
-4.2614173228346459
40
0.0078740157480315
0
CIRCLE
8
BLACK
10
6.7594488188976376
20
-4.4385826771653543
40
0.0078740157480315
0
CIRCLE
8
BLACK
10
6.6181102362204722
20
-1.6732283464566928
40
0.0098425196850394
0
CIRCLE
8
BLACK
10
6.6457851968503938
20
-1.6064151181102362
40
0.0098425196850394
0
CIRCLE
8
BLACK
10
6.6457851968503938
20
-1.7400415748031495
40
0.0098425196850394
0
CIRCLE
8
BLACK
10
6.71259842519685
20
-1.5787401574803148
40
0.0098425196850394
0
CIRCLE
8
BLACK
10
6.71259842519685
20
-1.6732283464566928
40
0.062992125984252
0
CIRCLE
8
BLACK
10
6.71259842519685
20
-1.7677165354330708
40
0.0098425196850394
0
CIRCLE
8
BLACK
10
6.7794116535433071
20
-1.6064151181102362
40
0.0098425196850394
0
CIRCLE
8
BLACK
10
6.7794116535433071
20
-1.7400415748031495
40
0.0098425196850394
0
CIRCLE
8
BLACK
10
6.8070866141732278
20
-1.6732283464566928
40
0.0098425196850394
0
CIRCLE
8
BLACK
10
6.2855118110236221
20
-5.0499999999999998
40
0.0098425196850394
0
CIRCLE
8
BLACK
10
6.3131867716535428
20
-4.9831867716535436
40
0.0098425196850394
0
CIRCLE
8
BLACK
10
6.3131867716535428
20
-5.1168132283464569
40
0.0098425196850394
0
CIRCLE
8
BLACK
10
6.3799999999999999
20
-4.955511811023622
40
0.0098425196850394
0
CIRCLE
8
BLACK
10
6.3799999999999999
20
-5.0499999999999998
40
0.062992125984252
0
CIRCLE
8
BLACK
10
6.3799999999999999
20
-5.1444881889763776
40
0.0098425196850394
0
CIRCLE
8
BLACK
10
6.446813228346457
20
-4.9831867716535436
40
0.0098425196850394
0
CIRCLE
8
BLACK
10
6.446813228346457
20
-5.1168132283464569
40
0.0098425196850394
0
CIRCLE
8
BLACK
10
6.4744881889763777
20
-5.0499999999999998
40
0.0098425196850394
0
CIRCLE
8
BLACK
10
5.2330708661417322
20
-2.1916010629921261
40
0.0335
0
CIRCLE
8
BLACK
10
5.4330708661417324
20
-2.1916010629921261
40
0.0785
0
CIRCLE
8
BLACK
10
5.6330708661417326
20
-2.1916010629921261
40
0.0335
0
CIRCLE
8
BLACK
10
6.7291338582677165
20
-2.1916010629921261
40
0.0335
0
CIRCLE
8
BLACK
10
6.9291338582677167
20
-2.1916010629921261
40
0.0785
0
CIRCLE
8
BLACK
10
7.129133858267716
20
-2.1916010629921261
40
0.0335
0
CIRCLE
8
BLACK
10
7.4771653543307082
20
-2.9396325590551182
40
0.0335
0
CIRCLE
8
BLACK
10
7.6771653543307083
20
-2.9396325590551182
40
0.0785
0
CIRCLE
8
BLACK
10
7.8771653543307085
20
-2.9396325590551182
40
0.0335
0
CIRCLE
8
BLACK
10
3.737007874015748
20
-2.4409448818897639
40
0.0335
0
CIRCLE
8
BLACK
10
3.9370078740157481
20
-2.4409448818897639
40
0.0785
0
CIRCLE
8
BLACK
10
4.1370078740157483
20
-2.4409448818897639
40
0.0335
0
CIRCLE
8
BLACK
10
8.2899999999999991
20
-2.7191338582677163
40
0.0147637795275591
0
CIRCLE
8
BLACK
10
8.2112598425196843
20
-2.7191338582677163
40
0.0147637795275591
0
CIRCLE
8
BLACK
10
6.1084307086614169
20
-2.887388149606299
40
0.0078740157480315
0
CIRCLE
8
BLACK
10
6.2541815748031491
20
-2.887388149606299
40
0.0078740157480315
0
CIRCLE
8
BLACK
10
3.864336220472441
20
-3.3860758267716533
40
0.0078740157480315
0
CIRCLE
8
BLACK
10
4.0100870866141731
20
-3.3860758267716533
40
0.0078740157480315
0
CIRCLE
8
BLACK
10
6.1084307086614169
20
-2.1393566535433068
40
0.0078740157480315
0
CIRCLE
8
BLACK
10
6.2541815748031491
20
-2.1393566535433068
40
0.0078740157480315
0
CIRCLE
8
BLACK
10
6.8564622047244095
20
-3.1367320078740155
40
0.0078740157480315
0
CIRCLE
8
BLACK
10
7.0022130708661416
20
-3.1367320078740155
40
0.0078740157480315
0
CIRCLE
8
BLACK
10
8.6796696850393698
20
-5.6298424409448815
40
0.0078740157480315
0
CIRCLE
8
BLACK
10
8.805893661417322
20
-5.7027178740157476
40
0.0078740157480315
0
CIRCLE
8
BLACK
10
6.1084307086614169
20
-3.6354196456692911
40
0.0078740157480315
0
CIRCLE
8
BLACK
10
6.2541815748031491
20
-3.6354196456692911
40
0.0078740157480315
0
CIRCLE
8
BLACK
10
7.7866098031496058
20
-5.6395710236220475
40
0.0078740157480315
0
CIRCLE
8
BLACK
10
7.9235708267716536
20
-5.6894207480314956
40
0.0078740157480315
0
CIRCLE
8
BLACK
10
6.8564622047244095
20
-2.3887005118110234
40
0.0078740157480315
0
CIRCLE
8
BLACK
10
7.0022130708661416
20
-2.3887005118110234
40
0.0078740157480315
0
CIRCLE
8
BLACK
10
7.0201906692913383
20
-5.5148191338582677
40
0.0078740157480315
0
CIRCLE
8
BLACK
10
7.1637272440944884
20
-5.5401285039370078
40
0.0078740157480315
0
CIRCLE
8
BLACK
10
7.1500849999999998
20
-4.7781518897637794
40
0.0078740157480315
0
CIRCLE
8
BLACK
10
7.2936215748031499
20
-4.8034612598425195
40
0.0078740157480315
0
CIRCLE
8
BLACK
10
8.0424516535433064
20
-4.9366513779527557
40
0.0078740157480315
0
CIRCLE
8
BLACK
10
8.1794126771653541
20
-4.9865011023622046
40
0.0078740157480315
0
CIRCLE
8
BLACK
10
4.6123677165354326
20
-3.3860758267716533
40
0.0078740157480315
0
CIRCLE
8
BLACK
10
4.7581185826771648
20
-3.3860758267716533
40
0.0078740157480315
0
CIRCLE
8
BLACK
10
7.6044937007874012
20
-3.8847635039370076
40
0.0078740157480315
0
CIRCLE
8
BLACK
10
7.7502445669291333
20
-3.8847635039370076
40
0.0078740157480315
0
CIRCLE
8
BLACK
10
5.3603992125984252
20
-3.1367320078740155
40
0.0078740157480315
0
CIRCLE
8
BLACK
10
5.5061500787401574
20
-3.1367320078740155
40
0.0078740157480315
0
CIRCLE
8
BLACK
10
4.6123677165354326
20
-4.1341073228346454
40
0.0078740157480315
0
CIRCLE
8
BLACK
10
4.7581185826771648
20
-4.1341073228346454
40
0.0078740157480315
0
CIRCLE
8
BLACK
10
3.864336220472441
20
-2.6380443307086612
40
0.0078740157480315
0
CIRCLE
8
BLACK
10
4.0100870866141731
20
-2.6380443307086612
40
0.0078740157480315
0
CIRCLE
8
BLACK
10
4.6123677165354326
20
-2.6380443307086612
40
0.0078740157480315
0
CIRCLE
8
BLACK
10
4.7581185826771648
20
-2.6380443307086612
40
0.0078740157480315
0
CIRCLE
8
BLACK
10
5.3603992125984252
20
-3.8847635039370076
40
0.0078740157480315
0
CIRCLE
8
BLACK
10
5.5061500787401574
20
-3.8847635039370076
40
0.0078740157480315
0
CIRCLE
8
BLACK
10
6.8564622047244095
20
-3.8847635039370076
40
0.0078740157480315
0
CIRCLE
8
BLACK
10
7.0022130708661416
20
-3.8847635039370076
40
0.0078740157480315
0
CIRCLE
8
BLACK
10
7.6044937007874012
20
-3.1367320078740155
40
0.0078740157480315
0
CIRCLE
8
BLACK
10
7.7502445669291333
20
-3.1367320078740155
40
0.0078740157480315
0
CIRCLE
8
BLACK
10
5.3603992125984252
20
-2.3887005118110234
40
0.0078740157480315
0
CIRCLE
8
BLACK
10
5.5061500787401574
20
-2.3887005118110234
40
0.0078740157480315
0
CIRCLE
8
BLACK
10
7.6044937007874012
20
-2.3887005118110234
40
0.0078740157480315
0
CIRCLE
8
BLACK
10
7.7502445669291333
20
-2.3887005118110234
40
0.0078740157480315
0
CIRCLE
8
BLACK
10
3.864336220472441
20
-4.1341073228346454
40
0.0078740157480315
0
CIRCLE
8
BLACK
10
4.0100870866141731
20
-4.1341073228346454
40
0.0078740157480315
0
CIRCLE
8
BLACK
10
7.4771653543307082
20
-3.6876640551181104
40
0.0334999606299213
0
CIRCLE
8
BLACK
10
7.6771653543307083
20
-3.6876640551181104
40
0.0784999606299213
0
CIRCLE
8
BLACK
10
7.8771653543307085
20
-3.6876640551181104
40
0.0334999606299213
0
CIRCLE
8
BLACK
10
7.734372283464567
20
-5.4108092913385821
40
0.0334999606299213
0
CIRCLE
8
BLACK
10
7.9223108267716533
20
-5.4792133070866145
40
0.0784999606299213
0
CIRCLE
8
BLACK
10
8.1102493700787406
20
-5.5476173228346459
40
0.0334999606299213
0
CIRCLE
8
BLACK
10
4.8155118110236224
20
-1.9199999999999999
40
0.0098425196850394
0
CIRCLE
8
BLACK
10
4.8431867716535431
20
-1.8531867716535433
40
0.0098425196850394
0
CIRCLE
8
BLACK
10
4.8431867716535431
20
-1.9868132283464566
40
0.0098425196850394
0
CIRCLE
8
BLACK
10
4.9100000000000001
20
-1.8255118110236219
40
0.0098425196850394
0
CIRCLE
8
BLACK
10
4.9100000000000001
20
-1.9199999999999999
40
0.062992125984252
0
CIRCLE
8
BLACK
10
4.9100000000000001
20
-2.0144881889763777
40
0.0098425196850394
0
CIRCLE
8
BLACK
10
4.9768132283464563
20
-1.8531867716535433
40
0.0098425196850394
0
CIRCLE
8
BLACK
10
4.9768132283464563
20
-1.9868132283464566
40
0.0098425196850394
0
CIRCLE
8
BLACK
10
5.0044881889763779
20
-1.9199999999999999
40
0.0098425196850394
0
CIRCLE
8
BLACK
10
8.3155118110236224
20
-5.9199999999999999
40
0.0098425196850394
0
CIRCLE
8
BLACK
10
8.3431867716535439
20
-5.8531867716535428
40
0.0098425196850394
0
CIRCLE
8
BLACK
10
8.3431867716535439
20
-5.9868132283464561
40
0.0098425196850394
0
CIRCLE
8
BLACK
10
8.4100000000000001
20
-5.8255118110236221
40
0.0098425196850394
0
CIRCLE
8
BLACK
10
8.4100000000000001
20
-5.9199999999999999
40
0.062992125984252
0
CIRCLE
8
BLACK
10
8.4100000000000001
20
-6.0144881889763777
40
0.0098425196850394
0
CIRCLE
8
BLACK
10
8.4768132283464563
20
-5.8531867716535428
40
0.0098425196850394
0
CIRCLE
8
BLACK
10
8.4768132283464563
20
-5.9868132283464561
40
0.0098425196850394
0
CIRCLE
8
BLACK
10
8.5044881889763779
20
-5.9199999999999999
40
0.0098425196850394
0
CIRCLE
8
BLACK
10
7.9902141338582675
20
-4.7078896456692911
40
0.0334999606299213
0
CIRCLE
8
BLACK
10
8.1781526771653539
20
-4.7762936614173226
40
0.0784999606299213
0
CIRCLE
8
BLACK
10
8.3660912204724411
20
-4.844697677165354
40
0.0334999606299213
0
CIRCLE
8
BLACK
10
5.9811023622047239
20
-3.4383201968503938
40
0.0334999606299213
0
CIRCLE
8
BLACK
10
6.1811023622047241
20
-3.4383201968503938
40
0.0784999606299213
0
CIRCLE
8
BLACK
10
6.3811023622047243
20
-3.4383201968503938
40
0.0334999606299213
0
CIRCLE
8
BLACK
10
8.879999999999999
20
-3.1299999999999999
40
0.0196850393700787
0
CIRCLE
8
BLACK
10
8.879999999999999
20
-3.0299999999999998
40
0.0196850393700787
0
CIRCLE
8
BLACK
10
8.879999999999999
20
-2.9299999999999997
40
0.0196850393700787
0
CIRCLE
8
BLACK
10
8.879999999999999
20
-2.8300000000000001
40
0.0196850393700787
0
CIRCLE
8
BLACK
10
8.879999999999999
20
-2.73
40
0.0196850393700787
0
CIRCLE
8
BLACK
10
5.9811023622047239
20
-2.6902887007874017
40
0.0334999606299213
0
CIRCLE
8
BLACK
10
6.1811023622047241
20
-2.6902887007874017
40
0.0784999606299213
0
CIRCLE
8
BLACK
10
6.3811023622047243
20
-2.6902887007874017
40
0.0334999606299213
0
CIRCLE
8
BLACK
10
6.2834645669291334
20
-3.9566929133858268
40
0.0098425196850394
0
CIRCLE
8
BLACK
10
6.3111395275590549
20
-3.8898796850393702
40
0.0098425196850394
0
CIRCLE
8
BLACK
10
6.3111395275590549
20
-4.023506141732283
40
0.0098425196850394
0
CIRCLE
8
BLACK
10
6.377952755905512
20
-3.8622047244094486
40
0.0098425196850394
0
CIRCLE
8
BLACK
10
6.377952755905512
20
-3.9566929133858268
40
0.062992125984252
0
CIRCLE
8
BLACK
10
6.377952755905512
20
-4.0511811023622046
40
0.0098425196850394
0
CIRCLE
8
BLACK
10
6.4447659842519682
20
-3.8898796850393702
40
0.0098425196850394
0
CIRCLE
8
BLACK
10
6.4447659842519682
20
-4.023506141732283
40
0.0098425196850394
0
CIRCLE
8
BLACK
10
6.4724409448818898
20
-3.9566929133858268
40
0.0098425196850394
0
CIRCLE
8
BLACK
10
3.737007874015748
20
-3.188976377952756
40
0.0334999606299213
0
CIRCLE
8
BLACK
10
3.9370078740157481
20
-3.188976377952756
40
0.0784999606299213
0
CIRCLE
8
BLACK
10
4.1370078740157483
20
-3.188976377952756
40
0.0334999606299213
0
CIRCLE
8
BLACK
10
8.6850393700787407
20
-4.8228346456692917
40
0.0098425196850394
0
CIRCLE
8
BLACK
10
8.7127143307086605
20
-4.7560214173228346
40
0.0098425196850394
0
CIRCLE
8
BLACK
10
8.7127143307086605
20
-4.8896478740157479
40
0.0098425196850394
0
CIRCLE
8
BLACK
10
8.7795275590551185
20
-4.728346456692913
40
0.0098425196850394
0
CIRCLE
8
BLACK
10
8.7795275590551185
20
-4.8228346456692917
40
0.062992125984252
0
CIRCLE
8
BLACK
10
8.7795275590551185
20
-4.9173228346456694
40
0.0098425196850394
0
CIRCLE
8
BLACK
10
8.8463407874015747
20
-4.7560214173228346
40
0.0098425196850394
0
CIRCLE
8
BLACK
10
8.8463407874015747
20
-4.8896478740157479
40
0.0098425196850394
0
CIRCLE
8
BLACK
10
8.8740157480314963
20
-4.8228346456692917
40
0.0098425196850394
0
CIRCLE
8
BLACK
10
3.737007874015748
20
-3.9370078740157481
40
0.0334999606299213
0
CIRCLE
8
BLACK
10
3.9370078740157481
20
-3.9370078740157481
40
0.0784999606299213
0
CIRCLE
8
BLACK
10
4.1370078740157483
20
-3.9370078740157481
40
0.0334999606299213
0
CIRCLE
8
BLACK
10
8.6679498425196844
20
-5.3954851574803149
40
0.0334999606299213
0
CIRCLE
8
BLACK
10
8.841154921259843
20
-5.4954851574803145
40
0.0784999606299213
0
CIRCLE
8
BLACK
10
9.0143599999999999
20
-5.5954851574803151
40
0.0334999606299213
0
CIRCLE
8
BLACK
10
5.9811023622047239
20
-1.9422572047244093
40
0.0334999606299213
0
CIRCLE
8
BLACK
10
6.1811023622047241
20
-1.9422572047244093
40
0.0784999606299213
0
CIRCLE
8
BLACK
10
6.3811023622047243
20
-1.9422572047244093
40
0.0334999606299213
0
CIRCLE
8
BLACK
10
6.9290227165354326
20
-5.2986037007874014
40
0.0334999606299213
0
CIRCLE
8
BLACK
10
7.1259842519685037
20
-5.3333333464566932
40
0.0784999606299213
0
CIRCLE
8
BLACK
10
7.3229457874015749
20
-5.3680629921259841
40
0.0334999606299213
0
CIRCLE
8
BLACK
10
5.2330708661417322
20
-3.6876640551181104
40
0.0334999606299213
0
CIRCLE
8
BLACK
10
5.4330708661417324
20
-3.6876640551181104
40
0.0784999606299213
0
CIRCLE
8
BLACK
10
5.6330708661417326
20
-3.6876640551181104
40
0.0334999606299213
0
CIRCLE
8
BLACK
10
4.4850393700787397
20
-2.4409448818897639
40
0.0334999606299213
0
CIRCLE
8
BLACK
10
4.6850393700787398
20
-2.4409448818897639
40
0.0784999606299213
0
CIRCLE
8
BLACK
10
4.88503937007874
20
-2.4409448818897639
40
0.0334999606299213
0
CIRCLE
8
BLACK
10
5.2330708661417322
20
-2.9396325590551182
40
0.0334999606299213
0
CIRCLE
8
BLACK
10
5.4330708661417324
20
-2.9396325590551182
40
0.0784999606299213
0
CIRCLE
8
BLACK
10
5.6330708661417326
20
-2.9396325590551182
40
0.0334999606299213
0
CIRCLE
8
BLACK
10
5.5551181102362204
20
-1.6732283464566928
40
0.0098425196850394
0
CIRCLE
8
BLACK
10
5.582793070866142
20
-1.6064151181102362
40
0.0098425196850394
0
CIRCLE
8
BLACK
10
5.582793070866142
20
-1.7400415748031495
40
0.0098425196850394
0
CIRCLE
8
BLACK
10
5.6496062992125982
20
-1.5787401574803148
40
0.0098425196850394
0
CIRCLE
8
BLACK
10
5.6496062992125982
20
-1.6732283464566928
40
0.062992125984252
0
CIRCLE
8
BLACK
10
5.6496062992125982
20
-1.7677165354330708
40
0.0098425196850394
0
CIRCLE
8
BLACK
10
5.7164195275590552
20
-1.6064151181102362
40
0.0098425196850394
0
CIRCLE
8
BLACK
10
5.7164195275590552
20
-1.7400415748031495
40
0.0098425196850394
0
CIRCLE
8
BLACK
10
5.7440944881889759
20
-1.6732283464566928
40
0.0098425196850394
0
CIRCLE
8
BLACK
10
4.4850393700787397
20
-3.188976377952756
40
0.0334999606299213
0
CIRCLE
8
BLACK
10
4.6850393700787398
20
-3.188976377952756
40
0.0784999606299213
0
CIRCLE
8
BLACK
10
4.88503937007874
20
-3.188976377952756
40
0.0334999606299213
0
CIRCLE
8
BLACK
10
6.7291338582677165
20
-3.6876640551181104
40
0.0334999606299213
0
CIRCLE
8
BLACK
10
6.9291338582677167
20
-3.6876640551181104
40
0.0784999606299213
0
CIRCLE
8
BLACK
10
7.129133858267716
20
-3.6876640551181104
40
0.0334999606299213
0
CIRCLE
8
BLACK
10
5.1811023622047241
20
-4.21259842519685
40
0.0098425196850394
0
CIRCLE
8
BLACK
10
5.2087773228346457
20
-4.1457851968503938
40
0.0098425196850394
0
CIRCLE
8
BLACK
10
5.2087773228346457
20
-4.2794116535433071
40
0.0098425196850394
0
CIRCLE
8
BLACK
10
5.2755905511811019
20
-4.1181102362204722
40
0.0098425196850394
0
CIRCLE
8
BLACK
10
5.2755905511811019
20
-4.21259842519685
40
0.062992125984252
0
CIRCLE
8
BLACK
10
5.2755905511811019
20
-4.3070866141732287
40
0.0098425196850394
0
CIRCLE
8
BLACK
10
5.342403779527559
20
-4.1457851968503938
40
0.0098425196850394
0
CIRCLE
8
BLACK
10
5.342403779527559
20
-4.2794116535433071
40
0.0098425196850394
0
CIRCLE
8
BLACK
10
5.3700787401574805
20
-4.21259842519685
40
0.0098425196850394
0
CIRCLE
8
BLACK
10
7.0589170078740153
20
-4.561936456692913
40
0.0334999606299213
0
CIRCLE
8
BLACK
10
7.2558785433070865
20
-4.5966661023622049
40
0.0784999606299213
0
CIRCLE
8
BLACK
10
7.4528400787401576
20
-4.6313957480314958
40
0.0334999606299213
0
CIRCLE
8
BLACK
10
6.7291338582677165
20
-2.9396325590551182
40
0.0334999606299213
0
CIRCLE
8
BLACK
10
6.9291338582677167
20
-2.9396325590551182
40
0.0784999606299213
0
CIRCLE
8
BLACK
10
7.129133858267716
20
-2.9396325590551182
40
0.0334999606299213
0
CIRCLE
8
BLACK
10
8.7440944881889759
20
-3.4055118110236218
40
0.0098425196850394
0
CIRCLE
8
BLACK
10
8.7717694488188975
20
-3.3386985826771651
40
0.0098425196850394
0
CIRCLE
8
BLACK
10
8.7717694488188975
20
-3.4723250393700789
40
0.0098425196850394
0
CIRCLE
8
BLACK
10
8.8385826771653537
20
-3.311023622047244
40
0.0098425196850394
0
CIRCLE
8
BLACK
10
8.8385826771653537
20
-3.4055118110236218
40
0.062992125984252
0
CIRCLE
8
BLACK
10
8.8385826771653537
20
-3.5
40
0.0098425196850394
0
CIRCLE
8
BLACK
10
8.9053959055118117
20
-3.3386985826771651
40
0.0098425196850394
0
CIRCLE
8
BLACK
10
8.9053959055118117
20
-3.4723250393700789
40
0.0098425196850394
0
CIRCLE
8
BLACK
10
8.9330708661417315
20
-3.4055118110236218
40
0.0098425196850394
0
CIRCLE
8
BLACK
10
4.4850393700787397
20
-3.9370078740157481
40
0.0334999606299213
0
CIRCLE
8
BLACK
10
4.6850393700787398
20
-3.9370078740157481
40
0.0784999606299213
0
CIRCLE
8
BLACK
10
4.88503937007874
20
-3.9370078740157481
40
0.0334999606299213
0
CIRCLE
8
BLACK
10
7.4771653543307082
20
-2.1916010629921261
40
0.0334999606299213
0
CIRCLE
8
BLACK
10
7.6771653543307083
20
-2.1916010629921261
40
0.0784999606299213
0
CIRCLE
8
BLACK
10
7.8771653543307085
20
-2.1916010629921261
40
0.0334999606299213
0
CIRCLE
8
BLACK
10
6.4405511811023617
20
-4.2614173228346459
40
0.0078740157480315
0
CIRCLE
8
BLACK
10
6.7594488188976376
20
-4.4385826771653543
40
0.0078740157480315
0
CIRCLE
8
BLACK
10
6.6181102362204722
20
-1.6732283464566928
40
0.0098425196850394
0
CIRCLE
8
BLACK
10
6.6457851968503938
20
-1.6064151181102362
40
0.0098425196850394
0
CIRCLE
8
BLACK
10
6.6457851968503938
20
-1.7400415748031495
40
0.0098425196850394
0
CIRCLE
8
BLACK
10
6.71259842519685
20
-1.5787401574803148
40
0.0098425196850394
0
CIRCLE
8
BLACK
10
6.71259842519685
20
-1.6732283464566928
40
0.062992125984252
0
CIRCLE
8
BLACK
10
6.71259842519685
20
-1.7677165354330708
40
0.0098425196850394
0
CIRCLE
8
BLACK
10
6.7794116535433071
20
-1.6064151181102362
40
0.0098425196850394
0
CIRCLE
8
BLACK
10
6.7794116535433071
20
-1.7400415748031495
40
0.0098425196850394
0
CIRCLE
8
BLACK
10
6.8070866141732278
20
-1.6732283464566928
40
0.0098425196850394
0
CIRCLE
8
BLACK
10
6.2855118110236221
20
-5.0499999999999998
40
0.0098425196850394
0
CIRCLE
8
BLACK
10
6.3131867716535428
20
-4.9831867716535436
40
0.0098425196850394
0
CIRCLE
8
BLACK
10
6.3131867716535428
20
-5.1168132283464569
40
0.0098425196850394
0
CIRCLE
8
BLACK
10
6.3799999999999999
20
-4.955511811023622
40
0.0098425196850394
0
CIRCLE
8
BLACK
10
6.3799999999999999
20
-5.0499999999999998
40
0.062992125984252
0
CIRCLE
8
BLACK
10
6.3799999999999999
20
-5.1444881889763776
40
0.0098425196850394
0
CIRCLE
8
BLACK
10
6.446813228346457
20
-4.9831867716535436
40
0.0098425196850394
0
CIRCLE
8
BLACK
10
6.446813228346457
20
-5.1168132283464569
40
0.0098425196850394
0
CIRCLE
8
BLACK
10
6.4744881889763777
20
-5.0499999999999998
40
0.0098425196850394
0
CIRCLE
8
BLACK
10
5.2330708661417322
20
-2.1916010629921261
40
0.0334999606299213
0
CIRCLE
8
BLACK
10
5.4330708661417324
20
-2.1916010629921261
40
0.0784999606299213
0
CIRCLE
8
BLACK
10
5.6330708661417326
20
-2.1916010629921261
40
0.0334999606299213
0
CIRCLE
8
BLACK
10
6.7291338582677165
20
-2.1916010629921261
40
0.0334999606299213
0
CIRCLE
8
BLACK
10
6.9291338582677167
20
-2.1916010629921261
40
0.0784999606299213
0
CIRCLE
8
BLACK
10
7.129133858267716
20
-2.1916010629921261
40
0.0334999606299213
0
CIRCLE
8
BLACK
10
7.4771653543307082
20
-2.9396325590551182
40
0.0334999606299213
0
CIRCLE
8
BLACK
10
7.6771653543307083
20
-2.9396325590551182
40
0.0784999606299213
0
CIRCLE
8
BLACK
10
7.8771653543307085
20
-2.9396325590551182
40
0.0334999606299213
0
CIRCLE
8
BLACK
10
3.737007874015748
20
-2.4409448818897639
40
0.0334999606299213
0
CIRCLE
8
BLACK
10
3.9370078740157481
20
-2.4409448818897639
40
0.0784999606299213
0
CIRCLE
8
BLACK
10
4.1370078740157483
20
-2.4409448818897639
40
0.0334999606299213
0
CIRCLE
8
BLACK
10
8.2899999999999991
20
-2.7191338582677163
40
0.0147637795275591
0
CIRCLE
8
BLACK
10
8.2112598425196843
20
-2.7191338582677163
40
0.0147637795275591
  0
ENDSEC
  0
EOF
