  0
SECTION
  2
HEADER
  9
$ANGBASE
  50
0.0
  9
$ANGDIR
  70
1
  9
$MEASUREMENT
  70
0
  0
ENDSEC
  0
SECTION
  2
TABLES
  0
TABLE
  2
LTYPE
  70
4
  0
LTYPE
  5
40F
  2
CONTINUOUS
  70
0
  3
Solid line
  72
65
  73
0
  40
0.0
  0
LTYPE
  5
410
  2
DASHDOT
 70
0
  3
Dash Dot ____ _ ____ _
 72
65
 73
4
 40
2.0
 49
1.25
 49
-0.25
 49
0.25
 49
-0.25
  0
LTYPE
  5
411
  2
DASHED
 70
0
  3
Dashed __ __ __ __ __
 72
65
 73
2
 40
0.75
 49
0.5
 49
-0.25
  0
LTYPE
  5
43B
  2
DOTTED
 70
0
  3
Dotted .  .  .  .
 72
65
 73
2
 40
0.2
 49
0.0
 49
-0.2
  0
ENDTAB
  0
TABLE
  2
STYLE
  70
4
  0
STYLE
  2
KICAD
  70
0
  40
0
  41
1
  42
1
  50
0
  71
0
  3
isocp.shx
  0
STYLE
  2
KICADB
  70
0
  40
0
  41
1
  42
1
  50
0
  71
0
  3
isocp.shx
  0
STYLE
  2
KICADI
  70
0
  40
0
  41
1
  42
1
  50
15
  71
0
  3
isocp.shx
  0
STYLE
  2
KICADBI
  70
0
  40
0
  41
1
  42
1
  50
15
  71
0
  3
isocp.shx
  0
ENDTAB
  0
TABLE
  2
LAYER
  70
1
  0
LAYER
  2
BLACK
  70
0
  62
7
  6
CONTINUOUS
  0
ENDTAB
  0
ENDSEC
  0
SECTION
  2
ENTITIES
0
LINE
8
BLACK
6
CONTINUOUS
10
8.4289189763779522
20
-5.7924585433070863
11
8.4413291338582681
21
-5.7949270866141731
0
LINE
8
BLACK
6
CONTINUOUS
10
8.4413291338582681
20
-5.7949270866141731
11
8.4534375590551178
21
-5.7986001181102358
0
LINE
8
BLACK
6
CONTINUOUS
10
8.4534375590551178
20
-5.7986001181102358
11
8.4651276771653539
21
-5.8034423228346457
0
LINE
8
BLACK
6
CONTINUOUS
10
8.4651276771653539
20
-5.8034423228346457
11
8.4762868503937003
21
-5.8094070472440942
0
LINE
8
BLACK
6
CONTINUOUS
10
8.4762868503937003
20
-5.8094070472440942
11
8.4868076771653538
21
-5.816436811023622
0
LINE
8
BLACK
6
CONTINUOUS
10
8.4868076771653538
20
-5.816436811023622
11
8.4965888188976368
21
-5.8244639763779524
0
LINE
8
BLACK
6
CONTINUOUS
10
8.4965888188976368
20
-5.8244639763779524
11
8.5055360236220476
21
-5.8334111811023623
0
LINE
8
BLACK
6
CONTINUOUS
10
8.5055360236220476
20
-5.8334111811023623
11
8.5135631889763772
21
-5.8431923228346454
0
LINE
8
BLACK
6
CONTINUOUS
10
8.5135631889763772
20
-5.8431923228346454
11
8.520592952755905
21
-5.8537131496062988
0
LINE
8
BLACK
6
CONTINUOUS
10
8.520592952755905
20
-5.8537131496062988
11
8.5265576771653535
21
-5.8648723228346453
0
LINE
8
BLACK
6
CONTINUOUS
10
8.5265576771653535
20
-5.8648723228346453
11
8.5313998818897634
21
-5.8765624409448813
0
LINE
8
BLACK
6
CONTINUOUS
10
8.5313998818897634
20
-5.8765624409448813
11
8.535072913385827
21
-5.888670866141732
0
LINE
8
BLACK
6
CONTINUOUS
10
8.535072913385827
20
-5.888670866141732
11
8.5375414566929138
21
-5.901081023622047
0
LINE
8
BLACK
6
CONTINUOUS
10
8.5375414566929138
20
-5.901081023622047
11
8.5387816929133855
21
-5.9136733464566928
0
LINE
8
BLACK
6
CONTINUOUS
10
8.5387816929133855
20
-5.9136733464566928
11
8.5387816929133855
21
-5.926326653543307
0
LINE
8
BLACK
6
CONTINUOUS
10
8.5387816929133855
20
-5.926326653543307
11
8.5375414566929138
21
-5.9389189763779529
0
LINE
8
BLACK
6
CONTINUOUS
10
8.5375414566929138
20
-5.9389189763779529
11
8.535072913385827
21
-5.9513291338582679
0
LINE
8
BLACK
6
CONTINUOUS
10
8.535072913385827
20
-5.9513291338582679
11
8.5313998818897634
21
-5.9634375590551176
0
LINE
8
BLACK
6
CONTINUOUS
10
8.5313998818897634
20
-5.9634375590551176
11
8.5265576771653535
21
-5.9751276771653545
0
LINE
8
BLACK
6
CONTINUOUS
10
8.5265576771653535
20
-5.9751276771653545
11
8.520592952755905
21
-5.986286850393701
0
LINE
8
BLACK
6
CONTINUOUS
10
8.520592952755905
20
-5.986286850393701
11
8.5135631889763772
21
-5.9968076771653545
0
LINE
8
BLACK
6
CONTINUOUS
10
8.5135631889763772
20
-5.9968076771653545
11
8.5055360236220476
21
-6.0065888188976375
0
LINE
8
BLACK
6
CONTINUOUS
10
8.5055360236220476
20
-6.0065888188976375
11
8.4965888188976368
21
-6.0155360236220474
0
LINE
8
BLACK
6
CONTINUOUS
10
8.4965888188976368
20
-6.0155360236220474
11
8.4868076771653538
21
-6.0235631889763779
0
LINE
8
BLACK
6
CONTINUOUS
10
8.4868076771653538
20
-6.0235631889763779
11
8.4762868503937003
21
-6.0305929527559057
0
LINE
8
BLACK
6
CONTINUOUS
10
8.4762868503937003
20
-6.0305929527559057
11
8.4651276771653539
21
-6.0365576771653542
0
LINE
8
BLACK
6
CONTINUOUS
10
8.4651276771653539
20
-6.0365576771653542
11
8.4534375590551178
21
-6.0413998818897641
0
LINE
8
BLACK
6
CONTINUOUS
10
8.4534375590551178
20
-6.0413998818897641
11
8.4413291338582681
21
-6.0450729133858268
0
LINE
8
BLACK
6
CONTINUOUS
10
8.4413291338582681
20
-6.0450729133858268
11
8.4289189763779522
21
-6.0475414566929135
0
LINE
8
BLACK
6
CONTINUOUS
10
8.4289189763779522
20
-6.0475414566929135
11
8.4163266535433063
21
-6.0487816929133853
0
LINE
8
BLACK
6
CONTINUOUS
10
8.4163266535433063
20
-6.0487816929133853
11
8.4036733464566922
21
-6.0487816929133853
0
LINE
8
BLACK
6
CONTINUOUS
10
8.4036733464566922
20
-6.0487816929133853
11
8.3910810236220463
21
-6.0475414566929135
0
LINE
8
BLACK
6
CONTINUOUS
10
8.3910810236220463
20
-6.0475414566929135
11
8.3786708661417322
21
-6.0450729133858268
0
LINE
8
BLACK
6
CONTINUOUS
10
8.3786708661417322
20
-6.0450729133858268
11
8.3665624409448824
21
-6.0413998818897641
0
LINE
8
BLACK
6
CONTINUOUS
10
8.3665624409448824
20
-6.0413998818897641
11
8.3548723228346446
21
-6.0365576771653542
0
LINE
8
BLACK
6
CONTINUOUS
10
8.3548723228346446
20
-6.0365576771653542
11
8.3437131496062982
21
-6.0305929527559057
0
LINE
8
BLACK
6
CONTINUOUS
10
8.3437131496062982
20
-6.0305929527559057
11
8.3331923228346447
21
-6.0235631889763779
0
LINE
8
BLACK
6
CONTINUOUS
10
8.3331923228346447
20
-6.0235631889763779
11
8.3234111811023617
21
-6.0155360236220474
0
LINE
8
BLACK
6
CONTINUOUS
10
8.3234111811023617
20
-6.0155360236220474
11
8.3144639763779526
21
-6.0065888188976375
0
LINE
8
BLACK
6
CONTINUOUS
10
8.3144639763779526
20
-6.0065888188976375
11
8.3064368110236213
21
-5.9968076771653545
0
LINE
8
BLACK
6
CONTINUOUS
10
8.3064368110236213
20
-5.9968076771653545
11
8.2994070472440935
21
-5.986286850393701
0
LINE
8
BLACK
6
CONTINUOUS
10
8.2994070472440935
20
-5.986286850393701
11
8.293442322834645
21
-5.9751276771653545
0
LINE
8
BLACK
6
CONTINUOUS
10
8.293442322834645
20
-5.9751276771653545
11
8.2886001181102369
21
-5.9634375590551176
0
LINE
8
BLACK
6
CONTINUOUS
10
8.2886001181102369
20
-5.9634375590551176
11
8.2849270866141733
21
-5.9513291338582679
0
LINE
8
BLACK
6
CONTINUOUS
10
8.2849270866141733
20
-5.9513291338582679
11
8.2824585433070865
21
-5.9389189763779529
0
LINE
8
BLACK
6
CONTINUOUS
10
8.2824585433070865
20
-5.9389189763779529
11
8.2812183070866148
21
-5.926326653543307
0
LINE
8
BLACK
6
CONTINUOUS
10
8.2812183070866148
20
-5.926326653543307
11
8.2812183070866148
21
-5.9136733464566928
0
LINE
8
BLACK
6
CONTINUOUS
10
8.2812183070866148
20
-5.9136733464566928
11
8.2812757086614166
21
-5.9130907086614171
0
LINE
8
BLACK
6
CONTINUOUS
10
8.2812757086614166
20
-5.9130907086614171
11
8.2824585433070865
21
-5.901081023622047
0
LINE
8
BLACK
6
CONTINUOUS
10
8.2824585433070865
20
-5.901081023622047
11
8.2849270866141733
21
-5.888670866141732
0
LINE
8
BLACK
6
CONTINUOUS
10
8.2849270866141733
20
-5.888670866141732
11
8.2886001181102369
21
-5.8765624409448813
0
LINE
8
BLACK
6
CONTINUOUS
10
8.2886001181102369
20
-5.8765624409448813
11
8.293442322834645
21
-5.8648723228346453
0
LINE
8
BLACK
6
CONTINUOUS
10
8.293442322834645
20
-5.8648723228346453
11
8.2994070472440935
21
-5.8537131496062988
0
LINE
8
BLACK
6
CONTINUOUS
10
8.2994070472440935
20
-5.8537131496062988
11
8.3064368110236213
21
-5.8431923228346454
0
LINE
8
BLACK
6
CONTINUOUS
10
8.3064368110236213
20
-5.8431923228346454
11
8.3144639763779526
21
-5.8334111811023623
0
LINE
8
BLACK
6
CONTINUOUS
10
8.3144639763779526
20
-5.8334111811023623
11
8.3234111811023617
21
-5.8244639763779524
0
LINE
8
BLACK
6
CONTINUOUS
10
8.3234111811023617
20
-5.8244639763779524
11
8.3331923228346447
21
-5.816436811023622
0
LINE
8
BLACK
6
CONTINUOUS
10
8.3331923228346447
20
-5.816436811023622
11
8.3437131496062982
21
-5.8094070472440942
0
LINE
8
BLACK
6
CONTINUOUS
10
8.3437131496062982
20
-5.8094070472440942
11
8.3548723228346446
21
-5.8034423228346457
0
LINE
8
BLACK
6
CONTINUOUS
10
8.3548723228346446
20
-5.8034423228346457
11
8.3665624409448824
21
-5.7986001181102358
0
LINE
8
BLACK
6
CONTINUOUS
10
8.3665624409448824
20
-5.7986001181102358
11
8.3786708661417322
21
-5.7949270866141731
0
LINE
8
BLACK
6
CONTINUOUS
10
8.3786708661417322
20
-5.7949270866141731
11
8.3910810236220463
21
-5.7924585433070863
0
LINE
8
BLACK
6
CONTINUOUS
10
8.3910810236220463
20
-5.7924585433070863
11
8.4036733464566922
21
-5.7912183070866137
0
LINE
8
BLACK
6
CONTINUOUS
10
8.4036733464566922
20
-5.7912183070866137
11
8.4163266535433063
21
-5.7912183070866137
0
LINE
8
BLACK
6
CONTINUOUS
10
8.4163266535433063
20
-5.7912183070866137
11
8.4289189763779522
21
-5.7924585433070863
0
LINE
8
BLACK
6
CONTINUOUS
10
8.2869685039370076
20
-5.9269092913385828
11
8.2885157086614178
21
-5.9406410236220468
0
LINE
8
BLACK
6
CONTINUOUS
10
8.2885157086614178
20
-5.9406410236220468
11
8.2915906299212594
21
-5.9541131496062993
0
LINE
8
BLACK
6
CONTINUOUS
10
8.2915906299212594
20
-5.9541131496062993
11
8.2961546062992131
21
-5.9671562992125979
0
LINE
8
BLACK
6
CONTINUOUS
10
8.2961546062992131
20
-5.9671562992125979
11
8.3021502755905505
21
-5.9796064173228345
0
LINE
8
BLACK
6
CONTINUOUS
10
8.3021502755905505
20
-5.9796064173228345
11
8.30950220472441
21
-5.9913069685039373
0
LINE
8
BLACK
6
CONTINUOUS
10
8.30950220472441
20
-5.9913069685039373
11
8.318117992125984
21
-6.0021107874015751
0
LINE
8
BLACK
6
CONTINUOUS
10
8.318117992125984
20
-6.0021107874015751
11
8.327889212598425
21
-6.0118820078740161
0
LINE
8
BLACK
6
CONTINUOUS
10
8.327889212598425
20
-6.0118820078740161
11
8.3386930314960637
21
-6.02049779527559
0
LINE
8
BLACK
6
CONTINUOUS
10
8.3386930314960637
20
-6.02049779527559
11
8.3503935826771656
21
-6.0278497244094487
0
LINE
8
BLACK
6
CONTINUOUS
10
8.3503935826771656
20
-6.0278497244094487
11
8.3628437007874012
21
-6.033845393700787
0
LINE
8
BLACK
6
CONTINUOUS
10
8.3628437007874012
20
-6.033845393700787
11
8.3758868503936998
21
-6.0384093700787398
0
LINE
8
BLACK
6
CONTINUOUS
10
8.3758868503936998
20
-6.0384093700787398
11
8.3893589763779524
21
-6.0414842913385822
0
LINE
8
BLACK
6
CONTINUOUS
10
8.3893589763779524
20
-6.0414842913385822
11
8.4030907086614164
21
-6.0430314960629916
0
LINE
8
BLACK
6
CONTINUOUS
10
8.4030907086614164
20
-6.0430314960629916
11
8.4169092913385821
21
-6.0430314960629916
0
LINE
8
BLACK
6
CONTINUOUS
10
8.4169092913385821
20
-6.0430314960629916
11
8.4306410236220479
21
-6.0414842913385822
0
LINE
8
BLACK
6
CONTINUOUS
10
8.4306410236220479
20
-6.0414842913385822
11
8.4441131496062987
21
-6.0384093700787398
0
LINE
8
BLACK
6
CONTINUOUS
10
8.4441131496062987
20
-6.0384093700787398
11
8.457156299212599
21
-6.033845393700787
0
LINE
8
BLACK
6
CONTINUOUS
10
8.457156299212599
20
-6.033845393700787
11
8.4696064173228347
21
-6.0278497244094487
0
LINE
8
BLACK
6
CONTINUOUS
10
8.4696064173228347
20
-6.0278497244094487
11
8.4813069685039366
21
-6.02049779527559
0
LINE
8
BLACK
6
CONTINUOUS
10
8.4813069685039366
20
-6.02049779527559
11
8.4921107874015753
21
-6.0118820078740161
0
LINE
8
BLACK
6
CONTINUOUS
10
8.4921107874015753
20
-6.0118820078740161
11
8.5018820078740163
21
-6.0021107874015751
0
LINE
8
BLACK
6
CONTINUOUS
10
8.5018820078740163
20
-6.0021107874015751
11
8.5104977952755902
21
-5.9913069685039373
0
LINE
8
BLACK
6
CONTINUOUS
10
8.5104977952755902
20
-5.9913069685039373
11
8.517849724409448
21
-5.9796064173228345
0
LINE
8
BLACK
6
CONTINUOUS
10
8.517849724409448
20
-5.9796064173228345
11
8.5238453937007872
21
-5.9671562992125979
0
LINE
8
BLACK
6
CONTINUOUS
10
8.5238453937007872
20
-5.9671562992125979
11
8.5284093700787391
21
-5.9541131496062993
0
LINE
8
BLACK
6
CONTINUOUS
10
8.5284093700787391
20
-5.9541131496062993
11
8.5314842913385824
21
-5.9406410236220468
0
LINE
8
BLACK
6
CONTINUOUS
10
8.5314842913385824
20
-5.9406410236220468
11
8.5330314960629927
21
-5.9269092913385828
0
LINE
8
BLACK
6
CONTINUOUS
10
8.5330314960629927
20
-5.9269092913385828
11
8.5330314960629927
21
-5.9130907086614171
0
LINE
8
BLACK
6
CONTINUOUS
10
8.5330314960629927
20
-5.9130907086614171
11
8.5314842913385824
21
-5.899358976377953
0
LINE
8
BLACK
6
CONTINUOUS
10
8.5314842913385824
20
-5.899358976377953
11
8.5284093700787391
21
-5.8858868503937005
0
LINE
8
BLACK
6
CONTINUOUS
10
8.5284093700787391
20
-5.8858868503937005
11
8.5238453937007872
21
-5.872843700787401
0
LINE
8
BLACK
6
CONTINUOUS
10
8.5238453937007872
20
-5.872843700787401
11
8.517849724409448
21
-5.8603935826771654
0
LINE
8
BLACK
6
CONTINUOUS
10
8.517849724409448
20
-5.8603935826771654
11
8.5104977952755902
21
-5.8486930314960626
0
LINE
8
BLACK
6
CONTINUOUS
10
8.5104977952755902
20
-5.8486930314960626
11
8.5018820078740163
21
-5.8378892125984247
0
LINE
8
BLACK
6
CONTINUOUS
10
8.5018820078740163
20
-5.8378892125984247
11
8.4921107874015753
21
-5.8281179921259838
0
LINE
8
BLACK
6
CONTINUOUS
10
8.4921107874015753
20
-5.8281179921259838
11
8.4813069685039366
21
-5.8195022047244089
0
LINE
8
BLACK
6
CONTINUOUS
10
8.4813069685039366
20
-5.8195022047244089
11
8.4696064173228347
21
-5.8121502755905512
0
LINE
8
BLACK
6
CONTINUOUS
10
8.4696064173228347
20
-5.8121502755905512
11
8.457156299212599
21
-5.8061546062992129
0
LINE
8
BLACK
6
CONTINUOUS
10
8.457156299212599
20
-5.8061546062992129
11
8.4441131496062987
21
-5.8015906299212601
0
LINE
8
BLACK
6
CONTINUOUS
10
8.4441131496062987
20
-5.8015906299212601
11
8.4306410236220479
21
-5.7985157086614176
0
LINE
8
BLACK
6
CONTINUOUS
10
8.4306410236220479
20
-5.7985157086614176
11
8.4169092913385821
21
-5.7969685039370074
0
LINE
8
BLACK
6
CONTINUOUS
10
8.4169092913385821
20
-5.7969685039370074
11
8.4030907086614164
21
-5.7969685039370074
0
LINE
8
BLACK
6
CONTINUOUS
10
8.4030907086614164
20
-5.7969685039370074
11
8.3893589763779524
21
-5.7985157086614176
0
LINE
8
BLACK
6
CONTINUOUS
10
8.3893589763779524
20
-5.7985157086614176
11
8.3758868503936998
21
-5.8015906299212601
0
LINE
8
BLACK
6
CONTINUOUS
10
8.3758868503936998
20
-5.8015906299212601
11
8.3628437007874012
21
-5.8061546062992129
0
LINE
8
BLACK
6
CONTINUOUS
10
8.3628437007874012
20
-5.8061546062992129
11
8.3503935826771656
21
-5.8121502755905512
0
LINE
8
BLACK
6
CONTINUOUS
10
8.3503935826771656
20
-5.8121502755905512
11
8.3386930314960637
21
-5.8195022047244089
0
LINE
8
BLACK
6
CONTINUOUS
10
8.3386930314960637
20
-5.8195022047244089
11
8.327889212598425
21
-5.8281179921259838
0
LINE
8
BLACK
6
CONTINUOUS
10
8.327889212598425
20
-5.8281179921259838
11
8.318117992125984
21
-5.8378892125984247
0
LINE
8
BLACK
6
CONTINUOUS
10
8.318117992125984
20
-5.8378892125984247
11
8.30950220472441
21
-5.8486930314960626
0
LINE
8
BLACK
6
CONTINUOUS
10
8.30950220472441
20
-5.8486930314960626
11
8.3021502755905505
21
-5.8603935826771654
0
LINE
8
BLACK
6
CONTINUOUS
10
8.3021502755905505
20
-5.8603935826771654
11
8.2961546062992131
21
-5.872843700787401
0
LINE
8
BLACK
6
CONTINUOUS
10
8.2961546062992131
20
-5.872843700787401
11
8.2915906299212594
21
-5.8858868503937005
0
LINE
8
BLACK
6
CONTINUOUS
10
8.2915906299212594
20
-5.8858868503937005
11
8.2885157086614178
21
-5.899358976377953
0
LINE
8
BLACK
6
CONTINUOUS
10
8.2885157086614178
20
-5.899358976377953
11
8.2869685039370076
21
-5.9130907086614171
0
LINE
8
BLACK
6
CONTINUOUS
10
8.2869685039370076
20
-5.9130907086614171
11
8.2869685039370076
21
-5.9269092913385828
0
LINE
8
BLACK
6
CONTINUOUS
10
6.3989189763779528
20
-4.9224585433070862
11
6.4113291338582679
21
-4.924927086614173
0
LINE
8
BLACK
6
CONTINUOUS
10
6.4113291338582679
20
-4.924927086614173
11
6.4234375590551176
21
-4.9286001181102357
0
LINE
8
BLACK
6
CONTINUOUS
10
6.4234375590551176
20
-4.9286001181102357
11
6.4351276771653545
21
-4.9334423228346456
0
LINE
8
BLACK
6
CONTINUOUS
10
6.4351276771653545
20
-4.9334423228346456
11
6.446286850393701
21
-4.9394070472440941
0
LINE
8
BLACK
6
CONTINUOUS
10
6.446286850393701
20
-4.9394070472440941
11
6.4568076771653544
21
-4.9464368110236219
0
LINE
8
BLACK
6
CONTINUOUS
10
6.4568076771653544
20
-4.9464368110236219
11
6.4665888188976375
21
-4.9544639763779523
0
LINE
8
BLACK
6
CONTINUOUS
10
6.4665888188976375
20
-4.9544639763779523
11
6.4755360236220474
21
-4.9634111811023622
0
LINE
8
BLACK
6
CONTINUOUS
10
6.4755360236220474
20
-4.9634111811023622
11
6.4835631889763778
21
-4.9731923228346453
0
LINE
8
BLACK
6
CONTINUOUS
10
6.4835631889763778
20
-4.9731923228346453
11
6.4905929527559056
21
-4.9837131496062987
0
LINE
8
BLACK
6
CONTINUOUS
10
6.4905929527559056
20
-4.9837131496062987
11
6.4965576771653541
21
-4.9948723228346452
0
LINE
8
BLACK
6
CONTINUOUS
10
6.4965576771653541
20
-4.9948723228346452
11
6.501399881889764
21
-5.0065624409448821
0
LINE
8
BLACK
6
CONTINUOUS
10
6.501399881889764
20
-5.0065624409448821
11
6.5050729133858267
21
-5.0186708661417319
0
LINE
8
BLACK
6
CONTINUOUS
10
6.5050729133858267
20
-5.0186708661417319
11
6.5075414566929135
21
-5.0310810236220469
0
LINE
8
BLACK
6
CONTINUOUS
10
6.5075414566929135
20
-5.0310810236220469
11
6.5087816929133853
21
-5.0436733464566927
0
LINE
8
BLACK
6
CONTINUOUS
10
6.5087816929133853
20
-5.0436733464566927
11
6.5087816929133853
21
-5.0563266535433069
0
LINE
8
BLACK
6
CONTINUOUS
10
6.5087816929133853
20
-5.0563266535433069
11
6.5075414566929135
21
-5.0689189763779527
0
LINE
8
BLACK
6
CONTINUOUS
10
6.5075414566929135
20
-5.0689189763779527
11
6.5050729133858267
21
-5.0813291338582678
0
LINE
8
BLACK
6
CONTINUOUS
10
6.5050729133858267
20
-5.0813291338582678
11
6.501399881889764
21
-5.0934375590551184
0
LINE
8
BLACK
6
CONTINUOUS
10
6.501399881889764
20
-5.0934375590551184
11
6.4965576771653541
21
-5.1051276771653544
0
LINE
8
BLACK
6
CONTINUOUS
10
6.4965576771653541
20
-5.1051276771653544
11
6.4905929527559056
21
-5.1162868503937009
0
LINE
8
BLACK
6
CONTINUOUS
10
6.4905929527559056
20
-5.1162868503937009
11
6.4835631889763778
21
-5.1268076771653543
0
LINE
8
BLACK
6
CONTINUOUS
10
6.4835631889763778
20
-5.1268076771653543
11
6.4755360236220474
21
-5.1365888188976374
0
LINE
8
BLACK
6
CONTINUOUS
10
6.4755360236220474
20
-5.1365888188976374
11
6.4665888188976375
21
-5.1455360236220473
0
LINE
8
BLACK
6
CONTINUOUS
10
6.4665888188976375
20
-5.1455360236220473
11
6.4568076771653544
21
-5.1535631889763778
0
LINE
8
BLACK
6
CONTINUOUS
10
6.4568076771653544
20
-5.1535631889763778
11
6.446286850393701
21
-5.1605929527559056
0
LINE
8
BLACK
6
CONTINUOUS
10
6.446286850393701
20
-5.1605929527559056
11
6.4351276771653545
21
-5.1665576771653541
0
LINE
8
BLACK
6
CONTINUOUS
10
6.4351276771653545
20
-5.1665576771653541
11
6.4234375590551176
21
-5.171399881889764
0
LINE
8
BLACK
6
CONTINUOUS
10
6.4234375590551176
20
-5.171399881889764
11
6.4113291338582679
21
-5.1750729133858266
0
LINE
8
BLACK
6
CONTINUOUS
10
6.4113291338582679
20
-5.1750729133858266
11
6.3989189763779528
21
-5.1775414566929134
0
LINE
8
BLACK
6
CONTINUOUS
10
6.3989189763779528
20
-5.1775414566929134
11
6.386326653543307
21
-5.1787816929133861
0
LINE
8
BLACK
6
CONTINUOUS
10
6.386326653543307
20
-5.1787816929133861
11
6.3736733464566928
21
-5.1787816929133861
0
LINE
8
BLACK
6
CONTINUOUS
10
6.3736733464566928
20
-5.1787816929133861
11
6.361081023622047
21
-5.1775414566929134
0
LINE
8
BLACK
6
CONTINUOUS
10
6.361081023622047
20
-5.1775414566929134
11
6.3486708661417319
21
-5.1750729133858266
0
LINE
8
BLACK
6
CONTINUOUS
10
6.3486708661417319
20
-5.1750729133858266
11
6.3365624409448813
21
-5.171399881889764
0
LINE
8
BLACK
6
CONTINUOUS
10
6.3365624409448813
20
-5.171399881889764
11
6.3248723228346453
21
-5.1665576771653541
0
LINE
8
BLACK
6
CONTINUOUS
10
6.3248723228346453
20
-5.1665576771653541
11
6.3137131496062988
21
-5.1605929527559056
0
LINE
8
BLACK
6
CONTINUOUS
10
6.3137131496062988
20
-5.1605929527559056
11
6.3031923228346454
21
-5.1535631889763778
0
LINE
8
BLACK
6
CONTINUOUS
10
6.3031923228346454
20
-5.1535631889763778
11
6.2934111811023623
21
-5.1455360236220473
0
LINE
8
BLACK
6
CONTINUOUS
10
6.2934111811023623
20
-5.1455360236220473
11
6.2844639763779524
21
-5.1365888188976374
0
LINE
8
BLACK
6
CONTINUOUS
10
6.2844639763779524
20
-5.1365888188976374
11
6.2764368110236219
21
-5.1268076771653543
0
LINE
8
BLACK
6
CONTINUOUS
10
6.2764368110236219
20
-5.1268076771653543
11
6.2694070472440941
21
-5.1162868503937009
0
LINE
8
BLACK
6
CONTINUOUS
10
6.2694070472440941
20
-5.1162868503937009
11
6.2634423228346456
21
-5.1051276771653544
0
LINE
8
BLACK
6
CONTINUOUS
10
6.2634423228346456
20
-5.1051276771653544
11
6.2586001181102358
21
-5.0934375590551184
0
LINE
8
BLACK
6
CONTINUOUS
10
6.2586001181102358
20
-5.0934375590551184
11
6.2549270866141731
21
-5.0813291338582678
0
LINE
8
BLACK
6
CONTINUOUS
10
6.2549270866141731
20
-5.0813291338582678
11
6.2524585433070863
21
-5.0689189763779527
0
LINE
8
BLACK
6
CONTINUOUS
10
6.2524585433070863
20
-5.0689189763779527
11
6.2512183070866136
21
-5.0563266535433069
0
LINE
8
BLACK
6
CONTINUOUS
10
6.2512183070866136
20
-5.0563266535433069
11
6.2512183070866136
21
-5.0436733464566927
0
LINE
8
BLACK
6
CONTINUOUS
10
6.2512183070866136
20
-5.0436733464566927
11
6.2512757086614172
21
-5.043090708661417
0
LINE
8
BLACK
6
CONTINUOUS
10
6.2512757086614172
20
-5.043090708661417
11
6.2524585433070863
21
-5.0310810236220469
0
LINE
8
BLACK
6
CONTINUOUS
10
6.2524585433070863
20
-5.0310810236220469
11
6.2549270866141731
21
-5.0186708661417319
0
LINE
8
BLACK
6
CONTINUOUS
10
6.2549270866141731
20
-5.0186708661417319
11
6.2586001181102358
21
-5.0065624409448821
0
LINE
8
BLACK
6
CONTINUOUS
10
6.2586001181102358
20
-5.0065624409448821
11
6.2634423228346456
21
-4.9948723228346452
0
LINE
8
BLACK
6
CONTINUOUS
10
6.2634423228346456
20
-4.9948723228346452
11
6.2694070472440941
21
-4.9837131496062987
0
LINE
8
BLACK
6
CONTINUOUS
10
6.2694070472440941
20
-4.9837131496062987
11
6.2764368110236219
21
-4.9731923228346453
0
LINE
8
BLACK
6
CONTINUOUS
10
6.2764368110236219
20
-4.9731923228346453
11
6.2844639763779524
21
-4.9634111811023622
0
LINE
8
BLACK
6
CONTINUOUS
10
6.2844639763779524
20
-4.9634111811023622
11
6.2934111811023623
21
-4.9544639763779523
0
LINE
8
BLACK
6
CONTINUOUS
10
6.2934111811023623
20
-4.9544639763779523
11
6.3031923228346454
21
-4.9464368110236219
0
LINE
8
BLACK
6
CONTINUOUS
10
6.3031923228346454
20
-4.9464368110236219
11
6.3137131496062988
21
-4.9394070472440941
0
LINE
8
BLACK
6
CONTINUOUS
10
6.3137131496062988
20
-4.9394070472440941
11
6.3248723228346453
21
-4.9334423228346456
0
LINE
8
BLACK
6
CONTINUOUS
10
6.3248723228346453
20
-4.9334423228346456
11
6.3365624409448813
21
-4.9286001181102357
0
LINE
8
BLACK
6
CONTINUOUS
10
6.3365624409448813
20
-4.9286001181102357
11
6.3486708661417319
21
-4.924927086614173
0
LINE
8
BLACK
6
CONTINUOUS
10
6.3486708661417319
20
-4.924927086614173
11
6.361081023622047
21
-4.9224585433070862
0
LINE
8
BLACK
6
CONTINUOUS
10
6.361081023622047
20
-4.9224585433070862
11
6.3736733464566928
21
-4.9212183070866145
0
LINE
8
BLACK
6
CONTINUOUS
10
6.3736733464566928
20
-4.9212183070866145
11
6.386326653543307
21
-4.9212183070866145
0
LINE
8
BLACK
6
CONTINUOUS
10
6.386326653543307
20
-4.9212183070866145
11
6.3989189763779528
21
-4.9224585433070862
0
LINE
8
BLACK
6
CONTINUOUS
10
6.2569685039370073
20
-5.0569092913385827
11
6.2585157086614176
21
-5.0706410236220467
0
LINE
8
BLACK
6
CONTINUOUS
10
6.2585157086614176
20
-5.0706410236220467
11
6.26159062992126
21
-5.0841131496062992
0
LINE
8
BLACK
6
CONTINUOUS
10
6.26159062992126
20
-5.0841131496062992
11
6.2661546062992128
21
-5.0971562992125987
0
LINE
8
BLACK
6
CONTINUOUS
10
6.2661546062992128
20
-5.0971562992125987
11
6.2721502755905512
21
-5.1096064173228344
0
LINE
8
BLACK
6
CONTINUOUS
10
6.2721502755905512
20
-5.1096064173228344
11
6.2795022047244089
21
-5.1213069685039372
0
LINE
8
BLACK
6
CONTINUOUS
10
6.2795022047244089
20
-5.1213069685039372
11
6.2881179921259838
21
-5.132110787401575
0
LINE
8
BLACK
6
CONTINUOUS
10
6.2881179921259838
20
-5.132110787401575
11
6.2978892125984247
21
-5.1418820078740159
0
LINE
8
BLACK
6
CONTINUOUS
10
6.2978892125984247
20
-5.1418820078740159
11
6.3086930314960625
21
-5.1504977952755908
0
LINE
8
BLACK
6
CONTINUOUS
10
6.3086930314960625
20
-5.1504977952755908
11
6.3203935826771653
21
-5.1578497244094486
0
LINE
8
BLACK
6
CONTINUOUS
10
6.3203935826771653
20
-5.1578497244094486
11
6.332843700787401
21
-5.1638453937007869
0
LINE
8
BLACK
6
CONTINUOUS
10
6.332843700787401
20
-5.1638453937007869
11
6.3458868503937005
21
-5.1684093700787397
0
LINE
8
BLACK
6
CONTINUOUS
10
6.3458868503937005
20
-5.1684093700787397
11
6.359358976377953
21
-5.1714842913385821
0
LINE
8
BLACK
6
CONTINUOUS
10
6.359358976377953
20
-5.1714842913385821
11
6.373090708661417
21
-5.1730314960629924
0
LINE
8
BLACK
6
CONTINUOUS
10
6.373090708661417
20
-5.1730314960629924
11
6.3869092913385828
21
-5.1730314960629924
0
LINE
8
BLACK
6
CONTINUOUS
10
6.3869092913385828
20
-5.1730314960629924
11
6.4006410236220468
21
-5.1714842913385821
0
LINE
8
BLACK
6
CONTINUOUS
10
6.4006410236220468
20
-5.1714842913385821
11
6.4141131496062993
21
-5.1684093700787397
0
LINE
8
BLACK
6
CONTINUOUS
10
6.4141131496062993
20
-5.1684093700787397
11
6.4271562992125979
21
-5.1638453937007869
0
LINE
8
BLACK
6
CONTINUOUS
10
6.4271562992125979
20
-5.1638453937007869
11
6.4396064173228345
21
-5.1578497244094486
0
LINE
8
BLACK
6
CONTINUOUS
10
6.4396064173228345
20
-5.1578497244094486
11
6.4513069685039373
21
-5.1504977952755908
0
LINE
8
BLACK
6
CONTINUOUS
10
6.4513069685039373
20
-5.1504977952755908
11
6.4621107874015751
21
-5.1418820078740159
0
LINE
8
BLACK
6
CONTINUOUS
10
6.4621107874015751
20
-5.1418820078740159
11
6.471882007874016
21
-5.132110787401575
0
LINE
8
BLACK
6
CONTINUOUS
10
6.471882007874016
20
-5.132110787401575
11
6.48049779527559
21
-5.1213069685039372
0
LINE
8
BLACK
6
CONTINUOUS
10
6.48049779527559
20
-5.1213069685039372
11
6.4878497244094486
21
-5.1096064173228344
0
LINE
8
BLACK
6
CONTINUOUS
10
6.4878497244094486
20
-5.1096064173228344
11
6.4938453937007869
21
-5.0971562992125987
0
LINE
8
BLACK
6
CONTINUOUS
10
6.4938453937007869
20
-5.0971562992125987
11
6.4984093700787398
21
-5.0841131496062992
0
LINE
8
BLACK
6
CONTINUOUS
10
6.4984093700787398
20
-5.0841131496062992
11
6.5014842913385822
21
-5.0706410236220467
0
LINE
8
BLACK
6
CONTINUOUS
10
6.5014842913385822
20
-5.0706410236220467
11
6.5030314960629916
21
-5.0569092913385827
0
LINE
8
BLACK
6
CONTINUOUS
10
6.5030314960629916
20
-5.0569092913385827
11
6.5030314960629916
21
-5.043090708661417
0
LINE
8
BLACK
6
CONTINUOUS
10
6.5030314960629916
20
-5.043090708661417
11
6.5014842913385822
21
-5.0293589763779529
0
LINE
8
BLACK
6
CONTINUOUS
10
6.5014842913385822
20
-5.0293589763779529
11
6.4984093700787398
21
-5.0158868503937004
0
LINE
8
BLACK
6
CONTINUOUS
10
6.4984093700787398
20
-5.0158868503937004
11
6.4938453937007869
21
-5.0028437007874018
0
LINE
8
BLACK
6
CONTINUOUS
10
6.4938453937007869
20
-5.0028437007874018
11
6.4878497244094486
21
-4.9903935826771653
0
LINE
8
BLACK
6
CONTINUOUS
10
6.4878497244094486
20
-4.9903935826771653
11
6.48049779527559
21
-4.9786930314960625
0
LINE
8
BLACK
6
CONTINUOUS
10
6.48049779527559
20
-4.9786930314960625
11
6.471882007874016
21
-4.9678892125984246
0
LINE
8
BLACK
6
CONTINUOUS
10
6.471882007874016
20
-4.9678892125984246
11
6.4621107874015751
21
-4.9581179921259837
0
LINE
8
BLACK
6
CONTINUOUS
10
6.4621107874015751
20
-4.9581179921259837
11
6.4513069685039373
21
-4.9495022047244097
0
LINE
8
BLACK
6
CONTINUOUS
10
6.4513069685039373
20
-4.9495022047244097
11
6.4396064173228345
21
-4.9421502755905511
0
LINE
8
BLACK
6
CONTINUOUS
10
6.4396064173228345
20
-4.9421502755905511
11
6.4271562992125979
21
-4.9361546062992128
0
LINE
8
BLACK
6
CONTINUOUS
10
6.4271562992125979
20
-4.9361546062992128
11
6.4141131496062993
21
-4.93159062992126
0
LINE
8
BLACK
6
CONTINUOUS
10
6.4141131496062993
20
-4.93159062992126
11
6.4006410236220468
21
-4.9285157086614175
0
LINE
8
BLACK
6
CONTINUOUS
10
6.4006410236220468
20
-4.9285157086614175
11
6.3869092913385828
21
-4.9269685039370081
0
LINE
8
BLACK
6
CONTINUOUS
10
6.3869092913385828
20
-4.9269685039370081
11
6.373090708661417
21
-4.9269685039370081
0
LINE
8
BLACK
6
CONTINUOUS
10
6.373090708661417
20
-4.9269685039370081
11
6.359358976377953
21
-4.9285157086614175
0
LINE
8
BLACK
6
CONTINUOUS
10
6.359358976377953
20
-4.9285157086614175
11
6.3458868503937005
21
-4.93159062992126
0
LINE
8
BLACK
6
CONTINUOUS
10
6.3458868503937005
20
-4.93159062992126
11
6.332843700787401
21
-4.9361546062992128
0
LINE
8
BLACK
6
CONTINUOUS
10
6.332843700787401
20
-4.9361546062992128
11
6.3203935826771653
21
-4.9421502755905511
0
LINE
8
BLACK
6
CONTINUOUS
10
6.3203935826771653
20
-4.9421502755905511
11
6.3086930314960625
21
-4.9495022047244097
0
LINE
8
BLACK
6
CONTINUOUS
10
6.3086930314960625
20
-4.9495022047244097
11
6.2978892125984247
21
-4.9581179921259837
0
LINE
8
BLACK
6
CONTINUOUS
10
6.2978892125984247
20
-4.9581179921259837
11
6.2881179921259838
21
-4.9678892125984246
0
LINE
8
BLACK
6
CONTINUOUS
10
6.2881179921259838
20
-4.9678892125984246
11
6.2795022047244089
21
-4.9786930314960625
0
LINE
8
BLACK
6
CONTINUOUS
10
6.2795022047244089
20
-4.9786930314960625
11
6.2721502755905512
21
-4.9903935826771653
0
LINE
8
BLACK
6
CONTINUOUS
10
6.2721502755905512
20
-4.9903935826771653
11
6.2661546062992128
21
-5.0028437007874018
0
LINE
8
BLACK
6
CONTINUOUS
10
6.2661546062992128
20
-5.0028437007874018
11
6.26159062992126
21
-5.0158868503937004
0
LINE
8
BLACK
6
CONTINUOUS
10
6.26159062992126
20
-5.0158868503937004
11
6.2585157086614176
21
-5.0293589763779529
0
LINE
8
BLACK
6
CONTINUOUS
10
6.2585157086614176
20
-5.0293589763779529
11
6.2569685039370073
21
-5.043090708661417
0
LINE
8
BLACK
6
CONTINUOUS
10
6.2569685039370073
20
-5.043090708661417
11
6.2569685039370073
21
-5.0569092913385827
0
LINE
8
BLACK
6
CONTINUOUS
10
8.7984465354330705
20
-4.695293188976378
11
8.8108566929133865
21
-4.6977617322834648
0
LINE
8
BLACK
6
CONTINUOUS
10
8.8108566929133865
20
-4.6977617322834648
11
8.8229651181102362
21
-4.7014347637795275
0
LINE
8
BLACK
6
CONTINUOUS
10
8.8229651181102362
20
-4.7014347637795275
11
8.8346552362204722
21
-4.7062769685039365
0
LINE
8
BLACK
6
CONTINUOUS
10
8.8346552362204722
20
-4.7062769685039365
11
8.8458144094488187
21
-4.7122416929133859
0
LINE
8
BLACK
6
CONTINUOUS
10
8.8458144094488187
20
-4.7122416929133859
11
8.8563352362204721
21
-4.7192714566929137
0
LINE
8
BLACK
6
CONTINUOUS
10
8.8563352362204721
20
-4.7192714566929137
11
8.8661163779527552
21
-4.7272986220472442
0
LINE
8
BLACK
6
CONTINUOUS
10
8.8661163779527552
20
-4.7272986220472442
11
8.875063582677166
21
-4.7362458267716532
0
LINE
8
BLACK
6
CONTINUOUS
10
8.875063582677166
20
-4.7362458267716532
11
8.8830907480314956
21
-4.7460269685039371
0
LINE
8
BLACK
6
CONTINUOUS
10
8.8830907480314956
20
-4.7460269685039371
11
8.8901205118110234
21
-4.7565477952755906
0
LINE
8
BLACK
6
CONTINUOUS
10
8.8901205118110234
20
-4.7565477952755906
11
8.8960852362204719
21
-4.767706968503937
0
LINE
8
BLACK
6
CONTINUOUS
10
8.8960852362204719
20
-4.767706968503937
11
8.9009274409448818
21
-4.7793970866141731
0
LINE
8
BLACK
6
CONTINUOUS
10
8.9009274409448818
20
-4.7793970866141731
11
8.9046004724409453
21
-4.7915055118110237
0
LINE
8
BLACK
6
CONTINUOUS
10
8.9046004724409453
20
-4.7915055118110237
11
8.9070690157480321
21
-4.8039156692913387
0
LINE
8
BLACK
6
CONTINUOUS
10
8.9070690157480321
20
-4.8039156692913387
11
8.9083092519685039
21
-4.8165079921259846
0
LINE
8
BLACK
6
CONTINUOUS
10
8.9083092519685039
20
-4.8165079921259846
11
8.9083092519685039
21
-4.8291612992125987
0
LINE
8
BLACK
6
CONTINUOUS
10
8.9083092519685039
20
-4.8291612992125987
11
8.9070690157480321
21
-4.8417536220472437
0
LINE
8
BLACK
6
CONTINUOUS
10
8.9070690157480321
20
-4.8417536220472437
11
8.9046004724409453
21
-4.8541637795275587
0
LINE
8
BLACK
6
CONTINUOUS
10
8.9046004724409453
20
-4.8541637795275587
11
8.9009274409448818
21
-4.8662722047244094
0
LINE
8
BLACK
6
CONTINUOUS
10
8.9009274409448818
20
-4.8662722047244094
11
8.8960852362204719
21
-4.8779623228346454
0
LINE
8
BLACK
6
CONTINUOUS
10
8.8960852362204719
20
-4.8779623228346454
11
8.8901205118110234
21
-4.8891214960629918
0
LINE
8
BLACK
6
CONTINUOUS
10
8.8901205118110234
20
-4.8891214960629918
11
8.8830907480314956
21
-4.8996423228346453
0
LINE
8
BLACK
6
CONTINUOUS
10
8.8830907480314956
20
-4.8996423228346453
11
8.875063582677166
21
-4.9094234645669292
0
LINE
8
BLACK
6
CONTINUOUS
10
8.875063582677166
20
-4.9094234645669292
11
8.8661163779527552
21
-4.9183706692913383
0
LINE
8
BLACK
6
CONTINUOUS
10
8.8661163779527552
20
-4.9183706692913383
11
8.8563352362204721
21
-4.9263978346456696
0
LINE
8
BLACK
6
CONTINUOUS
10
8.8563352362204721
20
-4.9263978346456696
11
8.8458144094488187
21
-4.9334275984251965
0
LINE
8
BLACK
6
CONTINUOUS
10
8.8458144094488187
20
-4.9334275984251965
11
8.8346552362204722
21
-4.9393923228346459
0
LINE
8
BLACK
6
CONTINUOUS
10
8.8346552362204722
20
-4.9393923228346459
11
8.8229651181102362
21
-4.9442345275590549
0
LINE
8
BLACK
6
CONTINUOUS
10
8.8229651181102362
20
-4.9442345275590549
11
8.8108566929133865
21
-4.9479075590551176
0
LINE
8
BLACK
6
CONTINUOUS
10
8.8108566929133865
20
-4.9479075590551176
11
8.7984465354330705
21
-4.9503761023622044
0
LINE
8
BLACK
6
CONTINUOUS
10
8.7984465354330705
20
-4.9503761023622044
11
8.7858542125984247
21
-4.951616338582677
0
LINE
8
BLACK
6
CONTINUOUS
10
8.7858542125984247
20
-4.951616338582677
11
8.7732009055118105
21
-4.951616338582677
0
LINE
8
BLACK
6
CONTINUOUS
10
8.7732009055118105
20
-4.951616338582677
11
8.7606085826771647
21
-4.9503761023622044
0
LINE
8
BLACK
6
CONTINUOUS
10
8.7606085826771647
20
-4.9503761023622044
11
8.7481984251968505
21
-4.9479075590551176
0
LINE
8
BLACK
6
CONTINUOUS
10
8.7481984251968505
20
-4.9479075590551176
11
8.736089999999999
21
-4.9442345275590549
0
LINE
8
BLACK
6
CONTINUOUS
10
8.736089999999999
20
-4.9442345275590549
11
8.724399881889763
21
-4.9393923228346459
0
LINE
8
BLACK
6
CONTINUOUS
10
8.724399881889763
20
-4.9393923228346459
11
8.7132407086614165
21
-4.9334275984251965
0
LINE
8
BLACK
6
CONTINUOUS
10
8.7132407086614165
20
-4.9334275984251965
11
8.7027198818897631
21
-4.9263978346456696
0
LINE
8
BLACK
6
CONTINUOUS
10
8.7027198818897631
20
-4.9263978346456696
11
8.69293874015748
21
-4.9183706692913383
0
LINE
8
BLACK
6
CONTINUOUS
10
8.69293874015748
20
-4.9183706692913383
11
8.683991535433071
21
-4.9094234645669292
0
LINE
8
BLACK
6
CONTINUOUS
10
8.683991535433071
20
-4.9094234645669292
11
8.6759643700787397
21
-4.8996423228346453
0
LINE
8
BLACK
6
CONTINUOUS
10
8.6759643700787397
20
-4.8996423228346453
11
8.6689346062992119
21
-4.8891214960629918
0
LINE
8
BLACK
6
CONTINUOUS
10
8.6689346062992119
20
-4.8891214960629918
11
8.6629698818897634
21
-4.8779623228346454
0
LINE
8
BLACK
6
CONTINUOUS
10
8.6629698818897634
20
-4.8779623228346454
11
8.6581276771653535
21
-4.8662722047244094
0
LINE
8
BLACK
6
CONTINUOUS
10
8.6581276771653535
20
-4.8662722047244094
11
8.6544546456692917
21
-4.8541637795275587
0
LINE
8
BLACK
6
CONTINUOUS
10
8.6544546456692917
20
-4.8541637795275587
11
8.6519861023622049
21
-4.8417536220472437
0
LINE
8
BLACK
6
CONTINUOUS
10
8.6519861023622049
20
-4.8417536220472437
11
8.6507458661417314
21
-4.8291612992125987
0
LINE
8
BLACK
6
CONTINUOUS
10
8.6507458661417314
20
-4.8291612992125987
11
8.6507458661417314
21
-4.8165079921259846
0
LINE
8
BLACK
6
CONTINUOUS
10
8.6507458661417314
20
-4.8165079921259846
11
8.650803267716535
21
-4.8159253543307088
0
LINE
8
BLACK
6
CONTINUOUS
10
8.650803267716535
20
-4.8159253543307088
11
8.6519861023622049
21
-4.8039156692913387
0
LINE
8
BLACK
6
CONTINUOUS
10
8.6519861023622049
20
-4.8039156692913387
11
8.6544546456692917
21
-4.7915055118110237
0
LINE
8
BLACK
6
CONTINUOUS
10
8.6544546456692917
20
-4.7915055118110237
11
8.6581276771653535
21
-4.7793970866141731
0
LINE
8
BLACK
6
CONTINUOUS
10
8.6581276771653535
20
-4.7793970866141731
11
8.6629698818897634
21
-4.767706968503937
0
LINE
8
BLACK
6
CONTINUOUS
10
8.6629698818897634
20
-4.767706968503937
11
8.6689346062992119
21
-4.7565477952755906
0
LINE
8
BLACK
6
CONTINUOUS
10
8.6689346062992119
20
-4.7565477952755906
11
8.6759643700787397
21
-4.7460269685039371
0
LINE
8
BLACK
6
CONTINUOUS
10
8.6759643700787397
20
-4.7460269685039371
11
8.683991535433071
21
-4.7362458267716532
0
LINE
8
BLACK
6
CONTINUOUS
10
8.683991535433071
20
-4.7362458267716532
11
8.69293874015748
21
-4.7272986220472442
0
LINE
8
BLACK
6
CONTINUOUS
10
8.69293874015748
20
-4.7272986220472442
11
8.7027198818897631
21
-4.7192714566929137
0
LINE
8
BLACK
6
CONTINUOUS
10
8.7027198818897631
20
-4.7192714566929137
11
8.7132407086614165
21
-4.7122416929133859
0
LINE
8
BLACK
6
CONTINUOUS
10
8.7132407086614165
20
-4.7122416929133859
11
8.724399881889763
21
-4.7062769685039365
0
LINE
8
BLACK
6
CONTINUOUS
10
8.724399881889763
20
-4.7062769685039365
11
8.736089999999999
21
-4.7014347637795275
0
LINE
8
BLACK
6
CONTINUOUS
10
8.736089999999999
20
-4.7014347637795275
11
8.7481984251968505
21
-4.6977617322834648
0
LINE
8
BLACK
6
CONTINUOUS
10
8.7481984251968505
20
-4.6977617322834648
11
8.7606085826771647
21
-4.695293188976378
0
LINE
8
BLACK
6
CONTINUOUS
10
8.7606085826771647
20
-4.695293188976378
11
8.7732009055118105
21
-4.6940529527559054
0
LINE
8
BLACK
6
CONTINUOUS
10
8.7732009055118105
20
-4.6940529527559054
11
8.7858542125984247
21
-4.6940529527559054
0
LINE
8
BLACK
6
CONTINUOUS
10
8.7858542125984247
20
-4.6940529527559054
11
8.7984465354330705
21
-4.695293188976378
0
LINE
8
BLACK
6
CONTINUOUS
10
8.6564960629921259
20
-4.8297439370078736
11
8.6580432677165344
21
-4.8434756692913385
0
LINE
8
BLACK
6
CONTINUOUS
10
8.6580432677165344
20
-4.8434756692913385
11
8.6611181889763778
21
-4.8569477952755902
0
LINE
8
BLACK
6
CONTINUOUS
10
8.6611181889763778
20
-4.8569477952755902
11
8.6656821653543297
21
-4.8699909448818897
0
LINE
8
BLACK
6
CONTINUOUS
10
8.6656821653543297
20
-4.8699909448818897
11
8.6716778346456689
21
-4.8824410629921262
0
LINE
8
BLACK
6
CONTINUOUS
10
8.6716778346456689
20
-4.8824410629921262
11
8.6790297637795266
21
-4.8941416141732281
0
LINE
8
BLACK
6
CONTINUOUS
10
8.6790297637795266
20
-4.8941416141732281
11
8.6876455511811024
21
-4.9049454330708659
0
LINE
8
BLACK
6
CONTINUOUS
10
8.6876455511811024
20
-4.9049454330708659
11
8.6974167716535433
21
-4.9147166535433069
0
LINE
8
BLACK
6
CONTINUOUS
10
8.6974167716535433
20
-4.9147166535433069
11
8.7082205905511803
21
-4.9233324409448818
0
LINE
8
BLACK
6
CONTINUOUS
10
8.7082205905511803
20
-4.9233324409448818
11
8.7199211417322839
21
-4.9306843700787404
0
LINE
8
BLACK
6
CONTINUOUS
10
8.7199211417322839
20
-4.9306843700787404
11
8.7323712598425196
21
-4.9366800393700787
0
LINE
8
BLACK
6
CONTINUOUS
10
8.7323712598425196
20
-4.9366800393700787
11
8.7454144094488182
21
-4.9412440157480315
0
LINE
8
BLACK
6
CONTINUOUS
10
8.7454144094488182
20
-4.9412440157480315
11
8.7588865354330707
21
-4.9443189370078739
0
LINE
8
BLACK
6
CONTINUOUS
10
8.7588865354330707
20
-4.9443189370078739
11
8.7726182677165347
21
-4.9458661417322833
0
LINE
8
BLACK
6
CONTINUOUS
10
8.7726182677165347
20
-4.9458661417322833
11
8.7864368503937005
21
-4.9458661417322833
0
LINE
8
BLACK
6
CONTINUOUS
10
8.7864368503937005
20
-4.9458661417322833
11
8.8001685826771645
21
-4.9443189370078739
0
LINE
8
BLACK
6
CONTINUOUS
10
8.8001685826771645
20
-4.9443189370078739
11
8.813640708661417
21
-4.9412440157480315
0
LINE
8
BLACK
6
CONTINUOUS
10
8.813640708661417
20
-4.9412440157480315
11
8.8266838582677156
21
-4.9366800393700787
0
LINE
8
BLACK
6
CONTINUOUS
10
8.8266838582677156
20
-4.9366800393700787
11
8.8391339763779531
21
-4.9306843700787404
0
LINE
8
BLACK
6
CONTINUOUS
10
8.8391339763779531
20
-4.9306843700787404
11
8.850834527559055
21
-4.9233324409448818
0
LINE
8
BLACK
6
CONTINUOUS
10
8.850834527559055
20
-4.9233324409448818
11
8.8616383464566919
21
-4.9147166535433069
0
LINE
8
BLACK
6
CONTINUOUS
10
8.8616383464566919
20
-4.9147166535433069
11
8.8714095669291329
21
-4.9049454330708659
0
LINE
8
BLACK
6
CONTINUOUS
10
8.8714095669291329
20
-4.9049454330708659
11
8.8800253543307086
21
-4.8941416141732281
0
LINE
8
BLACK
6
CONTINUOUS
10
8.8800253543307086
20
-4.8941416141732281
11
8.8873772834645663
21
-4.8824410629921262
0
LINE
8
BLACK
6
CONTINUOUS
10
8.8873772834645663
20
-4.8824410629921262
11
8.8933729527559056
21
-4.8699909448818897
0
LINE
8
BLACK
6
CONTINUOUS
10
8.8933729527559056
20
-4.8699909448818897
11
8.8979369291338575
21
-4.8569477952755902
0
LINE
8
BLACK
6
CONTINUOUS
10
8.8979369291338575
20
-4.8569477952755902
11
8.9010118503937008
21
-4.8434756692913385
0
LINE
8
BLACK
6
CONTINUOUS
10
8.9010118503937008
20
-4.8434756692913385
11
8.9025590551181093
21
-4.8297439370078736
0
LINE
8
BLACK
6
CONTINUOUS
10
8.9025590551181093
20
-4.8297439370078736
11
8.9025590551181093
21
-4.8159253543307088
0
LINE
8
BLACK
6
CONTINUOUS
10
8.9025590551181093
20
-4.8159253543307088
11
8.9010118503937008
21
-4.8021936220472439
0
LINE
8
BLACK
6
CONTINUOUS
10
8.9010118503937008
20
-4.8021936220472439
11
8.8979369291338575
21
-4.7887214960629922
0
LINE
8
BLACK
6
CONTINUOUS
10
8.8979369291338575
20
-4.7887214960629922
11
8.8933729527559056
21
-4.7756783464566928
0
LINE
8
BLACK
6
CONTINUOUS
10
8.8933729527559056
20
-4.7756783464566928
11
8.8873772834645663
21
-4.7632282283464562
0
LINE
8
BLACK
6
CONTINUOUS
10
8.8873772834645663
20
-4.7632282283464562
11
8.8800253543307086
21
-4.7515276771653543
0
LINE
8
BLACK
6
CONTINUOUS
10
8.8800253543307086
20
-4.7515276771653543
11
8.8714095669291329
21
-4.7407238582677165
0
LINE
8
BLACK
6
CONTINUOUS
10
8.8714095669291329
20
-4.7407238582677165
11
8.8616383464566919
21
-4.7309526377952755
0
LINE
8
BLACK
6
CONTINUOUS
10
8.8616383464566919
20
-4.7309526377952755
11
8.850834527559055
21
-4.7223368503937007
0
LINE
8
BLACK
6
CONTINUOUS
10
8.850834527559055
20
-4.7223368503937007
11
8.8391339763779531
21
-4.714984921259842
0
LINE
8
BLACK
6
CONTINUOUS
10
8.8391339763779531
20
-4.714984921259842
11
8.8266838582677156
21
-4.7089892519685037
0
LINE
8
BLACK
6
CONTINUOUS
10
8.8266838582677156
20
-4.7089892519685037
11
8.813640708661417
21
-4.7044252755905509
0
LINE
8
BLACK
6
CONTINUOUS
10
8.813640708661417
20
-4.7044252755905509
11
8.8001685826771645
21
-4.7013503543307085
0
LINE
8
BLACK
6
CONTINUOUS
10
8.8001685826771645
20
-4.7013503543307085
11
8.7864368503937005
21
-4.6998031496062991
0
LINE
8
BLACK
6
CONTINUOUS
10
8.7864368503937005
20
-4.6998031496062991
11
8.7726182677165347
21
-4.6998031496062991
0
LINE
8
BLACK
6
CONTINUOUS
10
8.7726182677165347
20
-4.6998031496062991
11
8.7588865354330707
21
-4.7013503543307085
0
LINE
8
BLACK
6
CONTINUOUS
10
8.7588865354330707
20
-4.7013503543307085
11
8.7454144094488182
21
-4.7044252755905509
0
LINE
8
BLACK
6
CONTINUOUS
10
8.7454144094488182
20
-4.7044252755905509
11
8.7323712598425196
21
-4.7089892519685037
0
LINE
8
BLACK
6
CONTINUOUS
10
8.7323712598425196
20
-4.7089892519685037
11
8.7199211417322839
21
-4.714984921259842
0
LINE
8
BLACK
6
CONTINUOUS
10
8.7199211417322839
20
-4.714984921259842
11
8.7082205905511803
21
-4.7223368503937007
0
LINE
8
BLACK
6
CONTINUOUS
10
8.7082205905511803
20
-4.7223368503937007
11
8.6974167716535433
21
-4.7309526377952755
0
LINE
8
BLACK
6
CONTINUOUS
10
8.6974167716535433
20
-4.7309526377952755
11
8.6876455511811024
21
-4.7407238582677165
0
LINE
8
BLACK
6
CONTINUOUS
10
8.6876455511811024
20
-4.7407238582677165
11
8.6790297637795266
21
-4.7515276771653543
0
LINE
8
BLACK
6
CONTINUOUS
10
8.6790297637795266
20
-4.7515276771653543
11
8.6716778346456689
21
-4.7632282283464562
0
LINE
8
BLACK
6
CONTINUOUS
10
8.6716778346456689
20
-4.7632282283464562
11
8.6656821653543297
21
-4.7756783464566928
0
LINE
8
BLACK
6
CONTINUOUS
10
8.6656821653543297
20
-4.7756783464566928
11
8.6611181889763778
21
-4.7887214960629922
0
LINE
8
BLACK
6
CONTINUOUS
10
8.6611181889763778
20
-4.7887214960629922
11
8.6580432677165344
21
-4.8021936220472439
0
LINE
8
BLACK
6
CONTINUOUS
10
8.6580432677165344
20
-4.8021936220472439
11
8.6564960629921259
21
-4.8159253543307088
0
LINE
8
BLACK
6
CONTINUOUS
10
8.6564960629921259
20
-4.8159253543307088
11
8.6564960629921259
21
-4.8297439370078736
0
LINE
8
BLACK
6
CONTINUOUS
10
5.2945095275590548
20
-4.0850569685039373
11
5.3069196850393698
21
-4.0875255118110232
0
LINE
8
BLACK
6
CONTINUOUS
10
5.3069196850393698
20
-4.0875255118110232
11
5.3190281102362205
21
-4.0911985433070868
0
LINE
8
BLACK
6
CONTINUOUS
10
5.3190281102362205
20
-4.0911985433070868
11
5.3307182283464565
21
-4.0960407480314958
0
LINE
8
BLACK
6
CONTINUOUS
10
5.3307182283464565
20
-4.0960407480314958
11
5.341877401574803
21
-4.1020054724409452
0
LINE
8
BLACK
6
CONTINUOUS
10
5.341877401574803
20
-4.1020054724409452
11
5.3523982283464564
21
-4.1090352362204721
0
LINE
8
BLACK
6
CONTINUOUS
10
5.3523982283464564
20
-4.1090352362204721
11
5.3621793700787403
21
-4.1170624015748034
0
LINE
8
BLACK
6
CONTINUOUS
10
5.3621793700787403
20
-4.1170624015748034
11
5.3711265748031494
21
-4.1260096062992124
0
LINE
8
BLACK
6
CONTINUOUS
10
5.3711265748031494
20
-4.1260096062992124
11
5.3791537401574798
21
-4.1357907480314964
0
LINE
8
BLACK
6
CONTINUOUS
10
5.3791537401574798
20
-4.1357907480314964
11
5.3861835039370076
21
-4.1463115748031498
0
LINE
8
BLACK
6
CONTINUOUS
10
5.3861835039370076
20
-4.1463115748031498
11
5.3921482283464561
21
-4.1574707480314963
0
LINE
8
BLACK
6
CONTINUOUS
10
5.3921482283464561
20
-4.1574707480314963
11
5.396990433070866
21
-4.1691608661417323
0
LINE
8
BLACK
6
CONTINUOUS
10
5.396990433070866
20
-4.1691608661417323
11
5.4006634645669287
21
-4.1812692913385829
0
LINE
8
BLACK
6
CONTINUOUS
10
5.4006634645669287
20
-4.1812692913385829
11
5.4031320078740155
21
-4.193679448818898
0
LINE
8
BLACK
6
CONTINUOUS
10
5.4031320078740155
20
-4.193679448818898
11
5.4043722440944881
21
-4.2062717716535429
0
LINE
8
BLACK
6
CONTINUOUS
10
5.4043722440944881
20
-4.2062717716535429
11
5.4043722440944881
21
-4.2189250787401571
0
LINE
8
BLACK
6
CONTINUOUS
10
5.4043722440944881
20
-4.2189250787401571
11
5.4031320078740155
21
-4.2315174015748029
0
LINE
8
BLACK
6
CONTINUOUS
10
5.4031320078740155
20
-4.2315174015748029
11
5.4006634645669287
21
-4.243927559055118
0
LINE
8
BLACK
6
CONTINUOUS
10
5.4006634645669287
20
-4.243927559055118
11
5.396990433070866
21
-4.2560359842519686
0
LINE
8
BLACK
6
CONTINUOUS
10
5.396990433070866
20
-4.2560359842519686
11
5.3921482283464561
21
-4.2677261023622046
0
LINE
8
BLACK
6
CONTINUOUS
10
5.3921482283464561
20
-4.2677261023622046
11
5.3861835039370076
21
-4.2788852755905511
0
LINE
8
BLACK
6
CONTINUOUS
10
5.3861835039370076
20
-4.2788852755905511
11
5.3791537401574798
21
-4.2894061023622045
0
LINE
8
BLACK
6
CONTINUOUS
10
5.3791537401574798
20
-4.2894061023622045
11
5.3711265748031494
21
-4.2991872440944885
0
LINE
8
BLACK
6
CONTINUOUS
10
5.3711265748031494
20
-4.2991872440944885
11
5.3621793700787403
21
-4.3081344488188975
0
LINE
8
BLACK
6
CONTINUOUS
10
5.3621793700787403
20
-4.3081344488188975
11
5.3523982283464564
21
-4.316161614173228
0
LINE
8
BLACK
6
CONTINUOUS
10
5.3523982283464564
20
-4.316161614173228
11
5.341877401574803
21
-4.3231913779527558
0
LINE
8
BLACK
6
CONTINUOUS
10
5.341877401574803
20
-4.3231913779527558
11
5.3307182283464565
21
-4.3291561023622043
0
LINE
8
BLACK
6
CONTINUOUS
10
5.3307182283464565
20
-4.3291561023622043
11
5.3190281102362205
21
-4.3339983070866142
0
LINE
8
BLACK
6
CONTINUOUS
10
5.3190281102362205
20
-4.3339983070866142
11
5.3069196850393698
21
-4.3376713385826768
0
LINE
8
BLACK
6
CONTINUOUS
10
5.3069196850393698
20
-4.3376713385826768
11
5.2945095275590548
21
-4.3401398818897636
0
LINE
8
BLACK
6
CONTINUOUS
10
5.2945095275590548
20
-4.3401398818897636
11
5.281917204724409
21
-4.3413801181102363
0
LINE
8
BLACK
6
CONTINUOUS
10
5.281917204724409
20
-4.3413801181102363
11
5.2692638976377948
21
-4.3413801181102363
0
LINE
8
BLACK
6
CONTINUOUS
10
5.2692638976377948
20
-4.3413801181102363
11
5.2566715748031498
21
-4.3401398818897636
0
LINE
8
BLACK
6
CONTINUOUS
10
5.2566715748031498
20
-4.3401398818897636
11
5.2442614173228348
21
-4.3376713385826768
0
LINE
8
BLACK
6
CONTINUOUS
10
5.2442614173228348
20
-4.3376713385826768
11
5.2321529921259842
21
-4.3339983070866142
0
LINE
8
BLACK
6
CONTINUOUS
10
5.2321529921259842
20
-4.3339983070866142
11
5.2204628740157482
21
-4.3291561023622043
0
LINE
8
BLACK
6
CONTINUOUS
10
5.2204628740157482
20
-4.3291561023622043
11
5.2093037007874017
21
-4.3231913779527558
0
LINE
8
BLACK
6
CONTINUOUS
10
5.2093037007874017
20
-4.3231913779527558
11
5.1987828740157482
21
-4.316161614173228
0
LINE
8
BLACK
6
CONTINUOUS
10
5.1987828740157482
20
-4.316161614173228
11
5.1890017322834643
21
-4.3081344488188975
0
LINE
8
BLACK
6
CONTINUOUS
10
5.1890017322834643
20
-4.3081344488188975
11
5.1800545275590553
21
-4.2991872440944885
0
LINE
8
BLACK
6
CONTINUOUS
10
5.1800545275590553
20
-4.2991872440944885
11
5.1720273622047239
21
-4.2894061023622045
0
LINE
8
BLACK
6
CONTINUOUS
10
5.1720273622047239
20
-4.2894061023622045
11
5.164997598425197
21
-4.2788852755905511
0
LINE
8
BLACK
6
CONTINUOUS
10
5.164997598425197
20
-4.2788852755905511
11
5.1590328740157476
21
-4.2677261023622046
0
LINE
8
BLACK
6
CONTINUOUS
10
5.1590328740157476
20
-4.2677261023622046
11
5.1541906692913386
21
-4.2560359842519686
0
LINE
8
BLACK
6
CONTINUOUS
10
5.1541906692913386
20
-4.2560359842519686
11
5.150517637795275
21
-4.243927559055118
0
LINE
8
BLACK
6
CONTINUOUS
10
5.150517637795275
20
-4.243927559055118
11
5.1480490944881891
21
-4.2315174015748029
0
LINE
8
BLACK
6
CONTINUOUS
10
5.1480490944881891
20
-4.2315174015748029
11
5.1468088582677165
21
-4.2189250787401571
0
LINE
8
BLACK
6
CONTINUOUS
10
5.1468088582677165
20
-4.2189250787401571
11
5.1468088582677165
21
-4.2062717716535429
0
LINE
8
BLACK
6
CONTINUOUS
10
5.1468088582677165
20
-4.2062717716535429
11
5.1468662598425192
21
-4.205689133858268
0
LINE
8
BLACK
6
CONTINUOUS
10
5.1468662598425192
20
-4.205689133858268
11
5.1480490944881891
21
-4.193679448818898
0
LINE
8
BLACK
6
CONTINUOUS
10
5.1480490944881891
20
-4.193679448818898
11
5.150517637795275
21
-4.1812692913385829
0
LINE
8
BLACK
6
CONTINUOUS
10
5.150517637795275
20
-4.1812692913385829
11
5.1541906692913386
21
-4.1691608661417323
0
LINE
8
BLACK
6
CONTINUOUS
10
5.1541906692913386
20
-4.1691608661417323
11
5.1590328740157476
21
-4.1574707480314963
0
LINE
8
BLACK
6
CONTINUOUS
10
5.1590328740157476
20
-4.1574707480314963
11
5.164997598425197
21
-4.1463115748031498
0
LINE
8
BLACK
6
CONTINUOUS
10
5.164997598425197
20
-4.1463115748031498
11
5.1720273622047239
21
-4.1357907480314964
0
LINE
8
BLACK
6
CONTINUOUS
10
5.1720273622047239
20
-4.1357907480314964
11
5.1800545275590553
21
-4.1260096062992124
0
LINE
8
BLACK
6
CONTINUOUS
10
5.1800545275590553
20
-4.1260096062992124
11
5.1890017322834643
21
-4.1170624015748034
0
LINE
8
BLACK
6
CONTINUOUS
10
5.1890017322834643
20
-4.1170624015748034
11
5.1987828740157482
21
-4.1090352362204721
0
LINE
8
BLACK
6
CONTINUOUS
10
5.1987828740157482
20
-4.1090352362204721
11
5.2093037007874017
21
-4.1020054724409452
0
LINE
8
BLACK
6
CONTINUOUS
10
5.2093037007874017
20
-4.1020054724409452
11
5.2204628740157482
21
-4.0960407480314958
0
LINE
8
BLACK
6
CONTINUOUS
10
5.2204628740157482
20
-4.0960407480314958
11
5.2321529921259842
21
-4.0911985433070868
0
LINE
8
BLACK
6
CONTINUOUS
10
5.2321529921259842
20
-4.0911985433070868
11
5.2442614173228348
21
-4.0875255118110232
0
LINE
8
BLACK
6
CONTINUOUS
10
5.2442614173228348
20
-4.0875255118110232
11
5.2566715748031498
21
-4.0850569685039373
0
LINE
8
BLACK
6
CONTINUOUS
10
5.2566715748031498
20
-4.0850569685039373
11
5.2692638976377948
21
-4.0838167322834646
0
LINE
8
BLACK
6
CONTINUOUS
10
5.2692638976377948
20
-4.0838167322834646
11
5.281917204724409
21
-4.0838167322834646
0
LINE
8
BLACK
6
CONTINUOUS
10
5.281917204724409
20
-4.0838167322834646
11
5.2945095275590548
21
-4.0850569685039373
0
LINE
8
BLACK
6
CONTINUOUS
10
5.1525590551181102
20
-4.2195077165354329
11
5.1541062598425196
21
-4.2332394488188978
0
LINE
8
BLACK
6
CONTINUOUS
10
5.1541062598425196
20
-4.2332394488188978
11
5.157181181102362
21
-4.2467115748031494
0
LINE
8
BLACK
6
CONTINUOUS
10
5.157181181102362
20
-4.2467115748031494
11
5.1617451574803148
21
-4.2597547244094489
0
LINE
8
BLACK
6
CONTINUOUS
10
5.1617451574803148
20
-4.2597547244094489
11
5.1677408267716531
21
-4.2722048425196846
0
LINE
8
BLACK
6
CONTINUOUS
10
5.1677408267716531
20
-4.2722048425196846
11
5.1750927559055118
21
-4.2839053937007874
0
LINE
8
BLACK
6
CONTINUOUS
10
5.1750927559055118
20
-4.2839053937007874
11
5.1837085433070866
21
-4.2947092125984252
0
LINE
8
BLACK
6
CONTINUOUS
10
5.1837085433070866
20
-4.2947092125984252
11
5.1934797637795276
21
-4.3044804330708661
0
LINE
8
BLACK
6
CONTINUOUS
10
5.1934797637795276
20
-4.3044804330708661
11
5.2042835826771654
21
-4.313096220472441
0
LINE
8
BLACK
6
CONTINUOUS
10
5.2042835826771654
20
-4.313096220472441
11
5.2159841338582673
21
-4.3204481496062987
0
LINE
8
BLACK
6
CONTINUOUS
10
5.2159841338582673
20
-4.3204481496062987
11
5.2284342519685039
21
-4.326443818897638
0
LINE
8
BLACK
6
CONTINUOUS
10
5.2284342519685039
20
-4.326443818897638
11
5.2414774015748034
21
-4.3310077952755908
0
LINE
8
BLACK
6
CONTINUOUS
10
5.2414774015748034
20
-4.3310077952755908
11
5.254949527559055
21
-4.3340827165354332
0
LINE
8
BLACK
6
CONTINUOUS
10
5.254949527559055
20
-4.3340827165354332
11
5.2686812598425199
21
-4.3356299212598426
0
LINE
8
BLACK
6
CONTINUOUS
10
5.2686812598425199
20
-4.3356299212598426
11
5.2824998425196847
21
-4.3356299212598426
0
LINE
8
BLACK
6
CONTINUOUS
10
5.2824998425196847
20
-4.3356299212598426
11
5.2962315748031497
21
-4.3340827165354332
0
LINE
8
BLACK
6
CONTINUOUS
10
5.2962315748031497
20
-4.3340827165354332
11
5.3097037007874013
21
-4.3310077952755908
0
LINE
8
BLACK
6
CONTINUOUS
10
5.3097037007874013
20
-4.3310077952755908
11
5.3227468503937008
21
-4.326443818897638
0
LINE
8
BLACK
6
CONTINUOUS
10
5.3227468503937008
20
-4.326443818897638
11
5.3351969685039373
21
-4.3204481496062987
0
LINE
8
BLACK
6
CONTINUOUS
10
5.3351969685039373
20
-4.3204481496062987
11
5.3468975196850392
21
-4.313096220472441
0
LINE
8
BLACK
6
CONTINUOUS
10
5.3468975196850392
20
-4.313096220472441
11
5.3577013385826771
21
-4.3044804330708661
0
LINE
8
BLACK
6
CONTINUOUS
10
5.3577013385826771
20
-4.3044804330708661
11
5.367472559055118
21
-4.2947092125984252
0
LINE
8
BLACK
6
CONTINUOUS
10
5.367472559055118
20
-4.2947092125984252
11
5.3760883464566929
21
-4.2839053937007874
0
LINE
8
BLACK
6
CONTINUOUS
10
5.3760883464566929
20
-4.2839053937007874
11
5.3834402755905515
21
-4.2722048425196846
0
LINE
8
BLACK
6
CONTINUOUS
10
5.3834402755905515
20
-4.2722048425196846
11
5.3894359448818898
21
-4.2597547244094489
0
LINE
8
BLACK
6
CONTINUOUS
10
5.3894359448818898
20
-4.2597547244094489
11
5.3939999212598426
21
-4.2467115748031494
0
LINE
8
BLACK
6
CONTINUOUS
10
5.3939999212598426
20
-4.2467115748031494
11
5.3970748425196851
21
-4.2332394488188978
0
LINE
8
BLACK
6
CONTINUOUS
10
5.3970748425196851
20
-4.2332394488188978
11
5.3986220472440944
21
-4.2195077165354329
0
LINE
8
BLACK
6
CONTINUOUS
10
5.3986220472440944
20
-4.2195077165354329
11
5.3986220472440944
21
-4.205689133858268
0
LINE
8
BLACK
6
CONTINUOUS
10
5.3986220472440944
20
-4.205689133858268
11
5.3970748425196851
21
-4.1919574015748031
0
LINE
8
BLACK
6
CONTINUOUS
10
5.3970748425196851
20
-4.1919574015748031
11
5.3939999212598426
21
-4.1784852755905515
0
LINE
8
BLACK
6
CONTINUOUS
10
5.3939999212598426
20
-4.1784852755905515
11
5.3894359448818898
21
-4.165442125984252
0
LINE
8
BLACK
6
CONTINUOUS
10
5.3894359448818898
20
-4.165442125984252
11
5.3834402755905515
21
-4.1529920078740155
0
LINE
8
BLACK
6
CONTINUOUS
10
5.3834402755905515
20
-4.1529920078740155
11
5.3760883464566929
21
-4.1412914566929135
0
LINE
8
BLACK
6
CONTINUOUS
10
5.3760883464566929
20
-4.1412914566929135
11
5.367472559055118
21
-4.1304876377952757
0
LINE
8
BLACK
6
CONTINUOUS
10
5.367472559055118
20
-4.1304876377952757
11
5.3577013385826771
21
-4.1207164173228348
0
LINE
8
BLACK
6
CONTINUOUS
10
5.3577013385826771
20
-4.1207164173228348
11
5.3468975196850392
21
-4.1121006299212599
0
LINE
8
BLACK
6
CONTINUOUS
10
5.3468975196850392
20
-4.1121006299212599
11
5.3351969685039373
21
-4.1047487007874013
0
LINE
8
BLACK
6
CONTINUOUS
10
5.3351969685039373
20
-4.1047487007874013
11
5.3227468503937008
21
-4.098753031496063
0
LINE
8
BLACK
6
CONTINUOUS
10
5.3227468503937008
20
-4.098753031496063
11
5.3097037007874013
21
-4.0941890551181102
0
LINE
8
BLACK
6
CONTINUOUS
10
5.3097037007874013
20
-4.0941890551181102
11
5.2962315748031497
21
-4.0911141338582677
0
LINE
8
BLACK
6
CONTINUOUS
10
5.2962315748031497
20
-4.0911141338582677
11
5.2824998425196847
21
-4.0895669291338583
0
LINE
8
BLACK
6
CONTINUOUS
10
5.2824998425196847
20
-4.0895669291338583
11
5.2686812598425199
21
-4.0895669291338583
0
LINE
8
BLACK
6
CONTINUOUS
10
5.2686812598425199
20
-4.0895669291338583
11
5.254949527559055
21
-4.0911141338582677
0
LINE
8
BLACK
6
CONTINUOUS
10
5.254949527559055
20
-4.0911141338582677
11
5.2414774015748034
21
-4.0941890551181102
0
LINE
8
BLACK
6
CONTINUOUS
10
5.2414774015748034
20
-4.0941890551181102
11
5.2284342519685039
21
-4.098753031496063
0
LINE
8
BLACK
6
CONTINUOUS
10
5.2284342519685039
20
-4.098753031496063
11
5.2159841338582673
21
-4.1047487007874013
0
LINE
8
BLACK
6
CONTINUOUS
10
5.2159841338582673
20
-4.1047487007874013
11
5.2042835826771654
21
-4.1121006299212599
0
LINE
8
BLACK
6
CONTINUOUS
10
5.2042835826771654
20
-4.1121006299212599
11
5.1934797637795276
21
-4.1207164173228348
0
LINE
8
BLACK
6
CONTINUOUS
10
5.1934797637795276
20
-4.1207164173228348
11
5.1837085433070866
21
-4.1304876377952757
0
LINE
8
BLACK
6
CONTINUOUS
10
5.1837085433070866
20
-4.1304876377952757
11
5.1750927559055118
21
-4.1412914566929135
0
LINE
8
BLACK
6
CONTINUOUS
10
5.1750927559055118
20
-4.1412914566929135
11
5.1677408267716531
21
-4.1529920078740155
0
LINE
8
BLACK
6
CONTINUOUS
10
5.1677408267716531
20
-4.1529920078740155
11
5.1617451574803148
21
-4.165442125984252
0
LINE
8
BLACK
6
CONTINUOUS
10
5.1617451574803148
20
-4.165442125984252
11
5.157181181102362
21
-4.1784852755905515
0
LINE
8
BLACK
6
CONTINUOUS
10
5.157181181102362
20
-4.1784852755905515
11
5.1541062598425196
21
-4.1919574015748031
0
LINE
8
BLACK
6
CONTINUOUS
10
5.1541062598425196
20
-4.1919574015748031
11
5.1525590551181102
21
-4.205689133858268
0
LINE
8
BLACK
6
CONTINUOUS
10
5.1525590551181102
20
-4.205689133858268
11
5.1525590551181102
21
-4.2195077165354329
0
LINE
8
BLACK
6
CONTINUOUS
10
6.3968717322834641
20
-3.8291514566929132
11
6.4092818897637791
21
-3.83162
0
LINE
8
BLACK
6
CONTINUOUS
10
6.4092818897637791
20
-3.83162
11
6.4213903149606297
21
-3.8352930314960627
0
LINE
8
BLACK
6
CONTINUOUS
10
6.4213903149606297
20
-3.8352930314960627
11
6.4330804330708657
21
-3.8401352362204721
0
LINE
8
BLACK
6
CONTINUOUS
10
6.4330804330708657
20
-3.8401352362204721
11
6.4442396062992122
21
-3.8460999606299211
0
LINE
8
BLACK
6
CONTINUOUS
10
6.4442396062992122
20
-3.8460999606299211
11
6.4547604330708657
21
-3.8531297244094489
0
LINE
8
BLACK
6
CONTINUOUS
10
6.4547604330708657
20
-3.8531297244094489
11
6.4645415748031496
21
-3.8611568897637794
0
LINE
8
BLACK
6
CONTINUOUS
10
6.4645415748031496
20
-3.8611568897637794
11
6.4734887795275586
21
-3.8701040944881888
0
LINE
8
BLACK
6
CONTINUOUS
10
6.4734887795275586
20
-3.8701040944881888
11
6.48151594488189
21
-3.8798852362204723
0
LINE
8
BLACK
6
CONTINUOUS
10
6.48151594488189
20
-3.8798852362204723
11
6.4885457086614169
21
-3.8904060629921258
0
LINE
8
BLACK
6
CONTINUOUS
10
6.4885457086614169
20
-3.8904060629921258
11
6.4945104330708663
21
-3.9015652362204722
0
LINE
8
BLACK
6
CONTINUOUS
10
6.4945104330708663
20
-3.9015652362204722
11
6.4993526377952753
21
-3.9132553543307087
0
LINE
8
BLACK
6
CONTINUOUS
10
6.4993526377952753
20
-3.9132553543307087
11
6.5030256692913389
21
-3.9253637795275589
0
LINE
8
BLACK
6
CONTINUOUS
10
6.5030256692913389
20
-3.9253637795275589
11
6.5054942125984248
21
-3.9377739370078739
0
LINE
8
BLACK
6
CONTINUOUS
10
6.5054942125984248
20
-3.9377739370078739
11
6.5067344488188974
21
-3.9503662598425198
0
LINE
8
BLACK
6
CONTINUOUS
10
6.5067344488188974
20
-3.9503662598425198
11
6.5067344488188974
21
-3.9630195669291339
0
LINE
8
BLACK
6
CONTINUOUS
10
6.5067344488188974
20
-3.9630195669291339
11
6.5054942125984248
21
-3.9756118897637793
0
LINE
8
BLACK
6
CONTINUOUS
10
6.5054942125984248
20
-3.9756118897637793
11
6.5030256692913389
21
-3.9880220472440944
0
LINE
8
BLACK
6
CONTINUOUS
10
6.5030256692913389
20
-3.9880220472440944
11
6.4993526377952753
21
-4.0001304724409446
0
LINE
8
BLACK
6
CONTINUOUS
10
6.4993526377952753
20
-4.0001304724409446
11
6.4945104330708663
21
-4.0118205905511815
0
LINE
8
BLACK
6
CONTINUOUS
10
6.4945104330708663
20
-4.0118205905511815
11
6.4885457086614169
21
-4.022979763779527
0
LINE
8
BLACK
6
CONTINUOUS
10
6.4885457086614169
20
-4.022979763779527
11
6.48151594488189
21
-4.0335005905511814
0
LINE
8
BLACK
6
CONTINUOUS
10
6.48151594488189
20
-4.0335005905511814
11
6.4734887795275586
21
-4.0432817322834644
0
LINE
8
BLACK
6
CONTINUOUS
10
6.4734887795275586
20
-4.0432817322834644
11
6.4645415748031496
21
-4.0522289370078743
0
LINE
8
BLACK
6
CONTINUOUS
10
6.4645415748031496
20
-4.0522289370078743
11
6.4547604330708657
21
-4.0602561023622048
0
LINE
8
BLACK
6
CONTINUOUS
10
6.4547604330708657
20
-4.0602561023622048
11
6.4442396062992122
21
-4.0672858661417326
0
LINE
8
BLACK
6
CONTINUOUS
10
6.4442396062992122
20
-4.0672858661417326
11
6.4330804330708657
21
-4.0732505905511811
0
LINE
8
BLACK
6
CONTINUOUS
10
6.4330804330708657
20
-4.0732505905511811
11
6.4213903149606297
21
-4.0780927952755901
0
LINE
8
BLACK
6
CONTINUOUS
10
6.4213903149606297
20
-4.0780927952755901
11
6.4092818897637791
21
-4.0817658267716537
0
LINE
8
BLACK
6
CONTINUOUS
10
6.4092818897637791
20
-4.0817658267716537
11
6.3968717322834641
21
-4.0842343700787405
0
LINE
8
BLACK
6
CONTINUOUS
10
6.3968717322834641
20
-4.0842343700787405
11
6.3842794094488191
21
-4.0854746062992122
0
LINE
8
BLACK
6
CONTINUOUS
10
6.3842794094488191
20
-4.0854746062992122
11
6.3716261023622049
21
-4.0854746062992122
0
LINE
8
BLACK
6
CONTINUOUS
10
6.3716261023622049
20
-4.0854746062992122
11
6.3590337795275591
21
-4.0842343700787405
0
LINE
8
BLACK
6
CONTINUOUS
10
6.3590337795275591
20
-4.0842343700787405
11
6.3466236220472441
21
-4.0817658267716537
0
LINE
8
BLACK
6
CONTINUOUS
10
6.3466236220472441
20
-4.0817658267716537
11
6.3345151968503934
21
-4.0780927952755901
0
LINE
8
BLACK
6
CONTINUOUS
10
6.3345151968503934
20
-4.0780927952755901
11
6.3228250787401574
21
-4.0732505905511811
0
LINE
8
BLACK
6
CONTINUOUS
10
6.3228250787401574
20
-4.0732505905511811
11
6.3116659055118109
21
-4.0672858661417326
0
LINE
8
BLACK
6
CONTINUOUS
10
6.3116659055118109
20
-4.0672858661417326
11
6.3011450787401575
21
-4.0602561023622048
0
LINE
8
BLACK
6
CONTINUOUS
10
6.3011450787401575
20
-4.0602561023622048
11
6.2913639370078736
21
-4.0522289370078743
0
LINE
8
BLACK
6
CONTINUOUS
10
6.2913639370078736
20
-4.0522289370078743
11
6.2824167322834645
21
-4.0432817322834644
0
LINE
8
BLACK
6
CONTINUOUS
10
6.2824167322834645
20
-4.0432817322834644
11
6.2743895669291341
21
-4.0335005905511814
0
LINE
8
BLACK
6
CONTINUOUS
10
6.2743895669291341
20
-4.0335005905511814
11
6.2673598031496063
21
-4.022979763779527
0
LINE
8
BLACK
6
CONTINUOUS
10
6.2673598031496063
20
-4.022979763779527
11
6.2613950787401578
21
-4.0118205905511815
0
LINE
8
BLACK
6
CONTINUOUS
10
6.2613950787401578
20
-4.0118205905511815
11
6.2565528740157479
21
-4.0001304724409446
0
LINE
8
BLACK
6
CONTINUOUS
10
6.2565528740157479
20
-4.0001304724409446
11
6.2528798425196852
21
-3.9880220472440944
0
LINE
8
BLACK
6
CONTINUOUS
10
6.2528798425196852
20
-3.9880220472440944
11
6.2504112992125984
21
-3.9756118897637793
0
LINE
8
BLACK
6
CONTINUOUS
10
6.2504112992125984
20
-3.9756118897637793
11
6.2491710629921258
21
-3.9630195669291339
0
LINE
8
BLACK
6
CONTINUOUS
10
6.2491710629921258
20
-3.9630195669291339
11
6.2491710629921258
21
-3.9503662598425198
0
LINE
8
BLACK
6
CONTINUOUS
10
6.2491710629921258
20
-3.9503662598425198
11
6.2492284645669294
21
-3.949783622047244
0
LINE
8
BLACK
6
CONTINUOUS
10
6.2492284645669294
20
-3.949783622047244
11
6.2504112992125984
21
-3.9377739370078739
0
LINE
8
BLACK
6
CONTINUOUS
10
6.2504112992125984
20
-3.9377739370078739
11
6.2528798425196852
21
-3.9253637795275589
0
LINE
8
BLACK
6
CONTINUOUS
10
6.2528798425196852
20
-3.9253637795275589
11
6.2565528740157479
21
-3.9132553543307087
0
LINE
8
BLACK
6
CONTINUOUS
10
6.2565528740157479
20
-3.9132553543307087
11
6.2613950787401578
21
-3.9015652362204722
0
LINE
8
BLACK
6
CONTINUOUS
10
6.2613950787401578
20
-3.9015652362204722
11
6.2673598031496063
21
-3.8904060629921258
0
LINE
8
BLACK
6
CONTINUOUS
10
6.2673598031496063
20
-3.8904060629921258
11
6.2743895669291341
21
-3.8798852362204723
0
LINE
8
BLACK
6
CONTINUOUS
10
6.2743895669291341
20
-3.8798852362204723
11
6.2824167322834645
21
-3.8701040944881888
0
LINE
8
BLACK
6
CONTINUOUS
10
6.2824167322834645
20
-3.8701040944881888
11
6.2913639370078736
21
-3.8611568897637794
0
LINE
8
BLACK
6
CONTINUOUS
10
6.2913639370078736
20
-3.8611568897637794
11
6.3011450787401575
21
-3.8531297244094489
0
LINE
8
BLACK
6
CONTINUOUS
10
6.3011450787401575
20
-3.8531297244094489
11
6.3116659055118109
21
-3.8460999606299211
0
LINE
8
BLACK
6
CONTINUOUS
10
6.3116659055118109
20
-3.8460999606299211
11
6.3228250787401574
21
-3.8401352362204721
0
LINE
8
BLACK
6
CONTINUOUS
10
6.3228250787401574
20
-3.8401352362204721
11
6.3345151968503934
21
-3.8352930314960627
0
LINE
8
BLACK
6
CONTINUOUS
10
6.3345151968503934
20
-3.8352930314960627
11
6.3466236220472441
21
-3.83162
0
LINE
8
BLACK
6
CONTINUOUS
10
6.3466236220472441
20
-3.83162
11
6.3590337795275591
21
-3.8291514566929132
0
LINE
8
BLACK
6
CONTINUOUS
10
6.3590337795275591
20
-3.8291514566929132
11
6.3716261023622049
21
-3.827911220472441
0
LINE
8
BLACK
6
CONTINUOUS
10
6.3716261023622049
20
-3.827911220472441
11
6.3842794094488191
21
-3.827911220472441
0
LINE
8
BLACK
6
CONTINUOUS
10
6.3842794094488191
20
-3.827911220472441
11
6.3968717322834641
21
-3.8291514566929132
0
LINE
8
BLACK
6
CONTINUOUS
10
6.2549212598425195
20
-3.9636022047244093
11
6.2564684645669288
21
-3.9773339370078737
0
LINE
8
BLACK
6
CONTINUOUS
10
6.2564684645669288
20
-3.9773339370078737
11
6.2595433858267713
21
-3.9908060629921258
0
LINE
8
BLACK
6
CONTINUOUS
10
6.2595433858267713
20
-3.9908060629921258
11
6.2641073622047241
21
-4.0038492125984249
0
LINE
8
BLACK
6
CONTINUOUS
10
6.2641073622047241
20
-4.0038492125984249
11
6.2701030314960624
21
-4.0162993307086614
0
LINE
8
BLACK
6
CONTINUOUS
10
6.2701030314960624
20
-4.0162993307086614
11
6.277454960629921
21
-4.0279998818897633
0
LINE
8
BLACK
6
CONTINUOUS
10
6.277454960629921
20
-4.0279998818897633
11
6.2860707480314959
21
-4.0388037007874011
0
LINE
8
BLACK
6
CONTINUOUS
10
6.2860707480314959
20
-4.0388037007874011
11
6.2958419685039368
21
-4.0485749212598421
0
LINE
8
BLACK
6
CONTINUOUS
10
6.2958419685039368
20
-4.0485749212598421
11
6.3066457874015747
21
-4.057190708661417
0
LINE
8
BLACK
6
CONTINUOUS
10
6.3066457874015747
20
-4.057190708661417
11
6.3183463385826766
21
-4.0645426377952756
0
LINE
8
BLACK
6
CONTINUOUS
10
6.3183463385826766
20
-4.0645426377952756
11
6.3307964566929131
21
-4.0705383070866139
0
LINE
8
BLACK
6
CONTINUOUS
10
6.3307964566929131
20
-4.0705383070866139
11
6.3438396062992126
21
-4.0751022834645667
0
LINE
8
BLACK
6
CONTINUOUS
10
6.3438396062992126
20
-4.0751022834645667
11
6.3573117322834642
21
-4.0781772047244091
0
LINE
8
BLACK
6
CONTINUOUS
10
6.3573117322834642
20
-4.0781772047244091
11
6.3710434645669292
21
-4.0797244094488185
0
LINE
8
BLACK
6
CONTINUOUS
10
6.3710434645669292
20
-4.0797244094488185
11
6.384862047244094
21
-4.0797244094488185
0
LINE
8
BLACK
6
CONTINUOUS
10
6.384862047244094
20
-4.0797244094488185
11
6.3985937795275589
21
-4.0781772047244091
0
LINE
8
BLACK
6
CONTINUOUS
10
6.3985937795275589
20
-4.0781772047244091
11
6.4120659055118105
21
-4.0751022834645667
0
LINE
8
BLACK
6
CONTINUOUS
10
6.4120659055118105
20
-4.0751022834645667
11
6.42510905511811
21
-4.0705383070866139
0
LINE
8
BLACK
6
CONTINUOUS
10
6.42510905511811
20
-4.0705383070866139
11
6.4375591732283466
21
-4.0645426377952756
0
LINE
8
BLACK
6
CONTINUOUS
10
6.4375591732283466
20
-4.0645426377952756
11
6.4492597244094485
21
-4.057190708661417
0
LINE
8
BLACK
6
CONTINUOUS
10
6.4492597244094485
20
-4.057190708661417
11
6.4600635433070863
21
-4.0485749212598421
0
LINE
8
BLACK
6
CONTINUOUS
10
6.4600635433070863
20
-4.0485749212598421
11
6.4698347637795273
21
-4.0388037007874011
0
LINE
8
BLACK
6
CONTINUOUS
10
6.4698347637795273
20
-4.0388037007874011
11
6.4784505511811021
21
-4.0279998818897633
0
LINE
8
BLACK
6
CONTINUOUS
10
6.4784505511811021
20
-4.0279998818897633
11
6.4858024803149608
21
-4.0162993307086614
0
LINE
8
BLACK
6
CONTINUOUS
10
6.4858024803149608
20
-4.0162993307086614
11
6.4917981496062991
21
-4.0038492125984249
0
LINE
8
BLACK
6
CONTINUOUS
10
6.4917981496062991
20
-4.0038492125984249
11
6.4963621259842519
21
-3.9908060629921258
0
LINE
8
BLACK
6
CONTINUOUS
10
6.4963621259842519
20
-3.9908060629921258
11
6.4994370472440943
21
-3.9773339370078737
0
LINE
8
BLACK
6
CONTINUOUS
10
6.4994370472440943
20
-3.9773339370078737
11
6.5009842519685037
21
-3.9636022047244093
0
LINE
8
BLACK
6
CONTINUOUS
10
6.5009842519685037
20
-3.9636022047244093
11
6.5009842519685037
21
-3.949783622047244
0
LINE
8
BLACK
6
CONTINUOUS
10
6.5009842519685037
20
-3.949783622047244
11
6.4994370472440943
21
-3.9360518897637795
0
LINE
8
BLACK
6
CONTINUOUS
10
6.4994370472440943
20
-3.9360518897637795
11
6.4963621259842519
21
-3.9225797637795274
0
LINE
8
BLACK
6
CONTINUOUS
10
6.4963621259842519
20
-3.9225797637795274
11
6.4917981496062991
21
-3.9095366141732284
0
LINE
8
BLACK
6
CONTINUOUS
10
6.4917981496062991
20
-3.9095366141732284
11
6.4858024803149608
21
-3.8970864960629918
0
LINE
8
BLACK
6
CONTINUOUS
10
6.4858024803149608
20
-3.8970864960629918
11
6.4784505511811021
21
-3.8853859448818895
0
LINE
8
BLACK
6
CONTINUOUS
10
6.4784505511811021
20
-3.8853859448818895
11
6.4698347637795273
21
-3.8745821259842517
0
LINE
8
BLACK
6
CONTINUOUS
10
6.4698347637795273
20
-3.8745821259842517
11
6.4600635433070863
21
-3.8648109055118107
0
LINE
8
BLACK
6
CONTINUOUS
10
6.4600635433070863
20
-3.8648109055118107
11
6.4492597244094485
21
-3.8561951181102363
0
LINE
8
BLACK
6
CONTINUOUS
10
6.4492597244094485
20
-3.8561951181102363
11
6.4375591732283466
21
-3.8488431889763777
0
LINE
8
BLACK
6
CONTINUOUS
10
6.4375591732283466
20
-3.8488431889763777
11
6.42510905511811
21
-3.8428475196850393
0
LINE
8
BLACK
6
CONTINUOUS
10
6.42510905511811
20
-3.8428475196850393
11
6.4120659055118105
21
-3.8382835433070865
0
LINE
8
BLACK
6
CONTINUOUS
10
6.4120659055118105
20
-3.8382835433070865
11
6.3985937795275589
21
-3.8352086220472441
0
LINE
8
BLACK
6
CONTINUOUS
10
6.3985937795275589
20
-3.8352086220472441
11
6.384862047244094
21
-3.8336614173228347
0
LINE
8
BLACK
6
CONTINUOUS
10
6.384862047244094
20
-3.8336614173228347
11
6.3710434645669292
21
-3.8336614173228347
0
LINE
8
BLACK
6
CONTINUOUS
10
6.3710434645669292
20
-3.8336614173228347
11
6.3573117322834642
21
-3.8352086220472441
0
LINE
8
BLACK
6
CONTINUOUS
10
6.3573117322834642
20
-3.8352086220472441
11
6.3438396062992126
21
-3.8382835433070865
0
LINE
8
BLACK
6
CONTINUOUS
10
6.3438396062992126
20
-3.8382835433070865
11
6.3307964566929131
21
-3.8428475196850393
0
LINE
8
BLACK
6
CONTINUOUS
10
6.3307964566929131
20
-3.8428475196850393
11
6.3183463385826766
21
-3.8488431889763777
0
LINE
8
BLACK
6
CONTINUOUS
10
6.3183463385826766
20
-3.8488431889763777
11
6.3066457874015747
21
-3.8561951181102363
0
LINE
8
BLACK
6
CONTINUOUS
10
6.3066457874015747
20
-3.8561951181102363
11
6.2958419685039368
21
-3.8648109055118107
0
LINE
8
BLACK
6
CONTINUOUS
10
6.2958419685039368
20
-3.8648109055118107
11
6.2860707480314959
21
-3.8745821259842517
0
LINE
8
BLACK
6
CONTINUOUS
10
6.2860707480314959
20
-3.8745821259842517
11
6.277454960629921
21
-3.8853859448818895
0
LINE
8
BLACK
6
CONTINUOUS
10
6.277454960629921
20
-3.8853859448818895
11
6.2701030314960624
21
-3.8970864960629918
0
LINE
8
BLACK
6
CONTINUOUS
10
6.2701030314960624
20
-3.8970864960629918
11
6.2641073622047241
21
-3.9095366141732284
0
LINE
8
BLACK
6
CONTINUOUS
10
6.2641073622047241
20
-3.9095366141732284
11
6.2595433858267713
21
-3.9225797637795274
0
LINE
8
BLACK
6
CONTINUOUS
10
6.2595433858267713
20
-3.9225797637795274
11
6.2564684645669288
21
-3.9360518897637795
0
LINE
8
BLACK
6
CONTINUOUS
10
6.2564684645669288
20
-3.9360518897637795
11
6.2549212598425195
21
-3.949783622047244
0
LINE
8
BLACK
6
CONTINUOUS
10
6.2549212598425195
20
-3.949783622047244
11
6.2549212598425195
21
-3.9636022047244093
0
LINE
8
BLACK
6
CONTINUOUS
10
8.8575016535433075
20
-3.2779703543307086
11
8.8699118110236217
21
-3.2804388976377954
0
LINE
8
BLACK
6
CONTINUOUS
10
8.8699118110236217
20
-3.2804388976377954
11
8.8820202362204714
21
-3.2841119291338581
0
LINE
8
BLACK
6
CONTINUOUS
10
8.8820202362204714
20
-3.2841119291338581
11
8.8937103543307092
21
-3.2889541338582675
0
LINE
8
BLACK
6
CONTINUOUS
10
8.8937103543307092
20
-3.2889541338582675
11
8.9048695275590557
21
-3.2949188582677165
0
LINE
8
BLACK
6
CONTINUOUS
10
8.9048695275590557
20
-3.2949188582677165
11
8.9153903543307091
21
-3.3019486220472438
0
LINE
8
BLACK
6
CONTINUOUS
10
8.9153903543307091
20
-3.3019486220472438
11
8.9251714960629922
21
-3.3099757874015747
0
LINE
8
BLACK
6
CONTINUOUS
10
8.9251714960629922
20
-3.3099757874015747
11
8.9341187007874012
21
-3.3189229921259842
0
LINE
8
BLACK
6
CONTINUOUS
10
8.9341187007874012
20
-3.3189229921259842
11
8.9421458661417326
21
-3.3287041338582677
0
LINE
8
BLACK
6
CONTINUOUS
10
8.9421458661417326
20
-3.3287041338582677
11
8.9491756299212604
21
-3.3392249606299211
0
LINE
8
BLACK
6
CONTINUOUS
10
8.9491756299212604
20
-3.3392249606299211
11
8.9551403543307089
21
-3.3503841338582676
0
LINE
8
BLACK
6
CONTINUOUS
10
8.9551403543307089
20
-3.3503841338582676
11
8.9599825590551188
21
-3.3620742519685041
0
LINE
8
BLACK
6
CONTINUOUS
10
8.9599825590551188
20
-3.3620742519685041
11
8.9636555905511806
21
-3.3741826771653542
0
LINE
8
BLACK
6
CONTINUOUS
10
8.9636555905511806
20
-3.3741826771653542
11
8.9661241338582673
21
-3.3865928346456693
0
LINE
8
BLACK
6
CONTINUOUS
10
8.9661241338582673
20
-3.3865928346456693
11
8.9673643700787391
21
-3.3991851574803147
0
LINE
8
BLACK
6
CONTINUOUS
10
8.9673643700787391
20
-3.3991851574803147
11
8.9673643700787391
21
-3.4118384645669289
0
LINE
8
BLACK
6
CONTINUOUS
10
8.9673643700787391
20
-3.4118384645669289
11
8.9661241338582673
21
-3.4244307874015747
0
LINE
8
BLACK
6
CONTINUOUS
10
8.9661241338582673
20
-3.4244307874015747
11
8.9636555905511806
21
-3.4368409448818897
0
LINE
8
BLACK
6
CONTINUOUS
10
8.9636555905511806
20
-3.4368409448818897
11
8.9599825590551188
21
-3.4489493700787399
0
LINE
8
BLACK
6
CONTINUOUS
10
8.9599825590551188
20
-3.4489493700787399
11
8.9551403543307089
21
-3.4606394881889764
0
LINE
8
BLACK
6
CONTINUOUS
10
8.9551403543307089
20
-3.4606394881889764
11
8.9491756299212604
21
-3.4717986614173229
0
LINE
8
BLACK
6
CONTINUOUS
10
8.9491756299212604
20
-3.4717986614173229
11
8.9421458661417326
21
-3.4823194881889763
0
LINE
8
BLACK
6
CONTINUOUS
10
8.9421458661417326
20
-3.4823194881889763
11
8.9341187007874012
21
-3.4921006299212598
0
LINE
8
BLACK
6
CONTINUOUS
10
8.9341187007874012
20
-3.4921006299212598
11
8.9251714960629922
21
-3.5010478346456693
0
LINE
8
BLACK
6
CONTINUOUS
10
8.9251714960629922
20
-3.5010478346456693
11
8.9153903543307091
21
-3.5090749999999997
0
LINE
8
BLACK
6
CONTINUOUS
10
8.9153903543307091
20
-3.5090749999999997
11
8.9048695275590557
21
-3.5161047637795275
0
LINE
8
BLACK
6
CONTINUOUS
10
8.9048695275590557
20
-3.5161047637795275
11
8.8937103543307092
21
-3.5220694881889765
0
LINE
8
BLACK
6
CONTINUOUS
10
8.8937103543307092
20
-3.5220694881889765
11
8.8820202362204714
21
-3.5269116929133859
0
LINE
8
BLACK
6
CONTINUOUS
10
8.8820202362204714
20
-3.5269116929133859
11
8.8699118110236217
21
-3.5305847244094486
0
LINE
8
BLACK
6
CONTINUOUS
10
8.8699118110236217
20
-3.5305847244094486
11
8.8575016535433075
21
-3.5330532677165354
0
LINE
8
BLACK
6
CONTINUOUS
10
8.8575016535433075
20
-3.5330532677165354
11
8.8449093307086617
21
-3.5342935039370076
0
LINE
8
BLACK
6
CONTINUOUS
10
8.8449093307086617
20
-3.5342935039370076
11
8.8322560236220475
21
-3.5342935039370076
0
LINE
8
BLACK
6
CONTINUOUS
10
8.8322560236220475
20
-3.5342935039370076
11
8.8196637007874017
21
-3.5330532677165354
0
LINE
8
BLACK
6
CONTINUOUS
10
8.8196637007874017
20
-3.5330532677165354
11
8.8072535433070858
21
-3.5305847244094486
0
LINE
8
BLACK
6
CONTINUOUS
10
8.8072535433070858
20
-3.5305847244094486
11
8.795145118110236
21
-3.5269116929133859
0
LINE
8
BLACK
6
CONTINUOUS
10
8.795145118110236
20
-3.5269116929133859
11
8.783455
21
-3.5220694881889765
0
LINE
8
BLACK
6
CONTINUOUS
10
8.783455
20
-3.5220694881889765
11
8.7722958267716535
21
-3.5161047637795275
0
LINE
8
BLACK
6
CONTINUOUS
10
8.7722958267716535
20
-3.5161047637795275
11
8.7617750000000001
21
-3.5090749999999997
0
LINE
8
BLACK
6
CONTINUOUS
10
8.7617750000000001
20
-3.5090749999999997
11
8.751993858267717
21
-3.5010478346456693
0
LINE
8
BLACK
6
CONTINUOUS
10
8.751993858267717
20
-3.5010478346456693
11
8.7430466535433062
21
-3.4921006299212598
0
LINE
8
BLACK
6
CONTINUOUS
10
8.7430466535433062
20
-3.4921006299212598
11
8.7350194881889767
21
-3.4823194881889763
0
LINE
8
BLACK
6
CONTINUOUS
10
8.7350194881889767
20
-3.4823194881889763
11
8.7279897244094489
21
-3.4717986614173229
0
LINE
8
BLACK
6
CONTINUOUS
10
8.7279897244094489
20
-3.4717986614173229
11
8.7220250000000004
21
-3.4606394881889764
0
LINE
8
BLACK
6
CONTINUOUS
10
8.7220250000000004
20
-3.4606394881889764
11
8.7171827952755905
21
-3.4489493700787399
0
LINE
8
BLACK
6
CONTINUOUS
10
8.7171827952755905
20
-3.4489493700787399
11
8.7135097637795269
21
-3.4368409448818897
0
LINE
8
BLACK
6
CONTINUOUS
10
8.7135097637795269
20
-3.4368409448818897
11
8.7110412204724401
21
-3.4244307874015747
0
LINE
8
BLACK
6
CONTINUOUS
10
8.7110412204724401
20
-3.4244307874015747
11
8.7098009842519684
21
-3.4118384645669289
0
LINE
8
BLACK
6
CONTINUOUS
10
8.7098009842519684
20
-3.4118384645669289
11
8.7098009842519684
21
-3.3991851574803147
0
LINE
8
BLACK
6
CONTINUOUS
10
8.7098009842519684
20
-3.3991851574803147
11
8.709858385826772
21
-3.3986025196850393
0
LINE
8
BLACK
6
CONTINUOUS
10
8.709858385826772
20
-3.3986025196850393
11
8.7110412204724401
21
-3.3865928346456693
0
LINE
8
BLACK
6
CONTINUOUS
10
8.7110412204724401
20
-3.3865928346456693
11
8.7135097637795269
21
-3.3741826771653542
0
LINE
8
BLACK
6
CONTINUOUS
10
8.7135097637795269
20
-3.3741826771653542
11
8.7171827952755905
21
-3.3620742519685041
0
LINE
8
BLACK
6
CONTINUOUS
10
8.7171827952755905
20
-3.3620742519685041
11
8.7220250000000004
21
-3.3503841338582676
0
LINE
8
BLACK
6
CONTINUOUS
10
8.7220250000000004
20
-3.3503841338582676
11
8.7279897244094489
21
-3.3392249606299211
0
LINE
8
BLACK
6
CONTINUOUS
10
8.7279897244094489
20
-3.3392249606299211
11
8.7350194881889767
21
-3.3287041338582677
0
LINE
8
BLACK
6
CONTINUOUS
10
8.7350194881889767
20
-3.3287041338582677
11
8.7430466535433062
21
-3.3189229921259842
0
LINE
8
BLACK
6
CONTINUOUS
10
8.7430466535433062
20
-3.3189229921259842
11
8.751993858267717
21
-3.3099757874015747
0
LINE
8
BLACK
6
CONTINUOUS
10
8.751993858267717
20
-3.3099757874015747
11
8.7617750000000001
21
-3.3019486220472438
0
LINE
8
BLACK
6
CONTINUOUS
10
8.7617750000000001
20
-3.3019486220472438
11
8.7722958267716535
21
-3.2949188582677165
0
LINE
8
BLACK
6
CONTINUOUS
10
8.7722958267716535
20
-3.2949188582677165
11
8.783455
21
-3.2889541338582675
0
LINE
8
BLACK
6
CONTINUOUS
10
8.783455
20
-3.2889541338582675
11
8.795145118110236
21
-3.2841119291338581
0
LINE
8
BLACK
6
CONTINUOUS
10
8.795145118110236
20
-3.2841119291338581
11
8.8072535433070858
21
-3.2804388976377954
0
LINE
8
BLACK
6
CONTINUOUS
10
8.8072535433070858
20
-3.2804388976377954
11
8.8196637007874017
21
-3.2779703543307086
0
LINE
8
BLACK
6
CONTINUOUS
10
8.8196637007874017
20
-3.2779703543307086
11
8.8322560236220475
21
-3.276730118110236
0
LINE
8
BLACK
6
CONTINUOUS
10
8.8322560236220475
20
-3.276730118110236
11
8.8449093307086617
21
-3.276730118110236
0
LINE
8
BLACK
6
CONTINUOUS
10
8.8449093307086617
20
-3.276730118110236
11
8.8575016535433075
21
-3.2779703543307086
0
LINE
8
BLACK
6
CONTINUOUS
10
8.7155511811023612
20
-3.4124211023622046
11
8.7170983858267714
21
-3.4261528346456691
0
LINE
8
BLACK
6
CONTINUOUS
10
8.7170983858267714
20
-3.4261528346456691
11
8.7201733070866148
21
-3.4396249606299212
0
LINE
8
BLACK
6
CONTINUOUS
10
8.7201733070866148
20
-3.4396249606299212
11
8.7247372834645667
21
-3.4526681102362202
0
LINE
8
BLACK
6
CONTINUOUS
10
8.7247372834645667
20
-3.4526681102362202
11
8.7307329527559059
21
-3.4651182283464568
0
LINE
8
BLACK
6
CONTINUOUS
10
8.7307329527559059
20
-3.4651182283464568
11
8.7380848818897636
21
-3.4768187795275591
0
LINE
8
BLACK
6
CONTINUOUS
10
8.7380848818897636
20
-3.4768187795275591
11
8.7467006692913376
21
-3.487622598425197
0
LINE
8
BLACK
6
CONTINUOUS
10
8.7467006692913376
20
-3.487622598425197
11
8.7564718897637785
21
-3.4973938188976379
0
LINE
8
BLACK
6
CONTINUOUS
10
8.7564718897637785
20
-3.4973938188976379
11
8.7672757086614173
21
-3.5060096062992123
0
LINE
8
BLACK
6
CONTINUOUS
10
8.7672757086614173
20
-3.5060096062992123
11
8.7789762598425192
21
-3.5133615354330709
0
LINE
8
BLACK
6
CONTINUOUS
10
8.7789762598425192
20
-3.5133615354330709
11
8.7914263779527548
21
-3.5193572047244093
0
LINE
8
BLACK
6
CONTINUOUS
10
8.7914263779527548
20
-3.5193572047244093
11
8.8044695275590552
21
-3.5239211811023621
0
LINE
8
BLACK
6
CONTINUOUS
10
8.8044695275590552
20
-3.5239211811023621
11
8.8179416535433077
21
-3.5269961023622045
0
LINE
8
BLACK
6
CONTINUOUS
10
8.8179416535433077
20
-3.5269961023622045
11
8.8316733858267717
21
-3.5285433070866139
0
LINE
8
BLACK
6
CONTINUOUS
10
8.8316733858267717
20
-3.5285433070866139
11
8.8454919685039375
21
-3.5285433070866139
0
LINE
8
BLACK
6
CONTINUOUS
10
8.8454919685039375
20
-3.5285433070866139
11
8.8592237007874015
21
-3.5269961023622045
0
LINE
8
BLACK
6
CONTINUOUS
10
8.8592237007874015
20
-3.5269961023622045
11
8.872695826771654
21
-3.5239211811023621
0
LINE
8
BLACK
6
CONTINUOUS
10
8.872695826771654
20
-3.5239211811023621
11
8.8857389763779526
21
-3.5193572047244093
0
LINE
8
BLACK
6
CONTINUOUS
10
8.8857389763779526
20
-3.5193572047244093
11
8.8981890944881883
21
-3.5133615354330709
0
LINE
8
BLACK
6
CONTINUOUS
10
8.8981890944881883
20
-3.5133615354330709
11
8.909889645669292
21
-3.5060096062992123
0
LINE
8
BLACK
6
CONTINUOUS
10
8.909889645669292
20
-3.5060096062992123
11
8.9206934645669289
21
-3.4973938188976379
0
LINE
8
BLACK
6
CONTINUOUS
10
8.9206934645669289
20
-3.4973938188976379
11
8.9304646850393699
21
-3.487622598425197
0
LINE
8
BLACK
6
CONTINUOUS
10
8.9304646850393699
20
-3.487622598425197
11
8.9390804724409438
21
-3.4768187795275591
0
LINE
8
BLACK
6
CONTINUOUS
10
8.9390804724409438
20
-3.4768187795275591
11
8.9464324015748034
21
-3.4651182283464568
0
LINE
8
BLACK
6
CONTINUOUS
10
8.9464324015748034
20
-3.4651182283464568
11
8.9524280708661408
21
-3.4526681102362202
0
LINE
8
BLACK
6
CONTINUOUS
10
8.9524280708661408
20
-3.4526681102362202
11
8.9569920472440945
21
-3.4396249606299212
0
LINE
8
BLACK
6
CONTINUOUS
10
8.9569920472440945
20
-3.4396249606299212
11
8.960066968503936
21
-3.4261528346456691
0
LINE
8
BLACK
6
CONTINUOUS
10
8.960066968503936
20
-3.4261528346456691
11
8.9616141732283463
21
-3.4124211023622046
0
LINE
8
BLACK
6
CONTINUOUS
10
8.9616141732283463
20
-3.4124211023622046
11
8.9616141732283463
21
-3.3986025196850393
0
LINE
8
BLACK
6
CONTINUOUS
10
8.9616141732283463
20
-3.3986025196850393
11
8.960066968503936
21
-3.3848707874015749
0
LINE
8
BLACK
6
CONTINUOUS
10
8.960066968503936
20
-3.3848707874015749
11
8.9569920472440945
21
-3.3713986614173228
0
LINE
8
BLACK
6
CONTINUOUS
10
8.9569920472440945
20
-3.3713986614173228
11
8.9524280708661408
21
-3.3583555118110238
0
LINE
8
BLACK
6
CONTINUOUS
10
8.9524280708661408
20
-3.3583555118110238
11
8.9464324015748034
21
-3.3459053937007872
0
LINE
8
BLACK
6
CONTINUOUS
10
8.9464324015748034
20
-3.3459053937007872
11
8.9390804724409438
21
-3.3342048425196849
0
LINE
8
BLACK
6
CONTINUOUS
10
8.9390804724409438
20
-3.3342048425196849
11
8.9304646850393699
21
-3.323401023622047
0
LINE
8
BLACK
6
CONTINUOUS
10
8.9304646850393699
20
-3.323401023622047
11
8.9206934645669289
21
-3.3136298031496061
0
LINE
8
BLACK
6
CONTINUOUS
10
8.9206934645669289
20
-3.3136298031496061
11
8.909889645669292
21
-3.3050140157480312
0
LINE
8
BLACK
6
CONTINUOUS
10
8.909889645669292
20
-3.3050140157480312
11
8.8981890944881883
21
-3.297662086614173
0
LINE
8
BLACK
6
CONTINUOUS
10
8.8981890944881883
20
-3.297662086614173
11
8.8857389763779526
21
-3.2916664173228347
0
LINE
8
BLACK
6
CONTINUOUS
10
8.8857389763779526
20
-3.2916664173228347
11
8.872695826771654
21
-3.2871024409448819
0
LINE
8
BLACK
6
CONTINUOUS
10
8.872695826771654
20
-3.2871024409448819
11
8.8592237007874015
21
-3.2840275196850395
0
LINE
8
BLACK
6
CONTINUOUS
10
8.8592237007874015
20
-3.2840275196850395
11
8.8454919685039375
21
-3.2824803149606296
0
LINE
8
BLACK
6
CONTINUOUS
10
8.8454919685039375
20
-3.2824803149606296
11
8.8316733858267717
21
-3.2824803149606296
0
LINE
8
BLACK
6
CONTINUOUS
10
8.8316733858267717
20
-3.2824803149606296
11
8.8179416535433077
21
-3.2840275196850395
0
LINE
8
BLACK
6
CONTINUOUS
10
8.8179416535433077
20
-3.2840275196850395
11
8.8044695275590552
21
-3.2871024409448819
0
LINE
8
BLACK
6
CONTINUOUS
10
8.8044695275590552
20
-3.2871024409448819
11
8.7914263779527548
21
-3.2916664173228347
0
LINE
8
BLACK
6
CONTINUOUS
10
8.7914263779527548
20
-3.2916664173228347
11
8.7789762598425192
21
-3.297662086614173
0
LINE
8
BLACK
6
CONTINUOUS
10
8.7789762598425192
20
-3.297662086614173
11
8.7672757086614173
21
-3.3050140157480312
0
LINE
8
BLACK
6
CONTINUOUS
10
8.7672757086614173
20
-3.3050140157480312
11
8.7564718897637785
21
-3.3136298031496061
0
LINE
8
BLACK
6
CONTINUOUS
10
8.7564718897637785
20
-3.3136298031496061
11
8.7467006692913376
21
-3.323401023622047
0
LINE
8
BLACK
6
CONTINUOUS
10
8.7467006692913376
20
-3.323401023622047
11
8.7380848818897636
21
-3.3342048425196849
0
LINE
8
BLACK
6
CONTINUOUS
10
8.7380848818897636
20
-3.3342048425196849
11
8.7307329527559059
21
-3.3459053937007872
0
LINE
8
BLACK
6
CONTINUOUS
10
8.7307329527559059
20
-3.3459053937007872
11
8.7247372834645667
21
-3.3583555118110238
0
LINE
8
BLACK
6
CONTINUOUS
10
8.7247372834645667
20
-3.3583555118110238
11
8.7201733070866148
21
-3.3713986614173228
0
LINE
8
BLACK
6
CONTINUOUS
10
8.7201733070866148
20
-3.3713986614173228
11
8.7170983858267714
21
-3.3848707874015749
0
LINE
8
BLACK
6
CONTINUOUS
10
8.7170983858267714
20
-3.3848707874015749
11
8.7155511811023612
21
-3.3986025196850393
0
LINE
8
BLACK
6
CONTINUOUS
10
8.7155511811023612
20
-3.3986025196850393
11
8.7155511811023612
21
-3.4124211023622046
0
LINE
8
BLACK
6
CONTINUOUS
10
4.9289189763779531
20
-1.7924585433070865
11
4.9413291338582672
21
-1.7949270866141731
0
LINE
8
BLACK
6
CONTINUOUS
10
4.9413291338582672
20
-1.7949270866141731
11
4.9534375590551178
21
-1.7986001181102362
0
LINE
8
BLACK
6
CONTINUOUS
10
4.9534375590551178
20
-1.7986001181102362
11
4.9651276771653539
21
-1.8034423228346457
0
LINE
8
BLACK
6
CONTINUOUS
10
4.9651276771653539
20
-1.8034423228346457
11
4.9762868503937003
21
-1.8094070472440944
0
LINE
8
BLACK
6
CONTINUOUS
10
4.9762868503937003
20
-1.8094070472440944
11
4.9868076771653538
21
-1.816436811023622
0
LINE
8
BLACK
6
CONTINUOUS
10
4.9868076771653538
20
-1.816436811023622
11
4.9965888188976377
21
-1.8244639763779527
0
LINE
8
BLACK
6
CONTINUOUS
10
4.9965888188976377
20
-1.8244639763779527
11
5.0055360236220467
21
-1.8334111811023621
0
LINE
8
BLACK
6
CONTINUOUS
10
5.0055360236220467
20
-1.8334111811023621
11
5.0135631889763781
21
-1.8431923228346456
0
LINE
8
BLACK
6
CONTINUOUS
10
5.0135631889763781
20
-1.8431923228346456
11
5.020592952755905
21
-1.8537131496062991
0
LINE
8
BLACK
6
CONTINUOUS
10
5.020592952755905
20
-1.8537131496062991
11
5.0265576771653544
21
-1.8648723228346455
0
LINE
8
BLACK
6
CONTINUOUS
10
5.0265576771653544
20
-1.8648723228346455
11
5.0313998818897634
21
-1.8765624409448818
0
LINE
8
BLACK
6
CONTINUOUS
10
5.0313998818897634
20
-1.8765624409448818
11
5.035072913385827
21
-1.8886708661417322
0
LINE
8
BLACK
6
CONTINUOUS
10
5.035072913385827
20
-1.8886708661417322
11
5.0375414566929129
21
-1.9010810236220472
0
LINE
8
BLACK
6
CONTINUOUS
10
5.0375414566929129
20
-1.9010810236220472
11
5.0387816929133855
21
-1.9136733464566928
0
LINE
8
BLACK
6
CONTINUOUS
10
5.0387816929133855
20
-1.9136733464566928
11
5.0387816929133855
21
-1.926326653543307
0
LINE
8
BLACK
6
CONTINUOUS
10
5.0387816929133855
20
-1.926326653543307
11
5.0375414566929129
21
-1.9389189763779526
0
LINE
8
BLACK
6
CONTINUOUS
10
5.0375414566929129
20
-1.9389189763779526
11
5.035072913385827
21
-1.9513291338582677
0
LINE
8
BLACK
6
CONTINUOUS
10
5.035072913385827
20
-1.9513291338582677
11
5.0313998818897634
21
-1.9634375590551181
0
LINE
8
BLACK
6
CONTINUOUS
10
5.0313998818897634
20
-1.9634375590551181
11
5.0265576771653544
21
-1.9751276771653543
0
LINE
8
BLACK
6
CONTINUOUS
10
5.0265576771653544
20
-1.9751276771653543
11
5.020592952755905
21
-1.9862868503937008
0
LINE
8
BLACK
6
CONTINUOUS
10
5.020592952755905
20
-1.9862868503937008
11
5.0135631889763781
21
-1.9968076771653542
0
LINE
8
BLACK
6
CONTINUOUS
10
5.0135631889763781
20
-1.9968076771653542
11
5.0055360236220467
21
-2.006588818897638
0
LINE
8
BLACK
6
CONTINUOUS
10
5.0055360236220467
20
-2.006588818897638
11
4.9965888188976377
21
-2.015536023622047
0
LINE
8
BLACK
6
CONTINUOUS
10
4.9965888188976377
20
-2.015536023622047
11
4.9868076771653538
21
-2.0235631889763779
0
LINE
8
BLACK
6
CONTINUOUS
10
4.9868076771653538
20
-2.0235631889763779
11
4.9762868503937003
21
-2.0305929527559057
0
LINE
8
BLACK
6
CONTINUOUS
10
4.9762868503937003
20
-2.0305929527559057
11
4.9651276771653539
21
-2.0365576771653542
0
LINE
8
BLACK
6
CONTINUOUS
10
4.9651276771653539
20
-2.0365576771653542
11
4.9534375590551178
21
-2.0413998818897636
0
LINE
8
BLACK
6
CONTINUOUS
10
4.9534375590551178
20
-2.0413998818897636
11
4.9413291338582672
21
-2.0450729133858268
0
LINE
8
BLACK
6
CONTINUOUS
10
4.9413291338582672
20
-2.0450729133858268
11
4.9289189763779531
21
-2.0475414566929135
0
LINE
8
BLACK
6
CONTINUOUS
10
4.9289189763779531
20
-2.0475414566929135
11
4.9163266535433072
21
-2.0487816929133857
0
LINE
8
BLACK
6
CONTINUOUS
10
4.9163266535433072
20
-2.0487816929133857
11
4.9036733464566931
21
-2.0487816929133857
0
LINE
8
BLACK
6
CONTINUOUS
10
4.9036733464566931
20
-2.0487816929133857
11
4.8910810236220472
21
-2.0475414566929135
0
LINE
8
BLACK
6
CONTINUOUS
10
4.8910810236220472
20
-2.0475414566929135
11
4.8786708661417322
21
-2.0450729133858268
0
LINE
8
BLACK
6
CONTINUOUS
10
4.8786708661417322
20
-2.0450729133858268
11
4.8665624409448816
21
-2.0413998818897636
0
LINE
8
BLACK
6
CONTINUOUS
10
4.8665624409448816
20
-2.0413998818897636
11
4.8548723228346455
21
-2.0365576771653542
0
LINE
8
BLACK
6
CONTINUOUS
10
4.8548723228346455
20
-2.0365576771653542
11
4.8437131496062991
21
-2.0305929527559057
0
LINE
8
BLACK
6
CONTINUOUS
10
4.8437131496062991
20
-2.0305929527559057
11
4.8331923228346456
21
-2.0235631889763779
0
LINE
8
BLACK
6
CONTINUOUS
10
4.8331923228346456
20
-2.0235631889763779
11
4.8234111811023617
21
-2.015536023622047
0
LINE
8
BLACK
6
CONTINUOUS
10
4.8234111811023617
20
-2.015536023622047
11
4.8144639763779526
21
-2.006588818897638
0
LINE
8
BLACK
6
CONTINUOUS
10
4.8144639763779526
20
-2.006588818897638
11
4.8064368110236222
21
-1.9968076771653542
0
LINE
8
BLACK
6
CONTINUOUS
10
4.8064368110236222
20
-1.9968076771653542
11
4.7994070472440944
21
-1.9862868503937008
0
LINE
8
BLACK
6
CONTINUOUS
10
4.7994070472440944
20
-1.9862868503937008
11
4.7934423228346459
21
-1.9751276771653543
0
LINE
8
BLACK
6
CONTINUOUS
10
4.7934423228346459
20
-1.9751276771653543
11
4.788600118110236
21
-1.9634375590551181
0
LINE
8
BLACK
6
CONTINUOUS
10
4.788600118110236
20
-1.9634375590551181
11
4.7849270866141733
21
-1.9513291338582677
0
LINE
8
BLACK
6
CONTINUOUS
10
4.7849270866141733
20
-1.9513291338582677
11
4.7824585433070865
21
-1.9389189763779526
0
LINE
8
BLACK
6
CONTINUOUS
10
4.7824585433070865
20
-1.9389189763779526
11
4.7812183070866139
21
-1.926326653543307
0
LINE
8
BLACK
6
CONTINUOUS
10
4.7812183070866139
20
-1.926326653543307
11
4.7812183070866139
21
-1.9136733464566928
0
LINE
8
BLACK
6
CONTINUOUS
10
4.7812183070866139
20
-1.9136733464566928
11
4.7812757086614175
21
-1.9130907086614173
0
LINE
8
BLACK
6
CONTINUOUS
10
4.7812757086614175
20
-1.9130907086614173
11
4.7824585433070865
21
-1.9010810236220472
0
LINE
8
BLACK
6
CONTINUOUS
10
4.7824585433070865
20
-1.9010810236220472
11
4.7849270866141733
21
-1.8886708661417322
0
LINE
8
BLACK
6
CONTINUOUS
10
4.7849270866141733
20
-1.8886708661417322
11
4.788600118110236
21
-1.8765624409448818
0
LINE
8
BLACK
6
CONTINUOUS
10
4.788600118110236
20
-1.8765624409448818
11
4.7934423228346459
21
-1.8648723228346455
0
LINE
8
BLACK
6
CONTINUOUS
10
4.7934423228346459
20
-1.8648723228346455
11
4.7994070472440944
21
-1.8537131496062991
0
LINE
8
BLACK
6
CONTINUOUS
10
4.7994070472440944
20
-1.8537131496062991
11
4.8064368110236222
21
-1.8431923228346456
0
LINE
8
BLACK
6
CONTINUOUS
10
4.8064368110236222
20
-1.8431923228346456
11
4.8144639763779526
21
-1.8334111811023621
0
LINE
8
BLACK
6
CONTINUOUS
10
4.8144639763779526
20
-1.8334111811023621
11
4.8234111811023617
21
-1.8244639763779527
0
LINE
8
BLACK
6
CONTINUOUS
10
4.8234111811023617
20
-1.8244639763779527
11
4.8331923228346456
21
-1.816436811023622
0
LINE
8
BLACK
6
CONTINUOUS
10
4.8331923228346456
20
-1.816436811023622
11
4.8437131496062991
21
-1.8094070472440944
0
LINE
8
BLACK
6
CONTINUOUS
10
4.8437131496062991
20
-1.8094070472440944
11
4.8548723228346455
21
-1.8034423228346457
0
LINE
8
BLACK
6
CONTINUOUS
10
4.8548723228346455
20
-1.8034423228346457
11
4.8665624409448816
21
-1.7986001181102362
0
LINE
8
BLACK
6
CONTINUOUS
10
4.8665624409448816
20
-1.7986001181102362
11
4.8786708661417322
21
-1.7949270866141731
0
LINE
8
BLACK
6
CONTINUOUS
10
4.8786708661417322
20
-1.7949270866141731
11
4.8910810236220472
21
-1.7924585433070865
0
LINE
8
BLACK
6
CONTINUOUS
10
4.8910810236220472
20
-1.7924585433070865
11
4.9036733464566931
21
-1.7912183070866141
0
LINE
8
BLACK
6
CONTINUOUS
10
4.9036733464566931
20
-1.7912183070866141
11
4.9163266535433072
21
-1.7912183070866141
0
LINE
8
BLACK
6
CONTINUOUS
10
4.9163266535433072
20
-1.7912183070866141
11
4.9289189763779531
21
-1.7924585433070865
0
LINE
8
BLACK
6
CONTINUOUS
10
4.7869685039370076
20
-1.9269092913385826
11
4.788515708661417
21
-1.9406410236220473
0
LINE
8
BLACK
6
CONTINUOUS
10
4.788515708661417
20
-1.9406410236220473
11
4.7915906299212594
21
-1.9541131496062991
0
LINE
8
BLACK
6
CONTINUOUS
10
4.7915906299212594
20
-1.9541131496062991
11
4.7961546062992122
21
-1.9671562992125984
0
LINE
8
BLACK
6
CONTINUOUS
10
4.7961546062992122
20
-1.9671562992125984
11
4.8021502755905514
21
-1.9796064173228347
0
LINE
8
BLACK
6
CONTINUOUS
10
4.8021502755905514
20
-1.9796064173228347
11
4.8095022047244091
21
-1.9913069685039371
0
LINE
8
BLACK
6
CONTINUOUS
10
4.8095022047244091
20
-1.9913069685039371
11
4.818117992125984
21
-2.0021107874015747
0
LINE
8
BLACK
6
CONTINUOUS
10
4.818117992125984
20
-2.0021107874015747
11
4.827889212598425
21
-2.0118820078740156
0
LINE
8
BLACK
6
CONTINUOUS
10
4.827889212598425
20
-2.0118820078740156
11
4.8386930314960628
21
-2.0204977952755905
0
LINE
8
BLACK
6
CONTINUOUS
10
4.8386930314960628
20
-2.0204977952755905
11
4.8503935826771656
21
-2.0278497244094487
0
LINE
8
BLACK
6
CONTINUOUS
10
4.8503935826771656
20
-2.0278497244094487
11
4.8628437007874012
21
-2.0338453937007874
0
LINE
8
BLACK
6
CONTINUOUS
10
4.8628437007874012
20
-2.0338453937007874
11
4.8758868503937007
21
-2.0384093700787402
0
LINE
8
BLACK
6
CONTINUOUS
10
4.8758868503937007
20
-2.0384093700787402
11
4.8893589763779524
21
-2.0414842913385827
0
LINE
8
BLACK
6
CONTINUOUS
10
4.8893589763779524
20
-2.0414842913385827
11
4.9030907086614173
21
-2.0430314960629921
0
LINE
8
BLACK
6
CONTINUOUS
10
4.9030907086614173
20
-2.0430314960629921
11
4.9169092913385821
21
-2.0430314960629921
0
LINE
8
BLACK
6
CONTINUOUS
10
4.9169092913385821
20
-2.0430314960629921
11
4.930641023622047
21
-2.0414842913385827
0
LINE
8
BLACK
6
CONTINUOUS
10
4.930641023622047
20
-2.0414842913385827
11
4.9441131496062987
21
-2.0384093700787402
0
LINE
8
BLACK
6
CONTINUOUS
10
4.9441131496062987
20
-2.0384093700787402
11
4.9571562992125981
21
-2.0338453937007874
0
LINE
8
BLACK
6
CONTINUOUS
10
4.9571562992125981
20
-2.0338453937007874
11
4.9696064173228347
21
-2.0278497244094487
0
LINE
8
BLACK
6
CONTINUOUS
10
4.9696064173228347
20
-2.0278497244094487
11
4.9813069685039366
21
-2.0204977952755905
0
LINE
8
BLACK
6
CONTINUOUS
10
4.9813069685039366
20
-2.0204977952755905
11
4.9921107874015744
21
-2.0118820078740156
0
LINE
8
BLACK
6
CONTINUOUS
10
4.9921107874015744
20
-2.0118820078740156
11
5.0018820078740154
21
-2.0021107874015747
0
LINE
8
BLACK
6
CONTINUOUS
10
5.0018820078740154
20
-2.0021107874015747
11
5.0104977952755902
21
-1.9913069685039371
0
LINE
8
BLACK
6
CONTINUOUS
10
5.0104977952755902
20
-1.9913069685039371
11
5.0178497244094489
21
-1.9796064173228347
0
LINE
8
BLACK
6
CONTINUOUS
10
5.0178497244094489
20
-1.9796064173228347
11
5.0238453937007872
21
-1.9671562992125984
0
LINE
8
BLACK
6
CONTINUOUS
10
5.0238453937007872
20
-1.9671562992125984
11
5.02840937007874
21
-1.9541131496062991
0
LINE
8
BLACK
6
CONTINUOUS
10
5.02840937007874
20
-1.9541131496062991
11
5.0314842913385824
21
-1.9406410236220473
0
LINE
8
BLACK
6
CONTINUOUS
10
5.0314842913385824
20
-1.9406410236220473
11
5.0330314960629918
21
-1.9269092913385826
0
LINE
8
BLACK
6
CONTINUOUS
10
5.0330314960629918
20
-1.9269092913385826
11
5.0330314960629918
21
-1.9130907086614173
0
LINE
8
BLACK
6
CONTINUOUS
10
5.0330314960629918
20
-1.9130907086614173
11
5.0314842913385824
21
-1.8993589763779528
0
LINE
8
BLACK
6
CONTINUOUS
10
5.0314842913385824
20
-1.8993589763779528
11
5.02840937007874
21
-1.8858868503937007
0
LINE
8
BLACK
6
CONTINUOUS
10
5.02840937007874
20
-1.8858868503937007
11
5.0238453937007872
21
-1.8728437007874015
0
LINE
8
BLACK
6
CONTINUOUS
10
5.0238453937007872
20
-1.8728437007874015
11
5.0178497244094489
21
-1.8603935826771654
0
LINE
8
BLACK
6
CONTINUOUS
10
5.0178497244094489
20
-1.8603935826771654
11
5.0104977952755902
21
-1.848693031496063
0
LINE
8
BLACK
6
CONTINUOUS
10
5.0104977952755902
20
-1.848693031496063
11
5.0018820078740154
21
-1.8378892125984252
0
LINE
8
BLACK
6
CONTINUOUS
10
5.0018820078740154
20
-1.8378892125984252
11
4.9921107874015744
21
-1.8281179921259842
0
LINE
8
BLACK
6
CONTINUOUS
10
4.9921107874015744
20
-1.8281179921259842
11
4.9813069685039366
21
-1.8195022047244094
0
LINE
8
BLACK
6
CONTINUOUS
10
4.9813069685039366
20
-1.8195022047244094
11
4.9696064173228347
21
-1.8121502755905512
0
LINE
8
BLACK
6
CONTINUOUS
10
4.9696064173228347
20
-1.8121502755905512
11
4.9571562992125981
21
-1.8061546062992127
0
LINE
8
BLACK
6
CONTINUOUS
10
4.9571562992125981
20
-1.8061546062992127
11
4.9441131496062987
21
-1.8015906299212598
0
LINE
8
BLACK
6
CONTINUOUS
10
4.9441131496062987
20
-1.8015906299212598
11
4.930641023622047
21
-1.7985157086614172
0
LINE
8
BLACK
6
CONTINUOUS
10
4.930641023622047
20
-1.7985157086614172
11
4.9169092913385821
21
-1.7969685039370078
0
LINE
8
BLACK
6
CONTINUOUS
10
4.9169092913385821
20
-1.7969685039370078
11
4.9030907086614173
21
-1.7969685039370078
0
LINE
8
BLACK
6
CONTINUOUS
10
4.9030907086614173
20
-1.7969685039370078
11
4.8893589763779524
21
-1.7985157086614172
0
LINE
8
BLACK
6
CONTINUOUS
10
4.8893589763779524
20
-1.7985157086614172
11
4.8758868503937007
21
-1.8015906299212598
0
LINE
8
BLACK
6
CONTINUOUS
10
4.8758868503937007
20
-1.8015906299212598
11
4.8628437007874012
21
-1.8061546062992127
0
LINE
8
BLACK
6
CONTINUOUS
10
4.8628437007874012
20
-1.8061546062992127
11
4.8503935826771656
21
-1.8121502755905512
0
LINE
8
BLACK
6
CONTINUOUS
10
4.8503935826771656
20
-1.8121502755905512
11
4.8386930314960628
21
-1.8195022047244094
0
LINE
8
BLACK
6
CONTINUOUS
10
4.8386930314960628
20
-1.8195022047244094
11
4.827889212598425
21
-1.8281179921259842
0
LINE
8
BLACK
6
CONTINUOUS
10
4.827889212598425
20
-1.8281179921259842
11
4.818117992125984
21
-1.8378892125984252
0
LINE
8
BLACK
6
CONTINUOUS
10
4.818117992125984
20
-1.8378892125984252
11
4.8095022047244091
21
-1.848693031496063
0
LINE
8
BLACK
6
CONTINUOUS
10
4.8095022047244091
20
-1.848693031496063
11
4.8021502755905514
21
-1.8603935826771654
0
LINE
8
BLACK
6
CONTINUOUS
10
4.8021502755905514
20
-1.8603935826771654
11
4.7961546062992122
21
-1.8728437007874015
0
LINE
8
BLACK
6
CONTINUOUS
10
4.7961546062992122
20
-1.8728437007874015
11
4.7915906299212594
21
-1.8858868503937007
0
LINE
8
BLACK
6
CONTINUOUS
10
4.7915906299212594
20
-1.8858868503937007
11
4.788515708661417
21
-1.8993589763779528
0
LINE
8
BLACK
6
CONTINUOUS
10
4.788515708661417
20
-1.8993589763779528
11
4.7869685039370076
21
-1.9130907086614173
0
LINE
8
BLACK
6
CONTINUOUS
10
4.7869685039370076
20
-1.9130907086614173
11
4.7869685039370076
21
-1.9269092913385826
0
LINE
8
BLACK
6
CONTINUOUS
10
5.6685252755905511
20
-1.5456868897637794
11
5.6809354330708661
21
-1.548155433070866
0
LINE
8
BLACK
6
CONTINUOUS
10
5.6809354330708661
20
-1.548155433070866
11
5.6930438582677168
21
-1.5518284645669291
0
LINE
8
BLACK
6
CONTINUOUS
10
5.6930438582677168
20
-1.5518284645669291
11
5.7047339763779528
21
-1.5566706692913386
0
LINE
8
BLACK
6
CONTINUOUS
10
5.7047339763779528
20
-1.5566706692913386
11
5.7158931496062992
21
-1.5626353937007873
0
LINE
8
BLACK
6
CONTINUOUS
10
5.7158931496062992
20
-1.5626353937007873
11
5.7264139763779527
21
-1.5696651574803149
0
LINE
8
BLACK
6
CONTINUOUS
10
5.7264139763779527
20
-1.5696651574803149
11
5.7361951181102357
21
-1.5776923228346456
0
LINE
8
BLACK
6
CONTINUOUS
10
5.7361951181102357
20
-1.5776923228346456
11
5.7451423228346457
21
-1.586639527559055
0
LINE
8
BLACK
6
CONTINUOUS
10
5.7451423228346457
20
-1.586639527559055
11
5.7531694881889761
21
-1.5964206692913385
0
LINE
8
BLACK
6
CONTINUOUS
10
5.7531694881889761
20
-1.5964206692913385
11
5.7601992519685039
21
-1.6069414960629922
0
LINE
8
BLACK
6
CONTINUOUS
10
5.7601992519685039
20
-1.6069414960629922
11
5.7661639763779524
21
-1.6181006692913384
0
LINE
8
BLACK
6
CONTINUOUS
10
5.7661639763779524
20
-1.6181006692913384
11
5.7710061811023623
21
-1.6297907874015747
0
LINE
8
BLACK
6
CONTINUOUS
10
5.7710061811023623
20
-1.6297907874015747
11
5.774679212598425
21
-1.6418992125984251
0
LINE
8
BLACK
6
CONTINUOUS
10
5.774679212598425
20
-1.6418992125984251
11
5.7771477559055118
21
-1.6543093700787401
0
LINE
8
BLACK
6
CONTINUOUS
10
5.7771477559055118
20
-1.6543093700787401
11
5.7783879921259844
21
-1.6669016929133857
0
LINE
8
BLACK
6
CONTINUOUS
10
5.7783879921259844
20
-1.6669016929133857
11
5.7783879921259844
21
-1.6795549999999999
0
LINE
8
BLACK
6
CONTINUOUS
10
5.7783879921259844
20
-1.6795549999999999
11
5.7771477559055118
21
-1.6921473228346455
0
LINE
8
BLACK
6
CONTINUOUS
10
5.7771477559055118
20
-1.6921473228346455
11
5.774679212598425
21
-1.7045574803149606
0
LINE
8
BLACK
6
CONTINUOUS
10
5.774679212598425
20
-1.7045574803149606
11
5.7710061811023623
21
-1.716665905511811
0
LINE
8
BLACK
6
CONTINUOUS
10
5.7710061811023623
20
-1.716665905511811
11
5.7661639763779524
21
-1.7283560236220472
0
LINE
8
BLACK
6
CONTINUOUS
10
5.7661639763779524
20
-1.7283560236220472
11
5.7601992519685039
21
-1.7395151968503937
0
LINE
8
BLACK
6
CONTINUOUS
10
5.7601992519685039
20
-1.7395151968503937
11
5.7531694881889761
21
-1.7500360236220471
0
LINE
8
BLACK
6
CONTINUOUS
10
5.7531694881889761
20
-1.7500360236220471
11
5.7451423228346457
21
-1.7598171653543306
0
LINE
8
BLACK
6
CONTINUOUS
10
5.7451423228346457
20
-1.7598171653543306
11
5.7361951181102357
21
-1.7687643700787401
0
LINE
8
BLACK
6
CONTINUOUS
10
5.7361951181102357
20
-1.7687643700787401
11
5.7264139763779527
21
-1.7767915354330708
0
LINE
8
BLACK
6
CONTINUOUS
10
5.7264139763779527
20
-1.7767915354330708
11
5.7158931496062992
21
-1.7838212992125984
0
LINE
8
BLACK
6
CONTINUOUS
10
5.7158931496062992
20
-1.7838212992125984
11
5.7047339763779528
21
-1.7897860236220473
0
LINE
8
BLACK
6
CONTINUOUS
10
5.7047339763779528
20
-1.7897860236220473
11
5.6930438582677168
21
-1.7946282283464567
0
LINE
8
BLACK
6
CONTINUOUS
10
5.6930438582677168
20
-1.7946282283464567
11
5.6809354330708661
21
-1.7983012598425197
0
LINE
8
BLACK
6
CONTINUOUS
10
5.6809354330708661
20
-1.7983012598425197
11
5.6685252755905511
21
-1.8007698031496062
0
LINE
8
BLACK
6
CONTINUOUS
10
5.6685252755905511
20
-1.8007698031496062
11
5.6559329527559052
21
-1.8020100393700786
0
LINE
8
BLACK
6
CONTINUOUS
10
5.6559329527559052
20
-1.8020100393700786
11
5.6432796456692911
21
-1.8020100393700786
0
LINE
8
BLACK
6
CONTINUOUS
10
5.6432796456692911
20
-1.8020100393700786
11
5.6306873228346452
21
-1.8007698031496062
0
LINE
8
BLACK
6
CONTINUOUS
10
5.6306873228346452
20
-1.8007698031496062
11
5.6182771653543302
21
-1.7983012598425197
0
LINE
8
BLACK
6
CONTINUOUS
10
5.6182771653543302
20
-1.7983012598425197
11
5.6061687401574805
21
-1.7946282283464567
0
LINE
8
BLACK
6
CONTINUOUS
10
5.6061687401574805
20
-1.7946282283464567
11
5.5944786220472436
21
-1.7897860236220473
0
LINE
8
BLACK
6
CONTINUOUS
10
5.5944786220472436
20
-1.7897860236220473
11
5.5833194488188971
21
-1.7838212992125984
0
LINE
8
BLACK
6
CONTINUOUS
10
5.5833194488188971
20
-1.7838212992125984
11
5.5727986220472436
21
-1.7767915354330708
0
LINE
8
BLACK
6
CONTINUOUS
10
5.5727986220472436
20
-1.7767915354330708
11
5.5630174803149606
21
-1.7687643700787401
0
LINE
8
BLACK
6
CONTINUOUS
10
5.5630174803149606
20
-1.7687643700787401
11
5.5540702755905507
21
-1.7598171653543306
0
LINE
8
BLACK
6
CONTINUOUS
10
5.5540702755905507
20
-1.7598171653543306
11
5.5460431102362202
21
-1.7500360236220471
0
LINE
8
BLACK
6
CONTINUOUS
10
5.5460431102362202
20
-1.7500360236220471
11
5.5390133464566924
21
-1.7395151968503937
0
LINE
8
BLACK
6
CONTINUOUS
10
5.5390133464566924
20
-1.7395151968503937
11
5.5330486220472439
21
-1.7283560236220472
0
LINE
8
BLACK
6
CONTINUOUS
10
5.5330486220472439
20
-1.7283560236220472
11
5.5282064173228349
21
-1.716665905511811
0
LINE
8
BLACK
6
CONTINUOUS
10
5.5282064173228349
20
-1.716665905511811
11
5.5245333858267713
21
-1.7045574803149606
0
LINE
8
BLACK
6
CONTINUOUS
10
5.5245333858267713
20
-1.7045574803149606
11
5.5220648425196845
21
-1.6921473228346455
0
LINE
8
BLACK
6
CONTINUOUS
10
5.5220648425196845
20
-1.6921473228346455
11
5.5208246062992128
21
-1.6795549999999999
0
LINE
8
BLACK
6
CONTINUOUS
10
5.5208246062992128
20
-1.6795549999999999
11
5.5208246062992128
21
-1.6669016929133857
0
LINE
8
BLACK
6
CONTINUOUS
10
5.5208246062992128
20
-1.6669016929133857
11
5.5208820078740155
21
-1.6663190551181102
0
LINE
8
BLACK
6
CONTINUOUS
10
5.5208820078740155
20
-1.6663190551181102
11
5.5220648425196845
21
-1.6543093700787401
0
LINE
8
BLACK
6
CONTINUOUS
10
5.5220648425196845
20
-1.6543093700787401
11
5.5245333858267713
21
-1.6418992125984251
0
LINE
8
BLACK
6
CONTINUOUS
10
5.5245333858267713
20
-1.6418992125984251
11
5.5282064173228349
21
-1.6297907874015747
0
LINE
8
BLACK
6
CONTINUOUS
10
5.5282064173228349
20
-1.6297907874015747
11
5.5330486220472439
21
-1.6181006692913384
0
LINE
8
BLACK
6
CONTINUOUS
10
5.5330486220472439
20
-1.6181006692913384
11
5.5390133464566924
21
-1.6069414960629922
0
LINE
8
BLACK
6
CONTINUOUS
10
5.5390133464566924
20
-1.6069414960629922
11
5.5460431102362202
21
-1.5964206692913385
0
LINE
8
BLACK
6
CONTINUOUS
10
5.5460431102362202
20
-1.5964206692913385
11
5.5540702755905507
21
-1.586639527559055
0
LINE
8
BLACK
6
CONTINUOUS
10
5.5540702755905507
20
-1.586639527559055
11
5.5630174803149606
21
-1.5776923228346456
0
LINE
8
BLACK
6
CONTINUOUS
10
5.5630174803149606
20
-1.5776923228346456
11
5.5727986220472436
21
-1.5696651574803149
0
LINE
8
BLACK
6
CONTINUOUS
10
5.5727986220472436
20
-1.5696651574803149
11
5.5833194488188971
21
-1.5626353937007873
0
LINE
8
BLACK
6
CONTINUOUS
10
5.5833194488188971
20
-1.5626353937007873
11
5.5944786220472436
21
-1.5566706692913386
0
LINE
8
BLACK
6
CONTINUOUS
10
5.5944786220472436
20
-1.5566706692913386
11
5.6061687401574805
21
-1.5518284645669291
0
LINE
8
BLACK
6
CONTINUOUS
10
5.6061687401574805
20
-1.5518284645669291
11
5.6182771653543302
21
-1.548155433070866
0
LINE
8
BLACK
6
CONTINUOUS
10
5.6182771653543302
20
-1.548155433070866
11
5.6306873228346452
21
-1.5456868897637794
0
LINE
8
BLACK
6
CONTINUOUS
10
5.6306873228346452
20
-1.5456868897637794
11
5.6432796456692911
21
-1.544446653543307
0
LINE
8
BLACK
6
CONTINUOUS
10
5.6432796456692911
20
-1.544446653543307
11
5.6559329527559052
21
-1.544446653543307
0
LINE
8
BLACK
6
CONTINUOUS
10
5.6559329527559052
20
-1.544446653543307
11
5.6685252755905511
21
-1.5456868897637794
0
LINE
8
BLACK
6
CONTINUOUS
10
5.5265748031496065
20
-1.6801376377952755
11
5.5281220078740159
21
-1.6938693700787402
0
LINE
8
BLACK
6
CONTINUOUS
10
5.5281220078740159
20
-1.6938693700787402
11
5.5311969291338583
21
-1.707341496062992
0
LINE
8
BLACK
6
CONTINUOUS
10
5.5311969291338583
20
-1.707341496062992
11
5.5357609055118111
21
-1.7203846456692913
0
LINE
8
BLACK
6
CONTINUOUS
10
5.5357609055118111
20
-1.7203846456692913
11
5.5417565748031494
21
-1.7328347637795276
0
LINE
8
BLACK
6
CONTINUOUS
10
5.5417565748031494
20
-1.7328347637795276
11
5.5491085039370081
21
-1.74453531496063
0
LINE
8
BLACK
6
CONTINUOUS
10
5.5491085039370081
20
-1.74453531496063
11
5.5577242913385829
21
-1.7553391338582678
0
LINE
8
BLACK
6
CONTINUOUS
10
5.5577242913385829
20
-1.7553391338582678
11
5.5674955118110239
21
-1.7651103543307087
0
LINE
8
BLACK
6
CONTINUOUS
10
5.5674955118110239
20
-1.7651103543307087
11
5.5782993307086617
21
-1.7737261417322834
0
LINE
8
BLACK
6
CONTINUOUS
10
5.5782993307086617
20
-1.7737261417322834
11
5.5899998818897636
21
-1.7810780708661418
0
LINE
8
BLACK
6
CONTINUOUS
10
5.5899998818897636
20
-1.7810780708661418
11
5.6024500000000002
21
-1.7870737401574803
0
LINE
8
BLACK
6
CONTINUOUS
10
5.6024500000000002
20
-1.7870737401574803
11
5.6154931496062988
21
-1.7916377165354331
0
LINE
8
BLACK
6
CONTINUOUS
10
5.6154931496062988
20
-1.7916377165354331
11
5.6289652755905513
21
-1.7947126377952756
0
LINE
8
BLACK
6
CONTINUOUS
10
5.6289652755905513
20
-1.7947126377952756
11
5.6426970078740153
21
-1.796259842519685
0
LINE
8
BLACK
6
CONTINUOUS
10
5.6426970078740153
20
-1.796259842519685
11
5.656515590551181
21
-1.796259842519685
0
LINE
8
BLACK
6
CONTINUOUS
10
5.656515590551181
20
-1.796259842519685
11
5.6702473228346459
21
-1.7947126377952756
0
LINE
8
BLACK
6
CONTINUOUS
10
5.6702473228346459
20
-1.7947126377952756
11
5.6837194488188976
21
-1.7916377165354331
0
LINE
8
BLACK
6
CONTINUOUS
10
5.6837194488188976
20
-1.7916377165354331
11
5.6967625984251971
21
-1.7870737401574803
0
LINE
8
BLACK
6
CONTINUOUS
10
5.6967625984251971
20
-1.7870737401574803
11
5.7092127165354327
21
-1.7810780708661418
0
LINE
8
BLACK
6
CONTINUOUS
10
5.7092127165354327
20
-1.7810780708661418
11
5.7209132677165355
21
-1.7737261417322834
0
LINE
8
BLACK
6
CONTINUOUS
10
5.7209132677165355
20
-1.7737261417322834
11
5.7317170866141733
21
-1.7651103543307087
0
LINE
8
BLACK
6
CONTINUOUS
10
5.7317170866141733
20
-1.7651103543307087
11
5.7414883070866143
21
-1.7553391338582678
0
LINE
8
BLACK
6
CONTINUOUS
10
5.7414883070866143
20
-1.7553391338582678
11
5.7501040944881892
21
-1.74453531496063
0
LINE
8
BLACK
6
CONTINUOUS
10
5.7501040944881892
20
-1.74453531496063
11
5.7574560236220469
21
-1.7328347637795276
0
LINE
8
BLACK
6
CONTINUOUS
10
5.7574560236220469
20
-1.7328347637795276
11
5.7634516929133861
21
-1.7203846456692913
0
LINE
8
BLACK
6
CONTINUOUS
10
5.7634516929133861
20
-1.7203846456692913
11
5.768015669291338
21
-1.707341496062992
0
LINE
8
BLACK
6
CONTINUOUS
10
5.768015669291338
20
-1.707341496062992
11
5.7710905905511813
21
-1.6938693700787402
0
LINE
8
BLACK
6
CONTINUOUS
10
5.7710905905511813
20
-1.6938693700787402
11
5.7726377952755907
21
-1.6801376377952755
0
LINE
8
BLACK
6
CONTINUOUS
10
5.7726377952755907
20
-1.6801376377952755
11
5.7726377952755907
21
-1.6663190551181102
0
LINE
8
BLACK
6
CONTINUOUS
10
5.7726377952755907
20
-1.6663190551181102
11
5.7710905905511813
21
-1.6525873228346457
0
LINE
8
BLACK
6
CONTINUOUS
10
5.7710905905511813
20
-1.6525873228346457
11
5.768015669291338
21
-1.6391151968503936
0
LINE
8
BLACK
6
CONTINUOUS
10
5.768015669291338
20
-1.6391151968503936
11
5.7634516929133861
21
-1.6260720472440944
0
LINE
8
BLACK
6
CONTINUOUS
10
5.7634516929133861
20
-1.6260720472440944
11
5.7574560236220469
21
-1.6136219291338583
0
LINE
8
BLACK
6
CONTINUOUS
10
5.7574560236220469
20
-1.6136219291338583
11
5.7501040944881892
21
-1.6019213779527559
0
LINE
8
BLACK
6
CONTINUOUS
10
5.7501040944881892
20
-1.6019213779527559
11
5.7414883070866143
21
-1.5911175590551181
0
LINE
8
BLACK
6
CONTINUOUS
10
5.7414883070866143
20
-1.5911175590551181
11
5.7317170866141733
21
-1.5813463385826771
0
LINE
8
BLACK
6
CONTINUOUS
10
5.7317170866141733
20
-1.5813463385826771
11
5.7209132677165355
21
-1.5727305511811023
0
LINE
8
BLACK
6
CONTINUOUS
10
5.7209132677165355
20
-1.5727305511811023
11
5.7092127165354327
21
-1.5653786220472441
0
LINE
8
BLACK
6
CONTINUOUS
10
5.7092127165354327
20
-1.5653786220472441
11
5.6967625984251971
21
-1.5593829527559055
0
LINE
8
BLACK
6
CONTINUOUS
10
5.6967625984251971
20
-1.5593829527559055
11
5.6837194488188976
21
-1.5548189763779527
0
LINE
8
BLACK
6
CONTINUOUS
10
5.6837194488188976
20
-1.5548189763779527
11
5.6702473228346459
21
-1.5517440551181103
0
LINE
8
BLACK
6
CONTINUOUS
10
5.6702473228346459
20
-1.5517440551181103
11
5.656515590551181
21
-1.5501968503937007
0
LINE
8
BLACK
6
CONTINUOUS
10
5.656515590551181
20
-1.5501968503937007
11
5.6426970078740153
21
-1.5501968503937007
0
LINE
8
BLACK
6
CONTINUOUS
10
5.6426970078740153
20
-1.5501968503937007
11
5.6289652755905513
21
-1.5517440551181103
0
LINE
8
BLACK
6
CONTINUOUS
10
5.6289652755905513
20
-1.5517440551181103
11
5.6154931496062988
21
-1.5548189763779527
0
LINE
8
BLACK
6
CONTINUOUS
10
5.6154931496062988
20
-1.5548189763779527
11
5.6024500000000002
21
-1.5593829527559055
0
LINE
8
BLACK
6
CONTINUOUS
10
5.6024500000000002
20
-1.5593829527559055
11
5.5899998818897636
21
-1.5653786220472441
0
LINE
8
BLACK
6
CONTINUOUS
10
5.5899998818897636
20
-1.5653786220472441
11
5.5782993307086617
21
-1.5727305511811023
0
LINE
8
BLACK
6
CONTINUOUS
10
5.5782993307086617
20
-1.5727305511811023
11
5.5674955118110239
21
-1.5813463385826771
0
LINE
8
BLACK
6
CONTINUOUS
10
5.5674955118110239
20
-1.5813463385826771
11
5.5577242913385829
21
-1.5911175590551181
0
LINE
8
BLACK
6
CONTINUOUS
10
5.5577242913385829
20
-1.5911175590551181
11
5.5491085039370081
21
-1.6019213779527559
0
LINE
8
BLACK
6
CONTINUOUS
10
5.5491085039370081
20
-1.6019213779527559
11
5.5417565748031494
21
-1.6136219291338583
0
LINE
8
BLACK
6
CONTINUOUS
10
5.5417565748031494
20
-1.6136219291338583
11
5.5357609055118111
21
-1.6260720472440944
0
LINE
8
BLACK
6
CONTINUOUS
10
5.5357609055118111
20
-1.6260720472440944
11
5.5311969291338583
21
-1.6391151968503936
0
LINE
8
BLACK
6
CONTINUOUS
10
5.5311969291338583
20
-1.6391151968503936
11
5.5281220078740159
21
-1.6525873228346457
0
LINE
8
BLACK
6
CONTINUOUS
10
5.5281220078740159
20
-1.6525873228346457
11
5.5265748031496065
21
-1.6663190551181102
0
LINE
8
BLACK
6
CONTINUOUS
10
5.5265748031496065
20
-1.6663190551181102
11
5.5265748031496065
21
-1.6801376377952755
0
LINE
8
BLACK
6
CONTINUOUS
10
6.7315174015748029
20
-1.5456868897637794
11
6.743927559055118
21
-1.548155433070866
0
LINE
8
BLACK
6
CONTINUOUS
10
6.743927559055118
20
-1.548155433070866
11
6.7560359842519686
21
-1.5518284645669291
0
LINE
8
BLACK
6
CONTINUOUS
10
6.7560359842519686
20
-1.5518284645669291
11
6.7677261023622046
21
-1.5566706692913386
0
LINE
8
BLACK
6
CONTINUOUS
10
6.7677261023622046
20
-1.5566706692913386
11
6.7788852755905511
21
-1.5626353937007873
0
LINE
8
BLACK
6
CONTINUOUS
10
6.7788852755905511
20
-1.5626353937007873
11
6.7894061023622045
21
-1.5696651574803149
0
LINE
8
BLACK
6
CONTINUOUS
10
6.7894061023622045
20
-1.5696651574803149
11
6.7991872440944876
21
-1.5776923228346456
0
LINE
8
BLACK
6
CONTINUOUS
10
6.7991872440944876
20
-1.5776923228346456
11
6.8081344488188975
21
-1.586639527559055
0
LINE
8
BLACK
6
CONTINUOUS
10
6.8081344488188975
20
-1.586639527559055
11
6.816161614173228
21
-1.5964206692913385
0
LINE
8
BLACK
6
CONTINUOUS
10
6.816161614173228
20
-1.5964206692913385
11
6.8231913779527558
21
-1.6069414960629922
0
LINE
8
BLACK
6
CONTINUOUS
10
6.8231913779527558
20
-1.6069414960629922
11
6.8291561023622043
21
-1.6181006692913384
0
LINE
8
BLACK
6
CONTINUOUS
10
6.8291561023622043
20
-1.6181006692913384
11
6.8339983070866142
21
-1.6297907874015747
0
LINE
8
BLACK
6
CONTINUOUS
10
6.8339983070866142
20
-1.6297907874015747
11
6.8376713385826768
21
-1.6418992125984251
0
LINE
8
BLACK
6
CONTINUOUS
10
6.8376713385826768
20
-1.6418992125984251
11
6.8401398818897636
21
-1.6543093700787401
0
LINE
8
BLACK
6
CONTINUOUS
10
6.8401398818897636
20
-1.6543093700787401
11
6.8413801181102363
21
-1.6669016929133857
0
LINE
8
BLACK
6
CONTINUOUS
10
6.8413801181102363
20
-1.6669016929133857
11
6.8413801181102363
21
-1.6795549999999999
0
LINE
8
BLACK
6
CONTINUOUS
10
6.8413801181102363
20
-1.6795549999999999
11
6.8401398818897636
21
-1.6921473228346455
0
LINE
8
BLACK
6
CONTINUOUS
10
6.8401398818897636
20
-1.6921473228346455
11
6.8376713385826768
21
-1.7045574803149606
0
LINE
8
BLACK
6
CONTINUOUS
10
6.8376713385826768
20
-1.7045574803149606
11
6.8339983070866142
21
-1.716665905511811
0
LINE
8
BLACK
6
CONTINUOUS
10
6.8339983070866142
20
-1.716665905511811
11
6.8291561023622043
21
-1.7283560236220472
0
LINE
8
BLACK
6
CONTINUOUS
10
6.8291561023622043
20
-1.7283560236220472
11
6.8231913779527558
21
-1.7395151968503937
0
LINE
8
BLACK
6
CONTINUOUS
10
6.8231913779527558
20
-1.7395151968503937
11
6.816161614173228
21
-1.7500360236220471
0
LINE
8
BLACK
6
CONTINUOUS
10
6.816161614173228
20
-1.7500360236220471
11
6.8081344488188975
21
-1.7598171653543306
0
LINE
8
BLACK
6
CONTINUOUS
10
6.8081344488188975
20
-1.7598171653543306
11
6.7991872440944876
21
-1.7687643700787401
0
LINE
8
BLACK
6
CONTINUOUS
10
6.7991872440944876
20
-1.7687643700787401
11
6.7894061023622045
21
-1.7767915354330708
0
LINE
8
BLACK
6
CONTINUOUS
10
6.7894061023622045
20
-1.7767915354330708
11
6.7788852755905511
21
-1.7838212992125984
0
LINE
8
BLACK
6
CONTINUOUS
10
6.7788852755905511
20
-1.7838212992125984
11
6.7677261023622046
21
-1.7897860236220473
0
LINE
8
BLACK
6
CONTINUOUS
10
6.7677261023622046
20
-1.7897860236220473
11
6.7560359842519686
21
-1.7946282283464567
0
LINE
8
BLACK
6
CONTINUOUS
10
6.7560359842519686
20
-1.7946282283464567
11
6.743927559055118
21
-1.7983012598425197
0
LINE
8
BLACK
6
CONTINUOUS
10
6.743927559055118
20
-1.7983012598425197
11
6.7315174015748029
21
-1.8007698031496062
0
LINE
8
BLACK
6
CONTINUOUS
10
6.7315174015748029
20
-1.8007698031496062
11
6.7189250787401571
21
-1.8020100393700786
0
LINE
8
BLACK
6
CONTINUOUS
10
6.7189250787401571
20
-1.8020100393700786
11
6.7062717716535429
21
-1.8020100393700786
0
LINE
8
BLACK
6
CONTINUOUS
10
6.7062717716535429
20
-1.8020100393700786
11
6.6936794488188971
21
-1.8007698031496062
0
LINE
8
BLACK
6
CONTINUOUS
10
6.6936794488188971
20
-1.8007698031496062
11
6.6812692913385829
21
-1.7983012598425197
0
LINE
8
BLACK
6
CONTINUOUS
10
6.6812692913385829
20
-1.7983012598425197
11
6.6691608661417323
21
-1.7946282283464567
0
LINE
8
BLACK
6
CONTINUOUS
10
6.6691608661417323
20
-1.7946282283464567
11
6.6574707480314963
21
-1.7897860236220473
0
LINE
8
BLACK
6
CONTINUOUS
10
6.6574707480314963
20
-1.7897860236220473
11
6.6463115748031498
21
-1.7838212992125984
0
LINE
8
BLACK
6
CONTINUOUS
10
6.6463115748031498
20
-1.7838212992125984
11
6.6357907480314955
21
-1.7767915354330708
0
LINE
8
BLACK
6
CONTINUOUS
10
6.6357907480314955
20
-1.7767915354330708
11
6.6260096062992124
21
-1.7687643700787401
0
LINE
8
BLACK
6
CONTINUOUS
10
6.6260096062992124
20
-1.7687643700787401
11
6.6170624015748034
21
-1.7598171653543306
0
LINE
8
BLACK
6
CONTINUOUS
10
6.6170624015748034
20
-1.7598171653543306
11
6.6090352362204721
21
-1.7500360236220471
0
LINE
8
BLACK
6
CONTINUOUS
10
6.6090352362204721
20
-1.7500360236220471
11
6.6020054724409452
21
-1.7395151968503937
0
LINE
8
BLACK
6
CONTINUOUS
10
6.6020054724409452
20
-1.7395151968503937
11
6.5960407480314958
21
-1.7283560236220472
0
LINE
8
BLACK
6
CONTINUOUS
10
6.5960407480314958
20
-1.7283560236220472
11
6.5911985433070868
21
-1.716665905511811
0
LINE
8
BLACK
6
CONTINUOUS
10
6.5911985433070868
20
-1.716665905511811
11
6.5875255118110232
21
-1.7045574803149606
0
LINE
8
BLACK
6
CONTINUOUS
10
6.5875255118110232
20
-1.7045574803149606
11
6.5850569685039373
21
-1.6921473228346455
0
LINE
8
BLACK
6
CONTINUOUS
10
6.5850569685039373
20
-1.6921473228346455
11
6.5838167322834646
21
-1.6795549999999999
0
LINE
8
BLACK
6
CONTINUOUS
10
6.5838167322834646
20
-1.6795549999999999
11
6.5838167322834646
21
-1.6669016929133857
0
LINE
8
BLACK
6
CONTINUOUS
10
6.5838167322834646
20
-1.6669016929133857
11
6.5838741338582674
21
-1.6663190551181102
0
LINE
8
BLACK
6
CONTINUOUS
10
6.5838741338582674
20
-1.6663190551181102
11
6.5850569685039373
21
-1.6543093700787401
0
LINE
8
BLACK
6
CONTINUOUS
10
6.5850569685039373
20
-1.6543093700787401
11
6.5875255118110232
21
-1.6418992125984251
0
LINE
8
BLACK
6
CONTINUOUS
10
6.5875255118110232
20
-1.6418992125984251
11
6.5911985433070868
21
-1.6297907874015747
0
LINE
8
BLACK
6
CONTINUOUS
10
6.5911985433070868
20
-1.6297907874015747
11
6.5960407480314958
21
-1.6181006692913384
0
LINE
8
BLACK
6
CONTINUOUS
10
6.5960407480314958
20
-1.6181006692913384
11
6.6020054724409452
21
-1.6069414960629922
0
LINE
8
BLACK
6
CONTINUOUS
10
6.6020054724409452
20
-1.6069414960629922
11
6.6090352362204721
21
-1.5964206692913385
0
LINE
8
BLACK
6
CONTINUOUS
10
6.6090352362204721
20
-1.5964206692913385
11
6.6170624015748034
21
-1.586639527559055
0
LINE
8
BLACK
6
CONTINUOUS
10
6.6170624015748034
20
-1.586639527559055
11
6.6260096062992124
21
-1.5776923228346456
0
LINE
8
BLACK
6
CONTINUOUS
10
6.6260096062992124
20
-1.5776923228346456
11
6.6357907480314955
21
-1.5696651574803149
0
LINE
8
BLACK
6
CONTINUOUS
10
6.6357907480314955
20
-1.5696651574803149
11
6.6463115748031498
21
-1.5626353937007873
0
LINE
8
BLACK
6
CONTINUOUS
10
6.6463115748031498
20
-1.5626353937007873
11
6.6574707480314963
21
-1.5566706692913386
0
LINE
8
BLACK
6
CONTINUOUS
10
6.6574707480314963
20
-1.5566706692913386
11
6.6691608661417323
21
-1.5518284645669291
0
LINE
8
BLACK
6
CONTINUOUS
10
6.6691608661417323
20
-1.5518284645669291
11
6.6812692913385829
21
-1.548155433070866
0
LINE
8
BLACK
6
CONTINUOUS
10
6.6812692913385829
20
-1.548155433070866
11
6.6936794488188971
21
-1.5456868897637794
0
LINE
8
BLACK
6
CONTINUOUS
10
6.6936794488188971
20
-1.5456868897637794
11
6.7062717716535429
21
-1.544446653543307
0
LINE
8
BLACK
6
CONTINUOUS
10
6.7062717716535429
20
-1.544446653543307
11
6.7189250787401571
21
-1.544446653543307
0
LINE
8
BLACK
6
CONTINUOUS
10
6.7189250787401571
20
-1.544446653543307
11
6.7315174015748029
21
-1.5456868897637794
0
LINE
8
BLACK
6
CONTINUOUS
10
6.5895669291338583
20
-1.6801376377952755
11
6.5911141338582677
21
-1.6938693700787402
0
LINE
8
BLACK
6
CONTINUOUS
10
6.5911141338582677
20
-1.6938693700787402
11
6.5941890551181102
21
-1.707341496062992
0
LINE
8
BLACK
6
CONTINUOUS
10
6.5941890551181102
20
-1.707341496062992
11
6.598753031496063
21
-1.7203846456692913
0
LINE
8
BLACK
6
CONTINUOUS
10
6.598753031496063
20
-1.7203846456692913
11
6.6047487007874013
21
-1.7328347637795276
0
LINE
8
BLACK
6
CONTINUOUS
10
6.6047487007874013
20
-1.7328347637795276
11
6.6121006299212599
21
-1.74453531496063
0
LINE
8
BLACK
6
CONTINUOUS
10
6.6121006299212599
20
-1.74453531496063
11
6.6207164173228348
21
-1.7553391338582678
0
LINE
8
BLACK
6
CONTINUOUS
10
6.6207164173228348
20
-1.7553391338582678
11
6.6304876377952757
21
-1.7651103543307087
0
LINE
8
BLACK
6
CONTINUOUS
10
6.6304876377952757
20
-1.7651103543307087
11
6.6412914566929135
21
-1.7737261417322834
0
LINE
8
BLACK
6
CONTINUOUS
10
6.6412914566929135
20
-1.7737261417322834
11
6.6529920078740155
21
-1.7810780708661418
0
LINE
8
BLACK
6
CONTINUOUS
10
6.6529920078740155
20
-1.7810780708661418
11
6.665442125984252
21
-1.7870737401574803
0
LINE
8
BLACK
6
CONTINUOUS
10
6.665442125984252
20
-1.7870737401574803
11
6.6784852755905506
21
-1.7916377165354331
0
LINE
8
BLACK
6
CONTINUOUS
10
6.6784852755905506
20
-1.7916377165354331
11
6.6919574015748031
21
-1.7947126377952756
0
LINE
8
BLACK
6
CONTINUOUS
10
6.6919574015748031
20
-1.7947126377952756
11
6.7056891338582671
21
-1.796259842519685
0
LINE
8
BLACK
6
CONTINUOUS
10
6.7056891338582671
20
-1.796259842519685
11
6.7195077165354329
21
-1.796259842519685
0
LINE
8
BLACK
6
CONTINUOUS
10
6.7195077165354329
20
-1.796259842519685
11
6.7332394488188978
21
-1.7947126377952756
0
LINE
8
BLACK
6
CONTINUOUS
10
6.7332394488188978
20
-1.7947126377952756
11
6.7467115748031494
21
-1.7916377165354331
0
LINE
8
BLACK
6
CONTINUOUS
10
6.7467115748031494
20
-1.7916377165354331
11
6.7597547244094489
21
-1.7870737401574803
0
LINE
8
BLACK
6
CONTINUOUS
10
6.7597547244094489
20
-1.7870737401574803
11
6.7722048425196846
21
-1.7810780708661418
0
LINE
8
BLACK
6
CONTINUOUS
10
6.7722048425196846
20
-1.7810780708661418
11
6.7839053937007874
21
-1.7737261417322834
0
LINE
8
BLACK
6
CONTINUOUS
10
6.7839053937007874
20
-1.7737261417322834
11
6.7947092125984252
21
-1.7651103543307087
0
LINE
8
BLACK
6
CONTINUOUS
10
6.7947092125984252
20
-1.7651103543307087
11
6.8044804330708661
21
-1.7553391338582678
0
LINE
8
BLACK
6
CONTINUOUS
10
6.8044804330708661
20
-1.7553391338582678
11
6.813096220472441
21
-1.74453531496063
0
LINE
8
BLACK
6
CONTINUOUS
10
6.813096220472441
20
-1.74453531496063
11
6.8204481496062987
21
-1.7328347637795276
0
LINE
8
BLACK
6
CONTINUOUS
10
6.8204481496062987
20
-1.7328347637795276
11
6.826443818897638
21
-1.7203846456692913
0
LINE
8
BLACK
6
CONTINUOUS
10
6.826443818897638
20
-1.7203846456692913
11
6.8310077952755908
21
-1.707341496062992
0
LINE
8
BLACK
6
CONTINUOUS
10
6.8310077952755908
20
-1.707341496062992
11
6.8340827165354332
21
-1.6938693700787402
0
LINE
8
BLACK
6
CONTINUOUS
10
6.8340827165354332
20
-1.6938693700787402
11
6.8356299212598426
21
-1.6801376377952755
0
LINE
8
BLACK
6
CONTINUOUS
10
6.8356299212598426
20
-1.6801376377952755
11
6.8356299212598426
21
-1.6663190551181102
0
LINE
8
BLACK
6
CONTINUOUS
10
6.8356299212598426
20
-1.6663190551181102
11
6.8340827165354332
21
-1.6525873228346457
0
LINE
8
BLACK
6
CONTINUOUS
10
6.8340827165354332
20
-1.6525873228346457
11
6.8310077952755908
21
-1.6391151968503936
0
LINE
8
BLACK
6
CONTINUOUS
10
6.8310077952755908
20
-1.6391151968503936
11
6.826443818897638
21
-1.6260720472440944
0
LINE
8
BLACK
6
CONTINUOUS
10
6.826443818897638
20
-1.6260720472440944
11
6.8204481496062987
21
-1.6136219291338583
0
LINE
8
BLACK
6
CONTINUOUS
10
6.8204481496062987
20
-1.6136219291338583
11
6.813096220472441
21
-1.6019213779527559
0
LINE
8
BLACK
6
CONTINUOUS
10
6.813096220472441
20
-1.6019213779527559
11
6.8044804330708661
21
-1.5911175590551181
0
LINE
8
BLACK
6
CONTINUOUS
10
6.8044804330708661
20
-1.5911175590551181
11
6.7947092125984252
21
-1.5813463385826771
0
LINE
8
BLACK
6
CONTINUOUS
10
6.7947092125984252
20
-1.5813463385826771
11
6.7839053937007874
21
-1.5727305511811023
0
LINE
8
BLACK
6
CONTINUOUS
10
6.7839053937007874
20
-1.5727305511811023
11
6.7722048425196846
21
-1.5653786220472441
0
LINE
8
BLACK
6
CONTINUOUS
10
6.7722048425196846
20
-1.5653786220472441
11
6.7597547244094489
21
-1.5593829527559055
0
LINE
8
BLACK
6
CONTINUOUS
10
6.7597547244094489
20
-1.5593829527559055
11
6.7467115748031494
21
-1.5548189763779527
0
LINE
8
BLACK
6
CONTINUOUS
10
6.7467115748031494
20
-1.5548189763779527
11
6.7332394488188978
21
-1.5517440551181103
0
LINE
8
BLACK
6
CONTINUOUS
10
6.7332394488188978
20
-1.5517440551181103
11
6.7195077165354329
21
-1.5501968503937007
0
LINE
8
BLACK
6
CONTINUOUS
10
6.7195077165354329
20
-1.5501968503937007
11
6.7056891338582671
21
-1.5501968503937007
0
LINE
8
BLACK
6
CONTINUOUS
10
6.7056891338582671
20
-1.5501968503937007
11
6.6919574015748031
21
-1.5517440551181103
0
LINE
8
BLACK
6
CONTINUOUS
10
6.6919574015748031
20
-1.5517440551181103
11
6.6784852755905506
21
-1.5548189763779527
0
LINE
8
BLACK
6
CONTINUOUS
10
6.6784852755905506
20
-1.5548189763779527
11
6.665442125984252
21
-1.5593829527559055
0
LINE
8
BLACK
6
CONTINUOUS
10
6.665442125984252
20
-1.5593829527559055
11
6.6529920078740155
21
-1.5653786220472441
0
LINE
8
BLACK
6
CONTINUOUS
10
6.6529920078740155
20
-1.5653786220472441
11
6.6412914566929135
21
-1.5727305511811023
0
LINE
8
BLACK
6
CONTINUOUS
10
6.6412914566929135
20
-1.5727305511811023
11
6.6304876377952757
21
-1.5813463385826771
0
LINE
8
BLACK
6
CONTINUOUS
10
6.6304876377952757
20
-1.5813463385826771
11
6.6207164173228348
21
-1.5911175590551181
0
LINE
8
BLACK
6
CONTINUOUS
10
6.6207164173228348
20
-1.5911175590551181
11
6.6121006299212599
21
-1.6019213779527559
0
LINE
8
BLACK
6
CONTINUOUS
10
6.6121006299212599
20
-1.6019213779527559
11
6.6047487007874013
21
-1.6136219291338583
0
LINE
8
BLACK
6
CONTINUOUS
10
6.6047487007874013
20
-1.6136219291338583
11
6.598753031496063
21
-1.6260720472440944
0
LINE
8
BLACK
6
CONTINUOUS
10
6.598753031496063
20
-1.6260720472440944
11
6.5941890551181102
21
-1.6391151968503936
0
LINE
8
BLACK
6
CONTINUOUS
10
6.5941890551181102
20
-1.6391151968503936
11
6.5911141338582677
21
-1.6525873228346457
0
LINE
8
BLACK
6
CONTINUOUS
10
6.5911141338582677
20
-1.6525873228346457
11
6.5895669291338583
21
-1.6663190551181102
0
LINE
8
BLACK
6
CONTINUOUS
10
6.5895669291338583
20
-1.6663190551181102
11
6.5895669291338583
21
-1.6801376377952755
0
LINE
8
BLACK
6
CONTINUOUS
10
8.7207533070866141
20
-1.6981813385826772
11
8.7218186614173234
21
-1.6992466929133858
0
LINE
8
BLACK
6
CONTINUOUS
10
8.7218186614173234
20
-1.6992466929133858
11
8.7219685039370081
21
-1.7
0
LINE
8
BLACK
6
CONTINUOUS
10
8.7219685039370081
20
-1.7
11
8.7219685039370081
21
-1.77
0
LINE
8
BLACK
6
CONTINUOUS
10
8.7219685039370081
20
-1.77
11
8.7218186614173234
21
-1.7707533070866142
0
LINE
8
BLACK
6
CONTINUOUS
10
8.7218186614173234
20
-1.7707533070866142
11
8.7207533070866141
21
-1.7718186614173228
0
LINE
8
BLACK
6
CONTINUOUS
10
8.7207533070866141
20
-1.7718186614173228
11
8.7200000000000006
21
-1.7719685039370079
0
LINE
8
BLACK
6
CONTINUOUS
10
8.7200000000000006
20
-1.7719685039370079
11
8.3300000000000001
21
-1.7719685039370079
0
LINE
8
BLACK
6
CONTINUOUS
10
8.3300000000000001
20
-1.7719685039370079
11
8.3292466929133848
21
-1.7718186614173228
0
LINE
8
BLACK
6
CONTINUOUS
10
8.3292466929133848
20
-1.7718186614173228
11
8.3281813385826773
21
-1.7707533070866142
0
LINE
8
BLACK
6
CONTINUOUS
10
8.3281813385826773
20
-1.7707533070866142
11
8.3280314960629926
21
-1.77
0
LINE
8
BLACK
6
CONTINUOUS
10
8.3280314960629926
20
-1.77
11
8.3280314960629926
21
-1.7
0
LINE
8
BLACK
6
CONTINUOUS
10
8.3280314960629926
20
-1.7
11
8.3281813385826773
21
-1.6992466929133858
0
LINE
8
BLACK
6
CONTINUOUS
10
8.3281813385826773
20
-1.6992466929133858
11
8.3292466929133848
21
-1.6981813385826772
0
LINE
8
BLACK
6
CONTINUOUS
10
8.3292466929133848
20
-1.6981813385826772
11
8.3300000000000001
21
-1.6980314960629921
0
LINE
8
BLACK
6
CONTINUOUS
10
8.3300000000000001
20
-1.6980314960629921
11
8.7200000000000006
21
-1.6980314960629921
0
LINE
8
BLACK
6
CONTINUOUS
10
8.7200000000000006
20
-1.6980314960629921
11
8.7207533070866141
21
-1.6981813385826772
0
LINE
8
BLACK
6
CONTINUOUS
10
8.3319685039370075
20
-1.7019685039370078
11
8.3319685039370075
21
-1.7680314960629921
0
LINE
8
BLACK
6
CONTINUOUS
10
8.3319685039370075
20
-1.7680314960629921
11
8.7180314960629914
21
-1.7680314960629921
0
LINE
8
BLACK
6
CONTINUOUS
10
8.7180314960629914
20
-1.7680314960629921
11
8.7180314960629914
21
-1.7019685039370078
0
LINE
8
BLACK
6
CONTINUOUS
10
8.7180314960629914
20
-1.7019685039370078
11
8.3319685039370075
21
-1.7019685039370078
  0
ENDSEC
  0
EOF
